M48
;Layer_Color=9474304
;FILE_FORMAT=4:4
METRIC,LZ
;TYPE=PLATED
T1F00S00C0.3302
T2F00S00C0.5800
;TYPE=NON_PLATED
T3F00S00C3.0500
%
T01
X0119761Y0057785
X012192Y0058928
X0125095Y0068834
X0125984Y0069723
X012573Y007112
X0126365Y0072771
X0127Y0074041
X0127635Y0075311
X012827Y00762
X0128778Y007747
X0130175Y0078105
X0131445Y007874
X0132966Y0079248
X0111125Y0058357
X010922Y0058928
X0107823Y0059563
X0105791Y0060325
X0103759Y0061214
X01016Y0061849
X0101346Y0086233
X0099695Y0085598
X0097917Y0084582
X0095377Y008382
X009271Y0083058
X0091948Y0082042
X0089916Y008128
X0102997Y0086868
X0106045Y0087757
X0107569Y0088392
X0109855Y0089662
X0112141Y0090678
X0114173Y0091567
X0117348Y0092456
X0118999Y0093091
X0122047Y0094475
X0125095Y0093726
X0128905
T02
X0097975Y0066943
X0099245
X0100515
X0101785
X0103055
X0104325
X0105595
X0106865
X0108135
X0109405
X01135935Y00685759
Y00698459
Y00711159
Y00723859
Y00736559
Y00749259
Y00761959
Y00774659
X0109405Y0079168
X0108135
X0106865
X0105595
X0104325
X0103055
X0101785
X0100515
X0099245
X0097975
X00963685Y00774659
Y00761959
Y00749259
Y00736559
Y00723859
Y00711159
Y00698459
Y00685759
T03
X012573Y0056007
X008992Y0055959
Y0098801
X01141452Y0098839
M30
