G04*
G04 #@! TF.GenerationSoftware,Altium Limited,Altium Designer,23.1.1 (15)*
G04*
G04 Layer_Physical_Order=1*
G04 Layer_Color=255*
%FSLAX44Y44*%
%MOMM*%
G71*
G04*
G04 #@! TF.SameCoordinates,039F267E-1467-4E99-976D-C296C5409836*
G04*
G04*
G04 #@! TF.FilePolarity,Positive*
G04*
G01*
G75*
%ADD13R,2.8000X0.5500*%
%ADD19C,0.1260*%
%ADD20C,0.9000*%
%ADD21R,0.9000X0.9000*%
%ADD22R,0.9000X0.9000*%
%ADD23C,0.5080*%
D13*
X1348740Y792750D02*
D03*
Y864750D02*
D03*
Y944750D02*
D03*
Y800750D02*
D03*
Y808750D02*
D03*
Y816750D02*
D03*
Y824750D02*
D03*
Y832750D02*
D03*
Y840750D02*
D03*
Y848750D02*
D03*
Y856750D02*
D03*
Y872750D02*
D03*
Y880750D02*
D03*
Y888750D02*
D03*
Y896750D02*
D03*
Y904750D02*
D03*
Y912750D02*
D03*
Y920750D02*
D03*
Y928750D02*
D03*
Y936750D02*
D03*
D19*
X983184Y841759D02*
G03*
X983273Y841849I-4014J4061D01*
G01*
X1297727Y785102D02*
G03*
X1297629Y785002I4023J-4052D01*
G01*
X1092200Y589280D02*
X1175044D01*
X1228090Y642326D01*
X1174708Y583570D02*
X1233170Y642032D01*
X1111250Y583570D02*
X1174708D01*
X1078230Y595630D02*
X1176020D01*
X1221740Y641350D01*
X906032Y817132D02*
X909320Y820420D01*
X919480D01*
X927100Y747744D02*
Y830580D01*
Y747744D02*
X963685Y711159D01*
X1282070Y762630D02*
X1282700Y762000D01*
X1281430Y773947D02*
Y783590D01*
Y773947D02*
X1282070Y773307D01*
Y762630D02*
Y773307D01*
X1276350Y753110D02*
Y784860D01*
X1325880Y834390D01*
X1281430Y783590D02*
X1322590Y824750D01*
X906032Y744968D02*
X953770Y697230D01*
X906032Y744968D02*
Y817132D01*
X887730Y801370D02*
X899160Y812800D01*
X887730Y740410D02*
Y801370D01*
X953770Y697230D02*
X962456D01*
X963685Y698459D01*
X942381Y685759D02*
X963685D01*
X887730Y740410D02*
X942381Y685759D01*
X932180Y748037D02*
Y822960D01*
X945069Y735149D02*
X952387D01*
X932180Y748037D02*
X945069Y735149D01*
X963677Y723859D02*
X963685D01*
X952387Y735149D02*
X963677Y723859D01*
X947420Y838200D02*
X953770D01*
X932180Y822960D02*
X947420Y838200D01*
X938530Y811530D02*
X972820Y845820D01*
X938530Y754380D02*
Y811530D01*
X972820Y845820D02*
X979170D01*
X938530Y754380D02*
X956351Y736559D01*
X963685D01*
X943610Y759460D02*
Y802118D01*
X944348Y803378D02*
X983184Y841759D01*
X943610Y802118D02*
X943610Y802640D01*
X983273Y841849D02*
X996950Y855980D01*
X943610Y802640D02*
X944348Y803378D01*
X943610Y759460D02*
X953811Y749259D01*
X963685D01*
X963358Y762285D02*
X963685Y761959D01*
X957295Y762285D02*
X963358D01*
X951230Y768350D02*
X957295Y762285D01*
X951230Y768350D02*
Y800100D01*
X1013460Y862330D01*
X963685Y774659D02*
Y802395D01*
X1029970Y868680D01*
X979750Y791680D02*
Y803220D01*
X982980Y806450D01*
X989330D01*
X1060450Y877570D01*
X992450Y800680D02*
X1075690Y883920D01*
X992450Y791680D02*
Y800680D01*
X1005150Y803220D02*
X1098550Y896620D01*
X1005150Y791680D02*
Y803220D01*
X1017850D02*
X1121410Y906780D01*
X1017850Y791680D02*
Y803220D01*
X1030550Y804490D02*
X1141730Y915670D01*
X1030550Y791680D02*
Y804490D01*
X1068650Y791680D02*
Y792930D01*
X1220470Y944750D01*
X1043192Y804432D02*
X1163320Y924560D01*
X1043250Y791680D02*
Y799815D01*
X1043192Y799873D02*
Y804432D01*
Y799873D02*
X1043250Y799815D01*
X1163320Y924560D02*
X1173480D01*
X1179975Y920441D02*
X1179977D01*
X1181036Y921500D02*
Y921831D01*
X1180058Y920522D02*
X1181036Y921500D01*
Y921831D02*
X1189990Y930785D01*
Y930910D01*
X1179977Y920441D02*
X1180058Y920522D01*
X1055950Y801320D02*
X1056688Y802058D01*
X1055950Y791680D02*
Y800798D01*
X1056688Y802058D02*
X1179975Y920441D01*
X1055950Y800798D02*
X1055950Y801320D01*
X1331477Y786130D02*
X1346200D01*
X1314450Y787400D02*
X1315080Y786770D01*
X1330837D01*
X1331477Y786130D01*
X1346200D02*
X1348740Y788670D01*
Y792750D01*
X1314097Y795937D02*
Y795937D01*
X1301750Y781050D02*
X1302352Y781653D01*
Y784193D01*
X1314097Y795937D01*
Y795937D02*
X1314450Y796290D01*
X1314450Y796290D02*
X1314450D01*
X1314450Y796290D02*
X1314450Y796290D01*
X1321536Y808750D02*
X1348740D01*
X1318910Y800750D02*
X1348740D01*
X1293490Y780704D02*
X1297629Y785002D01*
X1314450Y796290D02*
X1318910Y800750D01*
X1293490Y780182D02*
X1293490Y780704D01*
X1297727Y785102D02*
X1321536Y808750D01*
X1293490Y730880D02*
Y780182D01*
X1287780Y774700D02*
Y781050D01*
X1323480Y816750D01*
X1348740D01*
X1221740Y641350D02*
Y831850D01*
X1244600Y614680D02*
Y815340D01*
X1233170Y824230D02*
X1299210Y890270D01*
X1228090Y829310D02*
X1295530Y896750D01*
X1250950Y688340D02*
Y806450D01*
X1206500Y651804D02*
Y849804D01*
X1217940Y839480D02*
X1291210Y912750D01*
X1233170Y642032D02*
Y824230D01*
X1238250Y618490D02*
Y817880D01*
X1228090Y642326D02*
Y829310D01*
X1217940Y648980D02*
Y839480D01*
X1197610Y577850D02*
X1238250Y618490D01*
X1206500Y849804D02*
X1283366Y926670D01*
X1212850Y652780D02*
Y844550D01*
X1244600Y815340D02*
X1302010Y872750D01*
X1173186Y618490D02*
X1206500Y651804D01*
X1172210Y612140D02*
X1212850Y652780D01*
X1219200Y589280D02*
X1244600Y614680D01*
X1172210Y603250D02*
X1217940Y648980D01*
X1212850Y844550D02*
X1287780Y919480D01*
X1221740Y831850D02*
X1296670Y906780D01*
X1238250Y817880D02*
X1301120Y880750D01*
X1259840Y697230D02*
X1293490Y730880D01*
X1196340Y664210D02*
Y882650D01*
X1201420Y652098D02*
Y864870D01*
X1196340Y882650D02*
X1250950Y937260D01*
X1201420Y864870D02*
X1281300Y944750D01*
X1177290Y645160D02*
X1196340Y664210D01*
X1181782Y632460D02*
X1201420Y652098D01*
X1322590Y824750D02*
X1348740D01*
X1347100Y834390D02*
X1348740Y832750D01*
X1325880Y834390D02*
X1347100D01*
X1270000Y788670D02*
X1322080Y840750D01*
X1270000Y740410D02*
Y788670D01*
X1263650Y727710D02*
Y796290D01*
X1316110Y848750D01*
X1257300Y711200D02*
Y801370D01*
X1314450Y858520D01*
X1250950Y806450D02*
X1309370Y864870D01*
X1316110Y848750D02*
X1348740D01*
X1322080Y840750D02*
X1348740D01*
X1314450Y858520D02*
X1346970D01*
X1348740Y856750D01*
X1037590Y612140D02*
X1172210D01*
X1057910Y603250D02*
X1172210D01*
X1004570Y645160D02*
X1177290D01*
X1016000Y618490D02*
X1173186D01*
X999490Y632460D02*
X1181782D01*
X979170Y652780D02*
X999490Y632460D01*
X992450Y657280D02*
X1004570Y645160D01*
X1309370Y864870D02*
X1348620D01*
X1348740Y864750D01*
X1302010Y872750D02*
X1348740D01*
X1301120Y880750D02*
X1348740D01*
X1299210Y890270D02*
X1347220D01*
X1348740Y888750D01*
X1295530Y896750D02*
X1348740D01*
X1346710Y906780D02*
X1348740Y904750D01*
X1296670Y906780D02*
X1346710D01*
X1291210Y912750D02*
X1348740D01*
X1287780Y919480D02*
X1347470D01*
X1283366Y926670D02*
X1346660D01*
X1281300Y944750D02*
X1348740D01*
X1347470Y919480D02*
X1348740Y920750D01*
X1346660Y926670D02*
X1348740Y928750D01*
X1348230Y937260D02*
X1348740Y936750D01*
X1289050Y937260D02*
X1348230D01*
X992450Y657280D02*
Y669430D01*
X979170Y668850D02*
X979750Y669430D01*
X979170Y652780D02*
Y668850D01*
D20*
X1094050Y669430D02*
D03*
X1081350D02*
D03*
X1068650D02*
D03*
X1055950D02*
D03*
X1043250D02*
D03*
X1030550D02*
D03*
X1017850D02*
D03*
X1005150D02*
D03*
X992450D02*
D03*
Y791680D02*
D03*
X1094050D02*
D03*
X1081350D02*
D03*
X1068650D02*
D03*
X1055950D02*
D03*
X1043250D02*
D03*
X1030550D02*
D03*
X1017850D02*
D03*
X1005150D02*
D03*
X1135935Y774659D02*
D03*
Y761959D02*
D03*
Y749259D02*
D03*
Y736559D02*
D03*
Y723859D02*
D03*
Y711159D02*
D03*
Y698459D02*
D03*
X963685Y774659D02*
D03*
Y761959D02*
D03*
Y749259D02*
D03*
Y736559D02*
D03*
Y723859D02*
D03*
Y711159D02*
D03*
Y698459D02*
D03*
D21*
X979750Y669430D02*
D03*
Y791680D02*
D03*
D22*
X1135935Y685759D02*
D03*
X963685D02*
D03*
D23*
X1092200Y589280D02*
D03*
X1111250Y583570D02*
D03*
X919480Y820420D02*
D03*
X1282700Y762000D02*
D03*
X899160Y812800D02*
D03*
X927100Y830580D02*
D03*
X953770Y838200D02*
D03*
X979170Y845820D02*
D03*
X996950Y855980D02*
D03*
X1013460Y862330D02*
D03*
X1029970Y868680D02*
D03*
X1060450Y877570D02*
D03*
X1075690Y883920D02*
D03*
X1098550Y896620D02*
D03*
X1121410Y906780D02*
D03*
X1220470Y944750D02*
D03*
X1141730Y915670D02*
D03*
X1173480Y924560D02*
D03*
X1189990Y930910D02*
D03*
X1314450Y787400D02*
D03*
X1301750Y781050D02*
D03*
X1329660Y792480D02*
D03*
X1287780Y774700D02*
D03*
X1250950Y688340D02*
D03*
X1259840Y697230D02*
D03*
X1276350Y753110D02*
D03*
X1270000Y740410D02*
D03*
X1263650Y727710D02*
D03*
X1257300Y711200D02*
D03*
X1197610Y577850D02*
D03*
X1219200Y589280D02*
D03*
X1078230Y595630D02*
D03*
X1057910Y603250D02*
D03*
X1037590Y612140D02*
D03*
X1016000Y618490D02*
D03*
X1289050Y937260D02*
D03*
X1250950D02*
D03*
M02*
