G04*
G04 #@! TF.GenerationSoftware,Altium Limited,Altium Designer,23.1.1 (15)*
G04*
G04 Layer_Physical_Order=2*
G04 Layer_Color=36540*
%FSLAX44Y44*%
%MOMM*%
G71*
G04*
G04 #@! TF.SameCoordinates,039F267E-1467-4E99-976D-C296C5409836*
G04*
G04*
G04 #@! TF.FilePolarity,Positive*
G04*
G01*
G75*
%ADD20C,0.9000*%
%ADD21R,0.9000X0.9000*%
%ADD22R,0.9000X0.9000*%
%ADD23C,0.5080*%
G36*
X1315720Y953860D02*
X1374010D01*
Y780960D01*
X1318528D01*
X1317757Y783500D01*
X1318112Y783737D01*
X1319235Y785418D01*
X1319630Y787400D01*
X1319235Y789382D01*
X1318112Y791062D01*
X1316432Y792185D01*
X1314450Y792579D01*
X1312468Y792185D01*
X1310788Y791062D01*
X1309665Y789382D01*
X1309270Y787400D01*
X1309665Y785418D01*
X1310788Y783737D01*
X1312468Y782615D01*
X1313759Y782358D01*
X1314765Y781641D01*
X1315720Y779883D01*
Y528320D01*
X820420D01*
Y1028380D01*
X1315720D01*
Y953860D01*
D02*
G37*
%LPC*%
G36*
X1141452Y1006011D02*
X1138014Y1005672D01*
X1134708Y1004669D01*
X1131662Y1003041D01*
X1128992Y1000850D01*
X1126800Y998180D01*
X1125172Y995133D01*
X1124169Y991828D01*
X1123831Y988390D01*
X1124169Y984952D01*
X1125172Y981647D01*
X1126800Y978600D01*
X1128992Y975930D01*
X1131662Y973739D01*
X1134708Y972111D01*
X1138014Y971108D01*
X1141452Y970769D01*
X1144889Y971108D01*
X1148195Y972111D01*
X1151241Y973739D01*
X1153911Y975930D01*
X1156103Y978600D01*
X1157731Y981647D01*
X1158734Y984952D01*
X1159072Y988390D01*
X1158734Y991828D01*
X1157731Y995133D01*
X1156103Y998180D01*
X1153911Y1000850D01*
X1151241Y1003041D01*
X1148195Y1004669D01*
X1144889Y1005672D01*
X1141452Y1006011D01*
D02*
G37*
G36*
X899200Y1005631D02*
X895762Y1005292D01*
X892457Y1004289D01*
X889410Y1002661D01*
X886740Y1000470D01*
X884549Y997800D01*
X882921Y994753D01*
X881918Y991448D01*
X881579Y988010D01*
X881918Y984572D01*
X882921Y981267D01*
X884549Y978220D01*
X886740Y975550D01*
X889410Y973359D01*
X892457Y971730D01*
X895762Y970728D01*
X899200Y970389D01*
X902638Y970728D01*
X905943Y971730D01*
X908990Y973359D01*
X911660Y975550D01*
X913851Y978220D01*
X915480Y981267D01*
X916482Y984572D01*
X916821Y988010D01*
X916482Y991448D01*
X915480Y994753D01*
X913851Y997800D01*
X911660Y1000470D01*
X908990Y1002661D01*
X905943Y1004289D01*
X902638Y1005292D01*
X899200Y1005631D01*
D02*
G37*
G36*
X1220470Y949930D02*
X1218488Y949535D01*
X1216807Y948412D01*
X1215685Y946732D01*
X1215291Y944750D01*
X1215685Y942768D01*
X1216807Y941087D01*
X1218488Y939965D01*
X1220470Y939570D01*
X1222452Y939965D01*
X1224133Y941087D01*
X1225255Y942768D01*
X1225649Y944750D01*
X1225255Y946732D01*
X1224133Y948412D01*
X1222452Y949535D01*
X1220470Y949930D01*
D02*
G37*
G36*
X1289050Y942439D02*
X1287068Y942045D01*
X1285388Y940922D01*
X1284265Y939242D01*
X1283871Y937260D01*
X1284265Y935278D01*
X1285388Y933597D01*
X1287068Y932475D01*
X1289050Y932081D01*
X1291032Y932475D01*
X1292713Y933597D01*
X1293835Y935278D01*
X1294229Y937260D01*
X1293835Y939242D01*
X1292713Y940922D01*
X1291032Y942045D01*
X1289050Y942439D01*
D02*
G37*
G36*
X1250950D02*
X1248968Y942045D01*
X1247288Y940922D01*
X1246165Y939242D01*
X1245770Y937260D01*
X1246165Y935278D01*
X1247288Y933597D01*
X1248968Y932475D01*
X1250950Y932081D01*
X1252932Y932475D01*
X1254613Y933597D01*
X1255735Y935278D01*
X1256130Y937260D01*
X1255735Y939242D01*
X1254613Y940922D01*
X1252932Y942045D01*
X1250950Y942439D01*
D02*
G37*
G36*
X1189990Y936089D02*
X1188008Y935695D01*
X1186328Y934573D01*
X1185205Y932892D01*
X1184810Y930910D01*
X1185205Y928928D01*
X1186328Y927247D01*
X1188008Y926125D01*
X1189990Y925731D01*
X1191972Y926125D01*
X1193652Y927247D01*
X1194775Y928928D01*
X1195170Y930910D01*
X1194775Y932892D01*
X1193652Y934573D01*
X1191972Y935695D01*
X1189990Y936089D01*
D02*
G37*
G36*
X1173480Y929740D02*
X1171498Y929345D01*
X1169818Y928223D01*
X1168695Y926542D01*
X1168300Y924560D01*
X1168695Y922578D01*
X1169818Y920898D01*
X1171498Y919775D01*
X1173480Y919380D01*
X1175462Y919775D01*
X1177142Y920898D01*
X1178265Y922578D01*
X1178660Y924560D01*
X1178265Y926542D01*
X1177142Y928223D01*
X1175462Y929345D01*
X1173480Y929740D01*
D02*
G37*
G36*
X1141730Y920850D02*
X1139748Y920455D01*
X1138067Y919333D01*
X1136945Y917652D01*
X1136551Y915670D01*
X1136945Y913688D01*
X1138067Y912008D01*
X1139748Y910885D01*
X1141730Y910490D01*
X1143712Y910885D01*
X1145393Y912008D01*
X1146515Y913688D01*
X1146909Y915670D01*
X1146515Y917652D01*
X1145393Y919333D01*
X1143712Y920455D01*
X1141730Y920850D01*
D02*
G37*
G36*
X1121410Y911960D02*
X1119428Y911565D01*
X1117747Y910443D01*
X1116625Y908762D01*
X1116230Y906780D01*
X1116625Y904798D01*
X1117747Y903118D01*
X1119428Y901995D01*
X1121410Y901600D01*
X1123392Y901995D01*
X1125072Y903118D01*
X1126195Y904798D01*
X1126590Y906780D01*
X1126195Y908762D01*
X1125072Y910443D01*
X1123392Y911565D01*
X1121410Y911960D01*
D02*
G37*
G36*
X1098550Y901799D02*
X1096568Y901405D01*
X1094887Y900283D01*
X1093765Y898602D01*
X1093371Y896620D01*
X1093765Y894638D01*
X1094887Y892958D01*
X1096568Y891835D01*
X1098550Y891441D01*
X1100532Y891835D01*
X1102213Y892958D01*
X1103335Y894638D01*
X1103729Y896620D01*
X1103335Y898602D01*
X1102213Y900283D01*
X1100532Y901405D01*
X1098550Y901799D01*
D02*
G37*
G36*
X1075690Y889100D02*
X1073708Y888705D01*
X1072028Y887582D01*
X1070905Y885902D01*
X1070510Y883920D01*
X1070905Y881938D01*
X1072028Y880257D01*
X1073708Y879135D01*
X1075690Y878740D01*
X1077672Y879135D01*
X1079352Y880257D01*
X1080475Y881938D01*
X1080870Y883920D01*
X1080475Y885902D01*
X1079352Y887582D01*
X1077672Y888705D01*
X1075690Y889100D01*
D02*
G37*
G36*
X1060450Y882749D02*
X1058468Y882355D01*
X1056787Y881233D01*
X1055665Y879552D01*
X1055270Y877570D01*
X1055665Y875588D01*
X1056787Y873907D01*
X1058468Y872785D01*
X1060450Y872391D01*
X1062432Y872785D01*
X1064112Y873907D01*
X1065235Y875588D01*
X1065630Y877570D01*
X1065235Y879552D01*
X1064112Y881233D01*
X1062432Y882355D01*
X1060450Y882749D01*
D02*
G37*
G36*
X1029970Y873859D02*
X1027988Y873465D01*
X1026308Y872343D01*
X1025185Y870662D01*
X1024790Y868680D01*
X1025185Y866698D01*
X1026308Y865017D01*
X1027988Y863895D01*
X1029970Y863501D01*
X1031952Y863895D01*
X1033633Y865017D01*
X1034755Y866698D01*
X1035150Y868680D01*
X1034755Y870662D01*
X1033633Y872343D01*
X1031952Y873465D01*
X1029970Y873859D01*
D02*
G37*
G36*
X1013460Y867510D02*
X1011478Y867115D01*
X1009798Y865993D01*
X1008675Y864312D01*
X1008280Y862330D01*
X1008675Y860348D01*
X1009798Y858668D01*
X1011478Y857545D01*
X1013460Y857150D01*
X1015442Y857545D01*
X1017122Y858668D01*
X1018245Y860348D01*
X1018640Y862330D01*
X1018245Y864312D01*
X1017122Y865993D01*
X1015442Y867115D01*
X1013460Y867510D01*
D02*
G37*
G36*
X996950Y861160D02*
X994968Y860765D01*
X993288Y859642D01*
X992165Y857962D01*
X991770Y855980D01*
X992165Y853998D01*
X993288Y852318D01*
X994968Y851195D01*
X996950Y850800D01*
X998932Y851195D01*
X1000612Y852318D01*
X1001735Y853998D01*
X1002130Y855980D01*
X1001735Y857962D01*
X1000612Y859642D01*
X998932Y860765D01*
X996950Y861160D01*
D02*
G37*
G36*
X979170Y851000D02*
X977188Y850605D01*
X975508Y849482D01*
X974385Y847802D01*
X973990Y845820D01*
X974385Y843838D01*
X975508Y842158D01*
X977188Y841035D01*
X979170Y840640D01*
X981152Y841035D01*
X982832Y842158D01*
X983955Y843838D01*
X984350Y845820D01*
X983955Y847802D01*
X982832Y849482D01*
X981152Y850605D01*
X979170Y851000D01*
D02*
G37*
G36*
X953770Y843380D02*
X951788Y842985D01*
X950107Y841862D01*
X948985Y840182D01*
X948590Y838200D01*
X948985Y836218D01*
X950107Y834538D01*
X951788Y833415D01*
X953770Y833020D01*
X955752Y833415D01*
X957432Y834538D01*
X958555Y836218D01*
X958950Y838200D01*
X958555Y840182D01*
X957432Y841862D01*
X955752Y842985D01*
X953770Y843380D01*
D02*
G37*
G36*
X927100Y835760D02*
X925118Y835365D01*
X923438Y834242D01*
X922315Y832562D01*
X921920Y830580D01*
X922315Y828598D01*
X923156Y827338D01*
X921792Y825195D01*
X921462Y825205D01*
X921005Y825296D01*
X919480Y825600D01*
X917498Y825205D01*
X915817Y824082D01*
X914695Y822402D01*
X914301Y820420D01*
X914695Y818438D01*
X915817Y816758D01*
X917498Y815635D01*
X919480Y815240D01*
X921462Y815635D01*
X923142Y816758D01*
X924265Y818438D01*
X924660Y820420D01*
X924265Y822402D01*
X923424Y823662D01*
X924788Y825805D01*
X925118Y825795D01*
X925575Y825704D01*
X927100Y825400D01*
X929082Y825795D01*
X930762Y826917D01*
X931885Y828598D01*
X932280Y830580D01*
X931885Y832562D01*
X930762Y834242D01*
X929082Y835365D01*
X927100Y835760D01*
D02*
G37*
G36*
X899160Y817980D02*
X897178Y817585D01*
X895498Y816462D01*
X894375Y814782D01*
X893980Y812800D01*
X894375Y810818D01*
X895498Y809137D01*
X897178Y808015D01*
X899160Y807620D01*
X901142Y808015D01*
X902822Y809137D01*
X903945Y810818D01*
X904340Y812800D01*
X903945Y814782D01*
X902822Y816462D01*
X901142Y817585D01*
X899160Y817980D01*
D02*
G37*
G36*
X1094050Y798781D02*
X1092212Y798539D01*
X1090500Y797829D01*
X1089371Y796964D01*
X1088406Y796701D01*
X1086994D01*
X1086029Y796964D01*
X1084900Y797829D01*
X1083188Y798539D01*
X1081350Y798781D01*
X1079512Y798539D01*
X1077800Y797829D01*
X1076671Y796964D01*
X1075706Y796701D01*
X1074294D01*
X1073329Y796964D01*
X1072200Y797829D01*
X1070488Y798539D01*
X1068650Y798781D01*
X1066812Y798539D01*
X1065100Y797829D01*
X1063971Y796964D01*
X1063006Y796701D01*
X1061594D01*
X1060629Y796964D01*
X1059500Y797829D01*
X1057788Y798539D01*
X1055950Y798781D01*
X1054112Y798539D01*
X1052400Y797829D01*
X1051271Y796964D01*
X1050306Y796701D01*
X1048894D01*
X1047929Y796964D01*
X1046800Y797829D01*
X1045088Y798539D01*
X1043250Y798781D01*
X1041412Y798539D01*
X1039700Y797829D01*
X1038571Y796964D01*
X1037606Y796701D01*
X1036194D01*
X1035229Y796964D01*
X1034100Y797829D01*
X1032388Y798539D01*
X1030550Y798781D01*
X1028712Y798539D01*
X1027000Y797829D01*
X1025871Y796964D01*
X1024906Y796701D01*
X1023494D01*
X1022529Y796964D01*
X1021400Y797829D01*
X1019688Y798539D01*
X1017850Y798781D01*
X1016012Y798539D01*
X1014300Y797829D01*
X1013171Y796964D01*
X1012206Y796701D01*
X1010794D01*
X1009829Y796964D01*
X1008700Y797829D01*
X1006988Y798539D01*
X1005150Y798781D01*
X1003312Y798539D01*
X1001600Y797829D01*
X1000471Y796964D01*
X999506Y796701D01*
X998094D01*
X997129Y796964D01*
X996000Y797829D01*
X994288Y798539D01*
X992450Y798781D01*
X990612Y798539D01*
X989330Y798008D01*
X986790Y798720D01*
Y798720D01*
X972710D01*
Y784640D01*
X986790D01*
X986790Y784640D01*
X989330Y785352D01*
X990612Y784821D01*
X992450Y784579D01*
X994288Y784821D01*
X996000Y785531D01*
X997129Y786396D01*
X998094Y786659D01*
X999506D01*
X1000471Y786396D01*
X1001600Y785531D01*
X1003312Y784821D01*
X1005150Y784579D01*
X1006988Y784821D01*
X1008700Y785531D01*
X1009829Y786396D01*
X1010794Y786659D01*
X1012206D01*
X1013171Y786396D01*
X1014300Y785531D01*
X1016012Y784821D01*
X1017850Y784579D01*
X1019688Y784821D01*
X1021400Y785531D01*
X1022529Y786396D01*
X1023494Y786659D01*
X1024906D01*
X1025871Y786396D01*
X1027000Y785531D01*
X1028712Y784821D01*
X1030550Y784579D01*
X1032388Y784821D01*
X1034100Y785531D01*
X1035229Y786396D01*
X1036194Y786659D01*
X1037606D01*
X1038571Y786396D01*
X1039700Y785531D01*
X1041412Y784821D01*
X1043250Y784579D01*
X1045088Y784821D01*
X1046800Y785531D01*
X1047929Y786396D01*
X1048894Y786659D01*
X1050306D01*
X1051271Y786396D01*
X1052400Y785531D01*
X1054112Y784821D01*
X1055950Y784579D01*
X1057788Y784821D01*
X1059500Y785531D01*
X1060629Y786396D01*
X1061594Y786659D01*
X1063006D01*
X1063971Y786396D01*
X1065100Y785531D01*
X1066812Y784821D01*
X1068650Y784579D01*
X1070488Y784821D01*
X1072200Y785531D01*
X1073329Y786396D01*
X1074294Y786659D01*
X1075706D01*
X1076671Y786396D01*
X1077800Y785531D01*
X1079512Y784821D01*
X1081350Y784579D01*
X1083188Y784821D01*
X1084900Y785531D01*
X1086029Y786396D01*
X1086994Y786659D01*
X1088406D01*
X1089371Y786396D01*
X1090500Y785531D01*
X1092212Y784821D01*
X1094050Y784579D01*
X1095888Y784821D01*
X1097600Y785531D01*
X1099071Y786659D01*
X1100200Y788130D01*
X1100909Y789842D01*
X1101151Y791680D01*
X1100909Y793518D01*
X1100200Y795230D01*
X1099071Y796701D01*
X1097600Y797829D01*
X1095888Y798539D01*
X1094050Y798781D01*
D02*
G37*
G36*
X1330930Y797407D02*
Y793750D01*
X1334587D01*
X1334445Y794462D01*
X1333322Y796143D01*
X1331642Y797265D01*
X1330930Y797407D01*
D02*
G37*
G36*
X1328390D02*
X1327678Y797265D01*
X1325997Y796143D01*
X1324875Y794462D01*
X1324733Y793750D01*
X1328390D01*
Y797407D01*
D02*
G37*
G36*
X1334587Y791210D02*
X1330930D01*
Y787553D01*
X1331642Y787695D01*
X1333322Y788818D01*
X1334445Y790498D01*
X1334587Y791210D01*
D02*
G37*
G36*
X1328390D02*
X1324733D01*
X1324875Y790498D01*
X1325997Y788818D01*
X1327678Y787695D01*
X1328390Y787553D01*
Y791210D01*
D02*
G37*
G36*
X1301750Y786229D02*
X1299768Y785835D01*
X1298087Y784713D01*
X1296965Y783032D01*
X1296570Y781050D01*
X1296965Y779068D01*
X1298087Y777387D01*
X1299768Y776265D01*
X1301750Y775871D01*
X1303732Y776265D01*
X1305412Y777387D01*
X1306535Y779068D01*
X1306929Y781050D01*
X1306535Y783032D01*
X1305412Y784713D01*
X1303732Y785835D01*
X1301750Y786229D01*
D02*
G37*
G36*
X1287780Y779880D02*
X1285798Y779485D01*
X1284117Y778363D01*
X1282995Y776682D01*
X1282601Y774700D01*
X1282995Y772718D01*
X1284117Y771038D01*
X1285798Y769915D01*
X1287780Y769520D01*
X1289762Y769915D01*
X1291443Y771038D01*
X1292565Y772718D01*
X1292959Y774700D01*
X1292565Y776682D01*
X1291443Y778363D01*
X1289762Y779485D01*
X1287780Y779880D01*
D02*
G37*
G36*
X1282700Y767179D02*
X1280718Y766785D01*
X1279037Y765663D01*
X1277915Y763982D01*
X1277521Y762000D01*
X1277801Y760591D01*
X1276710Y758861D01*
X1276054Y758231D01*
X1274368Y757895D01*
X1272688Y756773D01*
X1271565Y755092D01*
X1271171Y753110D01*
X1271565Y751128D01*
X1272688Y749447D01*
X1274368Y748325D01*
X1276350Y747931D01*
X1278332Y748325D01*
X1280013Y749447D01*
X1281135Y751128D01*
X1281530Y753110D01*
X1281249Y754519D01*
X1282340Y756249D01*
X1282996Y756879D01*
X1284682Y757215D01*
X1286362Y758337D01*
X1287485Y760018D01*
X1287879Y762000D01*
X1287485Y763982D01*
X1286362Y765663D01*
X1284682Y766785D01*
X1282700Y767179D01*
D02*
G37*
G36*
X1270000Y745590D02*
X1268018Y745195D01*
X1266338Y744072D01*
X1265215Y742392D01*
X1264820Y740410D01*
X1265215Y738428D01*
X1266338Y736748D01*
X1268018Y735625D01*
X1270000Y735230D01*
X1271982Y735625D01*
X1273662Y736748D01*
X1274785Y738428D01*
X1275180Y740410D01*
X1274785Y742392D01*
X1273662Y744072D01*
X1271982Y745195D01*
X1270000Y745590D01*
D02*
G37*
G36*
X1263650Y732889D02*
X1261668Y732495D01*
X1259987Y731373D01*
X1258865Y729692D01*
X1258471Y727710D01*
X1258865Y725728D01*
X1259987Y724047D01*
X1261668Y722925D01*
X1263650Y722531D01*
X1265632Y722925D01*
X1267312Y724047D01*
X1268435Y725728D01*
X1268829Y727710D01*
X1268435Y729692D01*
X1267312Y731373D01*
X1265632Y732495D01*
X1263650Y732889D01*
D02*
G37*
G36*
X1257300Y716379D02*
X1255318Y715985D01*
X1253637Y714863D01*
X1252515Y713182D01*
X1252121Y711200D01*
X1252515Y709218D01*
X1253637Y707538D01*
X1255318Y706415D01*
X1257300Y706021D01*
X1259282Y706415D01*
X1260963Y707538D01*
X1262085Y709218D01*
X1262479Y711200D01*
X1262085Y713182D01*
X1260963Y714863D01*
X1259282Y715985D01*
X1257300Y716379D01*
D02*
G37*
G36*
X1259840Y702410D02*
X1257858Y702015D01*
X1256178Y700892D01*
X1255055Y699212D01*
X1254660Y697230D01*
X1255055Y695248D01*
X1255641Y694370D01*
X1253810Y692539D01*
X1252932Y693125D01*
X1250950Y693520D01*
X1248968Y693125D01*
X1247288Y692002D01*
X1246165Y690322D01*
X1245770Y688340D01*
X1246165Y686358D01*
X1247288Y684678D01*
X1248968Y683555D01*
X1250950Y683160D01*
X1252932Y683555D01*
X1254613Y684678D01*
X1255735Y686358D01*
X1256130Y688340D01*
X1255735Y690322D01*
X1255149Y691200D01*
X1256980Y693031D01*
X1257858Y692445D01*
X1259840Y692050D01*
X1261822Y692445D01*
X1263503Y693568D01*
X1264625Y695248D01*
X1265020Y697230D01*
X1264625Y699212D01*
X1263503Y700892D01*
X1261822Y702015D01*
X1259840Y702410D01*
D02*
G37*
G36*
X1118105Y781100D02*
X979935D01*
X978944Y780903D01*
X978010Y780516D01*
X977170Y779955D01*
X976456Y779240D01*
X975894Y778400D01*
X975507Y777466D01*
X975310Y776475D01*
Y775970D01*
Y687070D01*
Y686565D01*
X975507Y685574D01*
X975894Y684640D01*
X976456Y683800D01*
X977170Y683085D01*
X978010Y682524D01*
X978944Y682137D01*
X979935Y681940D01*
X1118105D01*
X1119096Y682137D01*
X1120030Y682524D01*
X1120870Y683085D01*
X1121584Y683800D01*
X1122146Y684640D01*
X1122533Y685574D01*
X1122730Y686565D01*
Y687070D01*
Y775970D01*
Y776475D01*
X1122533Y777466D01*
X1122146Y778400D01*
X1121584Y779240D01*
X1120870Y779955D01*
X1120030Y780516D01*
X1119096Y780903D01*
X1118105Y781100D01*
D02*
G37*
G36*
X1135935Y781759D02*
X1134097Y781518D01*
X1132384Y780808D01*
X1130914Y779680D01*
X1129785Y778209D01*
X1129076Y776497D01*
X1128834Y774659D01*
X1129076Y772821D01*
X1129785Y771108D01*
X1130914Y769638D01*
Y766980D01*
X1129785Y765509D01*
X1129076Y763797D01*
X1128834Y761959D01*
X1129076Y760121D01*
X1129785Y758408D01*
X1130914Y756938D01*
Y754280D01*
X1129785Y752809D01*
X1129076Y751097D01*
X1128834Y749259D01*
X1129076Y747421D01*
X1129785Y745708D01*
X1130914Y744238D01*
Y741580D01*
X1129785Y740109D01*
X1129076Y738397D01*
X1128834Y736559D01*
X1129076Y734721D01*
X1129785Y733008D01*
X1130914Y731538D01*
Y728880D01*
X1129785Y727409D01*
X1129076Y725697D01*
X1128834Y723859D01*
X1129076Y722021D01*
X1129785Y720308D01*
X1130914Y718838D01*
Y716180D01*
X1129785Y714709D01*
X1129076Y712997D01*
X1128834Y711159D01*
X1129076Y709321D01*
X1129785Y707608D01*
X1130914Y706138D01*
Y703480D01*
X1129785Y702009D01*
X1129076Y700297D01*
X1128834Y698459D01*
X1129076Y696621D01*
X1129607Y695339D01*
X1128895Y692799D01*
X1128895D01*
Y678719D01*
X1142975D01*
Y692799D01*
X1142975Y692799D01*
X1142262Y695339D01*
X1142794Y696621D01*
X1143036Y698459D01*
X1142794Y700297D01*
X1142084Y702009D01*
X1140956Y703480D01*
Y706138D01*
X1142084Y707608D01*
X1142794Y709321D01*
X1143036Y711159D01*
X1142794Y712997D01*
X1142084Y714709D01*
X1140956Y716180D01*
Y718838D01*
X1142084Y720308D01*
X1142794Y722021D01*
X1143036Y723859D01*
X1142794Y725697D01*
X1142084Y727409D01*
X1140956Y728880D01*
Y731538D01*
X1142084Y733008D01*
X1142794Y734721D01*
X1143036Y736559D01*
X1142794Y738397D01*
X1142084Y740109D01*
X1140956Y741580D01*
Y744238D01*
X1142084Y745708D01*
X1142794Y747421D01*
X1143036Y749259D01*
X1142794Y751097D01*
X1142084Y752809D01*
X1140956Y754280D01*
Y756938D01*
X1142084Y758408D01*
X1142794Y760121D01*
X1143036Y761959D01*
X1142794Y763797D01*
X1142084Y765509D01*
X1140956Y766980D01*
Y769638D01*
X1142084Y771108D01*
X1142794Y772821D01*
X1143036Y774659D01*
X1142794Y776497D01*
X1142084Y778209D01*
X1140956Y779680D01*
X1139485Y780808D01*
X1137773Y781518D01*
X1135935Y781759D01*
D02*
G37*
G36*
X963685D02*
X961847Y781518D01*
X960134Y780808D01*
X958664Y779680D01*
X957535Y778209D01*
X956826Y776497D01*
X956584Y774659D01*
X956826Y772821D01*
X957535Y771108D01*
X958664Y769638D01*
Y766980D01*
X957535Y765509D01*
X956826Y763797D01*
X956584Y761959D01*
X956826Y760121D01*
X957535Y758408D01*
X958664Y756938D01*
Y754280D01*
X957535Y752809D01*
X956826Y751097D01*
X956584Y749259D01*
X956826Y747421D01*
X957535Y745708D01*
X958664Y744238D01*
Y741580D01*
X957535Y740109D01*
X956826Y738397D01*
X956584Y736559D01*
X956826Y734721D01*
X957535Y733008D01*
X958664Y731538D01*
Y728880D01*
X957535Y727409D01*
X956826Y725697D01*
X956584Y723859D01*
X956826Y722021D01*
X957535Y720308D01*
X958664Y718838D01*
Y716180D01*
X957535Y714709D01*
X956826Y712997D01*
X956584Y711159D01*
X956826Y709321D01*
X957535Y707608D01*
X958664Y706138D01*
Y703480D01*
X957535Y702009D01*
X956826Y700297D01*
X956584Y698459D01*
X956826Y696621D01*
X957357Y695339D01*
X956645Y692799D01*
X956645D01*
Y678719D01*
X970725D01*
Y692799D01*
X970725Y692799D01*
X970013Y695339D01*
X970544Y696621D01*
X970786Y698459D01*
X970544Y700297D01*
X969834Y702009D01*
X968706Y703480D01*
Y706138D01*
X969834Y707608D01*
X970544Y709321D01*
X970786Y711159D01*
X970544Y712997D01*
X969834Y714709D01*
X968706Y716180D01*
Y718838D01*
X969834Y720308D01*
X970544Y722021D01*
X970786Y723859D01*
X970544Y725697D01*
X969834Y727409D01*
X968706Y728880D01*
Y731538D01*
X969834Y733008D01*
X970544Y734721D01*
X970786Y736559D01*
X970544Y738397D01*
X969834Y740109D01*
X968706Y741580D01*
Y744238D01*
X969834Y745708D01*
X970544Y747421D01*
X970786Y749259D01*
X970544Y751097D01*
X969834Y752809D01*
X968706Y754280D01*
Y756938D01*
X969834Y758408D01*
X970544Y760121D01*
X970786Y761959D01*
X970544Y763797D01*
X969834Y765509D01*
X968706Y766980D01*
Y769638D01*
X969834Y771108D01*
X970544Y772821D01*
X970786Y774659D01*
X970544Y776497D01*
X969834Y778209D01*
X968706Y779680D01*
X967235Y780808D01*
X965523Y781518D01*
X963685Y781759D01*
D02*
G37*
G36*
X1094050Y676531D02*
X1092212Y676289D01*
X1090500Y675579D01*
X1089371Y674714D01*
X1088406Y674451D01*
X1086994D01*
X1086029Y674714D01*
X1084900Y675579D01*
X1083188Y676289D01*
X1081350Y676531D01*
X1079512Y676289D01*
X1077800Y675579D01*
X1076671Y674714D01*
X1075706Y674451D01*
X1074294D01*
X1073329Y674714D01*
X1072200Y675579D01*
X1070488Y676289D01*
X1068650Y676531D01*
X1066812Y676289D01*
X1065100Y675579D01*
X1063971Y674714D01*
X1063006Y674451D01*
X1061594D01*
X1060629Y674714D01*
X1059500Y675579D01*
X1057788Y676289D01*
X1055950Y676531D01*
X1054112Y676289D01*
X1052400Y675579D01*
X1051271Y674714D01*
X1050306Y674451D01*
X1048894D01*
X1047929Y674714D01*
X1046800Y675579D01*
X1045088Y676289D01*
X1043250Y676531D01*
X1041412Y676289D01*
X1039700Y675579D01*
X1038571Y674714D01*
X1037606Y674451D01*
X1036194D01*
X1035229Y674714D01*
X1034100Y675579D01*
X1032388Y676289D01*
X1030550Y676531D01*
X1028712Y676289D01*
X1027000Y675579D01*
X1025871Y674714D01*
X1024906Y674451D01*
X1023494D01*
X1022529Y674714D01*
X1021400Y675579D01*
X1019688Y676289D01*
X1017850Y676531D01*
X1016012Y676289D01*
X1014300Y675579D01*
X1013171Y674714D01*
X1012206Y674451D01*
X1010794D01*
X1009829Y674714D01*
X1008700Y675579D01*
X1006988Y676289D01*
X1005150Y676531D01*
X1003312Y676289D01*
X1001600Y675579D01*
X1000471Y674714D01*
X999506Y674451D01*
X998094D01*
X997129Y674714D01*
X996000Y675579D01*
X994288Y676289D01*
X992450Y676531D01*
X990612Y676289D01*
X989330Y675758D01*
X986790Y676470D01*
Y676470D01*
X972710D01*
Y662390D01*
X986790D01*
X986790Y662390D01*
X989330Y663102D01*
X990612Y662571D01*
X992450Y662329D01*
X994288Y662571D01*
X996000Y663281D01*
X997129Y664146D01*
X998094Y664409D01*
X999506D01*
X1000471Y664146D01*
X1001600Y663281D01*
X1003312Y662571D01*
X1005150Y662329D01*
X1006988Y662571D01*
X1008700Y663281D01*
X1009829Y664146D01*
X1010794Y664409D01*
X1012206D01*
X1013171Y664146D01*
X1014300Y663281D01*
X1016012Y662571D01*
X1017850Y662329D01*
X1019688Y662571D01*
X1021400Y663281D01*
X1022529Y664146D01*
X1023494Y664409D01*
X1024906D01*
X1025871Y664146D01*
X1027000Y663281D01*
X1028712Y662571D01*
X1030550Y662329D01*
X1032388Y662571D01*
X1034100Y663281D01*
X1035229Y664146D01*
X1036194Y664409D01*
X1037606D01*
X1038571Y664146D01*
X1039700Y663281D01*
X1041412Y662571D01*
X1043250Y662329D01*
X1045088Y662571D01*
X1046800Y663281D01*
X1047929Y664146D01*
X1048894Y664409D01*
X1050306D01*
X1051271Y664146D01*
X1052400Y663281D01*
X1054112Y662571D01*
X1055950Y662329D01*
X1057788Y662571D01*
X1059500Y663281D01*
X1060629Y664146D01*
X1061594Y664409D01*
X1063006D01*
X1063971Y664146D01*
X1065100Y663281D01*
X1066812Y662571D01*
X1068650Y662329D01*
X1070488Y662571D01*
X1072200Y663281D01*
X1073329Y664146D01*
X1074294Y664409D01*
X1075706D01*
X1076671Y664146D01*
X1077800Y663281D01*
X1079512Y662571D01*
X1081350Y662329D01*
X1083188Y662571D01*
X1084900Y663281D01*
X1086029Y664146D01*
X1086994Y664409D01*
X1088406D01*
X1089371Y664146D01*
X1090500Y663281D01*
X1092212Y662571D01*
X1094050Y662329D01*
X1095888Y662571D01*
X1097600Y663281D01*
X1099071Y664409D01*
X1100200Y665880D01*
X1100909Y667592D01*
X1101151Y669430D01*
X1100909Y671268D01*
X1100200Y672980D01*
X1099071Y674451D01*
X1097600Y675579D01*
X1095888Y676289D01*
X1094050Y676531D01*
D02*
G37*
G36*
X1016000Y623670D02*
X1014018Y623275D01*
X1012337Y622152D01*
X1011215Y620472D01*
X1010820Y618490D01*
X1011215Y616508D01*
X1012337Y614827D01*
X1014018Y613705D01*
X1016000Y613311D01*
X1017982Y613705D01*
X1019662Y614827D01*
X1020785Y616508D01*
X1021180Y618490D01*
X1020785Y620472D01*
X1019662Y622152D01*
X1017982Y623275D01*
X1016000Y623670D01*
D02*
G37*
G36*
X1037590Y617319D02*
X1035608Y616925D01*
X1033928Y615802D01*
X1032805Y614122D01*
X1032411Y612140D01*
X1032805Y610158D01*
X1033928Y608478D01*
X1035608Y607355D01*
X1037590Y606960D01*
X1039572Y607355D01*
X1041253Y608478D01*
X1042375Y610158D01*
X1042769Y612140D01*
X1042375Y614122D01*
X1041253Y615802D01*
X1039572Y616925D01*
X1037590Y617319D01*
D02*
G37*
G36*
X1057910Y608429D02*
X1055928Y608035D01*
X1054248Y606912D01*
X1053125Y605232D01*
X1052730Y603250D01*
X1053125Y601268D01*
X1054248Y599588D01*
X1055928Y598465D01*
X1057910Y598070D01*
X1059892Y598465D01*
X1061572Y599588D01*
X1062695Y601268D01*
X1063090Y603250D01*
X1062695Y605232D01*
X1061572Y606912D01*
X1059892Y608035D01*
X1057910Y608429D01*
D02*
G37*
G36*
X1078230Y600810D02*
X1076248Y600415D01*
X1074567Y599292D01*
X1073445Y597612D01*
X1073051Y595630D01*
X1073445Y593648D01*
X1074567Y591968D01*
X1076248Y590845D01*
X1078230Y590451D01*
X1080212Y590845D01*
X1081892Y591968D01*
X1083015Y593648D01*
X1083410Y595630D01*
X1083015Y597612D01*
X1081892Y599292D01*
X1080212Y600415D01*
X1078230Y600810D01*
D02*
G37*
G36*
X1219200Y594459D02*
X1217218Y594065D01*
X1215537Y592943D01*
X1214415Y591262D01*
X1214020Y589280D01*
X1214415Y587298D01*
X1215537Y585617D01*
X1217218Y584495D01*
X1219200Y584100D01*
X1221182Y584495D01*
X1222862Y585617D01*
X1223985Y587298D01*
X1224380Y589280D01*
X1223985Y591262D01*
X1222862Y592943D01*
X1221182Y594065D01*
X1219200Y594459D01*
D02*
G37*
G36*
X1092200D02*
X1090218Y594065D01*
X1088538Y592943D01*
X1087415Y591262D01*
X1087020Y589280D01*
X1087415Y587298D01*
X1088538Y585617D01*
X1090218Y584495D01*
X1092200Y584100D01*
X1094182Y584495D01*
X1095863Y585617D01*
X1096985Y587298D01*
X1097380Y589280D01*
X1096985Y591262D01*
X1095863Y592943D01*
X1094182Y594065D01*
X1092200Y594459D01*
D02*
G37*
G36*
X1111250Y588750D02*
X1109268Y588355D01*
X1107588Y587233D01*
X1106465Y585552D01*
X1106070Y583570D01*
X1106465Y581588D01*
X1107588Y579907D01*
X1109268Y578785D01*
X1111250Y578391D01*
X1113232Y578785D01*
X1114912Y579907D01*
X1116035Y581588D01*
X1116430Y583570D01*
X1116035Y585552D01*
X1114912Y587233D01*
X1113232Y588355D01*
X1111250Y588750D01*
D02*
G37*
G36*
X1197610Y583030D02*
X1195628Y582635D01*
X1193948Y581512D01*
X1192825Y579832D01*
X1192430Y577850D01*
X1192825Y575868D01*
X1193948Y574188D01*
X1195628Y573065D01*
X1197610Y572671D01*
X1199592Y573065D01*
X1201273Y574188D01*
X1202395Y575868D01*
X1202790Y577850D01*
X1202395Y579832D01*
X1201273Y581512D01*
X1199592Y582635D01*
X1197610Y583030D01*
D02*
G37*
G36*
X1257300Y577691D02*
X1253862Y577352D01*
X1250557Y576349D01*
X1247510Y574721D01*
X1244840Y572530D01*
X1242649Y569860D01*
X1241021Y566813D01*
X1240018Y563508D01*
X1239679Y560070D01*
X1240018Y556632D01*
X1241021Y553327D01*
X1242649Y550280D01*
X1244840Y547610D01*
X1247510Y545419D01*
X1250557Y543791D01*
X1253862Y542788D01*
X1257300Y542449D01*
X1260738Y542788D01*
X1264043Y543791D01*
X1267090Y545419D01*
X1269760Y547610D01*
X1271951Y550280D01*
X1273579Y553327D01*
X1274582Y556632D01*
X1274921Y560070D01*
X1274582Y563508D01*
X1273579Y566813D01*
X1271951Y569860D01*
X1269760Y572530D01*
X1267090Y574721D01*
X1264043Y576349D01*
X1260738Y577352D01*
X1257300Y577691D01*
D02*
G37*
G36*
X899200Y577211D02*
X895762Y576872D01*
X892457Y575869D01*
X889410Y574241D01*
X886740Y572050D01*
X884549Y569380D01*
X882921Y566333D01*
X881918Y563028D01*
X881579Y559590D01*
X881918Y556152D01*
X882921Y552847D01*
X884549Y549800D01*
X886740Y547130D01*
X889410Y544939D01*
X892457Y543310D01*
X895762Y542308D01*
X899200Y541969D01*
X902638Y542308D01*
X905943Y543310D01*
X908990Y544939D01*
X911660Y547130D01*
X913851Y549800D01*
X915480Y552847D01*
X916482Y556152D01*
X916821Y559590D01*
X916482Y563028D01*
X915480Y566333D01*
X913851Y569380D01*
X911660Y572050D01*
X908990Y574241D01*
X905943Y575869D01*
X902638Y576872D01*
X899200Y577211D01*
D02*
G37*
%LPD*%
D20*
X1094050Y669430D02*
D03*
X1081350D02*
D03*
X1068650D02*
D03*
X1055950D02*
D03*
X1043250D02*
D03*
X1030550D02*
D03*
X1017850D02*
D03*
X1005150D02*
D03*
X992450D02*
D03*
Y791680D02*
D03*
X1094050D02*
D03*
X1081350D02*
D03*
X1068650D02*
D03*
X1055950D02*
D03*
X1043250D02*
D03*
X1030550D02*
D03*
X1017850D02*
D03*
X1005150D02*
D03*
X1135935Y774659D02*
D03*
Y761959D02*
D03*
Y749259D02*
D03*
Y736559D02*
D03*
Y723859D02*
D03*
Y711159D02*
D03*
Y698459D02*
D03*
X963685Y774659D02*
D03*
Y761959D02*
D03*
Y749259D02*
D03*
Y736559D02*
D03*
Y723859D02*
D03*
Y711159D02*
D03*
Y698459D02*
D03*
D21*
X979750Y669430D02*
D03*
Y791680D02*
D03*
D22*
X1135935Y685759D02*
D03*
X963685D02*
D03*
D23*
X1092200Y589280D02*
D03*
X1111250Y583570D02*
D03*
X919480Y820420D02*
D03*
X1282700Y762000D02*
D03*
X899160Y812800D02*
D03*
X927100Y830580D02*
D03*
X953770Y838200D02*
D03*
X979170Y845820D02*
D03*
X996950Y855980D02*
D03*
X1013460Y862330D02*
D03*
X1029970Y868680D02*
D03*
X1060450Y877570D02*
D03*
X1075690Y883920D02*
D03*
X1098550Y896620D02*
D03*
X1121410Y906780D02*
D03*
X1220470Y944750D02*
D03*
X1141730Y915670D02*
D03*
X1173480Y924560D02*
D03*
X1189990Y930910D02*
D03*
X1314450Y787400D02*
D03*
X1301750Y781050D02*
D03*
X1329660Y792480D02*
D03*
X1287780Y774700D02*
D03*
X1250950Y688340D02*
D03*
X1259840Y697230D02*
D03*
X1276350Y753110D02*
D03*
X1270000Y740410D02*
D03*
X1263650Y727710D02*
D03*
X1257300Y711200D02*
D03*
X1197610Y577850D02*
D03*
X1219200Y589280D02*
D03*
X1078230Y595630D02*
D03*
X1057910Y603250D02*
D03*
X1037590Y612140D02*
D03*
X1016000Y618490D02*
D03*
X1289050Y937260D02*
D03*
X1250950D02*
D03*
M02*
