G04*
G04 #@! TF.GenerationSoftware,Altium Limited,Altium Designer,23.1.1 (15)*
G04*
G04 Layer_Color=65535*
%FSLAX44Y44*%
%MOMM*%
G71*
G04*
G04 #@! TF.SameCoordinates,039F267E-1467-4E99-976D-C296C5409836*
G04*
G04*
G04 #@! TF.FilePolarity,Positive*
G04*
G01*
G75*
%ADD10C,0.2540*%
%ADD11C,0.0508*%
%ADD12C,0.1270*%
G36*
X873812Y620809D02*
X874256D01*
Y620720D01*
X874433D01*
Y620631D01*
X874788D01*
Y620543D01*
X874876D01*
Y620454D01*
X875143D01*
Y620365D01*
X875320D01*
Y620277D01*
X875409D01*
Y620188D01*
X875586D01*
Y620099D01*
X875675D01*
Y620011D01*
X875764D01*
Y619922D01*
X875941D01*
Y619833D01*
X876030D01*
Y619744D01*
X876118D01*
Y619656D01*
X876207D01*
Y619478D01*
X876296D01*
Y619390D01*
X876473D01*
Y619212D01*
X876562D01*
Y619124D01*
X876651D01*
Y618946D01*
X876739D01*
Y618769D01*
X876828D01*
Y618680D01*
X876917D01*
Y618414D01*
X877005D01*
Y618148D01*
X877094D01*
Y617970D01*
X877183D01*
Y616108D01*
X877094D01*
Y615842D01*
X877005D01*
Y615664D01*
X876917D01*
Y615398D01*
X876828D01*
Y615309D01*
X876739D01*
Y615132D01*
X876651D01*
Y614954D01*
X876562D01*
Y614866D01*
X876473D01*
Y614688D01*
X876385D01*
Y614600D01*
X876296D01*
Y614511D01*
X876207D01*
Y614422D01*
X876118D01*
Y614334D01*
X876030D01*
Y614245D01*
X875941D01*
Y614156D01*
X875852D01*
Y614067D01*
X875675D01*
Y613979D01*
X875586D01*
Y613890D01*
X875498D01*
Y613801D01*
X875320D01*
Y613713D01*
X875143D01*
Y613624D01*
X875054D01*
Y613535D01*
X874788D01*
Y613447D01*
X874610D01*
Y613358D01*
X874256D01*
Y613269D01*
X873901D01*
Y613181D01*
X873280D01*
Y613092D01*
X873014D01*
Y613181D01*
X872482D01*
Y613269D01*
X872038D01*
Y613358D01*
X871683D01*
Y613447D01*
X871594D01*
Y613535D01*
X871328D01*
Y613624D01*
X871240D01*
Y613713D01*
X871062D01*
Y613801D01*
X870974D01*
Y613890D01*
X870885D01*
Y613979D01*
X870796D01*
Y614067D01*
X870619D01*
Y613979D01*
X870530D01*
Y612826D01*
X870619D01*
Y612382D01*
X870707D01*
Y612205D01*
X870796D01*
Y611939D01*
X870885D01*
Y611761D01*
X870974D01*
Y611673D01*
X871062D01*
Y611495D01*
X871151D01*
Y611406D01*
X871240D01*
Y611318D01*
X871328D01*
Y611229D01*
X871417D01*
Y611140D01*
X871594D01*
Y611052D01*
X871683D01*
Y610963D01*
X871861D01*
Y610874D01*
X872127D01*
Y610785D01*
X872304D01*
Y610697D01*
X872748D01*
Y610608D01*
X873723D01*
Y610697D01*
X874256D01*
Y610785D01*
X874522D01*
Y610874D01*
X874788D01*
Y610963D01*
X874965D01*
Y611052D01*
X875143D01*
Y611140D01*
X875320D01*
Y611229D01*
X875409D01*
Y611318D01*
X875498D01*
Y611406D01*
X875675D01*
Y611584D01*
X875764D01*
Y611673D01*
X875852D01*
Y611761D01*
X875941D01*
Y611850D01*
X876030D01*
Y611939D01*
X876385D01*
Y611850D01*
X876473D01*
Y611761D01*
X876562D01*
Y611673D01*
X876651D01*
Y611584D01*
X876739D01*
Y611495D01*
X876828D01*
Y611406D01*
X876917D01*
Y611318D01*
X877005D01*
Y611229D01*
X877094D01*
Y610963D01*
X877005D01*
Y610874D01*
X876917D01*
Y610785D01*
X876828D01*
Y610697D01*
X876739D01*
Y610608D01*
X876651D01*
Y610519D01*
X876562D01*
Y610431D01*
X876385D01*
Y610342D01*
X876296D01*
Y610253D01*
X876207D01*
Y610165D01*
X876030D01*
Y610076D01*
X875852D01*
Y609987D01*
X875764D01*
Y609898D01*
X875409D01*
Y609810D01*
X875320D01*
Y609721D01*
X875054D01*
Y609632D01*
X874610D01*
Y609544D01*
X874344D01*
Y609455D01*
X872393D01*
Y609544D01*
X872038D01*
Y609632D01*
X871683D01*
Y609721D01*
X871417D01*
Y609810D01*
X871328D01*
Y609898D01*
X871062D01*
Y609987D01*
X870974D01*
Y610076D01*
X870796D01*
Y610165D01*
X870707D01*
Y610253D01*
X870619D01*
Y610342D01*
X870441D01*
Y610431D01*
X870353D01*
Y610608D01*
X870175D01*
Y610697D01*
X870087D01*
Y610874D01*
X869998D01*
Y610963D01*
X869909D01*
Y611140D01*
X869820D01*
Y611318D01*
X869732D01*
Y611406D01*
X869643D01*
Y611673D01*
X869554D01*
Y611850D01*
X869466D01*
Y612027D01*
X869377D01*
Y612471D01*
X869288D01*
Y613092D01*
X869200D01*
Y620631D01*
X869377D01*
Y620720D01*
X870353D01*
Y620631D01*
X870530D01*
Y620011D01*
X870796D01*
Y620099D01*
X870885D01*
Y620188D01*
X870974D01*
Y620277D01*
X871062D01*
Y620365D01*
X871240D01*
Y620454D01*
X871417D01*
Y620543D01*
X871594D01*
Y620631D01*
X871861D01*
Y620720D01*
X872038D01*
Y620809D01*
X872482D01*
Y620898D01*
X873812D01*
Y620809D01*
D02*
G37*
G36*
X861128D02*
X861571D01*
Y620720D01*
X861749D01*
Y620631D01*
X862192D01*
Y620543D01*
X862281D01*
Y620454D01*
X862458D01*
Y620365D01*
X862724D01*
Y620277D01*
X862813D01*
Y620188D01*
X862990D01*
Y620099D01*
X863079D01*
Y620011D01*
X863168D01*
Y619922D01*
X863257D01*
Y619833D01*
X863434D01*
Y619744D01*
X863345D01*
Y619478D01*
X863257D01*
Y619390D01*
X863168D01*
Y619301D01*
X863079D01*
Y619212D01*
X862990D01*
Y619124D01*
X862902D01*
Y619035D01*
X862813D01*
Y618946D01*
X862724D01*
Y618857D01*
X862547D01*
Y618946D01*
X862458D01*
Y619035D01*
X862369D01*
Y619124D01*
X862192D01*
Y619212D01*
X862015D01*
Y619301D01*
X861926D01*
Y619390D01*
X861749D01*
Y619478D01*
X861482D01*
Y619567D01*
X861216D01*
Y619656D01*
X859708D01*
Y619567D01*
X859442D01*
Y619478D01*
X859265D01*
Y619390D01*
X859087D01*
Y619301D01*
X858999D01*
Y619212D01*
X858910D01*
Y619124D01*
X858821D01*
Y618946D01*
X858733D01*
Y618857D01*
X858644D01*
Y618503D01*
X858555D01*
Y617970D01*
X858644D01*
Y617882D01*
X860418D01*
Y617793D01*
X861128D01*
Y617704D01*
X861660D01*
Y617616D01*
X861837D01*
Y617527D01*
X862103D01*
Y617438D01*
X862369D01*
Y617350D01*
X862458D01*
Y617261D01*
X862635D01*
Y617172D01*
X862813D01*
Y617083D01*
X862902D01*
Y616995D01*
X862990D01*
Y616906D01*
X863079D01*
Y616817D01*
X863168D01*
Y616729D01*
X863257D01*
Y616640D01*
X863345D01*
Y616551D01*
X863434D01*
Y616374D01*
X863523D01*
Y616108D01*
X863611D01*
Y615930D01*
X863700D01*
Y614688D01*
X863611D01*
Y614422D01*
X863523D01*
Y614245D01*
X863434D01*
Y614067D01*
X863345D01*
Y613979D01*
X863257D01*
Y613801D01*
X863079D01*
Y613713D01*
X862990D01*
Y613624D01*
X862902D01*
Y613535D01*
X862813D01*
Y613447D01*
X862724D01*
Y613358D01*
X862547D01*
Y613269D01*
X862281D01*
Y613181D01*
X862192D01*
Y613092D01*
X861749D01*
Y613003D01*
X860152D01*
Y613092D01*
X859708D01*
Y613181D01*
X859531D01*
Y613269D01*
X859353D01*
Y613358D01*
X859176D01*
Y613447D01*
X859087D01*
Y613535D01*
X858910D01*
Y613713D01*
X858821D01*
Y613801D01*
X858466D01*
Y613358D01*
X858378D01*
Y613181D01*
X858289D01*
Y613092D01*
X857313D01*
Y613181D01*
X857225D01*
Y614245D01*
X857313D01*
Y618325D01*
X857402D01*
Y619035D01*
X857491D01*
Y619301D01*
X857579D01*
Y619478D01*
X857668D01*
Y619744D01*
X857757D01*
Y619833D01*
X857846D01*
Y619922D01*
X857934D01*
Y620099D01*
X858112D01*
Y620188D01*
X858200D01*
Y620277D01*
X858289D01*
Y620365D01*
X858466D01*
Y620454D01*
X858644D01*
Y620543D01*
X858733D01*
Y620631D01*
X859087D01*
Y620720D01*
X859265D01*
Y620809D01*
X859620D01*
Y620898D01*
X861128D01*
Y620809D01*
D02*
G37*
G36*
X855096Y620631D02*
X855184D01*
Y615221D01*
X855096D01*
Y614954D01*
X855007D01*
Y614600D01*
X854918D01*
Y614422D01*
X854830D01*
Y614245D01*
X854741D01*
Y614067D01*
X854652D01*
Y613979D01*
X854564D01*
Y613890D01*
X854475D01*
Y613801D01*
X854386D01*
Y613713D01*
X854297D01*
Y613624D01*
X854209D01*
Y613535D01*
X854120D01*
Y613447D01*
X854031D01*
Y613358D01*
X853854D01*
Y613269D01*
X853588D01*
Y613181D01*
X853499D01*
Y613092D01*
X853056D01*
Y613003D01*
X851548D01*
Y613092D01*
X851104D01*
Y613181D01*
X851015D01*
Y613269D01*
X850838D01*
Y613358D01*
X850661D01*
Y613447D01*
X850483D01*
Y613535D01*
X850395D01*
Y613624D01*
X850306D01*
Y613713D01*
X850217D01*
Y613801D01*
X850128D01*
Y613890D01*
X850040D01*
Y613979D01*
X849951D01*
Y613890D01*
X849862D01*
Y613358D01*
X849774D01*
Y613181D01*
X849596D01*
Y613092D01*
X849153D01*
Y613181D01*
X849064D01*
Y613092D01*
X848709D01*
Y613181D01*
X848532D01*
Y613358D01*
X848443D01*
Y613624D01*
X848532D01*
Y615132D01*
X848621D01*
Y620365D01*
X848532D01*
Y620454D01*
X848621D01*
Y620631D01*
X848709D01*
Y620720D01*
X849774D01*
Y620631D01*
X849862D01*
Y616374D01*
X849951D01*
Y616019D01*
X850040D01*
Y615664D01*
X850128D01*
Y615398D01*
X850217D01*
Y615309D01*
X850306D01*
Y615132D01*
X850395D01*
Y615043D01*
X850483D01*
Y614954D01*
X850572D01*
Y614777D01*
X850661D01*
Y614688D01*
X850838D01*
Y614600D01*
X850927D01*
Y614511D01*
X851104D01*
Y614422D01*
X851193D01*
Y614334D01*
X851459D01*
Y614245D01*
X851902D01*
Y614156D01*
X852612D01*
Y614245D01*
X852967D01*
Y614334D01*
X853144D01*
Y614422D01*
X853233D01*
Y614511D01*
X853322D01*
Y614600D01*
X853499D01*
Y614777D01*
X853588D01*
Y614954D01*
X853677D01*
Y615132D01*
X853765D01*
Y615487D01*
X853854D01*
Y616108D01*
X853943D01*
Y620277D01*
X853854D01*
Y620454D01*
X853943D01*
Y620631D01*
X854031D01*
Y620720D01*
X855096D01*
Y620631D01*
D02*
G37*
G36*
X843387Y620809D02*
X843830D01*
Y620720D01*
X844008D01*
Y620631D01*
X844363D01*
Y620543D01*
X844540D01*
Y620454D01*
X844718D01*
Y620365D01*
X844895D01*
Y620277D01*
X844984D01*
Y620188D01*
X845161D01*
Y620099D01*
X845250D01*
Y620011D01*
X845339D01*
Y619922D01*
X845516D01*
Y619833D01*
X845605D01*
Y619744D01*
X845693D01*
Y619567D01*
X845782D01*
Y619478D01*
X845871D01*
Y619390D01*
X845959D01*
Y619212D01*
X846048D01*
Y619124D01*
X846137D01*
Y619035D01*
X846226D01*
Y618769D01*
X846314D01*
Y618680D01*
X846403D01*
Y618414D01*
X846492D01*
Y618148D01*
X846580D01*
Y617882D01*
X846669D01*
Y615930D01*
X846580D01*
Y615753D01*
X846492D01*
Y615398D01*
X846403D01*
Y615221D01*
X846314D01*
Y615043D01*
X846226D01*
Y614866D01*
X846137D01*
Y614688D01*
X846048D01*
Y614600D01*
X845959D01*
Y614422D01*
X845871D01*
Y614334D01*
X845782D01*
Y614245D01*
X845693D01*
Y614156D01*
X845605D01*
Y614067D01*
X845516D01*
Y613979D01*
X845427D01*
Y613890D01*
X845339D01*
Y613801D01*
X845161D01*
Y613713D01*
X845072D01*
Y613624D01*
X844984D01*
Y613535D01*
X844718D01*
Y613447D01*
X844629D01*
Y613358D01*
X844451D01*
Y613269D01*
X844185D01*
Y613181D01*
X844008D01*
Y613092D01*
X843476D01*
Y613003D01*
X841968D01*
Y613092D01*
X841436D01*
Y613181D01*
X841347D01*
Y613269D01*
X841081D01*
Y613358D01*
X840903D01*
Y613447D01*
X840815D01*
Y613535D01*
X840637D01*
Y613624D01*
X840460D01*
Y613713D01*
X840371D01*
Y613801D01*
X840282D01*
Y613890D01*
X840194D01*
Y613979D01*
X840105D01*
Y614067D01*
X840016D01*
Y614156D01*
X839928D01*
Y614245D01*
X839839D01*
Y614511D01*
X839928D01*
Y614600D01*
X840016D01*
Y614688D01*
X840105D01*
Y614777D01*
X840282D01*
Y614954D01*
X840371D01*
Y615043D01*
X840548D01*
Y615132D01*
X840637D01*
Y615221D01*
X840815D01*
Y615043D01*
X840992D01*
Y614954D01*
X841081D01*
Y614777D01*
X841258D01*
Y614688D01*
X841347D01*
Y614600D01*
X841436D01*
Y614511D01*
X841613D01*
Y614422D01*
X841702D01*
Y614334D01*
X841968D01*
Y614245D01*
X842411D01*
Y614156D01*
X843032D01*
Y614245D01*
X843476D01*
Y614334D01*
X843830D01*
Y614422D01*
X843919D01*
Y614511D01*
X844097D01*
Y614600D01*
X844274D01*
Y614688D01*
X844363D01*
Y614777D01*
X844540D01*
Y614954D01*
X844718D01*
Y615043D01*
X844806D01*
Y615221D01*
X844895D01*
Y615309D01*
X844984D01*
Y615487D01*
X845072D01*
Y615664D01*
X845161D01*
Y615842D01*
X845250D01*
Y616196D01*
X845339D01*
Y616551D01*
X845427D01*
Y617350D01*
X845339D01*
Y617704D01*
X845250D01*
Y617970D01*
Y618059D01*
X845161D01*
Y618237D01*
X845072D01*
Y618414D01*
X844984D01*
Y618591D01*
X844895D01*
Y618680D01*
X844806D01*
Y618769D01*
X844718D01*
Y618857D01*
X844629D01*
Y618946D01*
X844540D01*
Y619035D01*
X844451D01*
Y619124D01*
X844363D01*
Y619212D01*
X844185D01*
Y619301D01*
X844097D01*
Y619390D01*
X843919D01*
Y619478D01*
X843653D01*
Y619567D01*
X843476D01*
Y619656D01*
X842057D01*
Y619567D01*
X841879D01*
Y619478D01*
X841702D01*
Y619390D01*
X841524D01*
Y619301D01*
X841436D01*
Y619212D01*
X841258D01*
Y619124D01*
X841169D01*
Y619035D01*
X841081D01*
Y618946D01*
X840992D01*
Y618857D01*
X840903D01*
Y618769D01*
X840815D01*
Y618680D01*
X840637D01*
Y618769D01*
X840548D01*
Y618857D01*
X840460D01*
Y618946D01*
X840282D01*
Y619035D01*
X840194D01*
Y619124D01*
X840105D01*
Y619212D01*
X839928D01*
Y619301D01*
X839839D01*
Y619478D01*
X839750D01*
Y619567D01*
X839839D01*
Y619656D01*
X839928D01*
Y619744D01*
X840016D01*
Y619833D01*
X840105D01*
Y619922D01*
X840194D01*
Y620011D01*
X840282D01*
Y620099D01*
X840460D01*
Y620188D01*
X840548D01*
Y620277D01*
X840637D01*
Y620365D01*
X840903D01*
Y620454D01*
X840992D01*
Y620543D01*
X841169D01*
Y620631D01*
X841436D01*
Y620720D01*
X841702D01*
Y620809D01*
X842057D01*
Y620898D01*
X843387D01*
Y620809D01*
D02*
G37*
G36*
X838597Y620631D02*
X838686D01*
Y620454D01*
X838774D01*
Y620365D01*
X838686D01*
Y615221D01*
X838597D01*
Y614777D01*
X838508D01*
Y614600D01*
X838420D01*
Y614334D01*
X838331D01*
Y614245D01*
X838242D01*
Y614067D01*
X838154D01*
Y613890D01*
X838065D01*
Y613801D01*
X837887D01*
Y613624D01*
X837799D01*
Y613535D01*
X837621D01*
Y613447D01*
X837533D01*
Y613358D01*
X837355D01*
Y613269D01*
X837178D01*
Y613181D01*
X837000D01*
Y613092D01*
X836557D01*
Y613003D01*
X835049D01*
Y613092D01*
X834605D01*
Y613181D01*
X834517D01*
Y613269D01*
X834251D01*
Y613358D01*
X834162D01*
Y613447D01*
X834073D01*
Y613535D01*
X833896D01*
Y613624D01*
X833807D01*
Y613713D01*
X833718D01*
Y613801D01*
X833541D01*
Y613890D01*
X833452D01*
Y613979D01*
X833364D01*
Y613801D01*
X833275D01*
Y613535D01*
X833364D01*
Y613358D01*
X833275D01*
Y613181D01*
X833186D01*
Y613092D01*
X832122D01*
Y613181D01*
X832033D01*
Y615221D01*
X832122D01*
Y620365D01*
X832033D01*
Y620543D01*
X832122D01*
Y620631D01*
X832210D01*
Y620720D01*
X833275D01*
Y620631D01*
X833364D01*
Y620543D01*
X833452D01*
Y620365D01*
X833364D01*
Y616729D01*
X833452D01*
Y616019D01*
X833541D01*
Y615664D01*
X833630D01*
Y615487D01*
X833718D01*
Y615309D01*
X833807D01*
Y615132D01*
X833896D01*
Y615043D01*
X833985D01*
Y614954D01*
X834073D01*
Y614777D01*
X834251D01*
Y614688D01*
X834339D01*
Y614600D01*
X834428D01*
Y614511D01*
X834605D01*
Y614422D01*
X834694D01*
Y614334D01*
X834960D01*
Y614245D01*
X835492D01*
Y614156D01*
X836113D01*
Y614245D01*
X836468D01*
Y614334D01*
X836646D01*
Y614422D01*
X836734D01*
Y614511D01*
X836912D01*
Y614600D01*
X837000D01*
Y614777D01*
X837089D01*
Y614866D01*
X837178D01*
Y615132D01*
X837266D01*
Y615398D01*
X837355D01*
Y615842D01*
X837444D01*
Y620631D01*
X837533D01*
Y620720D01*
X838597D01*
Y620631D01*
D02*
G37*
G36*
X866805Y625244D02*
X866982D01*
Y625155D01*
X867071D01*
Y622760D01*
Y622672D01*
Y613269D01*
X866982D01*
Y613181D01*
X866893D01*
Y613092D01*
X865918D01*
Y613181D01*
X865740D01*
Y625244D01*
X866716D01*
Y625333D01*
X866805D01*
Y625244D01*
D02*
G37*
G36*
X828307Y620809D02*
X828574D01*
Y620720D01*
X828840D01*
Y620631D01*
X829106D01*
Y620543D01*
X829195D01*
Y620454D01*
X829372D01*
Y620365D01*
X829461D01*
Y620277D01*
X829638D01*
Y620099D01*
X829816D01*
Y619922D01*
X829904D01*
Y619833D01*
X829993D01*
Y619744D01*
X830082D01*
Y619567D01*
X830170D01*
Y619301D01*
X830259D01*
Y619035D01*
X830348D01*
Y618237D01*
X830259D01*
Y617970D01*
X830170D01*
Y617793D01*
X830082D01*
Y617616D01*
X829993D01*
Y617527D01*
X829904D01*
Y617350D01*
X829816D01*
Y617261D01*
X829638D01*
Y617172D01*
X829549D01*
Y617083D01*
X829461D01*
Y616995D01*
X829283D01*
Y616906D01*
X829106D01*
Y616817D01*
X829017D01*
Y616729D01*
X828662D01*
Y616640D01*
X828396D01*
Y616551D01*
X827953D01*
Y616463D01*
X827509D01*
Y616374D01*
X827243D01*
Y616285D01*
X826888D01*
Y616196D01*
X826622D01*
Y616108D01*
X826533D01*
Y616019D01*
X826267D01*
Y615930D01*
X826179D01*
Y615753D01*
X826090D01*
Y615664D01*
X826001D01*
Y614954D01*
X826090D01*
Y614866D01*
X826179D01*
Y614688D01*
X826267D01*
Y614600D01*
X826356D01*
Y614511D01*
X826533D01*
Y614422D01*
X826622D01*
Y614334D01*
X826888D01*
Y614245D01*
X827243D01*
Y614156D01*
X827775D01*
Y614245D01*
X828219D01*
Y614334D01*
X828485D01*
Y614422D01*
X828574D01*
Y614511D01*
X828840D01*
Y614600D01*
X828928D01*
Y614688D01*
X829017D01*
Y614777D01*
X829106D01*
Y614866D01*
X829195D01*
Y614954D01*
X829283D01*
Y615043D01*
X829372D01*
Y615221D01*
X829461D01*
Y615309D01*
X829816D01*
Y615221D01*
X829904D01*
Y615132D01*
X830082D01*
Y615043D01*
X830170D01*
Y614954D01*
X830348D01*
Y614866D01*
X830436D01*
Y614777D01*
X830614D01*
Y614422D01*
X830525D01*
Y614334D01*
X830436D01*
Y614245D01*
X830348D01*
Y614067D01*
X830170D01*
Y613890D01*
X830082D01*
Y613801D01*
X829904D01*
Y613713D01*
X829816D01*
Y613624D01*
X829727D01*
Y613535D01*
X829549D01*
Y613447D01*
X829461D01*
Y613358D01*
X829195D01*
Y613269D01*
X828928D01*
Y613181D01*
X828751D01*
Y613092D01*
X828307D01*
Y613003D01*
X826800D01*
Y613092D01*
X826356D01*
Y613181D01*
X826179D01*
Y613269D01*
X826001D01*
Y613358D01*
X825735D01*
Y613447D01*
X825646D01*
Y613535D01*
X825469D01*
Y613713D01*
X825292D01*
Y613801D01*
X825203D01*
Y613979D01*
X825114D01*
Y614067D01*
X825025D01*
Y614156D01*
X824937D01*
Y614334D01*
X824848D01*
Y614511D01*
X824759D01*
Y614954D01*
X824671D01*
Y615842D01*
X824759D01*
Y616285D01*
X824848D01*
Y616374D01*
X824937D01*
Y616551D01*
X825025D01*
Y616640D01*
X825114D01*
Y616729D01*
X825203D01*
Y616817D01*
X825292D01*
Y616906D01*
X825380D01*
Y616995D01*
X825469D01*
Y617083D01*
X825558D01*
Y617172D01*
X825735D01*
Y617261D01*
X826001D01*
Y617350D01*
X826179D01*
Y617438D01*
X826533D01*
Y617527D01*
X826888D01*
Y617616D01*
X827243D01*
Y617704D01*
X827775D01*
Y617793D01*
X828041D01*
Y617882D01*
X828307D01*
Y617970D01*
X828574D01*
Y618059D01*
X828662D01*
Y618148D01*
X828751D01*
Y618237D01*
X828840D01*
Y618325D01*
X828928D01*
Y618591D01*
X829017D01*
Y618857D01*
X828928D01*
Y618946D01*
Y619124D01*
X828840D01*
Y619212D01*
X828751D01*
Y619301D01*
X828662D01*
Y619390D01*
X828485D01*
Y619478D01*
X828396D01*
Y619567D01*
X828219D01*
Y619656D01*
X826977D01*
Y619567D01*
X826800D01*
Y619478D01*
X826711D01*
Y619390D01*
X826533D01*
Y619301D01*
X826445D01*
Y619212D01*
X826356D01*
Y619124D01*
X826267D01*
Y619035D01*
X826179D01*
Y618857D01*
X826090D01*
Y618769D01*
X826001D01*
Y618680D01*
X825735D01*
Y618769D01*
X825646D01*
Y618857D01*
X825469D01*
Y618946D01*
X825292D01*
Y619035D01*
X825203D01*
Y619124D01*
X825025D01*
Y619212D01*
X824937D01*
Y619301D01*
X824848D01*
Y619390D01*
X824937D01*
Y619567D01*
X825025D01*
Y619744D01*
X825114D01*
Y619833D01*
X825203D01*
Y619922D01*
X825292D01*
Y620099D01*
X825469D01*
Y620188D01*
X825558D01*
Y620277D01*
X825646D01*
Y620365D01*
X825735D01*
Y620454D01*
X825912D01*
Y620543D01*
X826001D01*
Y620631D01*
X826356D01*
Y620720D01*
X826533D01*
Y620809D01*
X826888D01*
Y620898D01*
X828307D01*
Y620809D01*
D02*
G37*
G36*
X906547Y625189D02*
X906771D01*
Y624740D01*
X906996D01*
Y624516D01*
X907220D01*
Y624067D01*
X907445D01*
Y623619D01*
X907669D01*
Y623394D01*
X907893D01*
Y623170D01*
X908118D01*
Y622946D01*
X908342D01*
Y622497D01*
X908567D01*
Y622272D01*
X908791D01*
Y622048D01*
X909015D01*
Y621824D01*
X909240D01*
Y621599D01*
X909464D01*
Y621375D01*
X909688D01*
Y621151D01*
X909913D01*
Y620926D01*
X910137D01*
Y620702D01*
X910361D01*
Y620477D01*
X910586D01*
Y620253D01*
X910810D01*
Y620029D01*
X911034D01*
Y619804D01*
X911259D01*
Y619580D01*
X911483D01*
Y619356D01*
X911708D01*
Y618907D01*
X911932D01*
Y618683D01*
X912156D01*
Y618458D01*
X912381D01*
Y618234D01*
X912605D01*
Y617785D01*
X912829D01*
Y617561D01*
X913054D01*
Y617112D01*
X913278D01*
Y616439D01*
X913503D01*
Y615093D01*
X913727D01*
Y613522D01*
X913503D01*
Y612400D01*
X913278D01*
Y611727D01*
X913054D01*
Y611278D01*
X912829D01*
Y610830D01*
X912605D01*
Y610605D01*
X912381D01*
Y611503D01*
X912156D01*
Y612625D01*
X911932D01*
Y613298D01*
X911708D01*
Y613971D01*
X911483D01*
Y614420D01*
X911259D01*
Y614868D01*
X911034D01*
Y615093D01*
X910810D01*
Y615541D01*
X910586D01*
Y615766D01*
X910361D01*
Y615990D01*
X910137D01*
Y616215D01*
X909913D01*
Y616439D01*
X909688D01*
Y616663D01*
X909464D01*
Y616888D01*
X909015D01*
Y617112D01*
X908791D01*
Y617336D01*
X908342D01*
Y617561D01*
X907893D01*
Y617785D01*
X907445D01*
Y618009D01*
X907220D01*
Y618234D01*
X906771D01*
Y618458D01*
X906323D01*
Y618683D01*
X905874D01*
Y618907D01*
X905425D01*
Y619131D01*
X905201D01*
Y619356D01*
X904977D01*
Y620926D01*
X905201D01*
Y622272D01*
X905425D01*
Y623170D01*
X905650D01*
Y624067D01*
X905874D01*
Y624740D01*
X906098D01*
Y625189D01*
X906323D01*
Y625638D01*
X906547D01*
Y625189D01*
D02*
G37*
G36*
X911708Y628330D02*
X911932D01*
Y627657D01*
X912156D01*
Y627209D01*
X912381D01*
Y626760D01*
X912605D01*
Y626535D01*
X912829D01*
Y626087D01*
X913054D01*
Y625862D01*
X913278D01*
Y625414D01*
X913503D01*
Y625189D01*
X913727D01*
Y624740D01*
X913951D01*
Y624516D01*
X914176D01*
Y624292D01*
X914400D01*
Y624067D01*
X914624D01*
Y623619D01*
X914849D01*
Y623394D01*
X915073D01*
Y623170D01*
X915297D01*
Y622946D01*
X915522D01*
Y622497D01*
X915746D01*
Y622272D01*
X915971D01*
Y621824D01*
X916195D01*
Y621599D01*
X916419D01*
Y621151D01*
X916644D01*
Y620926D01*
X916868D01*
Y620477D01*
X917092D01*
Y620253D01*
X917317D01*
Y619804D01*
X917541D01*
Y619356D01*
X917766D01*
Y618907D01*
X917990D01*
Y618458D01*
X918214D01*
Y617785D01*
X918439D01*
Y614868D01*
X918214D01*
Y614195D01*
X917990D01*
Y613746D01*
X917766D01*
Y613522D01*
X917541D01*
Y613073D01*
X917317D01*
Y612849D01*
X917092D01*
Y612625D01*
X916868D01*
Y612400D01*
X916644D01*
Y612176D01*
X916419D01*
Y611952D01*
X916195D01*
Y611727D01*
X915971D01*
Y611503D01*
X915522D01*
Y611278D01*
X915297D01*
Y611054D01*
X915073D01*
Y610830D01*
X914624D01*
Y610605D01*
X913951D01*
Y610381D01*
X913278D01*
Y610830D01*
X913503D01*
Y611278D01*
X913727D01*
Y611727D01*
X913951D01*
Y612176D01*
X914176D01*
Y613298D01*
X914400D01*
Y613522D01*
Y613746D01*
Y615990D01*
X914176D01*
Y616888D01*
X913951D01*
Y617336D01*
X913727D01*
Y617785D01*
X913503D01*
Y618009D01*
X913278D01*
Y618458D01*
X913054D01*
Y618683D01*
X912829D01*
Y618907D01*
X912605D01*
Y619356D01*
X912381D01*
Y619580D01*
X912156D01*
Y619804D01*
X911932D01*
Y620029D01*
X911708D01*
Y620253D01*
X911483D01*
Y620477D01*
X911259D01*
Y620702D01*
X911034D01*
Y620926D01*
X910810D01*
Y621151D01*
X910586D01*
Y621375D01*
X910361D01*
Y621599D01*
X910137D01*
Y621824D01*
X909913D01*
Y622048D01*
X909688D01*
Y622497D01*
X909464D01*
Y623170D01*
X909688D01*
Y624067D01*
X909913D01*
Y624740D01*
X910137D01*
Y625414D01*
X910361D01*
Y626087D01*
X910586D01*
Y626535D01*
X910810D01*
Y627209D01*
X911034D01*
Y627657D01*
X911259D01*
Y628106D01*
X911483D01*
Y628555D01*
X911708D01*
Y628330D01*
D02*
G37*
G36*
X919336Y623394D02*
X919560D01*
Y622721D01*
X919785D01*
Y622048D01*
X920009D01*
Y621599D01*
X920234D01*
Y621151D01*
X920458D01*
Y620702D01*
X920682D01*
Y620253D01*
X920907D01*
Y620029D01*
X921131D01*
Y619580D01*
X921355D01*
Y619131D01*
X921580D01*
Y618683D01*
X921804D01*
Y618009D01*
X922029D01*
Y617336D01*
X922253D01*
Y614420D01*
X922029D01*
Y613746D01*
X921804D01*
Y613298D01*
X921580D01*
Y612849D01*
X921355D01*
Y612625D01*
X921131D01*
Y612400D01*
X920907D01*
Y612176D01*
X920682D01*
Y611952D01*
X920458D01*
Y611727D01*
X920234D01*
Y611503D01*
X920009D01*
Y611278D01*
X919560D01*
Y611054D01*
X919112D01*
Y610830D01*
X918663D01*
Y610605D01*
X918214D01*
Y610381D01*
X917317D01*
Y610157D01*
X915073D01*
Y610381D01*
X915297D01*
Y610605D01*
X915746D01*
Y610830D01*
X915971D01*
Y611054D01*
X916419D01*
Y611278D01*
X916644D01*
Y611503D01*
X916868D01*
Y611727D01*
X917092D01*
Y611952D01*
X917317D01*
Y612176D01*
X917541D01*
Y612400D01*
X917766D01*
Y612625D01*
X917990D01*
Y612849D01*
X918214D01*
Y613298D01*
X918439D01*
Y613746D01*
X918663D01*
Y614195D01*
X918887D01*
Y614868D01*
X919112D01*
Y617785D01*
X918887D01*
Y618458D01*
X918663D01*
Y619131D01*
X918439D01*
Y619580D01*
X918214D01*
Y620029D01*
X917990D01*
Y620477D01*
X917766D01*
Y621599D01*
X917990D01*
Y622272D01*
X918214D01*
Y622721D01*
X918439D01*
Y623170D01*
X918663D01*
Y623619D01*
X918887D01*
Y624067D01*
X919112D01*
Y624292D01*
X919336D01*
Y623394D01*
D02*
G37*
G36*
X901387Y621824D02*
X901611D01*
Y621375D01*
X901835D01*
Y621151D01*
X902060D01*
Y620702D01*
X902284D01*
Y620477D01*
X902509D01*
Y620253D01*
X902733D01*
Y620029D01*
X902957D01*
Y619804D01*
X903182D01*
Y619580D01*
X903406D01*
Y619356D01*
X903855D01*
Y619131D01*
X904079D01*
Y618907D01*
X904528D01*
Y618683D01*
X904752D01*
Y618458D01*
X905201D01*
Y618234D01*
X905650D01*
Y618009D01*
X906098D01*
Y617785D01*
X906547D01*
Y617561D01*
X906996D01*
Y617336D01*
X907445D01*
Y617112D01*
X907893D01*
Y616888D01*
X908118D01*
Y616663D01*
X908567D01*
Y616439D01*
X908791D01*
Y616215D01*
X909015D01*
Y615990D01*
X909464D01*
Y615766D01*
X909688D01*
Y615541D01*
X909913D01*
Y615093D01*
X910137D01*
Y614868D01*
X910361D01*
Y614644D01*
X910586D01*
Y614195D01*
X910810D01*
Y613746D01*
X911034D01*
Y613298D01*
X911259D01*
Y612625D01*
X911483D01*
Y611503D01*
X911708D01*
Y610157D01*
X909913D01*
Y610381D01*
X908791D01*
Y610605D01*
X907893D01*
Y610830D01*
X907445D01*
Y611054D01*
X906771D01*
Y611278D01*
X906547D01*
Y611503D01*
X906098D01*
Y611727D01*
X905874D01*
Y611952D01*
X905425D01*
Y612176D01*
X905201D01*
Y612400D01*
X904977D01*
Y612625D01*
X904752D01*
Y612849D01*
X904528D01*
Y613073D01*
X904304D01*
Y613298D01*
X904079D01*
Y613746D01*
X903855D01*
Y613971D01*
X903630D01*
Y614195D01*
X903406D01*
Y614644D01*
X903182D01*
Y615093D01*
X902957D01*
Y615317D01*
X902733D01*
Y615766D01*
X902509D01*
Y616215D01*
X902284D01*
Y616888D01*
X902060D01*
Y617336D01*
X901835D01*
Y618009D01*
X901611D01*
Y618907D01*
X901387D01*
Y620253D01*
X901162D01*
Y622272D01*
X901387D01*
Y621824D01*
D02*
G37*
G36*
X916644Y607015D02*
X909240D01*
Y609259D01*
X916644D01*
Y607015D01*
D02*
G37*
G36*
X881174Y620454D02*
X882061D01*
Y620365D01*
X882771D01*
Y620277D01*
X883037D01*
Y620188D01*
X883481D01*
Y620099D01*
X883836D01*
Y620011D01*
X884102D01*
Y619922D01*
X884368D01*
Y619833D01*
X884634D01*
Y619744D01*
X884811D01*
Y619656D01*
X885166D01*
Y619567D01*
X885343D01*
Y619478D01*
X885521D01*
Y619390D01*
X885787D01*
Y619301D01*
X885876D01*
Y619212D01*
X886053D01*
Y619124D01*
X886319D01*
Y619035D01*
X886408D01*
Y618946D01*
X886585D01*
Y618857D01*
X886763D01*
Y618769D01*
X886851D01*
Y618680D01*
X887029D01*
Y618591D01*
X887206D01*
Y618503D01*
X887295D01*
Y618414D01*
X887472D01*
Y618325D01*
X887561D01*
Y618237D01*
X887738D01*
Y618148D01*
X887827D01*
Y618059D01*
X887916D01*
Y617970D01*
X888093D01*
Y617882D01*
X888182D01*
Y617793D01*
X888271D01*
Y617704D01*
X888448D01*
Y617616D01*
X888537D01*
Y617527D01*
X888625D01*
Y617438D01*
X888803D01*
Y617261D01*
X888892D01*
Y617172D01*
X889069D01*
Y617083D01*
X889158D01*
Y616995D01*
X889246D01*
Y616906D01*
X889335D01*
Y616817D01*
X889424D01*
Y616729D01*
X889512D01*
Y616640D01*
X889601D01*
Y616551D01*
X889690D01*
Y616463D01*
X889779D01*
Y616374D01*
X889867D01*
Y616196D01*
X890045D01*
Y616019D01*
X890133D01*
Y615930D01*
X890222D01*
Y615842D01*
X890311D01*
Y615753D01*
X890399D01*
Y615575D01*
X890488D01*
Y615487D01*
X890577D01*
Y615398D01*
X890666D01*
Y615309D01*
X890754D01*
Y615221D01*
X890843D01*
Y615043D01*
X890932D01*
Y614954D01*
X891021D01*
Y614777D01*
X891109D01*
Y614600D01*
X891198D01*
Y614511D01*
X891287D01*
Y614334D01*
X891375D01*
Y614245D01*
X891464D01*
Y614156D01*
X891553D01*
Y613890D01*
X891641D01*
Y613801D01*
X891730D01*
Y613624D01*
X891819D01*
Y613447D01*
X891908D01*
Y613358D01*
X891996D01*
Y613092D01*
X892085D01*
Y612914D01*
X892174D01*
Y612826D01*
X892262D01*
Y612560D01*
X892351D01*
Y612382D01*
X892440D01*
Y612205D01*
X892528D01*
Y611850D01*
X892617D01*
Y611673D01*
X892706D01*
Y611406D01*
X892794D01*
Y611052D01*
X892883D01*
Y610874D01*
X892972D01*
Y610519D01*
X893061D01*
Y610076D01*
X893149D01*
Y609810D01*
X893238D01*
Y609189D01*
X893327D01*
Y608657D01*
X893504D01*
Y605197D01*
X893327D01*
Y604665D01*
X893238D01*
Y603955D01*
X893149D01*
Y603778D01*
X893061D01*
Y603335D01*
X892972D01*
Y602980D01*
X892883D01*
Y602802D01*
X892794D01*
Y602447D01*
X892706D01*
Y602181D01*
X892617D01*
Y602004D01*
X892528D01*
Y601649D01*
X892440D01*
Y601472D01*
X892351D01*
Y601294D01*
X892262D01*
Y601028D01*
X892174D01*
Y600939D01*
X892085D01*
Y600762D01*
X891996D01*
Y600496D01*
X891908D01*
Y600407D01*
X891819D01*
Y600230D01*
X891730D01*
Y600052D01*
X891641D01*
Y599964D01*
X891553D01*
Y599698D01*
X891464D01*
Y599609D01*
X891375D01*
Y599520D01*
X891287D01*
Y599343D01*
X891198D01*
Y599165D01*
X891109D01*
Y599077D01*
X891021D01*
Y598899D01*
X890932D01*
Y598811D01*
X890843D01*
Y598633D01*
X890754D01*
Y598545D01*
X890666D01*
Y598456D01*
X890577D01*
Y598367D01*
X890488D01*
Y598190D01*
X890399D01*
Y598101D01*
X890311D01*
Y598012D01*
X890222D01*
Y597924D01*
X890133D01*
Y597835D01*
X890045D01*
Y597658D01*
X889867D01*
Y597480D01*
X889779D01*
Y597391D01*
X889690D01*
Y597303D01*
X889601D01*
Y597214D01*
X889512D01*
Y597125D01*
X889424D01*
Y597037D01*
X889335D01*
Y596948D01*
X889246D01*
Y596859D01*
X889158D01*
Y596771D01*
X889069D01*
Y596682D01*
X888892D01*
Y596504D01*
X888714D01*
Y596416D01*
X888625D01*
Y596327D01*
X888537D01*
Y596238D01*
X888359D01*
Y596061D01*
X888182D01*
Y595972D01*
X888093D01*
Y595883D01*
X888005D01*
Y595795D01*
X887827D01*
Y595706D01*
X887738D01*
Y595617D01*
X887561D01*
Y595529D01*
X887384D01*
Y595440D01*
X887295D01*
Y595351D01*
X887206D01*
Y595262D01*
X887029D01*
Y595174D01*
X886940D01*
Y595085D01*
X886763D01*
Y594996D01*
X886585D01*
Y594908D01*
X886408D01*
Y594819D01*
X886230D01*
Y594730D01*
X886053D01*
Y594642D01*
X885964D01*
Y594553D01*
X885698D01*
Y594464D01*
X885521D01*
Y594375D01*
X885343D01*
Y594287D01*
X885077D01*
Y594198D01*
X884900D01*
Y594109D01*
X884634D01*
Y594021D01*
X884368D01*
Y593932D01*
X884190D01*
Y593843D01*
X883836D01*
Y593755D01*
X883392D01*
Y593666D01*
X883215D01*
Y593577D01*
X882594D01*
Y593488D01*
X882061D01*
Y593400D01*
X881618D01*
Y593311D01*
X879046D01*
Y593400D01*
X878602D01*
Y593488D01*
X878158D01*
Y593577D01*
X877449D01*
Y593666D01*
X877271D01*
Y593755D01*
X876828D01*
Y593843D01*
X876473D01*
Y593932D01*
X876296D01*
Y594021D01*
X876030D01*
Y594109D01*
X875764D01*
Y594198D01*
X875586D01*
Y594287D01*
X875320D01*
Y594375D01*
X875143D01*
Y594464D01*
X874965D01*
Y594553D01*
X874699D01*
Y594642D01*
X874610D01*
Y594730D01*
X874433D01*
Y594819D01*
X874256D01*
Y594908D01*
X874078D01*
Y594996D01*
X873901D01*
Y595085D01*
X873812D01*
Y595174D01*
X873635D01*
Y595262D01*
X873457D01*
Y595351D01*
X873369D01*
Y595440D01*
X873280D01*
Y595529D01*
X873014D01*
Y595706D01*
X872836D01*
Y595795D01*
X872659D01*
Y595883D01*
X872570D01*
Y595972D01*
X872482D01*
Y596061D01*
X872304D01*
Y596238D01*
X872127D01*
Y596327D01*
X872038D01*
Y596416D01*
X871949D01*
Y596504D01*
X871772D01*
Y596682D01*
X871594D01*
Y596771D01*
X871506D01*
Y596859D01*
X871417D01*
Y596948D01*
X871328D01*
Y597037D01*
X871240D01*
Y597125D01*
X871151D01*
Y597214D01*
X871062D01*
Y597303D01*
X870974D01*
Y597391D01*
X870885D01*
Y597480D01*
X870796D01*
Y597658D01*
X870619D01*
Y597746D01*
X870530D01*
Y597924D01*
X870441D01*
Y598012D01*
X870353D01*
Y598101D01*
X870264D01*
Y598190D01*
X870175D01*
Y598367D01*
X870087D01*
Y598456D01*
X869998D01*
Y598545D01*
X869909D01*
Y598722D01*
X869820D01*
Y598811D01*
X869732D01*
Y598899D01*
X869643D01*
Y599077D01*
X869554D01*
Y599165D01*
X869466D01*
Y599343D01*
X869377D01*
Y599520D01*
X869288D01*
Y599609D01*
X869200D01*
Y599698D01*
X869111D01*
Y599964D01*
X869022D01*
Y600052D01*
X868933D01*
Y600230D01*
X868845D01*
Y600407D01*
X868756D01*
Y600496D01*
X868667D01*
Y600762D01*
X868579D01*
Y600939D01*
X868490D01*
Y601028D01*
X868401D01*
Y601294D01*
X868313D01*
Y601472D01*
X868224D01*
Y601649D01*
X868135D01*
Y602004D01*
X868046D01*
Y602181D01*
X867958D01*
Y602447D01*
X867869D01*
Y602802D01*
X867780D01*
Y602891D01*
X867692D01*
Y603335D01*
X867603D01*
Y603689D01*
X867514D01*
Y603955D01*
X867426D01*
Y604576D01*
X867337D01*
Y605108D01*
X867248D01*
Y605996D01*
X867159D01*
Y606883D01*
X867248D01*
Y606971D01*
X867426D01*
Y607060D01*
X879844D01*
Y606971D01*
X880021D01*
Y607060D01*
X880110D01*
Y607149D01*
X880199D01*
Y620365D01*
X880287D01*
Y620454D01*
X880376D01*
Y620543D01*
X881174D01*
Y620454D01*
D02*
G37*
G36*
X914849Y605669D02*
X914624D01*
Y603426D01*
X914400D01*
Y601182D01*
X914176D01*
Y598938D01*
X913951D01*
Y596695D01*
X913727D01*
Y594451D01*
X913503D01*
Y593554D01*
Y593329D01*
Y592207D01*
X912605D01*
Y592880D01*
X912381D01*
Y594675D01*
X912156D01*
Y596470D01*
X911932D01*
Y598714D01*
X911708D01*
Y600958D01*
X911483D01*
Y603201D01*
X911259D01*
Y605669D01*
X911034D01*
Y606342D01*
X914849D01*
Y605669D01*
D02*
G37*
%LPC*%
G36*
X873901Y619656D02*
X872482D01*
Y619567D01*
X872304D01*
Y619478D01*
X872038D01*
Y619390D01*
X871861D01*
Y619301D01*
X871772D01*
Y619212D01*
X871594D01*
Y619124D01*
X871506D01*
Y619035D01*
X871417D01*
Y618946D01*
X871328D01*
Y618857D01*
X871151D01*
Y618680D01*
X871062D01*
Y618591D01*
X870974D01*
Y618503D01*
X870885D01*
Y618325D01*
X870796D01*
Y618148D01*
X870707D01*
Y617970D01*
X870619D01*
Y617704D01*
X870530D01*
Y616374D01*
X870619D01*
Y616019D01*
X870707D01*
Y615930D01*
X870796D01*
Y615753D01*
X870885D01*
Y615575D01*
X870974D01*
Y615487D01*
X871062D01*
Y615309D01*
X871151D01*
Y615221D01*
X871240D01*
Y615132D01*
X871328D01*
Y615043D01*
X871417D01*
Y614954D01*
X871594D01*
Y614866D01*
X871683D01*
Y614777D01*
X871861D01*
Y614688D01*
X871949D01*
Y614600D01*
X872127D01*
Y614511D01*
X872482D01*
Y614422D01*
X872836D01*
Y614334D01*
X873635D01*
Y614422D01*
X873901D01*
Y614511D01*
X874256D01*
Y614600D01*
X874433D01*
Y614688D01*
X874522D01*
Y614777D01*
X874788D01*
Y614866D01*
X874876D01*
Y614954D01*
X874965D01*
Y615043D01*
X875054D01*
Y615132D01*
X875143D01*
Y615221D01*
X875231D01*
Y615309D01*
X875320D01*
Y615398D01*
X875409D01*
Y615487D01*
X875498D01*
Y615664D01*
X875586D01*
Y615753D01*
X875675D01*
Y616019D01*
X875764D01*
Y616285D01*
X875852D01*
Y616551D01*
X875941D01*
Y617527D01*
X875852D01*
Y617793D01*
X875764D01*
Y618059D01*
X875675D01*
Y618237D01*
X875586D01*
Y618414D01*
X875498D01*
Y618503D01*
X875409D01*
Y618680D01*
X875320D01*
Y618769D01*
X875231D01*
Y618857D01*
X875143D01*
Y618946D01*
X875054D01*
Y619035D01*
X874965D01*
Y619124D01*
X874788D01*
Y619212D01*
X874699D01*
Y619301D01*
X874610D01*
Y619390D01*
X874344D01*
Y619478D01*
X874167D01*
Y619567D01*
X873901D01*
Y619656D01*
D02*
G37*
G36*
X860684Y616729D02*
X858644D01*
Y616640D01*
X858555D01*
Y616108D01*
X858644D01*
Y615487D01*
X858733D01*
Y615309D01*
X858821D01*
Y615132D01*
X858910D01*
Y614954D01*
X859087D01*
Y614777D01*
X859176D01*
Y614688D01*
X859353D01*
Y614600D01*
X859442D01*
Y614511D01*
X859620D01*
Y614422D01*
X859708D01*
Y614334D01*
X859975D01*
Y614245D01*
X860507D01*
Y614156D01*
X861216D01*
Y614245D01*
X861571D01*
Y614334D01*
X861837D01*
Y614422D01*
X861926D01*
Y614511D01*
X862015D01*
Y614600D01*
X862103D01*
Y614688D01*
X862192D01*
Y614777D01*
X862281D01*
Y614954D01*
X862369D01*
Y615753D01*
X862281D01*
Y615930D01*
X862192D01*
Y616019D01*
X862103D01*
Y616108D01*
X862015D01*
Y616196D01*
X861837D01*
Y616285D01*
X861749D01*
Y616374D01*
X861571D01*
Y616463D01*
X861305D01*
Y616551D01*
X861039D01*
Y616640D01*
X860684D01*
Y616729D01*
D02*
G37*
%LPD*%
D10*
X1314450Y955400D02*
X1372740D01*
X1314450Y782500D02*
X1372740D01*
Y955400D01*
X819150Y1029970D02*
X1314450D01*
X819150Y529590D02*
X819150Y1029970D01*
X819150Y529590D02*
X1314450D01*
Y782230D01*
Y955130D02*
X1314450Y955130D01*
X1314450Y955130D02*
Y1029970D01*
X1314450Y1029970D01*
D11*
X1333500Y782320D02*
X1356360D01*
X1333500D02*
Y949960D01*
X1356360Y782320D02*
X1363980Y789940D01*
Y949960D01*
X1333500D02*
X1363980D01*
X1304629Y975444D02*
X1305052Y975867D01*
X1305899D01*
X1306322Y975444D01*
Y973751D01*
X1305899Y973328D01*
X1305052D01*
X1304629Y973751D01*
Y974598D01*
X1305476D01*
X1303783Y973328D02*
Y975867D01*
X1302090Y973328D01*
Y975867D01*
X1301244D02*
Y973328D01*
X1299974D01*
X1299551Y973751D01*
Y975444D01*
X1299974Y975867D01*
X1301244D01*
D12*
X1148926Y742225D02*
Y733338D01*
X1153370D01*
X1154851Y734819D01*
Y740744D01*
X1153370Y742225D01*
X1148926D01*
X1163738D02*
X1157813D01*
Y737781D01*
X1160776Y739263D01*
X1162257D01*
X1163738Y737781D01*
Y734819D01*
X1162257Y733338D01*
X1159295D01*
X1157813Y734819D01*
X1166701Y737781D02*
X1172625D01*
X1181513Y733338D02*
X1175588D01*
X1181513Y739263D01*
Y740744D01*
X1180031Y742225D01*
X1177069D01*
X1175588Y740744D01*
X1293709Y1013032D02*
X1300480D01*
Y1007954D01*
X1297094D01*
X1300480D01*
Y1002876D01*
X1290323Y1013032D02*
Y1002876D01*
X1285245D01*
X1283552Y1004568D01*
Y1011339D01*
X1285245Y1013032D01*
X1290323D01*
X1273395Y1011339D02*
X1275088Y1013032D01*
X1278474D01*
X1280167Y1011339D01*
Y1009647D01*
X1278474Y1007954D01*
X1275088D01*
X1273395Y1006261D01*
Y1004568D01*
X1275088Y1002876D01*
X1278474D01*
X1280167Y1004568D01*
X1264931Y1013032D02*
X1268317D01*
X1270010Y1011339D01*
Y1004568D01*
X1268317Y1002876D01*
X1264931D01*
X1263239Y1004568D01*
Y1011339D01*
X1264931Y1013032D01*
X1259853D02*
X1256468D01*
X1258160D01*
Y1002876D01*
X1259853D01*
X1256468D01*
X1241232Y1013032D02*
Y1002876D01*
X1236154D01*
X1234461Y1004568D01*
Y1006261D01*
X1236154Y1007954D01*
X1241232D01*
X1236154D01*
X1234461Y1009647D01*
Y1011339D01*
X1236154Y1013032D01*
X1241232D01*
X1231076Y1002876D02*
X1227690D01*
X1229383D01*
Y1009647D01*
X1231076D01*
X1220919Y1002876D02*
X1217533D01*
X1215841Y1004568D01*
Y1007954D01*
X1217533Y1009647D01*
X1220919D01*
X1222612Y1007954D01*
Y1004568D01*
X1220919Y1002876D01*
X1205684Y1011339D02*
X1207377Y1013032D01*
X1210762D01*
X1212455Y1011339D01*
Y1004568D01*
X1210762Y1002876D01*
X1207377D01*
X1205684Y1004568D01*
X1202298Y1013032D02*
Y1002876D01*
Y1007954D01*
X1200605Y1009647D01*
X1197220D01*
X1195527Y1007954D01*
Y1002876D01*
X1192142D02*
X1188756D01*
X1190449D01*
Y1009647D01*
X1192142D01*
X1183678Y999490D02*
Y1009647D01*
X1178599D01*
X1176907Y1007954D01*
Y1004568D01*
X1178599Y1002876D01*
X1183678D01*
X1036317Y655740D02*
X1027430D01*
Y651297D01*
X1028911Y649816D01*
X1034836D01*
X1036317Y651297D01*
Y655740D01*
X1027430Y640928D02*
Y646853D01*
X1033355Y640928D01*
X1034836D01*
X1036317Y642410D01*
Y645372D01*
X1034836Y646853D01*
X1031874Y637966D02*
Y632041D01*
X1027430Y623154D02*
Y629079D01*
X1033355Y623154D01*
X1034836D01*
X1036317Y624635D01*
Y627598D01*
X1034836Y629079D01*
X1074965Y655740D02*
X1066078D01*
Y651297D01*
X1067559Y649816D01*
X1073484D01*
X1074965Y651297D01*
Y655740D01*
X1073484Y646853D02*
X1074965Y645372D01*
Y642410D01*
X1073484Y640928D01*
X1072003D01*
X1070521Y642410D01*
Y643891D01*
Y642410D01*
X1069040Y640928D01*
X1067559D01*
X1066078Y642410D01*
Y645372D01*
X1067559Y646853D01*
X1070521Y637966D02*
Y632041D01*
X1066078Y623154D02*
Y629079D01*
X1072003Y623154D01*
X1073484D01*
X1074965Y624635D01*
Y627598D01*
X1073484Y629079D01*
X998217Y654259D02*
X989330D01*
Y649816D01*
X990811Y648334D01*
X996736D01*
X998217Y649816D01*
Y654259D01*
X989330Y645372D02*
Y642410D01*
Y643891D01*
X998217D01*
X996736Y645372D01*
X993774Y637966D02*
Y632041D01*
X989330Y623154D02*
Y629079D01*
X995255Y623154D01*
X996736D01*
X998217Y624635D01*
Y627598D01*
X996736Y629079D01*
X1087665Y652778D02*
X1078778D01*
Y648334D01*
X1080259Y646853D01*
X1086184D01*
X1087665Y648334D01*
Y652778D01*
X1078778Y639447D02*
X1087665D01*
X1083221Y643891D01*
Y637966D01*
Y635004D02*
Y629079D01*
X1078778Y626117D02*
Y623154D01*
Y624635D01*
X1087665D01*
X1086184Y626117D01*
X1010917Y652778D02*
X1002030D01*
Y648334D01*
X1003511Y646853D01*
X1009436D01*
X1010917Y648334D01*
Y652778D01*
X1002030Y637966D02*
Y643891D01*
X1007955Y637966D01*
X1009436D01*
X1010917Y639447D01*
Y642410D01*
X1009436Y643891D01*
X1006474Y635004D02*
Y629079D01*
X1002030Y626117D02*
Y623154D01*
Y624635D01*
X1010917D01*
X1009436Y626117D01*
X1049565Y652778D02*
X1040678D01*
Y648334D01*
X1042159Y646853D01*
X1048084D01*
X1049565Y648334D01*
Y652778D01*
X1048084Y643891D02*
X1049565Y642410D01*
Y639447D01*
X1048084Y637966D01*
X1046603D01*
X1045121Y639447D01*
Y640928D01*
Y639447D01*
X1043640Y637966D01*
X1042159D01*
X1040678Y639447D01*
Y642410D01*
X1042159Y643891D01*
X1045121Y635004D02*
Y629079D01*
X1040678Y626117D02*
Y623154D01*
Y624635D01*
X1049565D01*
X1048084Y626117D01*
X1060784Y632041D02*
X1062265Y633522D01*
Y636485D01*
X1060784Y637966D01*
X1059303D01*
X1057821Y636485D01*
Y633522D01*
X1056340Y632041D01*
X1054859D01*
X1053378Y633522D01*
Y636485D01*
X1054859Y637966D01*
X1060784Y629079D02*
X1062265Y627598D01*
Y624635D01*
X1060784Y623154D01*
X1059303D01*
X1057821Y624635D01*
Y626117D01*
Y624635D01*
X1056340Y623154D01*
X1054859D01*
X1053378Y624635D01*
Y627598D01*
X1054859Y629079D01*
X1022136Y632041D02*
X1023617Y633522D01*
Y636485D01*
X1022136Y637966D01*
X1020655D01*
X1019174Y636485D01*
Y633522D01*
X1017692Y632041D01*
X1016211D01*
X1014730Y633522D01*
Y636485D01*
X1016211Y637966D01*
X1014730Y623154D02*
Y629079D01*
X1020655Y623154D01*
X1022136D01*
X1023617Y624635D01*
Y627598D01*
X1022136Y629079D01*
X1098884Y632041D02*
X1100365Y633522D01*
Y636485D01*
X1098884Y637966D01*
X1097403D01*
X1095921Y636485D01*
Y633522D01*
X1094440Y632041D01*
X1092959D01*
X1091478Y633522D01*
Y636485D01*
X1092959Y637966D01*
X1091478Y624635D02*
X1100365D01*
X1095921Y629079D01*
Y623154D01*
X984247Y637966D02*
X975360D01*
Y633522D01*
X976841Y632041D01*
X978322D01*
X979804Y633522D01*
Y637966D01*
Y633522D01*
X981285Y632041D01*
X982766D01*
X984247Y633522D01*
Y637966D01*
X982766Y623154D02*
X984247Y624635D01*
Y627598D01*
X982766Y629079D01*
X976841D01*
X975360Y627598D01*
Y624635D01*
X976841Y623154D01*
X979804D01*
Y626117D01*
X916004Y689396D02*
X914523Y690877D01*
X911560D01*
X910079Y689396D01*
Y687915D01*
X911560Y686434D01*
X914523D01*
X916004Y684952D01*
Y683471D01*
X914523Y681990D01*
X911560D01*
X910079Y683471D01*
X918966Y681990D02*
X921929D01*
X920447D01*
Y690877D01*
X918966Y689396D01*
X910079Y716277D02*
Y707390D01*
X914523D01*
X916004Y708871D01*
Y714796D01*
X914523Y716277D01*
X910079D01*
X918966Y707390D02*
X921929D01*
X920447D01*
Y716277D01*
X918966Y714796D01*
X926372Y707390D02*
X929334D01*
X927853D01*
Y716277D01*
X926372Y714796D01*
X933778Y711834D02*
X939703D01*
X948590Y707390D02*
X942665D01*
X948590Y713315D01*
Y714796D01*
X947109Y716277D01*
X944146D01*
X942665Y714796D01*
X916004Y728044D02*
X914523Y729525D01*
X911560D01*
X910079Y728044D01*
Y726563D01*
X911560Y725081D01*
X914523D01*
X916004Y723600D01*
Y722119D01*
X914523Y720638D01*
X911560D01*
X910079Y722119D01*
X918966Y720638D02*
X921929D01*
X920447D01*
Y729525D01*
X918966Y728044D01*
X926372Y720638D02*
X929334D01*
X927853D01*
Y729525D01*
X926372Y728044D01*
X910079Y742225D02*
Y733338D01*
X914523D01*
X916004Y734819D01*
Y740744D01*
X914523Y742225D01*
X910079D01*
X918966Y733338D02*
X921929D01*
X920447D01*
Y742225D01*
X918966Y740744D01*
X926372Y733338D02*
X929334D01*
X927853D01*
Y742225D01*
X926372Y740744D01*
X933778Y737781D02*
X939703D01*
X942665Y733338D02*
X945628D01*
X944146D01*
Y742225D01*
X942665Y740744D01*
X910079Y780325D02*
Y771438D01*
X914523D01*
X916004Y772919D01*
Y778844D01*
X914523Y780325D01*
X910079D01*
X918966Y771438D02*
X921929D01*
X920447D01*
Y780325D01*
X918966Y778844D01*
X926372D02*
X927853Y780325D01*
X930816D01*
X932297Y778844D01*
Y772919D01*
X930816Y771438D01*
X927853D01*
X926372Y772919D01*
Y778844D01*
X935259Y775881D02*
X941184D01*
X944146Y771438D02*
X947109D01*
X945628D01*
Y780325D01*
X944146Y778844D01*
X910079Y703577D02*
Y694690D01*
X914523D01*
X916004Y696171D01*
Y702096D01*
X914523Y703577D01*
X910079D01*
X918966Y694690D02*
X921929D01*
X920447D01*
Y703577D01*
X918966Y702096D01*
X926372Y699134D02*
X932297D01*
X935259Y694690D02*
X938222D01*
X936740D01*
Y703577D01*
X935259Y702096D01*
X916004Y766144D02*
X914523Y767625D01*
X911560D01*
X910079Y766144D01*
Y764663D01*
X911560Y763181D01*
X914523D01*
X916004Y761700D01*
Y760219D01*
X914523Y758738D01*
X911560D01*
X910079Y760219D01*
X918966Y758738D02*
X921929D01*
X920447D01*
Y767625D01*
X918966Y766144D01*
X926372D02*
X927853Y767625D01*
X930816D01*
X932297Y766144D01*
Y760219D01*
X930816Y758738D01*
X927853D01*
X926372Y760219D01*
Y766144D01*
X910079Y754925D02*
Y746038D01*
X914523D01*
X916004Y747519D01*
Y753444D01*
X914523Y754925D01*
X910079D01*
X918966Y746038D02*
X921929D01*
X920447D01*
Y754925D01*
X918966Y753444D01*
X926372D02*
X927853Y754925D01*
X930816D01*
X932297Y753444D01*
Y747519D01*
X930816Y746038D01*
X927853D01*
X926372Y747519D01*
Y753444D01*
X935259Y750481D02*
X941184D01*
X950071Y746038D02*
X944146D01*
X950071Y751963D01*
Y753444D01*
X948590Y754925D01*
X945628D01*
X944146Y753444D01*
X1064474Y829725D02*
X1062993Y828244D01*
Y825282D01*
X1064474Y823801D01*
X1065955D01*
X1067436Y825282D01*
Y828244D01*
X1068918Y829725D01*
X1070399D01*
X1071880Y828244D01*
Y825282D01*
X1070399Y823801D01*
X1062993Y832688D02*
Y838613D01*
X1064474D01*
X1070399Y832688D01*
X1071880D01*
X1075693Y808989D02*
X1084580D01*
Y813432D01*
X1083099Y814913D01*
X1077174D01*
X1075693Y813432D01*
Y808989D01*
Y817876D02*
Y823801D01*
X1077174D01*
X1083099Y817876D01*
X1084580D01*
X1080136Y826763D02*
Y832688D01*
X1084580Y835650D02*
Y838613D01*
Y837131D01*
X1075693D01*
X1077174Y835650D01*
X1025826Y829725D02*
X1024345Y828244D01*
Y825282D01*
X1025826Y823801D01*
X1027307D01*
X1028789Y825282D01*
Y828244D01*
X1030270Y829725D01*
X1031751D01*
X1033232Y828244D01*
Y825282D01*
X1031751Y823801D01*
X1025826Y832688D02*
X1024345Y834169D01*
Y837131D01*
X1025826Y838613D01*
X1027307D01*
X1028789Y837131D01*
X1030270Y838613D01*
X1031751D01*
X1033232Y837131D01*
Y834169D01*
X1031751Y832688D01*
X1030270D01*
X1028789Y834169D01*
X1027307Y832688D01*
X1025826D01*
X1028789Y834169D02*
Y837131D01*
X1011645Y806026D02*
X1020532D01*
Y810470D01*
X1019051Y811951D01*
X1013126D01*
X1011645Y810470D01*
Y806026D01*
X1013126Y814913D02*
X1011645Y816395D01*
Y819357D01*
X1013126Y820838D01*
X1014607D01*
X1016089Y819357D01*
X1017570Y820838D01*
X1019051D01*
X1020532Y819357D01*
Y816395D01*
X1019051Y814913D01*
X1017570D01*
X1016089Y816395D01*
X1014607Y814913D01*
X1013126D01*
X1016089Y816395D02*
Y819357D01*
Y823801D02*
Y829725D01*
X1020532Y838613D02*
Y832688D01*
X1014607Y838613D01*
X1013126D01*
X1011645Y837131D01*
Y834169D01*
X1013126Y832688D01*
X1037593Y808989D02*
X1046480D01*
Y813432D01*
X1044999Y814913D01*
X1039074D01*
X1037593Y813432D01*
Y808989D01*
X1039074Y817876D02*
X1037593Y819357D01*
Y822319D01*
X1039074Y823801D01*
X1040555D01*
X1042036Y822319D01*
X1043518Y823801D01*
X1044999D01*
X1046480Y822319D01*
Y819357D01*
X1044999Y817876D01*
X1043518D01*
X1042036Y819357D01*
X1040555Y817876D01*
X1039074D01*
X1042036Y819357D02*
Y822319D01*
Y826763D02*
Y832688D01*
X1046480Y835650D02*
Y838613D01*
Y837131D01*
X1037593D01*
X1039074Y835650D01*
X998945Y808989D02*
X1007832D01*
Y813432D01*
X1006351Y814913D01*
X1000426D01*
X998945Y813432D01*
Y808989D01*
X1006351Y817876D02*
X1007832Y819357D01*
Y822319D01*
X1006351Y823801D01*
X1000426D01*
X998945Y822319D01*
Y819357D01*
X1000426Y817876D01*
X1001907D01*
X1003389Y819357D01*
Y823801D01*
Y826763D02*
Y832688D01*
X1007832Y835650D02*
Y838613D01*
Y837131D01*
X998945D01*
X1000426Y835650D01*
X1050293Y806026D02*
X1059180D01*
Y810470D01*
X1057699Y811951D01*
X1051774D01*
X1050293Y810470D01*
Y806026D01*
Y814913D02*
Y820838D01*
X1051774D01*
X1057699Y814913D01*
X1059180D01*
X1054736Y823801D02*
Y829725D01*
X1059180Y838613D02*
Y832688D01*
X1053255Y838613D01*
X1051774D01*
X1050293Y837131D01*
Y834169D01*
X1051774Y832688D01*
X1089663Y806026D02*
X1098550D01*
Y810470D01*
X1097069Y811951D01*
X1091144D01*
X1089663Y810470D01*
Y806026D01*
Y820838D02*
X1091144Y817876D01*
X1094106Y814913D01*
X1097069D01*
X1098550Y816395D01*
Y819357D01*
X1097069Y820838D01*
X1095588D01*
X1094106Y819357D01*
Y814913D01*
Y823801D02*
Y829725D01*
X1098550Y838613D02*
Y832688D01*
X1092625Y838613D01*
X1091144D01*
X1089663Y837131D01*
Y834169D01*
X1091144Y832688D01*
X973545Y806026D02*
X982432D01*
Y810470D01*
X980951Y811951D01*
X975026D01*
X973545Y810470D01*
Y806026D01*
X980951Y814913D02*
X982432Y816395D01*
Y819357D01*
X980951Y820838D01*
X975026D01*
X973545Y819357D01*
Y816395D01*
X975026Y814913D01*
X976507D01*
X977989Y816395D01*
Y820838D01*
Y823801D02*
Y829725D01*
X982432Y838613D02*
Y832688D01*
X976507Y838613D01*
X975026D01*
X973545Y837131D01*
Y834169D01*
X975026Y832688D01*
X987726Y829725D02*
X986245Y828244D01*
Y825282D01*
X987726Y823801D01*
X989207D01*
X990689Y825282D01*
Y828244D01*
X992170Y829725D01*
X993651D01*
X995132Y828244D01*
Y825282D01*
X993651Y823801D01*
Y832688D02*
X995132Y834169D01*
Y837131D01*
X993651Y838613D01*
X987726D01*
X986245Y837131D01*
Y834169D01*
X987726Y832688D01*
X989207D01*
X990689Y834169D01*
Y838613D01*
X1149350Y689607D02*
Y680720D01*
X1153794D01*
X1155275Y682201D01*
Y688126D01*
X1153794Y689607D01*
X1149350D01*
X1162681Y680720D02*
Y689607D01*
X1158237Y685164D01*
X1164162D01*
X1167124D02*
X1173049D01*
X1181936Y680720D02*
X1176011D01*
X1181936Y686645D01*
Y688126D01*
X1180455Y689607D01*
X1177493D01*
X1176011Y688126D01*
X1155700Y703577D02*
X1161625D01*
X1158662D01*
Y694690D01*
X1170512Y702096D02*
X1169031Y703577D01*
X1166068D01*
X1164587Y702096D01*
Y696171D01*
X1166068Y694690D01*
X1169031D01*
X1170512Y696171D01*
Y699134D01*
X1167550D01*
X1179399Y694690D02*
X1173474D01*
X1179399Y700615D01*
Y702096D01*
X1177918Y703577D01*
X1174955D01*
X1173474Y702096D01*
X1151889Y716277D02*
Y707390D01*
X1156332D01*
X1157813Y708871D01*
Y714796D01*
X1156332Y716277D01*
X1151889D01*
X1166701D02*
X1160776D01*
Y711834D01*
X1163738Y713315D01*
X1165219D01*
X1166701Y711834D01*
Y708871D01*
X1165219Y707390D01*
X1162257D01*
X1160776Y708871D01*
X1169663Y711834D02*
X1175588D01*
X1178550Y707390D02*
X1181513D01*
X1180031D01*
Y716277D01*
X1178550Y714796D01*
X1172625Y728044D02*
X1171144Y729525D01*
X1168182D01*
X1166701Y728044D01*
Y726563D01*
X1168182Y725081D01*
X1171144D01*
X1172625Y723600D01*
Y722119D01*
X1171144Y720638D01*
X1168182D01*
X1166701Y722119D01*
X1181513Y729525D02*
X1175588D01*
Y725081D01*
X1178550Y726563D01*
X1180031D01*
X1181513Y725081D01*
Y722119D01*
X1180031Y720638D01*
X1177069D01*
X1175588Y722119D01*
X1155700Y754377D02*
X1161625D01*
X1158662D01*
Y745490D01*
X1170512Y752896D02*
X1169031Y754377D01*
X1166068D01*
X1164587Y752896D01*
Y746971D01*
X1166068Y745490D01*
X1169031D01*
X1170512Y746971D01*
Y749934D01*
X1167550D01*
X1173474Y745490D02*
X1176437D01*
X1174955D01*
Y754377D01*
X1173474Y752896D01*
X1151890Y768347D02*
Y759460D01*
X1156334D01*
X1157815Y760941D01*
Y766866D01*
X1156334Y768347D01*
X1151890D01*
X1166702D02*
X1163739Y766866D01*
X1160777Y763904D01*
Y760941D01*
X1162258Y759460D01*
X1165221D01*
X1166702Y760941D01*
Y762422D01*
X1165221Y763904D01*
X1160777D01*
X1169664D02*
X1175589D01*
X1178551Y759460D02*
X1181514D01*
X1180033D01*
Y768347D01*
X1178551Y766866D01*
X1171785Y778296D02*
X1170304Y779777D01*
X1167341D01*
X1165860Y778296D01*
Y776815D01*
X1167341Y775334D01*
X1170304D01*
X1171785Y773852D01*
Y772371D01*
X1170304Y770890D01*
X1167341D01*
X1165860Y772371D01*
X1180672Y779777D02*
X1177710Y778296D01*
X1174747Y775334D01*
Y772371D01*
X1176228Y770890D01*
X1179191D01*
X1180672Y772371D01*
Y773852D01*
X1179191Y775334D01*
X1174747D01*
X1327150Y789940D02*
X1325457D01*
X1326304D01*
Y795018D01*
X1327150Y794172D01*
X1325034Y942340D02*
X1328420D01*
X1325034Y945726D01*
Y946572D01*
X1325881Y947418D01*
X1327574D01*
X1328420Y946572D01*
X1323342D02*
X1322495Y947418D01*
X1320802D01*
X1319956Y946572D01*
Y943186D01*
X1320802Y942340D01*
X1322495D01*
X1323342Y943186D01*
Y946572D01*
M02*
