G04*
G04 #@! TF.GenerationSoftware,Altium Limited,Altium Designer,23.1.1 (15)*
G04*
G04 Layer_Color=8388736*
%FSLAX44Y44*%
%MOMM*%
G71*
G04*
G04 #@! TF.SameCoordinates,039F267E-1467-4E99-976D-C296C5409836*
G04*
G04*
G04 #@! TF.FilePolarity,Negative*
G04*
G01*
G75*
%ADD14R,3.0032X0.7532*%
%ADD15C,0.2032*%
%ADD16C,1.1032*%
%ADD17R,1.1032X1.1032*%
%ADD18R,1.1032X1.1032*%
D14*
X1348740Y792750D02*
D03*
Y864750D02*
D03*
Y944750D02*
D03*
Y800750D02*
D03*
Y808750D02*
D03*
Y816750D02*
D03*
Y824750D02*
D03*
Y832750D02*
D03*
Y840750D02*
D03*
Y848750D02*
D03*
Y856750D02*
D03*
Y872750D02*
D03*
Y880750D02*
D03*
Y888750D02*
D03*
Y896750D02*
D03*
Y904750D02*
D03*
Y912750D02*
D03*
Y920750D02*
D03*
Y928750D02*
D03*
Y936750D02*
D03*
D15*
X1141452Y988390D02*
D03*
X899200Y988010D02*
D03*
Y559590D02*
D03*
X1257300Y560070D02*
D03*
D16*
X1094050Y669430D02*
D03*
X1081350D02*
D03*
X1068650D02*
D03*
X1055950D02*
D03*
X1043250D02*
D03*
X1030550D02*
D03*
X1017850D02*
D03*
X1005150D02*
D03*
X992450D02*
D03*
Y791680D02*
D03*
X1094050D02*
D03*
X1081350D02*
D03*
X1068650D02*
D03*
X1055950D02*
D03*
X1043250D02*
D03*
X1030550D02*
D03*
X1017850D02*
D03*
X1005150D02*
D03*
X1135935Y774659D02*
D03*
Y761959D02*
D03*
Y749259D02*
D03*
Y736559D02*
D03*
Y723859D02*
D03*
Y711159D02*
D03*
Y698459D02*
D03*
X963685Y774659D02*
D03*
Y761959D02*
D03*
Y749259D02*
D03*
Y736559D02*
D03*
Y723859D02*
D03*
Y711159D02*
D03*
Y698459D02*
D03*
D17*
X979750Y669430D02*
D03*
Y791680D02*
D03*
D18*
X1135935Y685759D02*
D03*
X963685D02*
D03*
M02*
