G04*
G04 #@! TF.GenerationSoftware,Altium Limited,Altium Designer,23.1.1 (15)*
G04*
G04 Layer_Color=16711935*
%FSLAX44Y44*%
%MOMM*%
G71*
G04*
G04 #@! TF.SameCoordinates,43C99A1D-4787-4DCC-862B-E30C170DDE45*
G04*
G04*
G04 #@! TF.FilePolarity,Negative*
G04*
G01*
G75*
%ADD36C,1.5212*%
%ADD37C,1.6032*%
%ADD38C,1.9282*%
%ADD39R,1.9282X1.9282*%
%ADD40C,2.6032*%
%ADD41C,1.0532*%
%ADD42C,1.1032*%
%ADD43C,1.7018*%
%ADD67R,0.6532X1.6782*%
%ADD68R,1.4032X0.8032*%
D36*
X664820Y835220D02*
D03*
X859820D02*
D03*
D37*
X655320Y765220D02*
D03*
X869320D02*
D03*
D38*
X342900Y806450D02*
D03*
Y769620D02*
D03*
D39*
X368300Y806450D02*
D03*
Y769620D02*
D03*
D40*
X586740Y391160D02*
D03*
Y340360D02*
D03*
X535940D02*
D03*
Y391160D02*
D03*
X561340Y365760D02*
D03*
X864870Y193040D02*
D03*
Y142240D02*
D03*
X814070D02*
D03*
Y193040D02*
D03*
X839470Y167640D02*
D03*
X683260Y187960D02*
D03*
Y137160D02*
D03*
X632460D02*
D03*
Y187960D02*
D03*
X657860Y162560D02*
D03*
X365760Y397510D02*
D03*
Y346710D02*
D03*
X314960D02*
D03*
Y397510D02*
D03*
X340360Y372110D02*
D03*
X956310Y387350D02*
D03*
Y336550D02*
D03*
X905510D02*
D03*
Y387350D02*
D03*
X930910Y361950D02*
D03*
X361950Y594360D02*
D03*
Y543560D02*
D03*
X311150D02*
D03*
Y594360D02*
D03*
X336550Y568960D02*
D03*
X770255Y387350D02*
D03*
Y336550D02*
D03*
X719455D02*
D03*
Y387350D02*
D03*
X744855Y361950D02*
D03*
D41*
X92160Y111760D02*
D03*
D42*
X137160D02*
D03*
D43*
X233680Y797560D02*
D03*
Y772160D02*
D03*
X208280Y797560D02*
D03*
Y772160D02*
D03*
X182880Y797560D02*
D03*
Y772160D02*
D03*
X157480Y797560D02*
D03*
X157480Y772160D02*
D03*
X132080Y797560D02*
D03*
X132080Y772160D02*
D03*
X106680Y797560D02*
D03*
Y772160D02*
D03*
X81280Y797560D02*
D03*
Y772160D02*
D03*
D67*
X765270Y595630D02*
D03*
X771770D02*
D03*
X778270D02*
D03*
X784770D02*
D03*
X791270D02*
D03*
X797770D02*
D03*
X804270D02*
D03*
X810770D02*
D03*
Y536870D02*
D03*
X804270D02*
D03*
X797770D02*
D03*
X791270D02*
D03*
X784770D02*
D03*
X778270D02*
D03*
X771770D02*
D03*
X765270D02*
D03*
X943010Y595630D02*
D03*
X949510D02*
D03*
X956010D02*
D03*
X962510D02*
D03*
X969010D02*
D03*
X975510D02*
D03*
X982010D02*
D03*
X988510D02*
D03*
Y536870D02*
D03*
X982010D02*
D03*
X975510D02*
D03*
X969010D02*
D03*
X962510D02*
D03*
X956010D02*
D03*
X949510D02*
D03*
X943010D02*
D03*
X498660Y595630D02*
D03*
X505160D02*
D03*
X511660D02*
D03*
X518160D02*
D03*
X524660D02*
D03*
X531160D02*
D03*
X537660D02*
D03*
X544160D02*
D03*
Y536870D02*
D03*
X537660D02*
D03*
X531160D02*
D03*
X524660D02*
D03*
X518160D02*
D03*
X511660D02*
D03*
X505160D02*
D03*
X498660D02*
D03*
X587530D02*
D03*
X594030D02*
D03*
X600530D02*
D03*
X607030D02*
D03*
X613530D02*
D03*
X620030D02*
D03*
X626530D02*
D03*
X633030D02*
D03*
Y595630D02*
D03*
X626530D02*
D03*
X620030D02*
D03*
X613530D02*
D03*
X607030D02*
D03*
X600530D02*
D03*
X594030D02*
D03*
X587530D02*
D03*
X676400Y536870D02*
D03*
X682900D02*
D03*
X689400D02*
D03*
X695900D02*
D03*
X702400D02*
D03*
X708900D02*
D03*
X715400D02*
D03*
X721900D02*
D03*
Y595630D02*
D03*
X715400D02*
D03*
X708900D02*
D03*
X702400D02*
D03*
X695900D02*
D03*
X689400D02*
D03*
X682900D02*
D03*
X676400D02*
D03*
X854140Y536870D02*
D03*
X860640D02*
D03*
X867140D02*
D03*
X873640D02*
D03*
X880140D02*
D03*
X886640D02*
D03*
X893140D02*
D03*
X899640D02*
D03*
Y595630D02*
D03*
X893140D02*
D03*
X886640D02*
D03*
X880140D02*
D03*
X873640D02*
D03*
X867140D02*
D03*
X860640D02*
D03*
X854140D02*
D03*
D68*
X757990Y672440D02*
D03*
Y662940D02*
D03*
Y653440D02*
D03*
X732990D02*
D03*
Y662940D02*
D03*
Y672440D02*
D03*
X599040D02*
D03*
Y662940D02*
D03*
Y653440D02*
D03*
X574040D02*
D03*
Y662940D02*
D03*
Y672440D02*
D03*
X906630Y653440D02*
D03*
X906630Y662940D02*
D03*
X906630Y672440D02*
D03*
X931630D02*
D03*
Y662940D02*
D03*
Y653440D02*
D03*
M02*
