G04*
G04 #@! TF.GenerationSoftware,Altium Limited,Altium Designer,23.1.1 (15)*
G04*
G04 Layer_Color=8388736*
%FSLAX44Y44*%
%MOMM*%
G71*
G04*
G04 #@! TF.SameCoordinates,43C99A1D-4787-4DCC-862B-E30C170DDE45*
G04*
G04*
G04 #@! TF.FilePolarity,Negative*
G04*
G01*
G75*
%ADD26R,0.8732X1.6132*%
%ADD27R,1.6132X0.8732*%
%ADD28R,0.7032X1.8532*%
%ADD29R,0.7032X1.5532*%
G04:AMPARAMS|DCode=30|XSize=1.6782mm|YSize=0.5032mm|CornerRadius=0mm|HoleSize=0mm|Usage=FLASHONLY|Rotation=45.000|XOffset=0mm|YOffset=0mm|HoleType=Round|Shape=Rectangle|*
%AMROTATEDRECTD30*
4,1,4,-0.4154,-0.7712,-0.7712,-0.4154,0.4154,0.7712,0.7712,0.4154,-0.4154,-0.7712,0.0*
%
%ADD30ROTATEDRECTD30*%

G04:AMPARAMS|DCode=31|XSize=1.6782mm|YSize=0.5032mm|CornerRadius=0mm|HoleSize=0mm|Usage=FLASHONLY|Rotation=315.000|XOffset=0mm|YOffset=0mm|HoleType=Round|Shape=Rectangle|*
%AMROTATEDRECTD31*
4,1,4,-0.7712,0.4154,-0.4154,0.7712,0.7712,-0.4154,0.4154,-0.7712,-0.7712,0.4154,0.0*
%
%ADD31ROTATEDRECTD31*%

%ADD32R,2.7032X4.2032*%
%ADD33R,2.4932X2.4932*%
%ADD34R,0.8532X1.7282*%
%ADD35R,1.2032X1.6532*%
%ADD36C,1.5212*%
%ADD37C,1.6032*%
%ADD38C,1.9282*%
%ADD39R,1.9282X1.9282*%
%ADD40C,2.6032*%
%ADD41C,1.0532*%
%ADD42C,1.1032*%
%ADD43C,1.7018*%
D26*
X212090Y41910D02*
D03*
X230890D02*
D03*
X322330Y680720D02*
D03*
X303530D02*
D03*
D27*
X346710Y176787D02*
D03*
Y157987D02*
D03*
X400050Y811530D02*
D03*
Y830330D02*
D03*
X424180Y811780D02*
D03*
Y830580D02*
D03*
X226060Y172970D02*
D03*
Y191770D02*
D03*
X256540Y158750D02*
D03*
Y177550D02*
D03*
X323850Y156460D02*
D03*
Y175260D02*
D03*
D28*
X686320Y755970D02*
D03*
X694320D02*
D03*
X702320D02*
D03*
X710320D02*
D03*
X718320D02*
D03*
X726320D02*
D03*
X734320D02*
D03*
X742320D02*
D03*
X750320D02*
D03*
X758320D02*
D03*
X766320D02*
D03*
X774320D02*
D03*
X782320D02*
D03*
X790320D02*
D03*
X798320D02*
D03*
X806320D02*
D03*
X814320D02*
D03*
X822320D02*
D03*
X830320D02*
D03*
X838320D02*
D03*
D29*
X686320Y775970D02*
D03*
X694320D02*
D03*
X702320D02*
D03*
X710320D02*
D03*
X718320D02*
D03*
X726320D02*
D03*
X734320D02*
D03*
X742320D02*
D03*
X750320D02*
D03*
X758320D02*
D03*
X766320D02*
D03*
X774320D02*
D03*
X782320D02*
D03*
X790320D02*
D03*
X798320D02*
D03*
X806320D02*
D03*
X814320D02*
D03*
X822320D02*
D03*
X830320D02*
D03*
X838320D02*
D03*
D30*
X491852Y807603D02*
D03*
X495387Y804067D02*
D03*
X498923Y800531D02*
D03*
X502458Y796996D02*
D03*
X505994Y793460D02*
D03*
X509529Y789925D02*
D03*
X513065Y786389D02*
D03*
X516600Y782854D02*
D03*
X520136Y779318D02*
D03*
X523671Y775783D02*
D03*
X527207Y772247D02*
D03*
X530743Y768712D02*
D03*
X470808Y708777D02*
D03*
X467273Y712313D02*
D03*
X463737Y715848D02*
D03*
X460202Y719384D02*
D03*
X456666Y722919D02*
D03*
X453131Y726455D02*
D03*
X449595Y729991D02*
D03*
X446059Y733526D02*
D03*
X442524Y737062D02*
D03*
X438988Y740597D02*
D03*
X435453Y744133D02*
D03*
X431917Y747668D02*
D03*
D31*
X530743D02*
D03*
X527207Y744133D02*
D03*
X523671Y740597D02*
D03*
X520136Y737062D02*
D03*
X516600Y733526D02*
D03*
X513065Y729991D02*
D03*
X509529Y726455D02*
D03*
X505994Y722919D02*
D03*
X502458Y719384D02*
D03*
X498923Y715848D02*
D03*
X495387Y712313D02*
D03*
X491852Y708777D02*
D03*
X431917Y768712D02*
D03*
X435453Y772247D02*
D03*
X438988Y775783D02*
D03*
X442524Y779318D02*
D03*
X446059Y782854D02*
D03*
X449595Y786389D02*
D03*
X453131Y789925D02*
D03*
X456666Y793460D02*
D03*
X460202Y796996D02*
D03*
X463737Y800531D02*
D03*
X467273Y804067D02*
D03*
X470808Y807603D02*
D03*
D32*
X92160Y176760D02*
D03*
X92160Y46760D02*
D03*
X152160Y46760D02*
D03*
Y176760D02*
D03*
D33*
X251460Y109220D02*
D03*
X330200D02*
D03*
D34*
X232410Y136340D02*
D03*
X245110D02*
D03*
X257810D02*
D03*
X270510D02*
D03*
Y82100D02*
D03*
X257810D02*
D03*
X245110D02*
D03*
X232410D02*
D03*
X311150Y136340D02*
D03*
X323850D02*
D03*
X336550D02*
D03*
X349250D02*
D03*
Y82100D02*
D03*
X336550D02*
D03*
X323850D02*
D03*
X311150D02*
D03*
D35*
X258470Y680720D02*
D03*
X277470D02*
D03*
D36*
X664820Y835220D02*
D03*
X859820D02*
D03*
D37*
X655320Y765220D02*
D03*
X869320D02*
D03*
D38*
X342900Y806450D02*
D03*
Y769620D02*
D03*
D39*
X368300Y806450D02*
D03*
Y769620D02*
D03*
D40*
X586740Y391160D02*
D03*
Y340360D02*
D03*
X535940D02*
D03*
Y391160D02*
D03*
X561340Y365760D02*
D03*
X864870Y193040D02*
D03*
Y142240D02*
D03*
X814070D02*
D03*
Y193040D02*
D03*
X839470Y167640D02*
D03*
X683260Y187960D02*
D03*
Y137160D02*
D03*
X632460D02*
D03*
Y187960D02*
D03*
X657860Y162560D02*
D03*
X365760Y397510D02*
D03*
Y346710D02*
D03*
X314960D02*
D03*
Y397510D02*
D03*
X340360Y372110D02*
D03*
X956310Y387350D02*
D03*
Y336550D02*
D03*
X905510D02*
D03*
Y387350D02*
D03*
X930910Y361950D02*
D03*
X361950Y594360D02*
D03*
Y543560D02*
D03*
X311150D02*
D03*
Y594360D02*
D03*
X336550Y568960D02*
D03*
X770255Y387350D02*
D03*
Y336550D02*
D03*
X719455D02*
D03*
Y387350D02*
D03*
X744855Y361950D02*
D03*
D41*
X92160Y111760D02*
D03*
D42*
X137160D02*
D03*
D43*
X233680Y797560D02*
D03*
Y772160D02*
D03*
X208280Y797560D02*
D03*
Y772160D02*
D03*
X182880Y797560D02*
D03*
Y772160D02*
D03*
X157480Y797560D02*
D03*
X157480Y772160D02*
D03*
X132080Y797560D02*
D03*
X132080Y772160D02*
D03*
X106680Y797560D02*
D03*
Y772160D02*
D03*
X81280Y797560D02*
D03*
Y772160D02*
D03*
M02*
