G04*
G04 #@! TF.GenerationSoftware,Altium Limited,Altium Designer,23.1.1 (15)*
G04*
G04 Layer_Physical_Order=2*
G04 Layer_Color=32768*
%FSLAX44Y44*%
%MOMM*%
G71*
G04*
G04 #@! TF.SameCoordinates,43C99A1D-4787-4DCC-862B-E30C170DDE45*
G04*
G04*
G04 #@! TF.FilePolarity,Negative*
G04*
G01*
G75*
%ADD52C,1.0160*%
%ADD53C,1.8260*%
%ADD54C,2.4160*%
G04:AMPARAMS|DCode=55|XSize=2.674mm|YSize=2.674mm|CornerRadius=0mm|HoleSize=0mm|Usage=FLASHONLY|Rotation=0.000|XOffset=0mm|YOffset=0mm|HoleType=Round|Shape=Relief|Width=0.254mm|Gap=0.254mm|Entries=4|*
%AMTHD55*
7,0,0,2.6740,2.1660,0.2540,45*
%
%ADD55THD55*%
%ADD56C,2.1660*%
G04:AMPARAMS|DCode=57|XSize=3.124mm|YSize=3.124mm|CornerRadius=0mm|HoleSize=0mm|Usage=FLASHONLY|Rotation=0.000|XOffset=0mm|YOffset=0mm|HoleType=Round|Shape=Relief|Width=0.254mm|Gap=0.254mm|Entries=4|*
%AMTHD57*
7,0,0,3.1240,2.6160,0.2540,45*
%
%ADD57THD57*%
%ADD58C,2.6160*%
%ADD59C,2.7160*%
%ADD60C,2.8160*%
%ADD61C,2.2098*%
G04:AMPARAMS|DCode=62|XSize=2.7178mm|YSize=2.7178mm|CornerRadius=0mm|HoleSize=0mm|Usage=FLASHONLY|Rotation=0.000|XOffset=0mm|YOffset=0mm|HoleType=Round|Shape=Relief|Width=0.254mm|Gap=0.254mm|Entries=4|*
%AMTHD62*
7,0,0,2.7178,2.2098,0.2540,45*
%
%ADD62THD62*%
%ADD63C,1.3462*%
G04:AMPARAMS|DCode=64|XSize=1.8542mm|YSize=1.8542mm|CornerRadius=0mm|HoleSize=0mm|Usage=FLASHONLY|Rotation=0.000|XOffset=0mm|YOffset=0mm|HoleType=Round|Shape=Relief|Width=0.254mm|Gap=0.254mm|Entries=4|*
%AMTHD64*
7,0,0,1.8542,1.3462,0.2540,45*
%
%ADD64THD64*%
D52*
X0Y0D02*
Y859790D01*
X1038860D01*
Y0D02*
Y859790D01*
X0Y0D02*
X1038860D01*
D53*
X664820Y835220D02*
D03*
X859820D02*
D03*
D54*
X655320Y765220D02*
D03*
X869320D02*
D03*
D55*
X342900Y806450D02*
D03*
D56*
X368300Y806450D02*
D03*
X342900Y769620D02*
D03*
X368300D02*
D03*
D57*
X586740Y391160D02*
D03*
Y340360D02*
D03*
X535940D02*
D03*
Y391160D02*
D03*
X864870Y193040D02*
D03*
Y142240D02*
D03*
X814070D02*
D03*
Y193040D02*
D03*
X683260Y187960D02*
D03*
Y137160D02*
D03*
X632460D02*
D03*
Y187960D02*
D03*
X365760Y397510D02*
D03*
Y346710D02*
D03*
X314960D02*
D03*
Y397510D02*
D03*
X956310Y387350D02*
D03*
Y336550D02*
D03*
X905510D02*
D03*
Y387350D02*
D03*
X361950Y594360D02*
D03*
Y543560D02*
D03*
X311150D02*
D03*
Y594360D02*
D03*
X770255Y387350D02*
D03*
Y336550D02*
D03*
X719455D02*
D03*
Y387350D02*
D03*
D58*
X561340Y365760D02*
D03*
X839470Y167640D02*
D03*
X657860Y162560D02*
D03*
X340360Y372110D02*
D03*
X930910Y361950D02*
D03*
X336550Y568960D02*
D03*
X744855Y361950D02*
D03*
D59*
X92160Y111760D02*
D03*
D60*
X137160D02*
D03*
D61*
X233680Y797560D02*
D03*
Y772160D02*
D03*
X208280Y797560D02*
D03*
Y772160D02*
D03*
X182880Y797560D02*
D03*
X157480D02*
D03*
X157480Y772160D02*
D03*
X132080Y797560D02*
D03*
X132080Y772160D02*
D03*
X106680Y797560D02*
D03*
Y772160D02*
D03*
X81280Y797560D02*
D03*
Y772160D02*
D03*
D62*
X182880D02*
D03*
D63*
X137160Y325120D02*
D03*
X450850Y591820D02*
D03*
X443230Y601980D02*
D03*
X385425Y722015D02*
D03*
X367979Y698821D02*
D03*
X412317Y790777D02*
D03*
X430530Y212090D02*
D03*
X604841Y634679D02*
D03*
X749808Y685800D02*
D03*
X715010Y626110D02*
D03*
X753110Y641350D02*
D03*
X749300Y568960D02*
D03*
X751840Y537210D02*
D03*
X770631Y644149D02*
D03*
X1026160Y769620D02*
D03*
X953770Y811530D02*
D03*
X925830Y815340D02*
D03*
X781050Y828040D02*
D03*
X741680Y825500D02*
D03*
X528893Y837573D02*
D03*
X676910Y518160D02*
D03*
X692738Y500300D02*
D03*
X695452Y514350D02*
D03*
X671830Y447040D02*
D03*
X151130Y815340D02*
D03*
X643890Y450850D02*
D03*
X685774Y482587D02*
D03*
X140970Y817880D02*
D03*
X570230Y541020D02*
D03*
X566782Y574359D02*
D03*
X502285Y553085D02*
D03*
X487680Y623570D02*
D03*
X505258Y605932D02*
D03*
X542290Y692150D02*
D03*
X524510Y709930D02*
D03*
X483870Y539115D02*
D03*
X477520Y631190D02*
D03*
X500395Y637555D02*
D03*
X414020Y629920D02*
D03*
X336550Y718820D02*
D03*
X321310Y748030D02*
D03*
X313690Y767080D02*
D03*
X491490Y831850D02*
D03*
X518501Y755310D02*
D03*
X491490Y763270D02*
D03*
X576580Y510540D02*
D03*
X518160Y523240D02*
D03*
X647700Y534670D02*
D03*
X610870Y622300D02*
D03*
X646189Y571808D02*
D03*
X642125Y619760D02*
D03*
X652011Y650126D02*
D03*
X657873Y633717D02*
D03*
X673755Y633075D02*
D03*
X659384Y621030D02*
D03*
X706155Y698536D02*
D03*
X687324Y701615D02*
D03*
X679999Y699514D02*
D03*
X694472Y698973D02*
D03*
X716280Y728980D02*
D03*
X628650Y645160D02*
D03*
X595630Y618236D02*
D03*
X593417Y606552D02*
D03*
X546440Y557189D02*
D03*
X676325Y681305D02*
D03*
X664888Y686392D02*
D03*
X756920Y731012D02*
D03*
X745236Y728980D02*
D03*
X749314Y717536D02*
D03*
X642620Y515620D02*
D03*
Y478790D02*
D03*
X676910Y477520D02*
D03*
X699770Y480060D02*
D03*
X844550Y590550D02*
D03*
X810260Y619760D02*
D03*
X664210Y593090D02*
D03*
X545465Y615315D02*
D03*
X847090Y713740D02*
D03*
X805180Y735330D02*
D03*
X805018Y723646D02*
D03*
X791972Y741482D02*
D03*
X537210Y570230D02*
D03*
X666750Y659130D02*
D03*
X734060Y698500D02*
D03*
X722630D02*
D03*
X758190Y708660D02*
D03*
X768955Y717213D02*
D03*
X764770Y728624D02*
D03*
X776272Y715083D02*
D03*
X774700Y736854D02*
D03*
X780288Y742035D02*
D03*
X766438Y741052D02*
D03*
X546100Y636270D02*
D03*
X703580Y518160D02*
D03*
X661759Y550277D02*
D03*
X661112Y558735D02*
D03*
X657526Y565458D02*
D03*
X706120Y650240D02*
D03*
X732790Y736600D02*
D03*
X406400Y767080D02*
D03*
X389890Y777240D02*
D03*
X558800Y549910D02*
D03*
X554656Y558466D02*
D03*
X461010Y698500D02*
D03*
X731520Y580390D02*
D03*
X762000Y642620D02*
D03*
X778040Y635035D02*
D03*
X769593Y662932D02*
D03*
X789432Y640842D02*
D03*
X772160Y628650D02*
D03*
X767080Y684530D02*
D03*
X794512Y712470D02*
D03*
X683260Y608330D02*
D03*
X784860Y524510D02*
D03*
X563880Y469900D02*
D03*
X845820Y556260D02*
D03*
X543560Y810260D02*
D03*
X755650Y586740D02*
D03*
X706120Y472440D02*
D03*
X692150Y438150D02*
D03*
X485140Y739140D02*
D03*
X483870Y746760D02*
D03*
X695960Y523240D02*
D03*
X929640Y681028D02*
D03*
X914400Y638810D02*
D03*
X906780Y641350D02*
D03*
X913130Y552450D02*
D03*
X939800Y615950D02*
D03*
X913130Y497840D02*
D03*
X515620Y215900D02*
D03*
X895350Y662940D02*
D03*
X889000Y648970D02*
D03*
X854710Y708660D02*
D03*
X886460Y619760D02*
D03*
X852170Y631190D02*
D03*
X819150Y652780D02*
D03*
X807386Y677244D02*
D03*
X793805Y673141D02*
D03*
X786130Y681990D02*
D03*
X772160Y697230D02*
D03*
X788670Y706120D02*
D03*
X782828Y711200D02*
D03*
X845820Y527050D02*
D03*
X458470Y601980D02*
D03*
X440690Y640080D02*
D03*
X532130Y796290D02*
D03*
X433070Y637540D02*
D03*
X693420Y464820D02*
D03*
X777240Y516890D02*
D03*
X756920Y622300D02*
D03*
X783590Y650240D02*
D03*
X709930Y718820D02*
D03*
X715010Y655320D02*
D03*
X607030Y524540D02*
D03*
X632460Y608330D02*
D03*
X586740Y637540D02*
D03*
X608330Y662940D02*
D03*
X524510Y580390D02*
D03*
X558800Y535940D02*
D03*
X825500Y731520D02*
D03*
X773430Y609600D02*
D03*
X880110Y628650D02*
D03*
X862330Y635000D02*
D03*
X826770Y668020D02*
D03*
X872490Y560070D02*
D03*
X861060Y608330D02*
D03*
X873760Y521970D02*
D03*
X962660Y524510D02*
D03*
X996950Y513080D02*
D03*
X928370Y554990D02*
D03*
X949960Y607060D02*
D03*
X1003300Y650240D02*
D03*
X951230Y655320D02*
D03*
X547370Y494030D02*
D03*
X579120D02*
D03*
X655320Y706120D02*
D03*
X635000Y665480D02*
D03*
X702320Y728990D02*
D03*
X568960Y607060D02*
D03*
X803910Y698500D02*
D03*
X645160Y717550D02*
D03*
X586740Y732790D02*
D03*
X542290Y759460D02*
D03*
X693420Y735330D02*
D03*
X919480Y688340D02*
D03*
X840740Y793750D02*
D03*
X604520Y614680D02*
D03*
X629920Y812800D02*
D03*
X804418Y791464D02*
D03*
X808990Y797560D02*
D03*
X822960Y791210D02*
D03*
X791210Y798830D02*
D03*
X902021Y773751D02*
D03*
X952500Y715010D02*
D03*
X889448Y786324D02*
D03*
X688340Y805180D02*
D03*
X742950Y788670D02*
D03*
X735330Y800100D02*
D03*
X955040Y742950D02*
D03*
X783590Y793750D02*
D03*
X760730Y797560D02*
D03*
X754216Y792172D02*
D03*
X775970Y788670D02*
D03*
X974090Y749300D02*
D03*
X949960Y789432D02*
D03*
X768350Y795020D02*
D03*
X718820Y792480D02*
D03*
X892810Y808990D02*
D03*
X718820Y810260D02*
D03*
X226060Y843280D02*
D03*
X342200Y738378D02*
D03*
X341630Y751840D02*
D03*
X381000Y737870D02*
D03*
X476250Y728980D02*
D03*
X441960Y806450D02*
D03*
X139700Y749300D02*
D03*
X209550Y78740D02*
D03*
D64*
X422015Y803350D02*
D03*
X683260Y623570D02*
D03*
X516890Y506730D02*
D03*
X496570Y508000D02*
D03*
X554990Y518160D02*
D03*
X302260Y812800D02*
D03*
X298450Y835660D02*
D03*
X377190D02*
D03*
X595630Y643890D02*
D03*
X168910Y541020D02*
D03*
X171450Y618490D02*
D03*
X494030Y568960D02*
D03*
X736600Y541020D02*
D03*
X679450Y551180D02*
D03*
X812800Y579120D02*
D03*
X796290D02*
D03*
X781050D02*
D03*
X754192Y648893D02*
D03*
X596900Y759460D02*
D03*
X570230Y731520D02*
D03*
Y683260D02*
D03*
X737870Y527050D02*
D03*
X622300Y520700D02*
D03*
X603250Y576580D02*
D03*
X623570Y553720D02*
D03*
X607060D02*
D03*
X946105Y459350D02*
D03*
X847090Y466090D02*
D03*
X886460Y468630D02*
D03*
X889000Y572770D02*
D03*
X500380Y55880D02*
D03*
M02*
