M48
;Layer_Color=9474304
;FILE_FORMAT=4:4
METRIC,LZ
;TYPE=PLATED
T1F00S00C0.3302
T2F00S00C0.8100
T3F00S00C1.1500
T4F00S00C1.1938
T5F00S00C1.6000
;TYPE=NON_PLATED
T6F00S00C1.4000
T7F00S00C1.7000
T8F00S00C1.8000
%
T01
X0020955Y0007874
X0050038Y0005588
X0051562Y002159
X0043053Y0021209
X0013716Y0032512
X001397Y007493
X0017145Y0061849
X0016891Y0054102
X0048387Y00539115
X00502285Y00553085
X0049403Y0056896
X0052451Y0058039
X0053721Y0057023
X0051816Y0052324
X0051689Y0050673
X0049657Y00508
X00505258Y00605932
X0048768Y0062357
X0047752Y0063119
X00500395Y00637555
X0044069Y0064008
X0043307Y0063754
X0041402Y0062992
X0044323Y0060198
X0045847
X0045085Y0059182
X0046101Y006985
X0047625Y0072898
X0048514Y0073914
X0048387Y0074676
X0049149Y0076327
X00518501Y0075531
X0052451Y0070993
X00385425Y00722015
X00381Y0073787
X003422Y00738378
X0034163Y0075184
X0032131Y0074803
X0031369Y0076708
X0033655Y0071882
X00367979Y00698821
X0038989Y0077724
X004064Y0076708
X0054229Y0075946
X005969
X0058674Y0073279
X0057023Y0073152
Y0068326
X0054229Y0069215
X005461Y0063627
X00545465Y00615315
X0056896Y0060706
X00593417Y00606552
X0059563Y00618236
X0060452Y0061468
X0061087Y006223
X00604841Y00634679
X0059563Y0064389
X0058674Y0063754
X0060833Y0066294
X00635Y0066548
X0062865Y0064516
X00652011Y00650126
X00657873Y00633717
X00659384Y0062103
X00642125Y0061976
X0063246Y0060833
X0066421Y0059309
X0068326Y0060833
Y0062357
X00673755Y00633075
X0066675Y0065913
X00664888Y00686392
X00676325Y00681305
X00679999Y00699514
X00687324Y00701615
X00694472Y00698973
X00706155Y00698536
X0072263Y006985
X0073406
X00749808Y006858
X0076708Y0068453
X0077216Y0069723
X00776272Y00715083
X00768955Y00717213
X0076477Y00728624
X0075692Y00731012
X00745236Y0072898
X00749314Y00717536
X0075819Y0070866
X00782828Y007112
X0078867Y0070612
X00794512Y0071247
X00805018Y00723646
X0080518Y0073533
X00791972Y00741482
X00780288Y00742035
X007747Y00736854
X00766438Y00741052
X0073279Y007366
X0071628Y0072898
X0070232Y0072899
X0069342Y0073533
X0070993Y0071882
X0064516Y0071755
X0065532Y0070612
X0070612Y0065024
X0071501Y0065532
Y0062611
X0075692Y006223
X0077216Y0062865
X0077804Y00635035
X00770631Y00644149
X00762Y0064262
X0075311Y0064135
X00754192Y00648893
X00769593Y00662932
X0078359Y0065024
X00789432Y00640842
X00793805Y00673141
X0078613Y0068199
X00807386Y00677244
X0080391Y006985
X0082677Y0066802
X0081915Y0065278
X0081026Y0061976
X008128Y0057912
X0079629
X0078105
X0075565Y0058674
X007493Y0056896
X0073152Y0058039
X007366Y0054102
X0073787Y0052705
X0075184Y0053721
X0078486Y0052451
X0077724Y0051689
X0070358Y0051816
X00695452Y0051435
X0069596Y0052324
X0067691Y0051816
X00692738Y005003
X00685774Y00482587
X0067691Y0047752
X0069977Y0048006
X0070612Y0047244
X0069342Y0046482
X0069215Y0043815
X0067183Y0044704
X0064389Y0045085
X0064262Y0047879
Y0051562
X006477Y0053467
X00661759Y00550277
X00661112Y00558735
X00657526Y00565458
X00646189Y00571808
X0062357Y0055372
X0060706
X0060325Y0057658
X00566782Y00574359
X00554656Y00558466
X0054644Y00557189
X005588Y0054991
Y0053594
X0057023Y0054102
X0057658Y0051054
X0057912Y0049403
X0054737
X0055499Y0051816
X0056388Y004699
X0060703Y0052454
X006223Y005207
X0067945Y0055118
X0077343Y006096
X0086106Y0060833
X0086233Y00635
X0085217Y0063119
X0088011Y0062865
X0088646Y0061976
X00889Y0064897
X0089535Y0066294
X0090678Y0064135
X009144Y0063881
X0091948Y0068834
X0092964Y00681028
X0085471Y0070866
X0084709Y0071374
X008255Y0073152
X00902021Y00773751
X00889Y0057277
X0087249Y0056007
X0084582Y0055626
Y0052705
X0087376Y0052197
X0091313Y0049784
Y0055245
X0092837Y0055499
X0084455Y0059055
X0084709Y0046609
X0088646Y0046863
X00946105Y0045935
X0096266Y0052451
X0099695Y0051308
X0094996Y0060706
X009398Y0061595
X0095123Y0065532
X010033Y0065024
X009525Y0071501
X0095504Y0074295
X0097409Y007493
X0102616Y0076962
X0094996Y00789432
X0095377Y0081153
X0092583Y0081534
X0089281Y0080899
X00889448Y00786324
X0084074Y0079375
X0082296Y0079121
X00804418Y00791464
X0080899Y0079756
X0079121Y0079883
X0078359Y0079375
X0077597Y0078867
X0076835Y0079502
X0076073Y0079756
X00754216Y00792172
X0074295Y0078867
X0073533Y008001
X0071882Y0079248
Y0081026
X0068834Y0080518
X0062992Y008128
X0054356Y0081026
X0074168Y008255
X0078105Y0082804
X00528893Y00837573
X0049149Y0083185
X0044196Y0080645
X00422015Y0080335
X00412317Y00790777
X0037719Y0083566
X0029845
X0030226Y008128
X0022606Y0084328
X0015113Y0081534
X0053213Y0079629
X0014097Y0081788
T02
X0066482Y0083522
X0085982
T03
X003429Y0076962
X003683
Y0080645
X003429Y0080645
T04
X0008128Y0077216
X0010668
X0013208
X0015748
X0018288
X0020828
X0023368
Y0079756
X0020828Y0079756
X0018288
X0015748
X0013208
X0010668
X0008128
T05
X0095631Y0033655
X0090551
X0093091Y0036195
X00770255Y0033655
X00719455
X00744855Y0036195
X0058674Y0034036
X0056134Y0036576
X0063246Y0018796
X0068326
Y0013716
X0063246
X0065786Y0016256
X0081407Y0014224
X0086487
Y0019304
X0081407
X0083947Y0016764
X0053594Y0034036
X0036576Y0034671
X0031496
X0034036Y0037211
X0036576Y0039751
X0031496
X0031115Y0054356
X0036195
Y0059436
X0031115
X0033655Y0056896
X0053594Y0039116
X0058674
X00719455Y0038735
X00770255
X0090551
X0095631
T06
X0065532Y0076522
X0086932
T07
X0009216Y0011176
T08
X0013716Y0011176
M30
