G04*
G04 #@! TF.GenerationSoftware,Altium Limited,Altium Designer,23.1.1 (15)*
G04*
G04 Layer_Physical_Order=1*
G04 Layer_Color=255*
%FSLAX44Y44*%
%MOMM*%
G71*
G04*
G04 #@! TF.SameCoordinates,43C99A1D-4787-4DCC-862B-E30C170DDE45*
G04*
G04*
G04 #@! TF.FilePolarity,Positive*
G04*
G01*
G75*
%ADD14C,0.1524*%
%ADD15C,0.2540*%
%ADD16R,0.6700X1.4100*%
%ADD17R,1.4100X0.6700*%
%ADD18R,0.5000X1.6500*%
%ADD19R,0.5000X1.3500*%
G04:AMPARAMS|DCode=20|XSize=1.475mm|YSize=0.3mm|CornerRadius=0mm|HoleSize=0mm|Usage=FLASHONLY|Rotation=45.000|XOffset=0mm|YOffset=0mm|HoleType=Round|Shape=Rectangle|*
%AMROTATEDRECTD20*
4,1,4,-0.4154,-0.6276,-0.6276,-0.4154,0.4154,0.6276,0.6276,0.4154,-0.4154,-0.6276,0.0*
%
%ADD20ROTATEDRECTD20*%

G04:AMPARAMS|DCode=21|XSize=1.475mm|YSize=0.3mm|CornerRadius=0mm|HoleSize=0mm|Usage=FLASHONLY|Rotation=315.000|XOffset=0mm|YOffset=0mm|HoleType=Round|Shape=Rectangle|*
%AMROTATEDRECTD21*
4,1,4,-0.6276,0.4154,-0.4154,0.6276,0.6276,-0.4154,0.4154,-0.6276,-0.6276,0.4154,0.0*
%
%ADD21ROTATEDRECTD21*%

%ADD22R,2.5000X4.0000*%
%ADD23R,2.2900X2.2900*%
%ADD24R,0.6500X1.5250*%
%ADD25R,1.0000X1.4500*%
%ADD43C,1.7018*%
%ADD44C,1.3180*%
%ADD45C,1.4000*%
%ADD46C,1.7250*%
%ADD47R,1.7250X1.7250*%
%ADD48C,2.4000*%
%ADD49C,0.8500*%
%ADD50C,0.9000*%
%ADD51C,0.5080*%
G36*
X1041400Y-2540D02*
X1040130Y-3810D01*
X2540Y-2540D01*
Y855980D01*
X5080Y858520D01*
X551891D01*
X552276Y857250D01*
X551657Y856837D01*
X534615Y839794D01*
X533369Y840042D01*
X533200Y840451D01*
X531771Y841880D01*
X529904Y842653D01*
X527883D01*
X526016Y841880D01*
X524587Y840451D01*
X523813Y838584D01*
Y837254D01*
X500718Y814159D01*
X499120Y814357D01*
X498571Y814905D01*
X498387Y815181D01*
X494857Y818711D01*
Y828033D01*
X495797Y828972D01*
X496570Y830839D01*
Y832860D01*
X495797Y834728D01*
X494368Y836157D01*
X492500Y836930D01*
X490480D01*
X488612Y836157D01*
X487183Y834728D01*
X486410Y832860D01*
Y830839D01*
X487183Y828972D01*
X488123Y828033D01*
Y817317D01*
X488380Y816028D01*
X489109Y814936D01*
X491291Y812755D01*
X481984Y803448D01*
X485520Y799913D01*
X492591Y792842D01*
X501533Y783899D01*
X501100Y782629D01*
X493472D01*
X476664Y799437D01*
X480676Y803448D01*
X466654Y817470D01*
X466178Y816994D01*
X452728Y830444D01*
X452576Y831210D01*
X451846Y832302D01*
X432646Y851503D01*
X431553Y852232D01*
X430265Y852489D01*
X88392D01*
X87104Y852232D01*
X86011Y851503D01*
X42069Y807561D01*
X41340Y806468D01*
X41083Y805180D01*
Y712710D01*
X40037Y711664D01*
X39308Y710572D01*
X39051Y709284D01*
Y295402D01*
X39308Y294114D01*
X40037Y293021D01*
X103029Y230029D01*
X104122Y229300D01*
X105410Y229043D01*
X408815D01*
X425450Y212409D01*
Y211080D01*
X426223Y209212D01*
X427652Y207783D01*
X429520Y207010D01*
X431540D01*
X433408Y207783D01*
X434047Y208423D01*
X435317Y207897D01*
Y82671D01*
X395901Y43255D01*
X345779D01*
X340435Y48599D01*
Y71935D01*
X342340D01*
Y92265D01*
X330760D01*
Y92265D01*
X329640D01*
Y92265D01*
X318060D01*
Y92265D01*
X316940D01*
Y92265D01*
X305360D01*
Y71935D01*
X316940D01*
Y71935D01*
X318060D01*
Y71935D01*
X329640D01*
Y71935D01*
X330760D01*
Y71935D01*
X332665D01*
Y46990D01*
X332961Y45503D01*
X333803Y44243D01*
X341423Y36623D01*
X342683Y35781D01*
X344170Y35485D01*
X397510D01*
X398997Y35781D01*
X400257Y36623D01*
X439897Y76264D01*
X440689Y76421D01*
X441949Y77263D01*
X442791Y78523D01*
X443087Y80010D01*
Y218658D01*
X442791Y220145D01*
X441949Y221405D01*
X415497Y247857D01*
X414237Y248699D01*
X412750Y248995D01*
X112099D01*
X50875Y310219D01*
Y705781D01*
X93965Y748872D01*
X164497Y678339D01*
X165590Y677610D01*
X166878Y677353D01*
X250930D01*
Y670930D01*
X266010D01*
Y690510D01*
X250930D01*
Y684087D01*
X168272D01*
X97484Y754876D01*
Y763935D01*
X98754Y764461D01*
X99896Y763319D01*
X102415Y761864D01*
X105225Y761111D01*
X108135D01*
X110945Y761864D01*
X111750Y762329D01*
X133001Y741077D01*
X134094Y740348D01*
X135382Y740091D01*
X170881D01*
X172170Y740348D01*
X173262Y741077D01*
X197072Y764887D01*
X197706Y765837D01*
X198405Y765976D01*
X199095Y765971D01*
X199439Y765376D01*
X201496Y763319D01*
X204015Y761864D01*
X206825Y761111D01*
X209735D01*
X212545Y761864D01*
X213350Y762329D01*
X269865Y705814D01*
Y684958D01*
X269930Y684633D01*
Y670930D01*
X285010D01*
Y677353D01*
X297640D01*
Y671130D01*
X309420D01*
Y690310D01*
X306897D01*
Y698375D01*
X316863Y708341D01*
X379341D01*
X379827Y707168D01*
X373701Y701042D01*
X372455Y701290D01*
X372286Y701699D01*
X370857Y703128D01*
X368989Y703901D01*
X366969D01*
X365102Y703128D01*
X363672Y701699D01*
X362899Y699831D01*
Y698502D01*
X319274Y654877D01*
X110490D01*
X109202Y654620D01*
X108109Y653891D01*
X68739Y614521D01*
X68010Y613428D01*
X67753Y612140D01*
Y358140D01*
X68010Y356852D01*
X68739Y355759D01*
X105569Y318929D01*
X106662Y318200D01*
X107950Y317943D01*
X133350D01*
X134638Y318200D01*
X135731Y318929D01*
X136841Y320040D01*
X138170D01*
X140038Y320813D01*
X141467Y322242D01*
X142240Y324109D01*
Y326130D01*
X141467Y327998D01*
X140038Y329427D01*
X138170Y330200D01*
X136150D01*
X134282Y329427D01*
X132853Y327998D01*
X132080Y326130D01*
Y324801D01*
X131955Y324677D01*
X109345D01*
X74487Y359534D01*
Y610746D01*
X111884Y648143D01*
X319006D01*
X319532Y646873D01*
X285279Y612620D01*
X220633D01*
X219345Y612364D01*
X218253Y611634D01*
X181769Y575151D01*
X181040Y574058D01*
X180783Y572770D01*
Y416183D01*
X181040Y414894D01*
X181769Y413802D01*
X306360Y289211D01*
X307452Y288482D01*
X308741Y288225D01*
X396623D01*
X483043Y201805D01*
Y44450D01*
X483300Y43162D01*
X484029Y42069D01*
X515779Y10319D01*
X516872Y9590D01*
X518160Y9333D01*
X962660D01*
X963948Y9590D01*
X965041Y10319D01*
X1015841Y61119D01*
X1016570Y62212D01*
X1016827Y63500D01*
Y496570D01*
X1016570Y497858D01*
X1015841Y498951D01*
X1002030Y512761D01*
Y514090D01*
X1001257Y515958D01*
X999828Y517387D01*
X997961Y518160D01*
X995939D01*
X994072Y517387D01*
X992643Y515958D01*
X991870Y514090D01*
Y512070D01*
X992643Y510202D01*
X994072Y508773D01*
X995939Y508000D01*
X997269D01*
X1010093Y495176D01*
Y64894D01*
X961265Y16067D01*
X519554D01*
X489777Y45844D01*
Y203200D01*
X489520Y204488D01*
X488791Y205581D01*
X403255Y291116D01*
X403741Y292289D01*
X410340D01*
X516063Y186565D01*
Y57150D01*
X516320Y55862D01*
X517049Y54769D01*
X538639Y33179D01*
X539732Y32450D01*
X541020Y32193D01*
X902970D01*
X904258Y32450D01*
X905351Y33179D01*
X991711Y119539D01*
X992440Y120632D01*
X992697Y121920D01*
Y476250D01*
X992440Y477538D01*
X991711Y478631D01*
X961231Y509111D01*
X960138Y509840D01*
X958850Y510097D01*
X862455D01*
X849253Y523298D01*
X850127Y524172D01*
X850900Y526040D01*
Y528060D01*
X850127Y529928D01*
X848698Y531357D01*
X846831Y532130D01*
X844809D01*
X843345Y531523D01*
X842075Y532148D01*
Y551162D01*
X843345Y551787D01*
X844809Y551180D01*
X846831D01*
X848698Y551953D01*
X849638Y552893D01*
X850776D01*
X870109Y533559D01*
X871202Y532830D01*
X872490Y532573D01*
X981710D01*
X982998Y532830D01*
X984091Y533559D01*
X1028541Y578009D01*
X1029270Y579102D01*
X1029527Y580390D01*
Y765803D01*
X1030467Y766742D01*
X1031240Y768609D01*
Y770630D01*
X1030467Y772498D01*
X1029038Y773927D01*
X1027170Y774700D01*
X1025150D01*
X1023282Y773927D01*
X1021853Y772498D01*
X1021080Y770630D01*
Y768609D01*
X1021853Y766742D01*
X1022793Y765803D01*
Y581785D01*
X980315Y539307D01*
X932480D01*
X931994Y540480D01*
X1018635Y627121D01*
X1019364Y628213D01*
X1019621Y629501D01*
Y777653D01*
X1019364Y778942D01*
X1018635Y780034D01*
X941832Y856837D01*
X941213Y857250D01*
X941599Y858520D01*
X1041400D01*
Y-2540D01*
D02*
G37*
G36*
X221149Y844699D02*
X220980Y844290D01*
Y842270D01*
X221753Y840402D01*
X223182Y838973D01*
X225049Y838200D01*
X227071D01*
X228938Y838973D01*
X229877Y839913D01*
X428965D01*
X442035Y826844D01*
Y811796D01*
X441817Y811530D01*
X440950D01*
X439082Y810757D01*
X437653Y809328D01*
X437341Y808574D01*
X436095Y808326D01*
X433770Y810651D01*
Y817670D01*
X414590D01*
Y815747D01*
X413790Y815587D01*
X412756Y814897D01*
X409640D01*
Y817420D01*
X390460D01*
Y812376D01*
X390206Y812325D01*
X389114Y811595D01*
X387335Y809817D01*
X379465D01*
Y817615D01*
X372185D01*
Y825500D01*
X371889Y826987D01*
X371047Y828247D01*
X368507Y830787D01*
X367247Y831629D01*
X365760Y831925D01*
X137160D01*
X135673Y831629D01*
X134413Y830787D01*
X111286Y807659D01*
X110945Y807856D01*
X108135Y808609D01*
X105225D01*
X102415Y807856D01*
X99896Y806401D01*
X97839Y804344D01*
X96384Y801825D01*
X95631Y799015D01*
Y796105D01*
X96384Y793295D01*
X96581Y792954D01*
X90852Y787226D01*
X90010Y785966D01*
X89714Y784479D01*
Y781011D01*
X88541Y780525D01*
X88064Y781001D01*
X85545Y782456D01*
X82735Y783209D01*
X79825D01*
X77015Y782456D01*
X74496Y781001D01*
X72439Y778944D01*
X70984Y776425D01*
X70231Y773615D01*
Y770705D01*
X70984Y767895D01*
X72439Y765376D01*
X74496Y763319D01*
X77015Y761864D01*
X79825Y761111D01*
X82735D01*
X85545Y761864D01*
X88064Y763319D01*
X88541Y763795D01*
X89714Y763309D01*
Y755608D01*
X48990Y714884D01*
X47817Y715370D01*
Y803785D01*
X89787Y845755D01*
X220444D01*
X221149Y844699D01*
D02*
G37*
G36*
X999933Y773306D02*
Y732915D01*
X925989Y658971D01*
X925260Y657878D01*
X925003Y656590D01*
Y558807D01*
X924063Y557868D01*
X923290Y556001D01*
Y553979D01*
X924063Y552112D01*
X925492Y550683D01*
X927359Y549910D01*
X929380D01*
X930618Y550422D01*
X931337Y549346D01*
X926378Y544387D01*
X892934D01*
X877570Y559751D01*
Y561081D01*
X876797Y562948D01*
X875368Y564377D01*
X873501Y565150D01*
X871479D01*
X869612Y564377D01*
X868183Y562948D01*
X867410Y561081D01*
Y559059D01*
X868183Y557192D01*
X869612Y555763D01*
X871479Y554990D01*
X872809D01*
X887319Y540480D01*
X886833Y539307D01*
X873885D01*
X854551Y558641D01*
X853458Y559370D01*
X852170Y559627D01*
X849638D01*
X848698Y560567D01*
X846831Y561340D01*
X844809D01*
X843345Y560733D01*
X842075Y561358D01*
Y584934D01*
X843131Y585639D01*
X843540Y585470D01*
X845561D01*
X847428Y586243D01*
X848857Y587672D01*
X849630Y589539D01*
Y591561D01*
X848857Y593428D01*
X847917Y594367D01*
Y626600D01*
X849090Y627086D01*
X849292Y626883D01*
X851160Y626110D01*
X852489D01*
X861219Y617379D01*
X862312Y616650D01*
X863600Y616393D01*
X882643D01*
X883582Y615453D01*
X885450Y614680D01*
X887470D01*
X889338Y615453D01*
X890767Y616882D01*
X891540Y618750D01*
Y620770D01*
X890767Y622638D01*
X889338Y624067D01*
X887470Y624840D01*
X885450D01*
X885161Y624720D01*
X884454Y625719D01*
X884424Y625790D01*
X885190Y627640D01*
Y629660D01*
X884417Y631528D01*
X882988Y632957D01*
X881121Y633730D01*
X879791D01*
X876141Y637381D01*
X875048Y638110D01*
X873760Y638367D01*
X866148D01*
X865208Y639307D01*
X863341Y640080D01*
X861320D01*
X859452Y639307D01*
X858023Y637878D01*
X857250Y636011D01*
Y635090D01*
X855980Y634564D01*
X855048Y635497D01*
X853180Y636270D01*
X851160D01*
X849292Y635497D01*
X849090Y635294D01*
X847917Y635780D01*
Y661064D01*
X849471Y662618D01*
X850200Y663710D01*
X850457Y664999D01*
Y704070D01*
X851630Y704556D01*
X851832Y704353D01*
X853699Y703580D01*
X855029D01*
X885633Y672975D01*
Y652787D01*
X884693Y651848D01*
X883920Y649980D01*
Y647960D01*
X884693Y646092D01*
X886122Y644663D01*
X887990Y643890D01*
X890011D01*
X891878Y644663D01*
X893307Y646092D01*
X894080Y647960D01*
Y649980D01*
X893307Y651848D01*
X892367Y652787D01*
Y657302D01*
X893637Y658151D01*
X894340Y657860D01*
X896360D01*
X898228Y658633D01*
X899657Y660062D01*
X900430Y661929D01*
Y663951D01*
X899657Y665818D01*
X898228Y667247D01*
X896360Y668020D01*
X894340D01*
X893637Y667729D01*
X892367Y668577D01*
Y674370D01*
X892110Y675658D01*
X891381Y676751D01*
X859790Y708341D01*
Y709670D01*
X859017Y711538D01*
X857588Y712967D01*
X855721Y713740D01*
X853699D01*
X853226Y713544D01*
X852170Y714249D01*
Y714751D01*
X851397Y716618D01*
X849968Y718047D01*
X848101Y718820D01*
X846079D01*
X844212Y718047D01*
X843345Y717179D01*
X842075Y717705D01*
Y745180D01*
X843360D01*
Y760259D01*
X844533Y760745D01*
X914848Y690431D01*
X914400Y689351D01*
Y687329D01*
X915173Y685462D01*
X916602Y684033D01*
X918469Y683260D01*
X920490D01*
X922358Y684033D01*
X923787Y685462D01*
X924560Y687329D01*
Y689351D01*
X923787Y691218D01*
X922358Y692647D01*
X921630Y692948D01*
X921180Y693621D01*
X843360Y771441D01*
Y785260D01*
X835425D01*
Y788753D01*
X836989Y790317D01*
X837862Y789443D01*
X839730Y788670D01*
X841750D01*
X843618Y789443D01*
X845047Y790872D01*
X845820Y792739D01*
Y794761D01*
X845047Y796628D01*
X843671Y798003D01*
X843687Y798279D01*
X843999Y799273D01*
X863475D01*
X947420Y715329D01*
Y713999D01*
X948193Y712132D01*
X949622Y710703D01*
X951489Y709930D01*
X953511D01*
X955378Y710703D01*
X956807Y712132D01*
X957580Y713999D01*
Y716021D01*
X956807Y717888D01*
X955378Y719317D01*
X953511Y720090D01*
X952181D01*
X933958Y738313D01*
X934484Y739583D01*
X951223D01*
X952162Y738643D01*
X954029Y737870D01*
X956050D01*
X957918Y738643D01*
X959347Y740072D01*
X960120Y741939D01*
Y743960D01*
X959347Y745828D01*
X957918Y747257D01*
X956050Y748030D01*
X954029D01*
X952162Y747257D01*
X951223Y746317D01*
X934216D01*
X907101Y773432D01*
Y774761D01*
X906328Y776628D01*
X904899Y778057D01*
X903031Y778831D01*
X901010D01*
X899143Y778057D01*
X897714Y776628D01*
X897545Y776220D01*
X896299Y775972D01*
X893318Y778953D01*
X893844Y780223D01*
X948566D01*
X970723Y758065D01*
Y753118D01*
X969783Y752178D01*
X969010Y750311D01*
Y748289D01*
X969783Y746422D01*
X971212Y744993D01*
X973080Y744220D01*
X975100D01*
X976968Y744993D01*
X978397Y746422D01*
X979170Y748289D01*
Y750311D01*
X978397Y752178D01*
X977457Y753118D01*
Y759460D01*
X977200Y760748D01*
X976471Y761841D01*
X953012Y785300D01*
X954267Y786554D01*
X955040Y788421D01*
Y790443D01*
X954267Y792310D01*
X952838Y793739D01*
X950971Y794512D01*
X949641D01*
X933450Y810703D01*
X933976Y811973D01*
X948566D01*
X948690Y811849D01*
Y810519D01*
X949463Y808652D01*
X950892Y807223D01*
X952759Y806450D01*
X954781D01*
X956648Y807223D01*
X958077Y808652D01*
X958850Y810519D01*
Y812541D01*
X958813Y812630D01*
X959890Y813349D01*
X999933Y773306D01*
D02*
G37*
G36*
X136307Y819897D02*
X135890Y818891D01*
Y816870D01*
X136663Y815002D01*
X138092Y813573D01*
X139959Y812800D01*
X141980D01*
X143848Y813573D01*
X144780Y814506D01*
X145286Y814436D01*
X146152Y814082D01*
X146823Y812462D01*
X148252Y811033D01*
X150119Y810260D01*
X152141D01*
X154008Y811033D01*
X154948Y811973D01*
X199433D01*
X199959Y810703D01*
X193339Y804083D01*
X192083Y803979D01*
X191929Y803984D01*
X191721Y804344D01*
X189664Y806401D01*
X187145Y807856D01*
X184335Y808609D01*
X181425D01*
X178615Y807856D01*
X176096Y806401D01*
X174039Y804344D01*
X172584Y801825D01*
X171831Y799015D01*
Y796105D01*
X172584Y793295D01*
X174039Y790776D01*
X176096Y788719D01*
X176383Y788553D01*
X176549Y787293D01*
X167747Y778491D01*
X166487Y778657D01*
X166321Y778944D01*
X164264Y781001D01*
X161745Y782456D01*
X158935Y783209D01*
X156025D01*
X153215Y782456D01*
X150696Y781001D01*
X148639Y778944D01*
X147184Y776425D01*
X146431Y773615D01*
Y770705D01*
X147184Y767895D01*
X148639Y765376D01*
X150696Y763319D01*
X153215Y761864D01*
X156025Y761111D01*
X158935D01*
X161745Y761864D01*
X164264Y763319D01*
X166321Y765376D01*
X167776Y767895D01*
X168529Y770705D01*
Y770942D01*
X169563Y771148D01*
X170656Y771878D01*
X181160Y782382D01*
X187772D01*
X189061Y782639D01*
X190153Y783368D01*
X197821Y791037D01*
X199077Y791141D01*
X199231Y791136D01*
X199439Y790776D01*
X201496Y788719D01*
X202091Y788375D01*
X202096Y787685D01*
X201957Y786986D01*
X201007Y786352D01*
X192310Y777655D01*
X191581Y776563D01*
X191324Y775274D01*
Y768662D01*
X169487Y746825D01*
X145316D01*
X144611Y747881D01*
X144780Y748289D01*
Y750311D01*
X144007Y752178D01*
X143067Y753118D01*
Y763153D01*
X142810Y764441D01*
X142081Y765533D01*
X141403Y766211D01*
X142376Y767895D01*
X143129Y770705D01*
Y773615D01*
X142376Y776425D01*
X140921Y778944D01*
X138864Y781001D01*
X136345Y782456D01*
X133535Y783209D01*
X130625D01*
X127815Y782456D01*
X125296Y781001D01*
X123239Y778944D01*
X121784Y776425D01*
X121031Y773615D01*
Y770705D01*
X121784Y767895D01*
X123239Y765376D01*
X125296Y763319D01*
X127815Y761864D01*
X130625Y761111D01*
X133535D01*
X135063Y761521D01*
X136333Y760546D01*
Y753118D01*
X135393Y752178D01*
X134757Y750641D01*
X133447Y750155D01*
X116511Y767090D01*
X116976Y767895D01*
X117729Y770705D01*
Y773615D01*
X116976Y776425D01*
X115521Y778944D01*
X113464Y781001D01*
X110945Y782456D01*
X108135Y783209D01*
X105225D01*
X102415Y782456D01*
X99896Y781001D01*
X98754Y779859D01*
X97484Y780385D01*
Y782870D01*
X102074Y787461D01*
X102415Y787264D01*
X105225Y786511D01*
X108135D01*
X110945Y787264D01*
X113464Y788719D01*
X115521Y790776D01*
X116976Y793295D01*
X117729Y796105D01*
Y799015D01*
X116976Y801825D01*
X116779Y802166D01*
X135230Y820617D01*
X136307Y819897D01*
D02*
G37*
G36*
X364415Y823891D02*
Y817615D01*
X357135D01*
Y797890D01*
X305422D01*
X281497Y821814D01*
Y822067D01*
X281334Y822885D01*
X282117Y824155D01*
X364151D01*
X364415Y823891D01*
D02*
G37*
G36*
X414590Y807787D02*
Y805890D01*
X429009D01*
X433101Y801798D01*
X434193Y801068D01*
X434350Y801037D01*
X438452Y796935D01*
X439544Y796205D01*
X440833Y795949D01*
X442345D01*
X443739Y794555D01*
X443263Y794079D01*
X457285Y780057D01*
X460820Y783593D01*
X468368Y791140D01*
X486689Y772818D01*
X487782Y772088D01*
X489070Y771832D01*
X501669D01*
X514754Y758747D01*
X514194Y758187D01*
X513739Y757088D01*
X512247Y756783D01*
X509221Y759809D01*
X508129Y760538D01*
X506841Y760795D01*
X497106D01*
X496401Y761851D01*
X496570Y762260D01*
Y764280D01*
X495797Y766148D01*
X494368Y767577D01*
X492500Y768350D01*
X490480D01*
X489360Y767886D01*
X489258Y767907D01*
X465768D01*
X455451Y778223D01*
X455927Y778700D01*
X441905Y792722D01*
X437894Y788710D01*
X431404Y795200D01*
X430311Y795930D01*
X429023Y796186D01*
X425678D01*
X418368Y803497D01*
X417275Y804226D01*
X415987Y804483D01*
X409912D01*
X409640Y805640D01*
X409640D01*
Y808163D01*
X414131D01*
X414590Y807787D01*
D02*
G37*
G36*
X705215Y782233D02*
Y777708D01*
X705280Y777383D01*
Y766760D01*
X681280D01*
Y749941D01*
X650948Y719610D01*
X649703Y719857D01*
X649467Y720428D01*
X648038Y721857D01*
X646171Y722630D01*
X644149D01*
X642282Y721857D01*
X641342Y720917D01*
X603374D01*
X591820Y732471D01*
Y733801D01*
X591047Y735668D01*
X589618Y737097D01*
X587751Y737870D01*
X585729D01*
X583862Y737097D01*
X582433Y735668D01*
X581660Y733801D01*
Y731779D01*
X582433Y729912D01*
X583862Y728483D01*
X585729Y727710D01*
X587059D01*
X599599Y715169D01*
X600692Y714440D01*
X601980Y714183D01*
X641342D01*
X642282Y713243D01*
X642853Y713007D01*
X643100Y711762D01*
X566579Y635241D01*
X565850Y634148D01*
X565593Y632860D01*
Y610877D01*
X564653Y609938D01*
X563880Y608070D01*
Y606049D01*
X564189Y605303D01*
X563112Y604584D01*
X560135Y607562D01*
Y736138D01*
X606652Y782655D01*
X704793D01*
X705215Y782233D01*
D02*
G37*
G36*
X650560Y707903D02*
X650240Y707131D01*
Y705109D01*
X651013Y703242D01*
X652442Y701813D01*
X654309Y701040D01*
X656330D01*
X658198Y701813D01*
X659137Y702753D01*
X674467D01*
X675316Y701483D01*
X674919Y700525D01*
Y698504D01*
X675693Y696637D01*
X676633Y695697D01*
Y686385D01*
X675314D01*
X673447Y685612D01*
X672018Y684183D01*
X671245Y682316D01*
Y681317D01*
X670400Y681149D01*
X669525Y680564D01*
X668776Y680794D01*
X668254Y681162D01*
Y682575D01*
X669194Y683514D01*
X669968Y685382D01*
Y687403D01*
X669194Y689270D01*
X667765Y690699D01*
X665898Y691472D01*
X663877D01*
X662010Y690699D01*
X660581Y689270D01*
X659808Y687403D01*
Y685382D01*
X660581Y683514D01*
X661521Y682575D01*
Y681522D01*
X658314Y678315D01*
X657584Y677223D01*
X657328Y675935D01*
Y653653D01*
X657265Y653612D01*
X656058Y653264D01*
X654889Y654433D01*
X653021Y655207D01*
X651113D01*
X650689Y655630D01*
X649597Y656359D01*
X648704Y656537D01*
X640080Y665161D01*
Y666490D01*
X639307Y668358D01*
X637878Y669787D01*
X636011Y670560D01*
X633989D01*
X632122Y669787D01*
X630693Y668358D01*
X629920Y666490D01*
Y664470D01*
X630693Y662602D01*
X632122Y661173D01*
X633989Y660400D01*
X635319D01*
X644850Y650869D01*
X645943Y650139D01*
X646835Y649961D01*
X646931Y649865D01*
Y649116D01*
X647704Y647249D01*
X649133Y645820D01*
X649542Y645650D01*
X649790Y644405D01*
X645586Y640201D01*
X644856Y639109D01*
X644600Y637820D01*
Y625376D01*
X643544Y624671D01*
X643135Y624840D01*
X641260D01*
X640406Y625410D01*
X639118Y625667D01*
X614688D01*
X613748Y626607D01*
X611880Y627380D01*
X609860D01*
X609103Y627067D01*
X608047Y627772D01*
Y630701D01*
X609147Y631801D01*
X609921Y633669D01*
Y635690D01*
X609147Y637557D01*
X607719Y638986D01*
X607310Y639155D01*
X607062Y640401D01*
X608455Y641793D01*
X624832D01*
X625772Y640853D01*
X627640Y640080D01*
X629660D01*
X631528Y640853D01*
X632957Y642282D01*
X633730Y644149D01*
Y646171D01*
X632957Y648038D01*
X631528Y649467D01*
X629660Y650240D01*
X627640D01*
X625772Y649467D01*
X624832Y648527D01*
X607060D01*
X605772Y648270D01*
X604679Y647541D01*
X593249Y636111D01*
X592649Y635212D01*
X591523Y635813D01*
X591820Y636530D01*
Y638550D01*
X591047Y640418D01*
X589618Y641847D01*
X587751Y642620D01*
X585729D01*
X584957Y642300D01*
X584238Y643377D01*
X602143Y661282D01*
X603642Y660984D01*
X604023Y660062D01*
X605452Y658633D01*
X607319Y657860D01*
X609341D01*
X611208Y658633D01*
X612637Y660062D01*
X613410Y661929D01*
Y663951D01*
X612637Y665818D01*
X611208Y667247D01*
X610286Y667628D01*
X609988Y669127D01*
X649483Y708622D01*
X650560Y707903D01*
D02*
G37*
G36*
X757154Y652807D02*
X757366Y651746D01*
X758095Y650653D01*
X760059Y648689D01*
X759761Y647191D01*
X759122Y646927D01*
X757693Y645498D01*
X757678Y645460D01*
X756432Y645212D01*
X755988Y645657D01*
X754120Y646430D01*
X752100D01*
X750232Y645657D01*
X748803Y644228D01*
X748030Y642361D01*
Y641031D01*
X723297Y616299D01*
X722568Y615206D01*
X722311Y613918D01*
Y522603D01*
X707734Y508026D01*
X706954Y508015D01*
X706301Y509271D01*
X706690Y509854D01*
X706947Y511143D01*
Y514342D01*
X707887Y515282D01*
X708660Y517150D01*
Y519170D01*
X707887Y521038D01*
X706458Y522467D01*
X704591Y523240D01*
X702570D01*
X702096Y523044D01*
X701040Y523749D01*
Y524250D01*
X700267Y526118D01*
X698838Y527547D01*
X696971Y528320D01*
X694949D01*
X694247Y528029D01*
X692977Y528877D01*
Y590425D01*
X750731Y648179D01*
X751460Y649272D01*
X751557Y649759D01*
X753326Y651527D01*
X753813Y651624D01*
X754905Y652354D01*
X755994Y653443D01*
X757154Y652807D01*
D02*
G37*
G36*
X581980Y639323D02*
X581660Y638550D01*
Y636530D01*
X582433Y634662D01*
X583373Y633722D01*
Y618864D01*
X583630Y617576D01*
X584359Y616484D01*
X590262Y610581D01*
X589110Y609430D01*
X588337Y607562D01*
Y605541D01*
X589110Y603674D01*
X590539Y602245D01*
X592406Y601472D01*
X594427D01*
X596294Y602245D01*
X597723Y603674D01*
X598327Y605133D01*
X598612Y605220D01*
X599901Y604963D01*
X628643D01*
X629582Y604023D01*
X631450Y603250D01*
X633470D01*
X635338Y604023D01*
X636767Y605452D01*
X637540Y607319D01*
Y609341D01*
X636767Y611208D01*
X635338Y612637D01*
X633470Y613410D01*
X631450D01*
X629582Y612637D01*
X628643Y611697D01*
X610158D01*
X609309Y612967D01*
X609600Y613670D01*
Y615690D01*
X609453Y616047D01*
X609528Y616265D01*
X610341Y617220D01*
X611880D01*
X613748Y617993D01*
X614688Y618933D01*
X637045D01*
Y618750D01*
X637818Y616882D01*
X639247Y615453D01*
X641114Y614680D01*
X643135D01*
X643544Y614849D01*
X644600Y614144D01*
Y576648D01*
X643311Y576114D01*
X641882Y574685D01*
X641109Y572818D01*
Y570797D01*
X641882Y568930D01*
X643311Y567501D01*
X645178Y566728D01*
X647199D01*
X647262Y566754D01*
X648318Y566048D01*
Y550993D01*
X648574Y549705D01*
X649304Y548612D01*
X650175Y547741D01*
Y540286D01*
X649119Y539581D01*
X648710Y539750D01*
X646690D01*
X644822Y538977D01*
X643393Y537548D01*
X642620Y535681D01*
Y534390D01*
X619596Y511367D01*
X581660D01*
Y511550D01*
X580887Y513418D01*
X579458Y514847D01*
X579156Y514972D01*
X578832Y516480D01*
X579182Y517006D01*
X579439Y518294D01*
Y586863D01*
X579182Y588152D01*
X578453Y589244D01*
X566484Y601212D01*
X567203Y602289D01*
X567949Y601980D01*
X569971D01*
X571838Y602753D01*
X573267Y604182D01*
X574040Y606049D01*
Y608070D01*
X573267Y609938D01*
X572327Y610877D01*
Y631465D01*
X580903Y640042D01*
X581980Y639323D01*
D02*
G37*
G36*
X752283Y563322D02*
Y561300D01*
X752540Y560012D01*
X753269Y558919D01*
X754315Y557873D01*
Y542826D01*
X753259Y542121D01*
X752850Y542290D01*
X750829D01*
X748962Y541517D01*
X747533Y540088D01*
X746760Y538220D01*
Y536199D01*
X747533Y534332D01*
X748407Y533459D01*
X734379Y519430D01*
X733109Y519956D01*
Y548008D01*
X748981Y563880D01*
X750311D01*
X751013Y564171D01*
X752283Y563322D01*
D02*
G37*
G36*
X445228Y714497D02*
X446320Y713767D01*
X447608Y713511D01*
X450344D01*
X451632Y713767D01*
X451731Y713833D01*
X454346Y711218D01*
X451641Y708513D01*
X450911Y707421D01*
X450654Y706133D01*
Y665491D01*
X450911Y664202D01*
X451641Y663110D01*
X477307Y637443D01*
X476821Y636270D01*
X476510D01*
X474642Y635497D01*
X473213Y634068D01*
X472440Y632201D01*
Y630871D01*
X467519Y625951D01*
X466790Y624858D01*
X466533Y623570D01*
Y553720D01*
X466790Y552432D01*
X467519Y551339D01*
X478790Y540069D01*
Y538105D01*
X479563Y536237D01*
X480992Y534808D01*
X482859Y534035D01*
X484880D01*
X486748Y534808D01*
X488177Y536237D01*
X488950Y538105D01*
Y540126D01*
X488177Y541993D01*
X486748Y543422D01*
X484880Y544195D01*
X484186D01*
X473267Y555115D01*
Y622175D01*
X477201Y626110D01*
X478531D01*
X480398Y626883D01*
X481827Y628312D01*
X482600Y630179D01*
Y630491D01*
X483773Y630977D01*
X485459Y629292D01*
X485211Y628046D01*
X484802Y627877D01*
X483373Y626448D01*
X482600Y624580D01*
Y623251D01*
X477143Y617794D01*
X477124Y617790D01*
X476032Y617061D01*
X475302Y615968D01*
X475046Y614680D01*
Y562987D01*
X475302Y561699D01*
X476032Y560607D01*
X485299Y551339D01*
X486392Y550610D01*
X487680Y550353D01*
X497918D01*
X497978Y550207D01*
X499407Y548778D01*
X501274Y548005D01*
X503296D01*
X505163Y548778D01*
X506592Y550207D01*
X507365Y552075D01*
Y554095D01*
X506592Y555963D01*
X505163Y557392D01*
X503296Y558165D01*
X501274D01*
X499407Y557392D01*
X499103Y557087D01*
X489075D01*
X481780Y564382D01*
Y612908D01*
X487361Y618490D01*
X488690D01*
X490558Y619263D01*
X491987Y620692D01*
X492156Y621101D01*
X493402Y621349D01*
X503079Y611671D01*
X502831Y610426D01*
X502381Y610239D01*
X500952Y608810D01*
X500178Y606943D01*
Y604922D01*
X500952Y603055D01*
X502381Y601626D01*
X504248Y600852D01*
X506269D01*
X508136Y601626D01*
X508725Y602215D01*
X524297Y586643D01*
X523811Y585470D01*
X523499D01*
X521632Y584697D01*
X520203Y583268D01*
X519430Y581400D01*
Y579380D01*
X520203Y577512D01*
X521143Y576572D01*
Y556260D01*
X521400Y554972D01*
X522129Y553879D01*
X542449Y533559D01*
X543542Y532830D01*
X544830Y532573D01*
X554982D01*
X555922Y531633D01*
X557789Y530860D01*
X559810D01*
X560219Y531029D01*
X561275Y530324D01*
Y476771D01*
X560770Y476014D01*
X560513Y474726D01*
Y473717D01*
X559573Y472778D01*
X558800Y470910D01*
Y468890D01*
X559573Y467022D01*
X561002Y465593D01*
X562869Y464820D01*
X564891D01*
X566101Y465322D01*
X567371Y464548D01*
Y380466D01*
X566101Y379537D01*
X563254Y380300D01*
X559426D01*
X555728Y379309D01*
X552412Y377395D01*
X549705Y374688D01*
X547791Y371372D01*
X546800Y367674D01*
Y363846D01*
X547791Y360148D01*
X549705Y356832D01*
X552412Y354125D01*
X555728Y352211D01*
X559426Y351220D01*
X563254D01*
X566952Y352211D01*
X570268Y354125D01*
X572975Y356832D01*
X574889Y360148D01*
X575880Y363846D01*
Y367674D01*
X574889Y371372D01*
X573197Y374303D01*
X573848Y375277D01*
X574105Y376565D01*
Y490065D01*
X575375Y490591D01*
X576242Y489723D01*
X578110Y488950D01*
X580131D01*
X581998Y489723D01*
X582938Y490663D01*
X612768D01*
X614057Y490920D01*
X615149Y491649D01*
X636898Y513399D01*
X638144Y513151D01*
X638313Y512742D01*
X639253Y511802D01*
Y482607D01*
X638313Y481668D01*
X637540Y479800D01*
Y477780D01*
X638313Y475912D01*
X639742Y474483D01*
X641609Y473710D01*
X643631D01*
X645498Y474483D01*
X646927Y475912D01*
X647700Y477780D01*
Y479800D01*
X646927Y481668D01*
X645987Y482607D01*
Y511802D01*
X646927Y512742D01*
X647700Y514609D01*
Y516631D01*
X646927Y518498D01*
X645739Y519686D01*
X655923Y529870D01*
X656652Y530962D01*
X656909Y532250D01*
Y546147D01*
X658179Y546673D01*
X658882Y545970D01*
X660749Y545197D01*
X662770D01*
X664637Y545970D01*
X666066Y547399D01*
X666145Y547590D01*
X666527D01*
X667815Y547847D01*
X668908Y548576D01*
X676135Y555804D01*
X676865Y556896D01*
X677121Y558185D01*
Y606557D01*
X678391Y606810D01*
X678953Y605452D01*
X680382Y604023D01*
X682250Y603250D01*
X684270D01*
X686138Y604023D01*
X687567Y605452D01*
X688340Y607319D01*
Y609341D01*
X687567Y611208D01*
X686138Y612637D01*
X684270Y613410D01*
X682250D01*
X680382Y612637D01*
X678953Y611208D01*
X678391Y609851D01*
X677121Y610103D01*
Y629258D01*
X678061Y630198D01*
X678835Y632065D01*
Y634086D01*
X678061Y635953D01*
X677809Y636205D01*
X678335Y637475D01*
X687832D01*
X689120Y637732D01*
X690213Y638461D01*
X695801Y644049D01*
X696530Y645142D01*
X696787Y646430D01*
Y671984D01*
X696530Y673272D01*
X695831Y674319D01*
Y683971D01*
X696852Y684993D01*
X697582Y686085D01*
X697838Y687373D01*
Y695156D01*
X698778Y696096D01*
X699551Y697963D01*
Y699984D01*
X698778Y701851D01*
X697809Y702820D01*
X698335Y704090D01*
X702972D01*
X703253Y702944D01*
X703256Y702820D01*
X701849Y701413D01*
X701076Y699546D01*
Y697525D01*
X701849Y695658D01*
X702753Y694753D01*
Y654057D01*
X701813Y653118D01*
X701040Y651251D01*
Y649230D01*
X701813Y647362D01*
X703242Y645933D01*
X705109Y645160D01*
X707131D01*
X708998Y645933D01*
X710427Y647362D01*
X711200Y649230D01*
Y650150D01*
X711495Y650423D01*
X712470Y650874D01*
X713999Y650240D01*
X716021D01*
X717888Y651013D01*
X719263Y652389D01*
X719539Y652373D01*
X720533Y652061D01*
Y636395D01*
X715329Y631190D01*
X713999D01*
X712132Y630417D01*
X710703Y628988D01*
X709930Y627121D01*
Y625099D01*
X710703Y623232D01*
X712132Y621803D01*
X712771Y621539D01*
X713069Y620041D01*
X687229Y594201D01*
X686500Y593108D01*
X686243Y591820D01*
Y512576D01*
X659035Y485368D01*
X658687Y484847D01*
X657417Y485232D01*
Y497970D01*
X673560Y514113D01*
X673773D01*
X674032Y513853D01*
X675900Y513080D01*
X677921D01*
X679788Y513853D01*
X681217Y515282D01*
X681990Y517150D01*
Y519170D01*
X681217Y521038D01*
X679788Y522467D01*
X677921Y523240D01*
X675900D01*
X674032Y522467D01*
X672603Y521038D01*
X672524Y520846D01*
X672166D01*
X670877Y520590D01*
X669785Y519860D01*
X651669Y501745D01*
X650940Y500652D01*
X650683Y499364D01*
Y454217D01*
X647708D01*
X646768Y455157D01*
X644901Y455930D01*
X642879D01*
X641012Y455157D01*
X639583Y453728D01*
X638810Y451861D01*
Y449840D01*
X639583Y447972D01*
X641012Y446543D01*
X642879Y445770D01*
X644901D01*
X646768Y446543D01*
X647708Y447483D01*
X652780D01*
X654068Y447740D01*
X655161Y448469D01*
X656431Y449739D01*
X656779Y450261D01*
X658049Y449876D01*
Y258951D01*
X658019Y258921D01*
X657290Y257828D01*
X657033Y256540D01*
Y177100D01*
X655946D01*
X652248Y176109D01*
X648932Y174195D01*
X646225Y171488D01*
X644311Y168172D01*
X643320Y164474D01*
Y160646D01*
X644311Y156948D01*
X646225Y153632D01*
X648932Y150925D01*
X652248Y149011D01*
X655946Y148020D01*
X659774D01*
X663472Y149011D01*
X666788Y150925D01*
X669495Y153632D01*
X671409Y156948D01*
X672400Y160646D01*
Y164474D01*
X671409Y168172D01*
X669495Y171488D01*
X666788Y174195D01*
X663767Y175939D01*
Y255145D01*
X663797Y255175D01*
X664526Y256268D01*
X664783Y257556D01*
Y481593D01*
X666528Y483339D01*
X667701Y482853D01*
Y466571D01*
X667958Y465283D01*
X668463Y464526D01*
Y450858D01*
X667523Y449918D01*
X666750Y448050D01*
Y446030D01*
X667523Y444162D01*
X668952Y442733D01*
X670819Y441960D01*
X672840D01*
X674708Y442733D01*
X676137Y444162D01*
X676910Y446030D01*
Y448050D01*
X676137Y449918D01*
X675197Y450858D01*
Y465809D01*
X674940Y467098D01*
X674435Y467854D01*
Y471904D01*
X675491Y472609D01*
X675900Y472440D01*
X677921D01*
X679788Y473213D01*
X680727Y474153D01*
X681289D01*
X682065Y473635D01*
X683354Y473379D01*
X688193D01*
X689482Y473635D01*
X690574Y474365D01*
X694048Y477839D01*
X695294Y477591D01*
X695463Y477182D01*
X696892Y475753D01*
X698760Y474980D01*
X700299D01*
X701112Y474025D01*
X701188Y473807D01*
X701040Y473451D01*
Y471429D01*
X701813Y469562D01*
X702016Y469360D01*
X701530Y468187D01*
X697237D01*
X696298Y469127D01*
X694430Y469900D01*
X692410D01*
X690542Y469127D01*
X689113Y467698D01*
X688340Y465830D01*
Y463810D01*
X689113Y461942D01*
X690542Y460513D01*
X692410Y459740D01*
X694430D01*
X696298Y460513D01*
X697237Y461453D01*
X725170D01*
X726458Y461710D01*
X727551Y462439D01*
X776921Y511810D01*
X778251D01*
X780118Y512583D01*
X781547Y514012D01*
X782320Y515880D01*
Y517901D01*
X781926Y518852D01*
X782898Y519824D01*
X783849Y519430D01*
X785871D01*
X787738Y520203D01*
X789167Y521632D01*
X789940Y523499D01*
Y525521D01*
X789167Y527388D01*
X787738Y528817D01*
X785871Y529590D01*
X783849D01*
X781982Y528817D01*
X780553Y527388D01*
X779780Y525521D01*
Y523499D01*
X780174Y522548D01*
X779202Y521576D01*
X778251Y521970D01*
X776229D01*
X774362Y521197D01*
X772933Y519768D01*
X772160Y517901D01*
Y516571D01*
X723775Y468187D01*
X710710D01*
X710224Y469360D01*
X710427Y469562D01*
X711200Y471429D01*
Y472759D01*
X760063Y521621D01*
X760792Y522714D01*
X761049Y524002D01*
Y559268D01*
X760792Y560556D01*
X760063Y561649D01*
X759017Y562695D01*
Y582923D01*
X759957Y583862D01*
X760730Y585729D01*
Y587751D01*
X759957Y589618D01*
X758528Y591047D01*
X756661Y591820D01*
X754640D01*
X752772Y591047D01*
X751343Y589618D01*
X750570Y587751D01*
Y585729D01*
X751343Y583862D01*
X752283Y582923D01*
Y574598D01*
X751013Y573749D01*
X750311Y574040D01*
X748289D01*
X746422Y573267D01*
X744993Y571838D01*
X744220Y569971D01*
Y568641D01*
X730218Y554639D01*
X729045Y555125D01*
Y574774D01*
X730101Y575479D01*
X730509Y575310D01*
X732531D01*
X734398Y576083D01*
X735827Y577512D01*
X736600Y579380D01*
Y581400D01*
X735827Y583268D01*
X734887Y584207D01*
Y603767D01*
X751198Y620079D01*
X752444Y619831D01*
X752613Y619422D01*
X754042Y617993D01*
X755910Y617220D01*
X757931D01*
X759798Y617993D01*
X761227Y619422D01*
X762000Y621289D01*
Y622619D01*
X766091Y626709D01*
X767589Y626411D01*
X767853Y625772D01*
X769282Y624343D01*
X771150Y623570D01*
X773170D01*
X775038Y624343D01*
X775977Y625283D01*
X779014D01*
X786918Y617379D01*
X788010Y616650D01*
X789298Y616393D01*
X806442D01*
X807382Y615453D01*
X809249Y614680D01*
X811271D01*
X813138Y615453D01*
X814567Y616882D01*
X815340Y618750D01*
Y620770D01*
X814567Y622638D01*
X813138Y624067D01*
X811271Y624840D01*
X809249D01*
X807382Y624067D01*
X806442Y623127D01*
X790693D01*
X783456Y630363D01*
X783982Y631633D01*
X816610D01*
X817898Y631890D01*
X818991Y632619D01*
X834071Y647700D01*
X835341Y647174D01*
Y463633D01*
X835598Y462345D01*
X836103Y461588D01*
Y181791D01*
X833858Y181189D01*
X830542Y179275D01*
X827835Y176568D01*
X825921Y173252D01*
X824930Y169554D01*
Y165726D01*
X825921Y162028D01*
X827835Y158712D01*
X830542Y156005D01*
X833858Y154091D01*
X837556Y153100D01*
X841384D01*
X845082Y154091D01*
X848398Y156005D01*
X851105Y158712D01*
X853019Y162028D01*
X854010Y165726D01*
Y169554D01*
X853019Y173252D01*
X851105Y176568D01*
X848398Y179275D01*
X845082Y181189D01*
X842837Y181791D01*
Y462871D01*
X842580Y464160D01*
X842075Y464916D01*
Y519346D01*
X843345Y519731D01*
X843439Y519589D01*
X858679Y504349D01*
X859772Y503620D01*
X861060Y503363D01*
X909871D01*
X910183Y502369D01*
X910199Y502093D01*
X908823Y500718D01*
X908050Y498851D01*
Y496829D01*
X908823Y494962D01*
X910252Y493533D01*
X912120Y492760D01*
X913449D01*
X936149Y470059D01*
X937242Y469330D01*
X938530Y469073D01*
X965076D01*
X973263Y460886D01*
Y128394D01*
X896496Y51627D01*
X562734D01*
X553277Y61084D01*
Y181610D01*
X553020Y182898D01*
X552291Y183991D01*
X520700Y215581D01*
Y216910D01*
X519927Y218778D01*
X518498Y220207D01*
X516631Y220980D01*
X514609D01*
X512742Y220207D01*
X511313Y218778D01*
X510540Y216910D01*
Y214890D01*
X511313Y213022D01*
X512742Y211593D01*
X514609Y210820D01*
X515939D01*
X546543Y180215D01*
Y59690D01*
X546800Y58402D01*
X547529Y57309D01*
X558959Y45879D01*
X560052Y45150D01*
X561340Y44893D01*
X897890D01*
X899178Y45150D01*
X900271Y45879D01*
X979011Y124619D01*
X979740Y125712D01*
X979997Y127000D01*
Y462280D01*
X979740Y463568D01*
X979011Y464661D01*
X968851Y474821D01*
X967758Y475550D01*
X966470Y475807D01*
X939924D01*
X918210Y497521D01*
Y498851D01*
X917437Y500718D01*
X916061Y502093D01*
X916077Y502369D01*
X916389Y503363D01*
X957456D01*
X985963Y474855D01*
Y123315D01*
X901575Y38927D01*
X542415D01*
X522797Y58545D01*
Y187960D01*
X522797Y187960D01*
X522540Y189248D01*
X521811Y190341D01*
X414115Y298037D01*
X413022Y298766D01*
X411734Y299023D01*
X320419D01*
X287847Y331595D01*
Y415165D01*
X460851Y588169D01*
X461580Y589262D01*
X461837Y590550D01*
Y598162D01*
X462777Y599102D01*
X463550Y600970D01*
Y602990D01*
X462777Y604858D01*
X461837Y605798D01*
Y627380D01*
X461580Y628668D01*
X460851Y629761D01*
X448151Y642461D01*
X447058Y643190D01*
X445770Y643447D01*
X444507D01*
X443568Y644387D01*
X441701Y645160D01*
X439679D01*
X437812Y644387D01*
X436383Y642958D01*
X435927Y641855D01*
X434081Y642620D01*
X432060D01*
X430192Y641847D01*
X428763Y640418D01*
X427990Y638550D01*
Y636530D01*
X428763Y634662D01*
X430192Y633233D01*
X432060Y632460D01*
X433389D01*
X439863Y625985D01*
Y605798D01*
X438923Y604858D01*
X438754Y604449D01*
X437508Y604201D01*
X417387Y624323D01*
Y626102D01*
X418327Y627042D01*
X419100Y628909D01*
Y630930D01*
X418327Y632798D01*
X416898Y634227D01*
X415031Y635000D01*
X413009D01*
X411142Y634227D01*
X409713Y632798D01*
X408940Y630930D01*
Y628909D01*
X409713Y627042D01*
X410653Y626102D01*
Y622928D01*
X410910Y621640D01*
X411639Y620548D01*
X442748Y589439D01*
X443840Y588710D01*
X445128Y588453D01*
X447033D01*
X447972Y587513D01*
X448611Y587249D01*
X448909Y585751D01*
X282099Y418941D01*
X281370Y417848D01*
X281113Y416560D01*
Y330200D01*
X281370Y328912D01*
X282099Y327819D01*
X313787Y296132D01*
X313301Y294959D01*
X310135D01*
X187517Y417577D01*
Y571376D01*
X222028Y605887D01*
X286673D01*
X287962Y606143D01*
X289054Y606873D01*
X401734Y719553D01*
X440172D01*
X445228Y714497D01*
D02*
G37*
%LPC*%
G36*
X963671Y529590D02*
X961649D01*
X959782Y528817D01*
X958353Y527388D01*
X957580Y525521D01*
Y523499D01*
X958353Y521632D01*
X959782Y520203D01*
X961649Y519430D01*
X963671D01*
X965538Y520203D01*
X966967Y521632D01*
X967740Y523499D01*
Y525521D01*
X966967Y527388D01*
X965538Y528817D01*
X963671Y529590D01*
D02*
G37*
G36*
X874771Y527050D02*
X872749D01*
X870882Y526277D01*
X869453Y524848D01*
X868680Y522980D01*
Y520960D01*
X869453Y519092D01*
X870882Y517663D01*
X872749Y516890D01*
X874771D01*
X876638Y517663D01*
X878067Y519092D01*
X878840Y520960D01*
Y522980D01*
X878067Y524848D01*
X876638Y526277D01*
X874771Y527050D01*
D02*
G37*
G36*
X93980Y212140D02*
X78740D01*
X77749Y211943D01*
X76909Y211381D01*
X62939Y197411D01*
X62377Y196571D01*
X62180Y195580D01*
Y166370D01*
X62377Y165379D01*
X62939Y164539D01*
X74369Y153109D01*
X75209Y152547D01*
X76200Y152350D01*
X176530D01*
X177521Y152547D01*
X178361Y153109D01*
X180143Y154890D01*
X228525D01*
Y146505D01*
X226620D01*
Y126175D01*
X238200D01*
Y126175D01*
X239320D01*
Y126175D01*
X241225D01*
Y125968D01*
X241521Y124481D01*
X242363Y123221D01*
X243851Y121733D01*
X245111Y120891D01*
X246598Y120595D01*
X263025D01*
X264512Y120891D01*
X265772Y121733D01*
X270214Y126175D01*
X276300D01*
Y132455D01*
X305360D01*
Y126175D01*
X316940D01*
Y126175D01*
X318060D01*
Y126175D01*
X319965D01*
Y125968D01*
X320261Y124481D01*
X321103Y123221D01*
X322591Y121733D01*
X323851Y120891D01*
X325338Y120595D01*
X341765D01*
X343252Y120891D01*
X344512Y121733D01*
X348954Y126175D01*
X355040D01*
Y146505D01*
X350595D01*
Y152098D01*
X356300D01*
Y163878D01*
X337120D01*
Y152098D01*
X342825D01*
Y147574D01*
X342340Y146505D01*
X336254D01*
X333453Y149305D01*
X333440Y150570D01*
X333440D01*
Y162350D01*
X314260D01*
Y150570D01*
X325350D01*
Y148030D01*
X325401Y147775D01*
X324359Y146505D01*
X318060D01*
Y146505D01*
X316940D01*
Y146505D01*
X305360D01*
Y140225D01*
X276300D01*
Y146505D01*
X264870D01*
X264720Y146505D01*
Y146505D01*
X263600D01*
Y146505D01*
X261695D01*
Y152860D01*
X266130D01*
Y164640D01*
X246950D01*
Y152860D01*
X253925D01*
Y146505D01*
X252020D01*
Y146505D01*
X250900D01*
Y146505D01*
X239320D01*
Y146505D01*
X238200D01*
Y146505D01*
X236295D01*
Y154890D01*
X240765D01*
X241756Y155087D01*
X242596Y155649D01*
X243158Y156489D01*
X243355Y157480D01*
Y181610D01*
X243158Y182601D01*
X242596Y183441D01*
X241756Y184003D01*
X240765Y184200D01*
X199193D01*
X173281Y210111D01*
X172879Y210380D01*
X172480Y210656D01*
X172459Y210661D01*
X172441Y210673D01*
X171966Y210767D01*
X171492Y210869D01*
X94022Y212139D01*
X94001Y212136D01*
X93980Y212140D01*
D02*
G37*
G36*
X93614Y122800D02*
X90707D01*
X87899Y122048D01*
X85381Y120594D01*
X83326Y118539D01*
X81872Y116021D01*
X81120Y113213D01*
Y110307D01*
X81872Y107499D01*
X83326Y104981D01*
X85381Y102926D01*
X87899Y101472D01*
X90707Y100720D01*
X93614D01*
X96421Y101472D01*
X98939Y102926D01*
X100994Y104981D01*
X102448Y107499D01*
X103200Y110307D01*
Y113213D01*
X102448Y116021D01*
X100994Y118539D01*
X98939Y120594D01*
X96421Y122048D01*
X93614Y122800D01*
D02*
G37*
G36*
X138679Y123300D02*
X135641D01*
X132706Y122514D01*
X130074Y120994D01*
X127926Y118846D01*
X126406Y116214D01*
X125620Y113279D01*
Y110241D01*
X126406Y107306D01*
X127926Y104674D01*
X130074Y102526D01*
X132706Y101006D01*
X135641Y100220D01*
X138679D01*
X141614Y101006D01*
X144246Y102526D01*
X146394Y104674D01*
X147914Y107306D01*
X148700Y110241D01*
Y113279D01*
X147914Y116214D01*
X146394Y118846D01*
X144246Y120994D01*
X141614Y122514D01*
X138679Y123300D01*
D02*
G37*
G36*
X238200Y92265D02*
Y92265D01*
X226620D01*
Y86435D01*
X214047D01*
X212561Y86139D01*
X211301Y85297D01*
X209824Y83820D01*
X208540D01*
X206672Y83047D01*
X205243Y81618D01*
X204470Y79750D01*
Y77730D01*
X205243Y75862D01*
X206672Y74433D01*
X208540Y73660D01*
X210560D01*
X212428Y74433D01*
X213857Y75862D01*
X214566Y77575D01*
X215656Y78665D01*
X226620D01*
Y71935D01*
X228525D01*
Y51500D01*
X225000D01*
Y32320D01*
X236780D01*
Y51500D01*
X236295D01*
Y71935D01*
X238200D01*
Y71935D01*
X239320D01*
Y71935D01*
X250900D01*
Y71935D01*
X252020D01*
Y71935D01*
X263600D01*
Y92265D01*
X252133D01*
X252020Y92265D01*
Y92265D01*
X250900D01*
X250900Y92265D01*
X250787Y92265D01*
X239320D01*
Y92265D01*
X238200D01*
D02*
G37*
%LPD*%
G36*
X171450Y208280D02*
X198120Y181610D01*
X240765D01*
Y157480D01*
X179070D01*
X176530Y154940D01*
X76200D01*
X64770Y166370D01*
Y195580D01*
X78740Y209550D01*
X93980D01*
X171450Y208280D01*
D02*
G37*
%LPC*%
G36*
X82735Y808609D02*
X79825D01*
X77015Y807856D01*
X74496Y806401D01*
X72439Y804344D01*
X70984Y801825D01*
X70231Y799015D01*
Y796105D01*
X70984Y793295D01*
X72439Y790776D01*
X74496Y788719D01*
X77015Y787264D01*
X79825Y786511D01*
X82735D01*
X85545Y787264D01*
X88064Y788719D01*
X90121Y790776D01*
X91576Y793295D01*
X92329Y796105D01*
Y799015D01*
X91576Y801825D01*
X90121Y804344D01*
X88064Y806401D01*
X85545Y807856D01*
X82735Y808609D01*
D02*
G37*
G36*
X870576Y774760D02*
X868064D01*
X865638Y774110D01*
X863462Y772854D01*
X861686Y771078D01*
X860430Y768902D01*
X859780Y766476D01*
Y763964D01*
X860430Y761538D01*
X861686Y759362D01*
X863462Y757586D01*
X865638Y756330D01*
X868064Y755680D01*
X870576D01*
X873002Y756330D01*
X875178Y757586D01*
X876954Y759362D01*
X878210Y761538D01*
X878860Y763964D01*
Y766476D01*
X878210Y768902D01*
X876954Y771078D01*
X875178Y772854D01*
X873002Y774110D01*
X870576Y774760D01*
D02*
G37*
G36*
X930650Y686108D02*
X928630D01*
X926762Y685334D01*
X925333Y683905D01*
X925236Y683670D01*
X924169Y683458D01*
X923077Y682728D01*
X917099Y676751D01*
X916370Y675658D01*
X916113Y674370D01*
Y649094D01*
X912019Y645001D01*
X910421Y644894D01*
X909658Y645657D01*
X907791Y646430D01*
X905770D01*
X903902Y645657D01*
X902473Y644228D01*
X901700Y642361D01*
Y640340D01*
X902473Y638472D01*
X903902Y637043D01*
X904207Y636917D01*
X904350Y636199D01*
X905080Y635107D01*
X911795Y628392D01*
Y589572D01*
X910749Y588526D01*
X910020Y587433D01*
X909763Y586145D01*
Y556268D01*
X908823Y555328D01*
X908050Y553461D01*
Y551440D01*
X908823Y549572D01*
X910252Y548143D01*
X912120Y547370D01*
X914140D01*
X916008Y548143D01*
X917437Y549572D01*
X918210Y551440D01*
Y553461D01*
X917437Y555328D01*
X916497Y556268D01*
Y584751D01*
X917543Y585796D01*
X918272Y586889D01*
X918529Y588177D01*
Y629786D01*
X918272Y631074D01*
X917543Y632167D01*
X916621Y633088D01*
X916869Y634334D01*
X917278Y634503D01*
X918707Y635932D01*
X919480Y637799D01*
Y639821D01*
X918707Y641688D01*
X918468Y641926D01*
X921861Y645319D01*
X922590Y646412D01*
X922847Y647700D01*
Y672975D01*
X926677Y676806D01*
X926762Y676721D01*
X928630Y675948D01*
X930650D01*
X932518Y676721D01*
X933947Y678150D01*
X934720Y680017D01*
Y682038D01*
X933947Y683905D01*
X932518Y685334D01*
X930650Y686108D01*
D02*
G37*
G36*
X862070Y613410D02*
X860050D01*
X858182Y612637D01*
X856753Y611208D01*
X855980Y609341D01*
Y607319D01*
X856753Y605452D01*
X858182Y604023D01*
X860050Y603250D01*
X862070D01*
X863938Y604023D01*
X865367Y605452D01*
X866140Y607319D01*
Y609341D01*
X865367Y611208D01*
X863938Y612637D01*
X862070Y613410D01*
D02*
G37*
G36*
X158935Y808609D02*
X156025D01*
X153215Y807856D01*
X150696Y806401D01*
X148639Y804344D01*
X147184Y801825D01*
X146431Y799015D01*
Y796105D01*
X147184Y793295D01*
X148639Y790776D01*
X150696Y788719D01*
X153215Y787264D01*
X156025Y786511D01*
X158935D01*
X161745Y787264D01*
X164264Y788719D01*
X166321Y790776D01*
X167776Y793295D01*
X168529Y796105D01*
Y799015D01*
X167776Y801825D01*
X166321Y804344D01*
X164264Y806401D01*
X161745Y807856D01*
X158935Y808609D01*
D02*
G37*
G36*
X133535D02*
X130625D01*
X127815Y807856D01*
X125296Y806401D01*
X123239Y804344D01*
X121784Y801825D01*
X121031Y799015D01*
Y796105D01*
X121784Y793295D01*
X123239Y790776D01*
X125296Y788719D01*
X127815Y787264D01*
X130625Y786511D01*
X133535D01*
X136345Y787264D01*
X138864Y788719D01*
X140921Y790776D01*
X142376Y793295D01*
X143129Y796105D01*
Y799015D01*
X142376Y801825D01*
X140921Y804344D01*
X138864Y806401D01*
X136345Y807856D01*
X133535Y808609D01*
D02*
G37*
G36*
X656576Y774760D02*
X654064D01*
X651638Y774110D01*
X649462Y772854D01*
X647686Y771078D01*
X646430Y768902D01*
X645780Y766476D01*
Y763964D01*
X646430Y761538D01*
X647686Y759362D01*
X649462Y757586D01*
X651638Y756330D01*
X654064Y755680D01*
X656576D01*
X659002Y756330D01*
X661178Y757586D01*
X662954Y759362D01*
X664210Y761538D01*
X664860Y763964D01*
Y766476D01*
X664210Y768902D01*
X662954Y771078D01*
X661178Y772854D01*
X659002Y774110D01*
X656576Y774760D01*
D02*
G37*
G36*
X608040Y529620D02*
X606020D01*
X604152Y528847D01*
X602723Y527418D01*
X601950Y525550D01*
Y523530D01*
X602723Y521662D01*
X604152Y520233D01*
X606020Y519460D01*
X608040D01*
X609908Y520233D01*
X611337Y521662D01*
X612110Y523530D01*
Y525550D01*
X611337Y527418D01*
X609908Y528847D01*
X608040Y529620D01*
D02*
G37*
G36*
X774441Y614680D02*
X772420D01*
X770552Y613907D01*
X769123Y612478D01*
X768350Y610611D01*
Y608590D01*
X769123Y606722D01*
X770552Y605293D01*
X772420Y604520D01*
X774441D01*
X776308Y605293D01*
X777737Y606722D01*
X778510Y608590D01*
Y610611D01*
X777737Y612478D01*
X776308Y613907D01*
X774441Y614680D01*
D02*
G37*
G36*
X338464Y583500D02*
X334636D01*
X330938Y582509D01*
X327622Y580595D01*
X324915Y577888D01*
X323001Y574572D01*
X322010Y570874D01*
Y567046D01*
X323001Y563348D01*
X324915Y560032D01*
X327622Y557325D01*
X330938Y555411D01*
X334636Y554420D01*
X338464D01*
X342162Y555411D01*
X345478Y557325D01*
X348185Y560032D01*
X350099Y563348D01*
X351090Y567046D01*
Y570874D01*
X350099Y574572D01*
X348185Y577888D01*
X345478Y580595D01*
X342162Y582509D01*
X338464Y583500D01*
D02*
G37*
G36*
X519170Y528320D02*
X517150D01*
X515282Y527547D01*
X513853Y526118D01*
X513080Y524250D01*
Y522229D01*
X513853Y520362D01*
X515282Y518933D01*
X517150Y518160D01*
X519170D01*
X521038Y518933D01*
X522467Y520362D01*
X523240Y522229D01*
Y524250D01*
X522467Y526118D01*
X521038Y527547D01*
X519170Y528320D01*
D02*
G37*
G36*
X548381Y499110D02*
X546359D01*
X544492Y498337D01*
X543553Y497397D01*
X407670D01*
X406382Y497140D01*
X405289Y496411D01*
X337979Y429101D01*
X337250Y428008D01*
X336993Y426720D01*
Y386261D01*
X334748Y385659D01*
X331432Y383745D01*
X328725Y381038D01*
X326811Y377722D01*
X325820Y374024D01*
Y370196D01*
X326811Y366498D01*
X328725Y363182D01*
X331432Y360475D01*
X334748Y358561D01*
X338446Y357570D01*
X342274D01*
X345972Y358561D01*
X349288Y360475D01*
X351995Y363182D01*
X353909Y366498D01*
X354900Y370196D01*
Y374024D01*
X353909Y377722D01*
X351995Y381038D01*
X349288Y383745D01*
X345972Y385659D01*
X343727Y386261D01*
Y425326D01*
X409064Y490663D01*
X543553D01*
X544492Y489723D01*
X546359Y488950D01*
X548381D01*
X550248Y489723D01*
X551677Y491152D01*
X552450Y493019D01*
Y495041D01*
X551677Y496908D01*
X550248Y498337D01*
X548381Y499110D01*
D02*
G37*
G36*
X693160Y443230D02*
X691140D01*
X689272Y442457D01*
X687843Y441028D01*
X687070Y439160D01*
Y437140D01*
X687843Y435272D01*
X689272Y433843D01*
X691140Y433070D01*
X693160D01*
X695028Y433843D01*
X696457Y435272D01*
X697230Y437140D01*
Y439160D01*
X696457Y441028D01*
X695028Y442457D01*
X693160Y443230D01*
D02*
G37*
G36*
X932824Y376490D02*
X928996D01*
X925298Y375499D01*
X921982Y373585D01*
X919275Y370878D01*
X917361Y367562D01*
X916370Y363864D01*
Y360036D01*
X917361Y356338D01*
X919275Y353022D01*
X921982Y350315D01*
X925298Y348401D01*
X928996Y347410D01*
X932824D01*
X936522Y348401D01*
X939838Y350315D01*
X942545Y353022D01*
X944459Y356338D01*
X945450Y360036D01*
Y363864D01*
X944459Y367562D01*
X942545Y370878D01*
X939838Y373585D01*
X936522Y375499D01*
X932824Y376490D01*
D02*
G37*
G36*
X746769D02*
X742941D01*
X739243Y375499D01*
X735927Y373585D01*
X733220Y370878D01*
X731306Y367562D01*
X730315Y363864D01*
Y360036D01*
X731306Y356338D01*
X733220Y353022D01*
X735927Y350315D01*
X739243Y348401D01*
X742941Y347410D01*
X746769D01*
X750467Y348401D01*
X753783Y350315D01*
X756490Y353022D01*
X758404Y356338D01*
X759395Y360036D01*
Y363864D01*
X758404Y367562D01*
X756490Y370878D01*
X753783Y373585D01*
X750467Y375499D01*
X746769Y376490D01*
D02*
G37*
%LPD*%
D14*
X133350Y321310D02*
X137160Y325120D01*
X107950Y321310D02*
X133350D01*
X71120Y358140D02*
X107950Y321310D01*
X284480Y416560D02*
X458470Y590550D01*
X284480Y330200D02*
Y416560D01*
X458470Y590550D02*
Y601980D01*
X445128Y591820D02*
X450850D01*
X414020Y622928D02*
X445128Y591820D01*
X458470Y601980D02*
Y627380D01*
X443230Y601980D02*
Y627380D01*
X184150Y416183D02*
Y572770D01*
X220633Y609253D02*
X286673D01*
X184150Y572770D02*
X220633Y609253D01*
X385425Y722015D02*
Y722278D01*
X406400Y734727D02*
Y767080D01*
X320668Y651510D02*
X367979Y698821D01*
X315468Y711708D02*
X383381D01*
X406400Y734727D01*
X400340Y722919D02*
X441567D01*
X286673Y609253D02*
X400340Y722919D01*
X385425Y722278D02*
X389245Y726097D01*
Y776595D01*
X110490Y651510D02*
X320668D01*
X303530Y699770D02*
X315468Y711708D01*
X71120Y612140D02*
X110490Y651510D01*
X71120Y358140D02*
Y612140D01*
X389245Y776595D02*
X389890Y777240D01*
X184150Y416183D02*
X308741Y291592D01*
X441567Y722919D02*
X447608Y716878D01*
X450344D01*
X451850Y718383D02*
X452130D01*
X456666Y722919D01*
X450344Y716878D02*
X451850Y718383D01*
X284480Y330200D02*
X319024Y295656D01*
X308741Y291592D02*
X398018D01*
X42418Y295402D02*
X105410Y232410D01*
X410210D01*
X430530Y212090D01*
X415608Y785812D02*
X418219Y783201D01*
X412317Y790534D02*
X415608Y787243D01*
X412317Y790534D02*
Y790777D01*
X415608Y785812D02*
Y787243D01*
X418219Y783201D02*
X424534D01*
X228926Y785611D02*
X408227D01*
X436410Y757428D02*
X506841D01*
X408227Y785611D02*
X436410Y757428D01*
X424283Y792820D02*
X429023D01*
X422600Y788755D02*
X426016D01*
X438988Y775783D01*
X384886Y801116D02*
X415987D01*
X435453Y772247D02*
Y772282D01*
X415987Y801116D02*
X424283Y792820D01*
X386569Y797052D02*
X414304D01*
X429023Y792820D02*
X442524Y779318D01*
X424534Y783201D02*
X435453Y772282D01*
X414304Y797052D02*
X422600Y788755D01*
X436118Y804030D02*
X440833Y799316D01*
X435481Y804179D02*
X436118D01*
X440833Y799316D02*
X443740D01*
X436118Y804030D02*
Y804179D01*
X427880Y811780D02*
X435481Y804179D01*
X604680Y614841D02*
Y634519D01*
X604841Y634679D01*
X607060Y645160D02*
X628650D01*
X595630Y618236D02*
Y633730D01*
X607060Y645160D01*
X604520Y614680D02*
X604680Y614841D01*
X752525Y654735D02*
X755650Y657860D01*
X751772Y654735D02*
X752525D01*
X689610Y591820D02*
X748350Y650560D01*
Y651313D02*
X751772Y654735D01*
X726320Y726521D02*
X755650Y697191D01*
X749808Y685800D02*
X750196Y686188D01*
Y690626D01*
X748350Y650560D02*
Y651313D01*
X755650Y657860D02*
Y697191D01*
X733365Y707457D02*
X750196Y690626D01*
X715010Y626110D02*
X723900Y635000D01*
Y679450D01*
X689610Y511182D02*
Y591820D01*
X725678Y613918D02*
X753110Y641350D01*
X706120Y472440D02*
X757682Y524002D01*
X751840Y532130D02*
Y537210D01*
X755650Y561300D02*
Y586740D01*
X729742Y549402D02*
X749300Y568960D01*
X699770Y480060D02*
X751840Y532130D01*
X757682Y524002D02*
Y559268D01*
X755650Y561300D02*
X757682Y559268D01*
X1026160Y580390D02*
Y769620D01*
X981710Y535940D02*
X1026160Y580390D01*
X925830Y815340D02*
X949960D01*
X953770Y811530D01*
X783470Y833882D02*
X797052Y820300D01*
X717899Y840486D02*
X786384D01*
X931672Y846328D02*
X1003300Y774700D01*
X709168Y846328D02*
X931672D01*
X554038Y854456D02*
X939451D01*
X1016254Y777653D01*
X786384Y840486D02*
X808990Y817880D01*
X717042Y833882D02*
X783470D01*
X529414Y829832D02*
X554038Y854456D01*
X705612Y850392D02*
X937768D01*
X1012190Y775970D01*
X680548Y825328D02*
X705612Y850392D01*
X683260Y820420D02*
X709168Y846328D01*
X797052Y777238D02*
Y820300D01*
X688340Y805180D02*
X717042Y833882D01*
X778510Y825500D02*
X781050Y828040D01*
X741680Y825500D02*
X778510D01*
X808990Y797560D02*
Y817880D01*
X797052Y777238D02*
X798320Y775970D01*
X528223Y829832D02*
X529414D01*
X498923Y800531D02*
X528223Y829832D01*
X495387Y804067D02*
X528893Y837573D01*
X1012190Y724542D02*
Y775970D01*
X1003300Y731520D02*
Y774700D01*
X629278Y820420D02*
X683260D01*
X1016254Y629501D02*
Y777653D01*
X628439Y825328D02*
X680548D01*
X577885Y822925D02*
X626036D01*
X628439Y825328D01*
X624198Y815340D02*
X629278Y820420D01*
X927773Y541020D02*
X1016254Y629501D01*
X527207Y772247D02*
X577885Y822925D01*
X891540Y541020D02*
X927773D01*
X629920Y812800D02*
X690213D01*
X717899Y840486D01*
X768058Y777708D02*
Y794728D01*
X766320Y775970D02*
X768058Y777708D01*
X750320Y775970D02*
Y788276D01*
X838708Y463633D02*
Y755582D01*
X830320Y736340D02*
Y755970D01*
X702320Y728990D02*
Y755970D01*
X702310Y728980D02*
X702320Y728990D01*
X838320Y771720D02*
Y775970D01*
X726320Y726521D02*
Y755970D01*
X758320Y741810D02*
Y755970D01*
X774320Y743840D02*
Y755970D01*
X716582Y754232D02*
X718320Y755970D01*
X716582Y729282D02*
Y754232D01*
X814320Y775970D02*
Y792730D01*
X806320Y742452D02*
Y755970D01*
Y775970D02*
Y785876D01*
X760058Y777708D02*
Y796888D01*
X758320Y775970D02*
X760058Y777708D01*
X814320Y740199D02*
Y755970D01*
X686320Y750220D02*
Y755970D01*
X568960Y632860D02*
X686320Y750220D01*
X775970Y777620D02*
Y788670D01*
X774320Y775970D02*
X775970Y777620D01*
X726320Y775970D02*
Y802760D01*
X822960Y776610D02*
Y791210D01*
X822320Y775970D02*
X822960Y776610D01*
X735330Y776980D02*
Y800100D01*
X734320Y775970D02*
X735330Y776980D01*
X832058Y777708D02*
Y790148D01*
X830320Y775970D02*
X832058Y777708D01*
X766438Y741052D02*
Y755852D01*
X742320Y775970D02*
X742950Y776600D01*
Y788670D01*
X709930Y718820D02*
Y755580D01*
X822320Y740122D02*
Y755970D01*
X732790Y754440D02*
X734320Y755970D01*
X732790Y736600D02*
Y754440D01*
X790320Y755970D02*
X791972Y754318D01*
Y741482D02*
Y754318D01*
X740582Y754232D02*
X742320Y755970D01*
X740582Y734432D02*
Y754232D01*
X798320Y744220D02*
Y755970D01*
X791210Y776860D02*
Y798830D01*
X790320Y775970D02*
X791210Y776860D01*
X750320Y743367D02*
Y755970D01*
X718820Y776470D02*
Y792480D01*
X718320Y775970D02*
X718820Y776470D01*
X782320Y744674D02*
Y755970D01*
X694320Y736230D02*
Y755970D01*
X782320Y775970D02*
Y792480D01*
X708582Y777708D02*
X710320Y775970D01*
X708582Y777708D02*
Y783628D01*
X838320Y755970D02*
X838708Y755582D01*
X766320Y755970D02*
X766438Y755852D01*
X709930Y755580D02*
X710320Y755970D01*
X706188Y786022D02*
X708582Y783628D01*
X605258Y786022D02*
X706188D01*
X556768Y737532D02*
X605258Y786022D01*
X556768Y606167D02*
Y737532D01*
Y606167D02*
X576072Y586863D01*
Y518294D02*
Y586863D01*
X570738Y512960D02*
X576072Y518294D01*
X570738Y376565D02*
Y512960D01*
X561340Y367167D02*
X570738Y376565D01*
X561340Y365760D02*
Y367167D01*
X782320Y792480D02*
X783590Y793750D01*
X693420Y735330D02*
X694320Y736230D01*
X780288Y742642D02*
X782320Y744674D01*
X780288Y742035D02*
Y742642D01*
X745236Y738283D02*
X750320Y743367D01*
X745236Y728980D02*
Y738283D01*
X798320Y744220D02*
X800518Y742022D01*
Y738571D02*
Y742022D01*
Y738571D02*
X801411Y737678D01*
X801870D01*
X804218Y735330D01*
X805180D01*
X739394Y733244D02*
X740582Y734432D01*
X739394Y719194D02*
Y733244D01*
Y719194D02*
X760476Y698112D01*
Y653034D02*
Y698112D01*
Y653034D02*
X764073Y649437D01*
X765343D01*
X770631Y644149D01*
Y644149D02*
Y644149D01*
X819658Y737460D02*
X822320Y740122D01*
X819658Y701343D02*
Y737460D01*
Y701343D02*
X832612Y688389D01*
Y651002D02*
Y688389D01*
X816610Y635000D02*
X832612Y651002D01*
X778075Y635000D02*
X816610D01*
X778040Y635035D02*
X778075Y635000D01*
X835660Y793750D02*
X840740D01*
X832058Y790148D02*
X835660Y793750D01*
X718820Y810260D02*
X726320Y802760D01*
X568960Y607060D02*
Y632860D01*
X814320Y740199D02*
X815086Y739433D01*
Y679704D02*
Y739433D01*
Y679704D02*
X826770Y668020D01*
X760058Y796888D02*
X760730Y797560D01*
X805098Y787097D02*
X806320Y785876D01*
X805098Y787097D02*
Y790784D01*
X804418Y791464D02*
X805098Y790784D01*
X806320Y742452D02*
X811022Y737750D01*
Y732910D02*
Y737750D01*
X807600Y729488D02*
X811022Y732910D01*
X773804Y729488D02*
X807600D01*
X768827Y734466D02*
X773804Y729488D01*
X760374Y734466D02*
X768827D01*
X756920Y731012D02*
X760374Y734466D01*
X952500Y715010D02*
X952500D01*
X864870Y802640D02*
X952500Y715010D01*
X824230Y802640D02*
X864870D01*
X814320Y792730D02*
X824230Y802640D01*
X716280Y728980D02*
X716582Y729282D01*
X773430Y742950D02*
X774320Y743840D01*
X773430Y738124D02*
Y742950D01*
Y738124D02*
X774700Y736854D01*
X756330Y739820D02*
X758320Y741810D01*
X752520Y739820D02*
X756330D01*
X751078Y738378D02*
X752520Y739820D01*
X751078Y726560D02*
Y738378D01*
X749314Y724796D02*
X751078Y726560D01*
X749314Y717536D02*
Y724796D01*
X661416Y482988D02*
X689610Y511182D01*
X661416Y257556D02*
Y482988D01*
X660400Y256540D02*
X661416Y257556D01*
X660400Y165100D02*
Y256540D01*
X657860Y162560D02*
X660400Y165100D01*
X838320Y771720D02*
X918800Y691240D01*
Y689020D02*
Y691240D01*
Y689020D02*
X919480Y688340D01*
X825500Y731520D02*
X830320Y736340D01*
X839470Y167640D02*
Y462871D01*
X838708Y463633D02*
X839470Y462871D01*
X750320Y788276D02*
X754216Y792172D01*
X768058Y794728D02*
X768350Y795020D01*
X577371Y815340D02*
X624198D01*
X530743Y768712D02*
X577371Y815340D01*
X515620Y215900D02*
X549910Y181610D01*
Y59690D02*
Y181610D01*
X672166Y517480D02*
X676230D01*
X654050Y499364D02*
X672166Y517480D01*
X676230D02*
X676910Y518160D01*
X694772Y510596D02*
Y513670D01*
X671068Y486893D02*
X694772Y510596D01*
X671068Y466571D02*
Y486893D01*
X694772Y513670D02*
X695452Y514350D01*
X692738Y500300D02*
X703580Y511143D01*
Y518160D01*
X671830Y447040D02*
Y465809D01*
X671068Y466571D02*
X671830Y465809D01*
X151130Y815340D02*
X267970D01*
X292851Y790459D01*
X654050Y452120D02*
Y499364D01*
X643890Y450850D02*
X652780D01*
X654050Y452120D01*
X682579Y477520D02*
X683354Y476745D01*
X676910Y477520D02*
X682579D01*
X729742Y518294D02*
Y549402D01*
X688193Y476745D02*
X729742Y518294D01*
X685774Y482587D02*
X707656Y504470D01*
X683354Y476745D02*
X688193D01*
X277237Y822960D02*
X278130Y822067D01*
Y820420D02*
Y822067D01*
X146050Y822960D02*
X277237D01*
X140970Y817880D02*
X146050Y822960D01*
X278130Y820420D02*
X304027Y794523D01*
X379976Y790459D02*
X386569Y797052D01*
X304027Y794523D02*
X378293D01*
X384886Y801116D01*
X292851Y790459D02*
X379976D01*
X88392Y849122D02*
X430265D01*
X44450Y805180D02*
X88392Y849122D01*
X44450Y711316D02*
Y805180D01*
X564388Y547236D02*
X564642Y547490D01*
X564388Y538600D02*
Y547236D01*
X564642Y547490D02*
Y562490D01*
X564388Y538600D02*
X564642Y538346D01*
Y475488D02*
Y538346D01*
X557664Y569468D02*
X564642Y562490D01*
X570230Y541020D02*
Y562649D01*
X537464Y600456D02*
X558258Y579662D01*
Y574621D02*
X570230Y562649D01*
X563455Y576724D02*
X565820Y574359D01*
X563400Y576724D02*
X563455D01*
X562322Y577802D02*
X563400Y576724D01*
X565820Y574359D02*
X566782D01*
X562322Y577802D02*
Y587028D01*
X558258Y574621D02*
Y579662D01*
X547116Y572985D02*
Y574333D01*
X543052Y570071D02*
Y572650D01*
X556380Y569468D02*
X557664D01*
X547116Y572985D02*
X554697Y565404D01*
X555980D02*
X560578Y560807D01*
X543052Y570071D02*
X554656Y558466D01*
X554697Y565404D02*
X555980D01*
X551180Y574668D02*
X556380Y569468D01*
X559188Y554736D02*
X560578Y556126D01*
Y560807D01*
X552704Y596646D02*
X562322Y587028D01*
X537464Y600456D02*
Y635856D01*
X510540Y662780D02*
X537464Y635856D01*
X510540Y662780D02*
Y704511D01*
X499203Y715848D02*
X510540Y704511D01*
X498923Y715848D02*
X499203D01*
X502285Y553085D02*
X502920Y552450D01*
X501650Y553720D02*
X502285Y553085D01*
X487680Y553720D02*
X501650D01*
X478413Y614680D02*
X478790D01*
X478413Y562987D02*
Y614680D01*
Y562987D02*
X487680Y553720D01*
X469900D02*
X483870Y539750D01*
X469900Y553720D02*
Y623570D01*
X483870Y538480D02*
Y539115D01*
Y539750D01*
X478790Y614680D02*
X487680Y623570D01*
X454021Y665491D02*
X511100Y608412D01*
X461010Y664249D02*
X515164Y610095D01*
X461010Y664249D02*
Y698500D01*
X515164Y606285D02*
Y610095D01*
X511100Y604602D02*
Y608412D01*
X454021Y665491D02*
Y706133D01*
X534028Y692150D02*
X542290D01*
X518668Y707510D02*
X534028Y692150D01*
X505994Y722919D02*
X518668Y710245D01*
X514604Y705827D02*
X552704Y667727D01*
Y596646D02*
Y667727D01*
X514604Y705827D02*
Y707238D01*
X518668Y707510D02*
Y710245D01*
X502458Y719384D02*
X514604Y707238D01*
X524510Y709930D02*
Y711475D01*
X509529Y726455D02*
X524510Y711475D01*
X469900Y623570D02*
X477520Y631190D01*
X515164Y606285D02*
X547116Y574333D01*
X511100Y604602D02*
X543052Y572650D01*
X414020Y622928D02*
Y629920D01*
X303530Y680720D02*
Y699770D01*
X321310Y734060D02*
X336550Y718820D01*
X321310Y734060D02*
Y748030D01*
X314652Y767080D02*
X317192Y769620D01*
X313690Y767080D02*
X314652D01*
X491490Y817317D02*
X496006Y812801D01*
X491490Y817317D02*
Y831850D01*
X491852Y807603D02*
X496006Y811757D01*
Y812801D01*
X518126Y755684D02*
X518501Y755310D01*
X506841Y757428D02*
X523671Y740597D01*
X504747Y779263D02*
X524875Y759134D01*
X492077Y779263D02*
X504747D01*
X489070Y775199D02*
X503063D01*
X518126Y755684D02*
Y760135D01*
X503063Y775199D02*
X518126Y760135D01*
X524875Y759134D02*
X541964D01*
X542290Y759460D01*
X497635Y749300D02*
X507898D01*
X520136Y737062D01*
X464373Y764540D02*
X489258D01*
X490528Y763270D01*
X491490D01*
X467273Y804067D02*
X492077Y779263D01*
X463737Y800531D02*
X489070Y775199D01*
X430360Y843280D02*
X445402Y828238D01*
X226060Y843280D02*
X430360D01*
X430265Y849122D02*
X449466Y829921D01*
X445402Y811796D02*
Y828238D01*
X563880Y474726D02*
X564642Y475488D01*
X563880Y469900D02*
Y474726D01*
X533400Y593797D02*
Y634173D01*
X482274Y685298D02*
X533400Y634173D01*
Y593797D02*
X551180Y576017D01*
X576580Y510540D02*
X579120Y508000D01*
X647661Y534670D02*
X647700D01*
X620991Y508000D02*
X647661Y534670D01*
X579120Y508000D02*
X620991D01*
X651684Y569041D02*
X652031Y569388D01*
X642754Y521462D02*
X653542Y532250D01*
X651684Y550993D02*
Y569041D01*
X640200Y521462D02*
X642754D01*
X653542Y532250D02*
Y549135D01*
X652031Y569388D02*
Y636137D01*
X651684Y550993D02*
X653542Y549135D01*
X612768Y494030D02*
X640200Y521462D01*
X652031Y636137D02*
X682167Y666273D01*
X610870Y622300D02*
X639118D01*
X659130Y626713D02*
X673259Y640842D01*
X659130Y621284D02*
Y626713D01*
X673259Y640842D02*
X687832D01*
X659130Y621284D02*
X659384Y621030D01*
X646189Y572700D02*
X647967Y574478D01*
Y637820D01*
X646189Y571808D02*
Y572700D01*
X641658Y619760D02*
X642125D01*
X682167Y666273D02*
Y683725D01*
X648309Y653249D02*
X651431Y650126D01*
X647231Y653249D02*
X648309D01*
X635000Y665480D02*
X647231Y653249D01*
X651431Y650126D02*
X652011D01*
X647967Y637820D02*
X660695Y650548D01*
Y675935D01*
X657873Y633717D02*
X657873D01*
X687324Y663168D01*
Y701615D01*
X666527Y550957D02*
X673755Y558185D01*
Y633075D01*
X693420Y646430D02*
Y671984D01*
X687832Y640842D02*
X693420Y646430D01*
X706120Y698500D02*
X706155Y698536D01*
X684904Y707457D02*
X733365D01*
X683567Y706120D02*
X684904Y707457D01*
X655320Y706120D02*
X683567D01*
X706120Y650240D02*
Y698500D01*
X694472Y687373D02*
Y698973D01*
X679999Y685893D02*
X682167Y683725D01*
X692464Y685366D02*
X694472Y687373D01*
X679999Y685893D02*
Y699514D01*
X692464Y672940D02*
Y685366D01*
X586740Y618864D02*
Y637540D01*
X593210Y612394D02*
X595836D01*
X599901Y608330D01*
X632460D01*
X586740Y618864D02*
X593210Y612394D01*
X542489Y561141D02*
X546440Y557189D01*
X542489Y561141D02*
Y561141D01*
X537890Y565740D02*
X542489Y561141D01*
X660695Y675935D02*
X664888Y680128D01*
Y686392D01*
X671689Y678039D02*
X672766D01*
X676033Y681305D01*
X676325D01*
X666750Y673100D02*
X671689Y678039D01*
X639118Y622300D02*
X641658Y619760D01*
X579120Y494030D02*
X612768D01*
X642620Y478790D02*
Y515620D01*
X707656Y504470D02*
X708940D01*
X725678Y521208D01*
Y613918D01*
X661112Y559364D02*
X664210Y562462D01*
Y593090D01*
X661112Y558735D02*
Y559364D01*
X662440Y550957D02*
X666527D01*
X661759Y550277D02*
X662440Y550957D01*
X844550Y590550D02*
Y662459D01*
X789298Y619760D02*
X810260D01*
X544830Y614680D02*
X545465Y615315D01*
X546100Y615950D01*
Y636270D01*
X847090Y664999D02*
Y713740D01*
X844550Y662459D02*
X847090Y664999D01*
X771386Y725666D02*
X773406Y723646D01*
X805018D01*
X551180Y574668D02*
Y576017D01*
X537210Y570230D02*
X537890Y569550D01*
Y565740D02*
Y569550D01*
X524510Y556260D02*
Y580390D01*
X544830Y535940D02*
X558800D01*
X524510Y556260D02*
X544830Y535940D01*
X666750Y659130D02*
Y673100D01*
X734060Y689610D02*
Y698500D01*
X715010Y690880D02*
X722630Y698500D01*
X758190Y708660D02*
X762226Y712696D01*
X764438D01*
X768955Y717213D01*
X765679Y728624D02*
X768637Y725666D01*
X771386D01*
X764770Y728624D02*
X765679D01*
X766318Y705130D02*
X776272Y715083D01*
X692464Y672940D02*
X693420Y671984D01*
X221049Y793488D02*
X228926Y785611D01*
X559188Y550298D02*
Y554736D01*
X558800Y549910D02*
X559188Y550298D01*
X482274Y685298D02*
Y712411D01*
X469259Y725426D02*
X482274Y712411D01*
X481450Y729742D02*
X493624D01*
X499914Y736033D01*
X476250Y728980D02*
X480688D01*
X481450Y729742D01*
X446059Y782854D02*
X464373Y764540D01*
X195580Y793557D02*
Y801563D01*
X203388Y809371D02*
X213172D01*
X195580Y801563D02*
X203388Y809371D01*
X221049Y793488D02*
Y801494D01*
X213172Y809371D02*
X221049Y801494D01*
X187772Y785749D02*
X195580Y793557D01*
X762000Y635642D02*
Y642620D01*
X731520Y605162D02*
X762000Y635642D01*
X731520Y580390D02*
Y605162D01*
X771561Y636941D02*
X771684D01*
X775200Y664574D02*
X776473Y663301D01*
X771684Y636941D02*
X776473Y641729D01*
Y663301D01*
X756920Y622300D02*
X771561Y636941D01*
X789432Y640842D02*
Y653932D01*
X780408Y628650D02*
X789298Y619760D01*
X772160Y628650D02*
X780408D01*
X789432Y653932D02*
X790194Y654694D01*
Y668490D01*
X772160Y687712D02*
X772922Y686950D01*
X772160Y687712D02*
Y697230D01*
X772922Y667900D02*
X775200Y665622D01*
X772922Y667900D02*
Y686950D01*
X766318Y685292D02*
X767080Y684530D01*
X766318Y685292D02*
Y705130D01*
X794512Y690332D02*
Y712470D01*
X723900Y679450D02*
X734060Y689610D01*
X466524Y725426D02*
X469259D01*
X460482Y719384D02*
X466524Y725426D01*
X460202Y719384D02*
X460482D01*
X454021Y706133D02*
X463737Y715848D01*
X845820Y556260D02*
X852170D01*
X872490Y535940D02*
X981710D01*
X852170Y556260D02*
X872490Y535940D01*
Y560070D02*
X891540Y541020D01*
X515722Y810260D02*
X543560D01*
X502458Y796996D02*
X515722Y810260D01*
X515173Y802640D02*
X527616D01*
X505994Y793460D02*
X515173Y802640D01*
X529294Y800088D02*
Y800961D01*
X527616Y802640D02*
X529294Y800961D01*
X532130Y796290D02*
Y797252D01*
X529294Y800088D02*
X532130Y797252D01*
X42418Y295402D02*
Y709284D01*
X499914Y736033D02*
X506743D01*
X485140Y739140D02*
X497274D01*
X495095Y746760D02*
X497635Y749300D01*
X498544Y740410D02*
X509717D01*
X512785Y729991D02*
X513065D01*
X483870Y746760D02*
X495095D01*
X506743Y736033D02*
X512785Y729991D01*
X497274Y739140D02*
X498544Y740410D01*
X509717D02*
X516600Y733526D01*
X928960Y680347D02*
X929640Y681028D01*
X919480Y674370D02*
X925457Y680347D01*
X928960D01*
X939800Y652152D02*
X1012190Y724542D01*
X928370Y554990D02*
Y656590D01*
X1003300Y731520D01*
X939800Y615950D02*
Y652152D01*
X914400Y642620D02*
X919480Y647700D01*
Y674370D01*
X914400Y638810D02*
Y642620D01*
X915162Y588177D02*
Y629786D01*
X907460Y637488D02*
Y640670D01*
X906780Y641350D02*
X907460Y640670D01*
Y637488D02*
X915162Y629786D01*
X913130Y586145D02*
X915162Y588177D01*
X913130Y552450D02*
Y586145D01*
Y497840D02*
X938530Y472440D01*
X966470D01*
X976630Y127000D02*
Y462280D01*
X966470Y472440D02*
X976630Y462280D01*
X897890Y48260D02*
X976630Y127000D01*
X561340Y48260D02*
X897890D01*
X549910Y59690D02*
X561340Y48260D01*
X518160Y12700D02*
X962660D01*
X486410Y44450D02*
X518160Y12700D01*
X541020Y35560D02*
X902970D01*
X989330Y121920D01*
X962660Y12700D02*
X1013460Y63500D01*
X398018Y291592D02*
X486410Y203200D01*
X319024Y295656D02*
X411734D01*
X519430Y57150D02*
Y187960D01*
X411734Y295656D02*
X519430Y187960D01*
X42418Y709284D02*
X44450Y711316D01*
X449466Y828945D02*
Y829921D01*
Y828945D02*
X470808Y807603D01*
X889000Y648970D02*
Y674370D01*
X854710Y708660D02*
X889000Y674370D01*
X863600Y619760D02*
X886460D01*
X852170Y631190D02*
X863600Y619760D01*
X807386Y664544D02*
Y677244D01*
Y664544D02*
X819150Y652780D01*
X787963Y670721D02*
Y675561D01*
X791972Y679570D02*
Y687792D01*
X794512Y690332D01*
X787963Y670721D02*
X790194Y668490D01*
X787963Y675561D02*
X791972Y679570D01*
X786011Y682109D02*
Y687578D01*
X793805Y673141D02*
X803910Y683246D01*
X786011Y687578D02*
X788670Y690237D01*
X786011Y682109D02*
X786130Y681990D01*
X803910Y683246D02*
Y698500D01*
X779264Y707636D02*
X782828Y711200D01*
X779264Y666258D02*
Y707636D01*
X781087Y653706D02*
Y664435D01*
X783590Y650240D02*
Y651202D01*
X781087Y653706D02*
X783590Y651202D01*
X779264Y666258D02*
X781087Y664435D01*
X775200Y664574D02*
Y665622D01*
X788670Y690237D02*
Y706120D01*
X845820Y521970D02*
X861060Y506730D01*
X845820Y521970D02*
Y527050D01*
X861060Y506730D02*
X958850D01*
X989330Y476250D01*
Y121920D02*
Y476250D01*
X519430Y57150D02*
X541020Y35560D01*
X486410Y44450D02*
Y203200D01*
X340360Y372110D02*
Y426720D01*
X407670Y494030D01*
X547370D01*
X440690Y640080D02*
X445770D01*
X458470Y627380D01*
X433070Y637540D02*
X443230Y627380D01*
X725170Y464820D02*
X777240Y516890D01*
X693420Y464820D02*
X725170D01*
X715010Y655320D02*
Y690880D01*
X397735Y809215D02*
X400050Y811530D01*
X414131D01*
X423483Y812477D02*
X424180Y811780D01*
X414131Y811530D02*
X415078Y812477D01*
X423483D01*
X424180Y811780D02*
X427880D01*
X231444Y757693D02*
X356373D01*
X221869Y767268D02*
X231444Y757693D01*
X873760Y635000D02*
X880110Y628650D01*
X862330Y635000D02*
X873760D01*
X996950Y513080D02*
X1013460Y496570D01*
Y63500D02*
Y496570D01*
X951230Y655320D02*
X998220D01*
X1003300Y650240D01*
X586740Y732790D02*
X601980Y717550D01*
X645160D01*
X889448Y786324D02*
X890410D01*
X893144Y783590D01*
X902021Y773751D02*
X932822Y742950D01*
X955040D01*
X893144Y783590D02*
X949960D01*
X974090Y759460D01*
Y749300D02*
Y759460D01*
X930402Y808990D02*
X949960Y789432D01*
X892810Y808990D02*
X930402D01*
X443740Y799316D02*
X453131Y789925D01*
X445402Y811796D02*
X460202Y796996D01*
X341630Y738948D02*
Y751840D01*
Y738948D02*
X342200Y738378D01*
X381000Y737870D02*
Y756920D01*
X368300Y769620D02*
X381000Y756920D01*
X441960Y806450D02*
X442640Y805770D01*
X444357D01*
X456666Y793460D01*
X277470Y680720D02*
X303530D01*
X93599Y753999D02*
X166878Y680720D01*
X258470D01*
X356373Y757693D02*
X368300Y769620D01*
X194691Y767268D02*
Y775274D01*
X106680Y772160D02*
X135382Y743458D01*
X168275Y774258D02*
X179766Y785749D01*
X221869Y767268D02*
Y775274D01*
X273232Y684958D02*
X277470Y680720D01*
X179766Y785749D02*
X187772D01*
X213172Y783971D02*
X221869Y775274D01*
X203388Y783971D02*
X213172D01*
X135382Y743458D02*
X170881D01*
X194691Y767268D01*
X208280Y772160D02*
X273232Y707208D01*
Y684958D02*
Y707208D01*
X194691Y775274D02*
X203388Y783971D01*
X132080Y770773D02*
Y772160D01*
Y770773D02*
X139700Y763153D01*
Y749300D02*
Y763153D01*
X159578Y774258D02*
X168275D01*
X157480Y772160D02*
X159578Y774258D01*
X317192Y769620D02*
X342900D01*
X388730Y806450D02*
X391495Y809215D01*
X368300Y806450D02*
X388730D01*
X391495Y809215D02*
X397735D01*
D15*
X110490Y245110D02*
X412750D01*
X46990Y308610D02*
X110490Y245110D01*
X412750D02*
X439202Y218658D01*
X438150Y80010D02*
X439202D01*
Y218658D01*
X397510Y39370D02*
X438150Y80010D01*
X137160Y828040D02*
X365760D01*
X106680Y797560D02*
X137160Y828040D01*
X368300Y806450D02*
Y825500D01*
X365760Y828040D02*
X368300Y825500D01*
X46990Y308610D02*
Y707390D01*
X257810Y136340D02*
Y157480D01*
X256540Y158750D02*
X257810Y157480D01*
X346710Y143255D02*
Y157987D01*
Y143255D02*
X349250Y140715D01*
Y136340D02*
Y140715D01*
X329235Y148030D02*
Y154380D01*
X327155Y156460D02*
X329235Y154380D01*
X323850Y156460D02*
X327155D01*
X329235Y148030D02*
X336550Y140715D01*
Y136340D02*
Y140715D01*
X232410Y43430D02*
Y82100D01*
X230890Y41910D02*
X232410Y43430D01*
X93599Y784479D02*
X106680Y797560D01*
X93599Y753999D02*
Y784479D01*
X46990Y707390D02*
X93599Y753999D01*
X344170Y39370D02*
X397510D01*
X336550Y46990D02*
X344170Y39370D01*
X336550Y46990D02*
Y82100D01*
X323850D02*
X336550D01*
X311150D02*
X323850D01*
X325338Y124480D02*
X341765D01*
X349250Y131965D01*
Y136340D01*
X323850Y125968D02*
Y136340D01*
Y125968D02*
X325338Y124480D01*
X311150Y136340D02*
X323850D01*
X270510D02*
X311150D01*
X246598Y124480D02*
X263025D01*
X270510Y131965D01*
Y136340D01*
X245110Y125968D02*
Y136340D01*
Y125968D02*
X246598Y124480D01*
X232410Y136340D02*
X245110D01*
X226060Y172970D02*
X229760D01*
X232410Y136340D02*
Y170320D01*
X229760Y172970D02*
X232410Y170320D01*
X214047Y82550D02*
X231960D01*
X210237Y78740D02*
X214047Y82550D01*
X209550Y78740D02*
X210237D01*
X231960Y82550D02*
X232410Y82100D01*
X245110D02*
X257810D01*
X232410D02*
X245110D01*
D16*
X212090Y41910D02*
D03*
X230890D02*
D03*
X322330Y680720D02*
D03*
X303530D02*
D03*
D17*
X346710Y176787D02*
D03*
Y157987D02*
D03*
X400050Y811530D02*
D03*
Y830330D02*
D03*
X424180Y811780D02*
D03*
Y830580D02*
D03*
X226060Y172970D02*
D03*
Y191770D02*
D03*
X256540Y158750D02*
D03*
Y177550D02*
D03*
X323850Y156460D02*
D03*
Y175260D02*
D03*
D18*
X686320Y755970D02*
D03*
X694320D02*
D03*
X702320D02*
D03*
X710320D02*
D03*
X718320D02*
D03*
X726320D02*
D03*
X734320D02*
D03*
X742320D02*
D03*
X750320D02*
D03*
X758320D02*
D03*
X766320D02*
D03*
X774320D02*
D03*
X782320D02*
D03*
X790320D02*
D03*
X798320D02*
D03*
X806320D02*
D03*
X814320D02*
D03*
X822320D02*
D03*
X830320D02*
D03*
X838320D02*
D03*
D19*
X686320Y775970D02*
D03*
X694320D02*
D03*
X702320D02*
D03*
X710320D02*
D03*
X718320D02*
D03*
X726320D02*
D03*
X734320D02*
D03*
X742320D02*
D03*
X750320D02*
D03*
X758320D02*
D03*
X766320D02*
D03*
X774320D02*
D03*
X782320D02*
D03*
X790320D02*
D03*
X798320D02*
D03*
X806320D02*
D03*
X814320D02*
D03*
X822320D02*
D03*
X830320D02*
D03*
X838320D02*
D03*
D20*
X491852Y807603D02*
D03*
X495387Y804067D02*
D03*
X498923Y800531D02*
D03*
X502458Y796996D02*
D03*
X505994Y793460D02*
D03*
X509529Y789925D02*
D03*
X513065Y786389D02*
D03*
X516600Y782854D02*
D03*
X520136Y779318D02*
D03*
X523671Y775783D02*
D03*
X527207Y772247D02*
D03*
X530743Y768712D02*
D03*
X470808Y708777D02*
D03*
X467273Y712313D02*
D03*
X463737Y715848D02*
D03*
X460202Y719384D02*
D03*
X456666Y722919D02*
D03*
X453131Y726455D02*
D03*
X449595Y729991D02*
D03*
X446059Y733526D02*
D03*
X442524Y737062D02*
D03*
X438988Y740597D02*
D03*
X435453Y744133D02*
D03*
X431917Y747668D02*
D03*
D21*
X530743D02*
D03*
X527207Y744133D02*
D03*
X523671Y740597D02*
D03*
X520136Y737062D02*
D03*
X516600Y733526D02*
D03*
X513065Y729991D02*
D03*
X509529Y726455D02*
D03*
X505994Y722919D02*
D03*
X502458Y719384D02*
D03*
X498923Y715848D02*
D03*
X495387Y712313D02*
D03*
X491852Y708777D02*
D03*
X431917Y768712D02*
D03*
X435453Y772247D02*
D03*
X438988Y775783D02*
D03*
X442524Y779318D02*
D03*
X446059Y782854D02*
D03*
X449595Y786389D02*
D03*
X453131Y789925D02*
D03*
X456666Y793460D02*
D03*
X460202Y796996D02*
D03*
X463737Y800531D02*
D03*
X467273Y804067D02*
D03*
X470808Y807603D02*
D03*
D22*
X92160Y176760D02*
D03*
X92160Y46760D02*
D03*
X152160Y46760D02*
D03*
Y176760D02*
D03*
D23*
X251460Y109220D02*
D03*
X330200D02*
D03*
D24*
X232410Y136340D02*
D03*
X245110D02*
D03*
X257810D02*
D03*
X270510D02*
D03*
Y82100D02*
D03*
X257810D02*
D03*
X245110D02*
D03*
X232410D02*
D03*
X311150Y136340D02*
D03*
X323850D02*
D03*
X336550D02*
D03*
X349250D02*
D03*
Y82100D02*
D03*
X336550D02*
D03*
X323850D02*
D03*
X311150D02*
D03*
D25*
X258470Y680720D02*
D03*
X277470D02*
D03*
D43*
X233680Y797560D02*
D03*
Y772160D02*
D03*
X208280Y797560D02*
D03*
Y772160D02*
D03*
X182880Y797560D02*
D03*
Y772160D02*
D03*
X157480Y797560D02*
D03*
X157480Y772160D02*
D03*
X132080Y797560D02*
D03*
X132080Y772160D02*
D03*
X106680Y797560D02*
D03*
Y772160D02*
D03*
X81280Y797560D02*
D03*
Y772160D02*
D03*
D44*
X664820Y835220D02*
D03*
X859820D02*
D03*
D45*
X655320Y765220D02*
D03*
X869320D02*
D03*
D46*
X342900Y806450D02*
D03*
Y769620D02*
D03*
D47*
X368300Y806450D02*
D03*
Y769620D02*
D03*
D48*
X586740Y391160D02*
D03*
Y340360D02*
D03*
X535940D02*
D03*
Y391160D02*
D03*
X561340Y365760D02*
D03*
X864870Y193040D02*
D03*
Y142240D02*
D03*
X814070D02*
D03*
Y193040D02*
D03*
X839470Y167640D02*
D03*
X683260Y187960D02*
D03*
Y137160D02*
D03*
X632460D02*
D03*
Y187960D02*
D03*
X657860Y162560D02*
D03*
X365760Y397510D02*
D03*
Y346710D02*
D03*
X314960D02*
D03*
Y397510D02*
D03*
X340360Y372110D02*
D03*
X956310Y387350D02*
D03*
Y336550D02*
D03*
X905510D02*
D03*
Y387350D02*
D03*
X930910Y361950D02*
D03*
X361950Y594360D02*
D03*
Y543560D02*
D03*
X311150D02*
D03*
Y594360D02*
D03*
X336550Y568960D02*
D03*
X770255Y387350D02*
D03*
Y336550D02*
D03*
X719455D02*
D03*
Y387350D02*
D03*
X744855Y361950D02*
D03*
D49*
X92160Y111760D02*
D03*
D50*
X137160D02*
D03*
D51*
Y325120D02*
D03*
X450850Y591820D02*
D03*
X443230Y601980D02*
D03*
X385425Y722015D02*
D03*
X367979Y698821D02*
D03*
X412317Y790777D02*
D03*
X422015Y803350D02*
D03*
X683260Y623570D02*
D03*
X516890Y506730D02*
D03*
X496570Y508000D02*
D03*
X554990Y518160D02*
D03*
X302260Y812800D02*
D03*
X298450Y835660D02*
D03*
X377190D02*
D03*
X430530Y212090D02*
D03*
X604841Y634679D02*
D03*
X595630Y643890D02*
D03*
X168910Y541020D02*
D03*
X171450Y618490D02*
D03*
X494030Y568960D02*
D03*
X736600Y541020D02*
D03*
X679450Y551180D02*
D03*
X812800Y579120D02*
D03*
X796290D02*
D03*
X781050D02*
D03*
X754192Y648893D02*
D03*
X749808Y685800D02*
D03*
X715010Y626110D02*
D03*
X753110Y641350D02*
D03*
X596900Y759460D02*
D03*
X570230Y731520D02*
D03*
Y683260D02*
D03*
X737870Y527050D02*
D03*
X749300Y568960D02*
D03*
X751840Y537210D02*
D03*
X622300Y520700D02*
D03*
X603250Y576580D02*
D03*
X623570Y553720D02*
D03*
X607060D02*
D03*
X946105Y459350D02*
D03*
X847090Y466090D02*
D03*
X886460Y468630D02*
D03*
X889000Y572770D02*
D03*
X770631Y644149D02*
D03*
X500380Y55880D02*
D03*
X1026160Y769620D02*
D03*
X953770Y811530D02*
D03*
X925830Y815340D02*
D03*
X781050Y828040D02*
D03*
X741680Y825500D02*
D03*
X528893Y837573D02*
D03*
X676910Y518160D02*
D03*
X692738Y500300D02*
D03*
X695452Y514350D02*
D03*
X671830Y447040D02*
D03*
X151130Y815340D02*
D03*
X643890Y450850D02*
D03*
X685774Y482587D02*
D03*
X140970Y817880D02*
D03*
X570230Y541020D02*
D03*
X566782Y574359D02*
D03*
X502285Y553085D02*
D03*
X487680Y623570D02*
D03*
X505258Y605932D02*
D03*
X542290Y692150D02*
D03*
X524510Y709930D02*
D03*
X483870Y539115D02*
D03*
X477520Y631190D02*
D03*
X500395Y637555D02*
D03*
X414020Y629920D02*
D03*
X336550Y718820D02*
D03*
X321310Y748030D02*
D03*
X313690Y767080D02*
D03*
X491490Y831850D02*
D03*
X518501Y755310D02*
D03*
X491490Y763270D02*
D03*
X576580Y510540D02*
D03*
X518160Y523240D02*
D03*
X647700Y534670D02*
D03*
X610870Y622300D02*
D03*
X646189Y571808D02*
D03*
X642125Y619760D02*
D03*
X652011Y650126D02*
D03*
X657873Y633717D02*
D03*
X673755Y633075D02*
D03*
X659384Y621030D02*
D03*
X706155Y698536D02*
D03*
X687324Y701615D02*
D03*
X679999Y699514D02*
D03*
X694472Y698973D02*
D03*
X716280Y728980D02*
D03*
X628650Y645160D02*
D03*
X595630Y618236D02*
D03*
X593417Y606552D02*
D03*
X546440Y557189D02*
D03*
X676325Y681305D02*
D03*
X664888Y686392D02*
D03*
X756920Y731012D02*
D03*
X745236Y728980D02*
D03*
X749314Y717536D02*
D03*
X642620Y515620D02*
D03*
Y478790D02*
D03*
X676910Y477520D02*
D03*
X699770Y480060D02*
D03*
X844550Y590550D02*
D03*
X810260Y619760D02*
D03*
X664210Y593090D02*
D03*
X545465Y615315D02*
D03*
X847090Y713740D02*
D03*
X805180Y735330D02*
D03*
X805018Y723646D02*
D03*
X791972Y741482D02*
D03*
X537210Y570230D02*
D03*
X666750Y659130D02*
D03*
X734060Y698500D02*
D03*
X722630D02*
D03*
X758190Y708660D02*
D03*
X768955Y717213D02*
D03*
X764770Y728624D02*
D03*
X776272Y715083D02*
D03*
X774700Y736854D02*
D03*
X780288Y742035D02*
D03*
X766438Y741052D02*
D03*
X546100Y636270D02*
D03*
X703580Y518160D02*
D03*
X661759Y550277D02*
D03*
X661112Y558735D02*
D03*
X657526Y565458D02*
D03*
X706120Y650240D02*
D03*
X732790Y736600D02*
D03*
X406400Y767080D02*
D03*
X389890Y777240D02*
D03*
X558800Y549910D02*
D03*
X554656Y558466D02*
D03*
X461010Y698500D02*
D03*
X731520Y580390D02*
D03*
X762000Y642620D02*
D03*
X778040Y635035D02*
D03*
X769593Y662932D02*
D03*
X789432Y640842D02*
D03*
X772160Y628650D02*
D03*
X767080Y684530D02*
D03*
X794512Y712470D02*
D03*
X683260Y608330D02*
D03*
X784860Y524510D02*
D03*
X563880Y469900D02*
D03*
X845820Y556260D02*
D03*
X543560Y810260D02*
D03*
X755650Y586740D02*
D03*
X706120Y472440D02*
D03*
X692150Y438150D02*
D03*
X485140Y739140D02*
D03*
X483870Y746760D02*
D03*
X695960Y523240D02*
D03*
X929640Y681028D02*
D03*
X914400Y638810D02*
D03*
X906780Y641350D02*
D03*
X913130Y552450D02*
D03*
X939800Y615950D02*
D03*
X913130Y497840D02*
D03*
X515620Y215900D02*
D03*
X895350Y662940D02*
D03*
X889000Y648970D02*
D03*
X854710Y708660D02*
D03*
X886460Y619760D02*
D03*
X852170Y631190D02*
D03*
X819150Y652780D02*
D03*
X807386Y677244D02*
D03*
X793805Y673141D02*
D03*
X786130Y681990D02*
D03*
X772160Y697230D02*
D03*
X788670Y706120D02*
D03*
X782828Y711200D02*
D03*
X845820Y527050D02*
D03*
X458470Y601980D02*
D03*
X440690Y640080D02*
D03*
X532130Y796290D02*
D03*
X433070Y637540D02*
D03*
X693420Y464820D02*
D03*
X777240Y516890D02*
D03*
X756920Y622300D02*
D03*
X783590Y650240D02*
D03*
X709930Y718820D02*
D03*
X715010Y655320D02*
D03*
X607030Y524540D02*
D03*
X632460Y608330D02*
D03*
X586740Y637540D02*
D03*
X608330Y662940D02*
D03*
X524510Y580390D02*
D03*
X558800Y535940D02*
D03*
X825500Y731520D02*
D03*
X773430Y609600D02*
D03*
X880110Y628650D02*
D03*
X862330Y635000D02*
D03*
X826770Y668020D02*
D03*
X872490Y560070D02*
D03*
X861060Y608330D02*
D03*
X873760Y521970D02*
D03*
X962660Y524510D02*
D03*
X996950Y513080D02*
D03*
X928370Y554990D02*
D03*
X949960Y607060D02*
D03*
X1003300Y650240D02*
D03*
X951230Y655320D02*
D03*
X547370Y494030D02*
D03*
X579120D02*
D03*
X655320Y706120D02*
D03*
X635000Y665480D02*
D03*
X702320Y728990D02*
D03*
X568960Y607060D02*
D03*
X803910Y698500D02*
D03*
X645160Y717550D02*
D03*
X586740Y732790D02*
D03*
X542290Y759460D02*
D03*
X693420Y735330D02*
D03*
X919480Y688340D02*
D03*
X840740Y793750D02*
D03*
X604520Y614680D02*
D03*
X629920Y812800D02*
D03*
X804418Y791464D02*
D03*
X808990Y797560D02*
D03*
X822960Y791210D02*
D03*
X791210Y798830D02*
D03*
X902021Y773751D02*
D03*
X952500Y715010D02*
D03*
X889448Y786324D02*
D03*
X688340Y805180D02*
D03*
X742950Y788670D02*
D03*
X735330Y800100D02*
D03*
X955040Y742950D02*
D03*
X783590Y793750D02*
D03*
X760730Y797560D02*
D03*
X754216Y792172D02*
D03*
X775970Y788670D02*
D03*
X974090Y749300D02*
D03*
X949960Y789432D02*
D03*
X768350Y795020D02*
D03*
X718820Y792480D02*
D03*
X892810Y808990D02*
D03*
X718820Y810260D02*
D03*
X226060Y843280D02*
D03*
X342200Y738378D02*
D03*
X341630Y751840D02*
D03*
X381000Y737870D02*
D03*
X476250Y728980D02*
D03*
X441960Y806450D02*
D03*
X139700Y749300D02*
D03*
X209550Y78740D02*
D03*
M02*
