G04*
G04 #@! TF.GenerationSoftware,Altium Limited,Altium Designer,23.1.1 (15)*
G04*
G04 Layer_Color=8421504*
%FSLAX44Y44*%
%MOMM*%
G71*
G04*
G04 #@! TF.SameCoordinates,43C99A1D-4787-4DCC-862B-E30C170DDE45*
G04*
G04*
G04 #@! TF.FilePolarity,Positive*
G04*
G01*
G75*
%ADD16R,0.6700X1.4100*%
%ADD17R,1.4100X0.6700*%
%ADD18R,0.5000X1.6500*%
%ADD19R,0.5000X1.3500*%
G04:AMPARAMS|DCode=20|XSize=1.475mm|YSize=0.3mm|CornerRadius=0mm|HoleSize=0mm|Usage=FLASHONLY|Rotation=45.000|XOffset=0mm|YOffset=0mm|HoleType=Round|Shape=Rectangle|*
%AMROTATEDRECTD20*
4,1,4,-0.4154,-0.6276,-0.6276,-0.4154,0.4154,0.6276,0.6276,0.4154,-0.4154,-0.6276,0.0*
%
%ADD20ROTATEDRECTD20*%

G04:AMPARAMS|DCode=21|XSize=1.475mm|YSize=0.3mm|CornerRadius=0mm|HoleSize=0mm|Usage=FLASHONLY|Rotation=315.000|XOffset=0mm|YOffset=0mm|HoleType=Round|Shape=Rectangle|*
%AMROTATEDRECTD21*
4,1,4,-0.6276,0.4154,-0.4154,0.6276,0.6276,-0.4154,0.4154,-0.6276,-0.6276,0.4154,0.0*
%
%ADD21ROTATEDRECTD21*%

%ADD22R,2.5000X4.0000*%
%ADD23R,2.2900X2.2900*%
%ADD24R,0.6500X1.5250*%
%ADD25R,1.0000X1.4500*%
D16*
X212090Y41910D02*
D03*
X230890D02*
D03*
X322330Y680720D02*
D03*
X303530D02*
D03*
D17*
X346710Y176787D02*
D03*
Y157987D02*
D03*
X400050Y811530D02*
D03*
Y830330D02*
D03*
X424180Y811780D02*
D03*
Y830580D02*
D03*
X226060Y172970D02*
D03*
Y191770D02*
D03*
X256540Y158750D02*
D03*
Y177550D02*
D03*
X323850Y156460D02*
D03*
Y175260D02*
D03*
D18*
X686320Y755970D02*
D03*
X694320D02*
D03*
X702320D02*
D03*
X710320D02*
D03*
X718320D02*
D03*
X726320D02*
D03*
X734320D02*
D03*
X742320D02*
D03*
X750320D02*
D03*
X758320D02*
D03*
X766320D02*
D03*
X774320D02*
D03*
X782320D02*
D03*
X790320D02*
D03*
X798320D02*
D03*
X806320D02*
D03*
X814320D02*
D03*
X822320D02*
D03*
X830320D02*
D03*
X838320D02*
D03*
D19*
X686320Y775970D02*
D03*
X694320D02*
D03*
X702320D02*
D03*
X710320D02*
D03*
X718320D02*
D03*
X726320D02*
D03*
X734320D02*
D03*
X742320D02*
D03*
X750320D02*
D03*
X758320D02*
D03*
X766320D02*
D03*
X774320D02*
D03*
X782320D02*
D03*
X790320D02*
D03*
X798320D02*
D03*
X806320D02*
D03*
X814320D02*
D03*
X822320D02*
D03*
X830320D02*
D03*
X838320D02*
D03*
D20*
X491852Y807603D02*
D03*
X495387Y804067D02*
D03*
X498923Y800531D02*
D03*
X502458Y796996D02*
D03*
X505994Y793460D02*
D03*
X509529Y789925D02*
D03*
X513065Y786389D02*
D03*
X516600Y782854D02*
D03*
X520136Y779318D02*
D03*
X523671Y775783D02*
D03*
X527207Y772247D02*
D03*
X530743Y768712D02*
D03*
X470808Y708777D02*
D03*
X467273Y712313D02*
D03*
X463737Y715848D02*
D03*
X460202Y719384D02*
D03*
X456666Y722919D02*
D03*
X453131Y726455D02*
D03*
X449595Y729991D02*
D03*
X446059Y733526D02*
D03*
X442524Y737062D02*
D03*
X438988Y740597D02*
D03*
X435453Y744133D02*
D03*
X431917Y747668D02*
D03*
D21*
X530743D02*
D03*
X527207Y744133D02*
D03*
X523671Y740597D02*
D03*
X520136Y737062D02*
D03*
X516600Y733526D02*
D03*
X513065Y729991D02*
D03*
X509529Y726455D02*
D03*
X505994Y722919D02*
D03*
X502458Y719384D02*
D03*
X498923Y715848D02*
D03*
X495387Y712313D02*
D03*
X491852Y708777D02*
D03*
X431917Y768712D02*
D03*
X435453Y772247D02*
D03*
X438988Y775783D02*
D03*
X442524Y779318D02*
D03*
X446059Y782854D02*
D03*
X449595Y786389D02*
D03*
X453131Y789925D02*
D03*
X456666Y793460D02*
D03*
X460202Y796996D02*
D03*
X463737Y800531D02*
D03*
X467273Y804067D02*
D03*
X470808Y807603D02*
D03*
D22*
X92160Y176760D02*
D03*
X92160Y46760D02*
D03*
X152160Y46760D02*
D03*
Y176760D02*
D03*
D23*
X251460Y109220D02*
D03*
X330200D02*
D03*
D24*
X232410Y136340D02*
D03*
X245110D02*
D03*
X257810D02*
D03*
X270510D02*
D03*
Y82100D02*
D03*
X257810D02*
D03*
X245110D02*
D03*
X232410D02*
D03*
X311150Y136340D02*
D03*
X323850D02*
D03*
X336550D02*
D03*
X349250D02*
D03*
Y82100D02*
D03*
X336550D02*
D03*
X323850D02*
D03*
X311150D02*
D03*
D25*
X258470Y680720D02*
D03*
X277470D02*
D03*
M02*
