G04*
G04 #@! TF.GenerationSoftware,Altium Limited,Altium Designer,23.1.1 (15)*
G04*
G04 Layer_Color=65535*
%FSLAX44Y44*%
%MOMM*%
G71*
G04*
G04 #@! TF.SameCoordinates,43C99A1D-4787-4DCC-862B-E30C170DDE45*
G04*
G04*
G04 #@! TF.FilePolarity,Positive*
G04*
G01*
G75*
%ADD10C,0.2000*%
%ADD11C,0.2500*%
%ADD12C,0.1000*%
%ADD13C,0.1270*%
%ADD14C,0.1524*%
%ADD15C,0.2540*%
D10*
X839320Y785970D02*
G03*
X839320Y785970I-1000J0D01*
G01*
X221490Y36560D02*
Y47260D01*
X341360Y167388D02*
X352060D01*
X394700Y820930D02*
X405400D01*
X436782Y758190D02*
X481330Y802738D01*
X436782Y758190D02*
X481330Y713642D01*
X525878Y758190D01*
X481330Y802738D02*
X525878Y758190D01*
X418830Y821180D02*
X429530D01*
X327700Y793250D02*
X368300D01*
X327700D02*
Y819650D01*
X383500D01*
Y806450D02*
Y819650D01*
X327700Y756420D02*
X368300D01*
X327700Y782820D02*
X327700Y756420D01*
X327700Y782820D02*
X383500Y782820D01*
Y769620D02*
Y782820D01*
X42160Y156760D02*
X71960D01*
X42160Y66760D02*
X42160Y156760D01*
X42160Y66760D02*
X71960Y66760D01*
X111690Y156760D02*
X131560Y156760D01*
X111690Y66760D02*
X131560Y66760D01*
X171290Y156760D02*
X191160D01*
Y66760D02*
Y156760D01*
X171290Y66760D02*
X191160D01*
X225660Y74470D02*
Y89720D01*
X220710Y182370D02*
X231410D01*
X251190Y168150D02*
X261890D01*
X304400Y74470D02*
Y89720D01*
X318500Y165860D02*
X329200D01*
X312930Y675370D02*
Y686070D01*
X267970Y675470D02*
Y685970D01*
D11*
X473918Y816349D02*
G03*
X473918Y816349I-1250J0D01*
G01*
D12*
X92160Y201760D02*
G03*
X92160Y202760I0J500D01*
G01*
D02*
G03*
X92160Y201760I0J-500D01*
G01*
X546340Y400760D02*
X576340D01*
X596340Y350760D02*
Y380760D01*
X546340Y330760D02*
X576340D01*
X526340Y350760D02*
Y380760D01*
X824470Y202640D02*
X854470D01*
X874470Y152640D02*
Y182640D01*
X824470Y132640D02*
X854470D01*
X804470Y152640D02*
Y182640D01*
X642860Y197560D02*
X672860D01*
X692860Y147560D02*
Y177560D01*
X642860Y127560D02*
X672860D01*
X622860Y147560D02*
Y177560D01*
X325360Y407110D02*
X355360D01*
X375360Y357110D02*
Y387110D01*
X325360Y337110D02*
X355360D01*
X305360Y357110D02*
Y387110D01*
X915910Y396950D02*
X945910D01*
X965910Y346950D02*
Y376950D01*
X915910Y326950D02*
X945910D01*
X895910Y346950D02*
Y376950D01*
X321550Y603960D02*
X351550D01*
X371550Y553960D02*
Y583960D01*
X321550Y533960D02*
X351550D01*
X301550Y553960D02*
Y583960D01*
X729855Y396950D02*
X759855D01*
X779855Y346950D02*
Y376950D01*
X729855Y326950D02*
X759855D01*
X709855Y346950D02*
Y376950D01*
D13*
X842320Y758470D02*
X849320D01*
X675320D02*
X682320D01*
X639320Y738470D02*
X659320D01*
X675320Y758470D01*
X849320D02*
X865320Y738470D01*
X885320D01*
X639320Y858970D02*
X639320Y738470D01*
X639320Y858970D02*
X885320D01*
X885320Y738470D02*
X885320Y858970D01*
D14*
X29210Y739140D02*
Y830580D01*
X285750D01*
Y739140D02*
Y830580D01*
X29210Y739140D02*
X285750Y739140D01*
D15*
X337823Y746758D02*
X332745D01*
X335284D01*
Y734062D01*
X332745Y731523D01*
X330206D01*
X327667Y734062D01*
X342902Y744218D02*
X345441Y746758D01*
X350519D01*
X353058Y744218D01*
Y741679D01*
X350519Y739140D01*
X347980D01*
X350519D01*
X353058Y736601D01*
Y734062D01*
X350519Y731523D01*
X345441D01*
X342902Y734062D01*
X365754Y731523D02*
Y746758D01*
X358137Y739140D01*
X368293D01*
X340363Y847087D02*
X335285D01*
X337824D01*
Y834392D01*
X335285Y831852D01*
X332746D01*
X330207Y834392D01*
X345442Y844548D02*
X347981Y847087D01*
X353059D01*
X355598Y844548D01*
Y842009D01*
X353059Y839470D01*
X350520D01*
X353059D01*
X355598Y836931D01*
Y834392D01*
X353059Y831852D01*
X347981D01*
X345442Y834392D01*
X360677Y844548D02*
X363216Y847087D01*
X368294D01*
X370833Y844548D01*
Y842009D01*
X368294Y839470D01*
X365755D01*
X368294D01*
X370833Y836931D01*
Y834392D01*
X368294Y831852D01*
X363216D01*
X360677Y834392D01*
X253238Y698500D02*
Y713735D01*
X260856D01*
X263395Y711196D01*
Y706117D01*
X260856Y703578D01*
X253238D01*
X258316D02*
X263395Y698500D01*
X268473D02*
X273551D01*
X271012D01*
Y713735D01*
X268473Y711196D01*
X39875Y855467D02*
X34796D01*
X37336D01*
Y842771D01*
X34796Y840232D01*
X32257D01*
X29718Y842771D01*
X44953Y855467D02*
X55110D01*
X50031D01*
Y840232D01*
X60188D02*
Y850389D01*
X65266Y855467D01*
X70345Y850389D01*
Y840232D01*
Y847850D01*
X60188D01*
X85580Y852928D02*
X83041Y855467D01*
X77962D01*
X75423Y852928D01*
Y842771D01*
X77962Y840232D01*
X83041D01*
X85580Y842771D01*
Y847850D01*
X80502D01*
X90658Y840232D02*
X95737D01*
X93197D01*
Y855467D01*
X90658Y852928D01*
X699516Y435351D02*
Y420116D01*
X707133D01*
X709673Y422655D01*
Y432812D01*
X707133Y435351D01*
X699516D01*
X724908Y420116D02*
X714751D01*
X724908Y430273D01*
Y432812D01*
X722369Y435351D01*
X717290D01*
X714751Y432812D01*
X729986Y417577D02*
X740143D01*
X752839Y435351D02*
X747760D01*
X745221Y432812D01*
Y422655D01*
X747760Y420116D01*
X752839D01*
X755378Y422655D01*
Y432812D01*
X752839Y435351D01*
X760456D02*
Y422655D01*
X762996Y420116D01*
X768074D01*
X770613Y422655D01*
Y435351D01*
X775691D02*
X785848D01*
X780770D01*
Y420116D01*
X895601Y432812D02*
X893062Y435351D01*
X887983D01*
X885444Y432812D01*
Y430273D01*
X887983Y427733D01*
X893062D01*
X895601Y425194D01*
Y422655D01*
X893062Y420116D01*
X887983D01*
X885444Y422655D01*
X900679Y417577D02*
X910836D01*
X923532Y435351D02*
X918453D01*
X915914Y432812D01*
Y422655D01*
X918453Y420116D01*
X923532D01*
X926071Y422655D01*
Y432812D01*
X923532Y435351D01*
X931149D02*
Y422655D01*
X933688Y420116D01*
X938767D01*
X941306Y422655D01*
Y435351D01*
X946384D02*
X956541D01*
X951463D01*
Y420116D01*
X291084Y642361D02*
Y627126D01*
X298701D01*
X301241Y629665D01*
Y639822D01*
X298701Y642361D01*
X291084D01*
X306319Y627126D02*
X311397D01*
X308858D01*
Y642361D01*
X306319Y639822D01*
X319015Y624587D02*
X329172D01*
X341868Y642361D02*
X336789D01*
X334250Y639822D01*
Y629665D01*
X336789Y627126D01*
X341868D01*
X344407Y629665D01*
Y639822D01*
X341868Y642361D01*
X349485D02*
Y629665D01*
X352024Y627126D01*
X357103D01*
X359642Y629665D01*
Y642361D01*
X364720D02*
X374877D01*
X369799D01*
Y627126D01*
X53845Y226055D02*
X48766D01*
X51305D01*
Y213359D01*
X48766Y210820D01*
X46227D01*
X43688Y213359D01*
X69080Y226055D02*
X58923D01*
Y218438D01*
X64001Y220977D01*
X66541D01*
X69080Y218438D01*
Y213359D01*
X66541Y210820D01*
X61462D01*
X58923Y213359D01*
X612394Y233421D02*
X622551D01*
X617472D01*
Y218186D01*
X637786Y230882D02*
X635247Y233421D01*
X630168D01*
X627629Y230882D01*
Y220725D01*
X630168Y218186D01*
X635247D01*
X637786Y220725D01*
Y225804D01*
X632707D01*
X642864Y218186D02*
X647943D01*
X645403D01*
Y233421D01*
X642864Y230882D01*
X294894Y442971D02*
X305051D01*
X299972D01*
Y427736D01*
X320286Y440432D02*
X317747Y442971D01*
X312668D01*
X310129Y440432D01*
Y430275D01*
X312668Y427736D01*
X317747D01*
X320286Y430275D01*
Y435354D01*
X315207D01*
X335521Y427736D02*
X325364D01*
X335521Y437893D01*
Y440432D01*
X332982Y442971D01*
X327903D01*
X325364Y440432D01*
X526031Y436622D02*
X523492Y439161D01*
X518413D01*
X515874Y436622D01*
Y434083D01*
X518413Y431544D01*
X523492D01*
X526031Y429004D01*
Y426465D01*
X523492Y423926D01*
X518413D01*
X515874Y426465D01*
X538727Y439161D02*
X533648D01*
X531109Y436622D01*
Y426465D01*
X533648Y423926D01*
X538727D01*
X541266Y426465D01*
Y436622D01*
X538727Y439161D01*
X546344D02*
Y423926D01*
X556501D01*
X561579Y421387D02*
X571736D01*
X586971Y436622D02*
X584432Y439161D01*
X579353D01*
X576814Y436622D01*
Y426465D01*
X579353Y423926D01*
X584432D01*
X586971Y426465D01*
Y431544D01*
X581893D01*
X794004Y238501D02*
Y223266D01*
X801621D01*
X804161Y225805D01*
Y228344D01*
X801621Y230884D01*
X794004D01*
X801621D01*
X804161Y233423D01*
Y235962D01*
X801621Y238501D01*
X794004D01*
X819396Y235962D02*
X816857Y238501D01*
X811778D01*
X809239Y235962D01*
Y225805D01*
X811778Y223266D01*
X816857D01*
X819396Y225805D01*
Y230884D01*
X814317D01*
X904251Y850898D02*
Y835663D01*
Y843280D01*
X914407D01*
Y850898D01*
Y835663D01*
X929642Y848358D02*
X927103Y850898D01*
X922025D01*
X919486Y848358D01*
Y845819D01*
X922025Y843280D01*
X927103D01*
X929642Y840741D01*
Y838202D01*
X927103Y835663D01*
X922025D01*
X919486Y838202D01*
X944878Y850898D02*
X934721D01*
Y835663D01*
X944878D01*
X934721Y843280D02*
X939799D01*
X960113Y848358D02*
X957573Y850898D01*
X952495D01*
X949956Y848358D01*
Y838202D01*
X952495Y835663D01*
X957573D01*
X960113Y838202D01*
X965191Y835663D02*
X970269D01*
X967730D01*
Y850898D01*
X965191Y848358D01*
X311909Y709164D02*
X309370Y711703D01*
X304291D01*
X301752Y709164D01*
Y699007D01*
X304291Y696468D01*
X309370D01*
X311909Y699007D01*
X316987Y709164D02*
X319526Y711703D01*
X324605D01*
X327144Y709164D01*
Y706625D01*
X324605Y704085D01*
X327144Y701546D01*
Y699007D01*
X324605Y696468D01*
X319526D01*
X316987Y699007D01*
Y701546D01*
X319526Y704085D01*
X316987Y706625D01*
Y709164D01*
X319526Y704085D02*
X324605D01*
X482601Y850898D02*
X480062Y853438D01*
X474983D01*
X472444Y850898D01*
Y840742D01*
X474983Y838203D01*
X480062D01*
X482601Y840742D01*
X487679Y853438D02*
X497836D01*
Y850898D01*
X487679Y840742D01*
Y838203D01*
X402591Y852168D02*
X400052Y854707D01*
X394973D01*
X392434Y852168D01*
Y842012D01*
X394973Y839473D01*
X400052D01*
X402591Y842012D01*
X417826Y854707D02*
X412747Y852168D01*
X407669Y847090D01*
Y842012D01*
X410208Y839473D01*
X415287D01*
X417826Y842012D01*
Y844551D01*
X415287Y847090D01*
X407669D01*
X364491Y198119D02*
X356873D01*
X354334Y195580D01*
Y190502D01*
X356873Y187962D01*
X364491D01*
X379726Y203197D02*
X369569D01*
Y195580D01*
X374647Y198119D01*
X377187D01*
X379726Y195580D01*
Y190502D01*
X377187Y187962D01*
X372108D01*
X369569Y190502D01*
X328419Y197355D02*
X320801D01*
X318262Y194816D01*
Y189737D01*
X320801Y187198D01*
X328419D01*
X341115D02*
Y202433D01*
X333497Y194816D01*
X343654D01*
X261109Y199641D02*
X253491D01*
X250952Y197101D01*
Y192023D01*
X253491Y189484D01*
X261109D01*
X266187Y202180D02*
X268726Y204719D01*
X273805D01*
X276344Y202180D01*
Y199641D01*
X273805Y197101D01*
X271265D01*
X273805D01*
X276344Y194562D01*
Y192023D01*
X273805Y189484D01*
X268726D01*
X266187Y192023D01*
X266701Y54609D02*
X259083D01*
X256544Y52070D01*
Y46992D01*
X259083Y44453D01*
X266701D01*
X281936D02*
X271779D01*
X281936Y54609D01*
Y57148D01*
X279397Y59688D01*
X274318D01*
X271779Y57148D01*
X230629Y213865D02*
X223011D01*
X220472Y211325D01*
Y206247D01*
X223011Y203708D01*
X230629D01*
X235707D02*
X240785D01*
X238246D01*
Y218943D01*
X235707Y216404D01*
X438153Y839467D02*
Y824232D01*
X445771D01*
X448310Y826772D01*
Y829311D01*
X445771Y831850D01*
X438153D01*
X445771D01*
X448310Y834389D01*
Y836928D01*
X445771Y839467D01*
X438153D01*
X453388Y824232D02*
X458467D01*
X455928D01*
Y839467D01*
X453388Y836928D01*
X295907Y127254D02*
X285750D01*
X295907Y137411D01*
Y139950D01*
X293368Y142489D01*
X288289D01*
X285750Y139950D01*
X211836Y127254D02*
X216914D01*
X214375D01*
Y142489D01*
X211836Y139950D01*
M02*
