G04*
G04 #@! TF.GenerationSoftware,Altium Limited,Altium Designer,23.1.1 (15)*
G04*
G04 Layer_Color=16711935*
%FSLAX44Y44*%
%MOMM*%
G71*
G04*
G04 #@! TF.SameCoordinates,60A71E54-626A-4CE2-9AF2-43E53A1097E0*
G04*
G04*
G04 #@! TF.FilePolarity,Positive*
G04*
G01*
G75*
%ADD13C,0.2540*%
%ADD15C,0.1270*%
%ADD50C,0.5080*%
%ADD76C,0.0254*%
D13*
X1151656Y1249464D02*
Y1243362D01*
X1148604D01*
X1147587Y1244379D01*
Y1246413D01*
X1148604Y1247430D01*
X1151656D01*
X1141485Y1244379D02*
X1142502Y1243362D01*
X1144536D01*
X1145553Y1244379D01*
Y1248447D01*
X1144536Y1249464D01*
X1142502D01*
X1141485Y1248447D01*
X1139451Y1243362D02*
Y1249464D01*
X1136400D01*
X1135382Y1248447D01*
Y1247430D01*
X1136400Y1246413D01*
X1139451D01*
X1136400D01*
X1135382Y1245396D01*
Y1244379D01*
X1136400Y1243362D01*
X1139451D01*
X1123178D02*
X1127246D01*
Y1249464D01*
X1123178D01*
X1127246Y1246413D02*
X1125212D01*
X1121143Y1243362D02*
Y1249464D01*
X1118092D01*
X1117075Y1248447D01*
Y1244379D01*
X1118092Y1243362D01*
X1121143D01*
X1110973Y1244379D02*
X1111990Y1243362D01*
X1114024D01*
X1115041Y1244379D01*
Y1248447D01*
X1114024Y1249464D01*
X1111990D01*
X1110973Y1248447D01*
Y1246413D01*
X1113007D01*
X1104870Y1243362D02*
X1108939D01*
Y1249464D01*
X1104870D01*
X1108939Y1246413D02*
X1106905D01*
D15*
X1030130Y1131340D02*
X1046130Y1151340D01*
X1220130D01*
X1236130Y1131340D01*
X1010130Y1131340D02*
X1030130D01*
X1236430Y1131340D02*
X1256130Y1131340D01*
X1010130Y1251840D02*
X1010130Y1131340D01*
X1010130Y1251840D02*
X1256130Y1251840D01*
Y1131340D02*
Y1251840D01*
D50*
X558800Y1210310D02*
G03*
X558800Y1210310I-3810J0D01*
G01*
D76*
X351790Y1242060D02*
X605790D01*
X351790Y1153160D02*
Y1242060D01*
Y1153160D02*
X605790D01*
Y1242060D01*
M02*
