M48
;Layer_Color=9474304
;FILE_FORMAT=4:4
METRIC,TZ
;TYPE=PLATED
T1F00S00C0.3302
T2F00S00C0.8100
T3F00S00C1.1938
T4F00S00C1.6000
T5F00S00C3.4290
%
T01
X1903730Y27940
X1764030Y25400
X1604010Y48260
X1329690Y35560
X556260Y53340
Y93980
X516890Y62230
X495300Y73660
X518160Y27940
X459740Y38100
X391160Y22860
X391160Y54610
X332740Y22860
X283210
X201930Y48260
X176530Y46990
X152400Y48260
X129540Y46990
X102870
X242570Y147320
Y173990
X267970Y248920
X256540Y361950
X246380Y355600
X208974Y364069
X173990Y349250
X135890Y350520
X163830Y302260
X104140Y303530
X270510Y427990
X311150Y448310
X379730Y323850
X378460Y251460
Y196850
X369570Y186690
X323850Y161290
Y137160
X445770Y111760
X458470
X499110Y146050
X486410Y187960
Y201930
X466090
Y187960
X535940Y200660
X567690Y198120
X556260Y129540
X521970Y271780
X646430Y261620
X633730Y359410
X623570Y350520
X595630Y363220
X633730Y443230
X680720Y447040
X740410Y472440
X822960Y444500
X821690Y377190
X777367Y391160
Y356870
X764540Y293370
X742950Y254000
X730250Y233680
X783590Y232410
X805180Y209550
X825500Y241300
X980440Y245110
X1073150
X1051560Y332740
X1013480Y361970
X1005840Y355600
X974090Y361950
X904240Y347980
X1029970Y401320
X1028700Y440690
X1051560Y459740
X684530Y260350
X1131570Y234950
X1123950Y201930
X1193800Y214630
X1214120Y240030
X1226820Y247650
X1229360Y285750
X1214120Y283210
X1159510Y266700
X1162050Y312420
X1106170Y332740
X1150620Y383540
X1195070Y414020
X1151890Y488950
X1273810Y354330
X1244600Y325120
X1266190Y228600
X1290320
X1322070Y162560
X1330960Y377190
X1355090Y372110
X1370330Y377190
X1402080Y327660
X1457960Y328930
X1409700Y468630
X1386840Y452120
X1489710Y462280
X1487170Y400050
X1497330Y279400
X1482090Y256540
X1567180Y255270
Y265430
X1565910Y276860
X1584960Y293370
X1595120Y259080
X1568320Y231270
X1527810Y299720
X1675130Y368300
X1700530
Y351790
X1732280Y323850
X1783080Y325120
X1824990Y300990
X1804670Y279400
X1758950Y252730
X1869440Y304800
X1832610Y373380
X1816100Y452120
X1755140Y462280
X1712976Y446591
X1712154Y481656
X1907540Y248920
X1870710Y560070
X1873250Y789940
X1818640Y758190
X1833880Y857250
X1780540Y876300
X1701800Y872490
X1742440Y808990
X1724660Y787400
X1699260Y709930
X1684020
X1666240Y713740
X1727200Y668020
X1765300Y666750
X1833880Y627380
X1780540Y544830
X1557020Y660400
X1487170Y703580
X1489710Y770890
X1507490Y814070
X1524000Y830580
X1537970Y849630
X1511173Y856059
X1449070Y868680
X1367790Y869950
X1370330Y814070
X1410970Y801370
X1399540Y782320
X1376680Y704850
X1356360Y703580
X1342390Y708660
X1327150Y608330
X1370330Y609600
X1226820Y608330
X1150620Y676910
X1098550Y669290
X1087120Y532130
X1096010Y866140
X1176020Y869950
Y859790
X1189990Y875030
X1183640Y882650
Y890270
X1148080Y897890
X1247140Y872490
X1299210
X1324610Y901700
X1212850Y833120
X1238250Y791210
X1445260Y535940
X1069340Y669290
X1014730Y693420
X998220Y685800
X975360Y701860
X949960Y647700
X887730Y651510
X878840Y788670
X826770Y820420
X748030
X783717Y859790
X783590Y875030
X796290Y871220
X788670Y889000
X803910Y894080
X914400Y887730
X1026160Y889000
X1021910Y778480
X1057910Y795020
X745490Y709930
X721360Y665480
X739140Y546100
X704850Y529590
X701040Y876300
X675640Y798830
X651325Y774515
X637540Y708660
X624840Y699770
X595630Y708660
X541020Y689610
X505460Y615950
X469900Y605790
X604520Y607060
X659130Y660400
X586740Y871220
X469900Y772160
X290830Y789940
X325120Y857330
X351790Y664210
X287020
X344170Y530860
X214630Y605790
X236220Y679450
X254247Y689857
X203385Y701225
X151130Y680720
X91440Y603250
X87630Y876300
X26670Y873760
X220980Y880110
X266700Y755650
X148590Y974090
X166370Y1014730
X213360Y1052830
X114300
X110490Y1174750
X198120Y1221740
X257810Y1176020
X309880Y1219200
X298450Y1052830
X417830Y1099820
X487680
Y1090930
X506730Y1055370
X600710Y1071880
X603250Y1085850
X638810Y1052830
X678180Y911860
X556260Y939800
X530860Y920750
X501650Y941070
X445895Y914276
X515620Y1169670
X539750Y1160780
X508000Y1229360
X511810Y1235710
X477520
X482600Y1226820
X594360Y1234313
X674370Y1244600
X695960Y1219200
X724775Y1181884
X720797Y1175385
X722630Y1132840
X715010Y1136650
X705793Y1127433
X698500Y1132840
X692150Y1139190
X694690Y1106170
X707390Y1115060
X708535Y1095286
X735638Y1097588
X744220Y1090354
X739267Y1079500
X756387Y1078121
X770890Y1087748
X787400Y1090930
X796290Y1083310
X794748Y1067140
X762000Y1059180
X762837Y1102165
X754380Y1101090
X748030Y1103630
X740410Y1109980
X749300Y1151890
X814082Y1109992
X825500Y1120140
X849630Y1062990
X836930Y1022350
X808990Y1038860
X883920Y1036320
X906890Y1036430
X909320Y1047750
X913130Y1069340
X911860Y1082040
X949960Y1068070
X943610Y1046480
X966470Y1022350
X984250Y1023493
X1008380Y1038860
Y1046480
X1013460Y1061720
X1007110Y1090930
X996950
X984250
X998855Y1118235
X998220Y1169670
X1002030Y1189990
X1041400Y1168400
X1043940Y1136650
X1057790Y1134230
X1065530
Y1116330
X1056640
X1061720Y1101090
X1045210Y1076960
X1052830Y1068070
X1069340Y1061720
Y1043940
X1042670Y1018540
X1009650Y1007110
Y986790
X1014730Y918210
X1069340Y913257
X941070Y946150
X951230Y957580
X930086Y959296
X922020Y951230
X935990Y984250
X893318Y1021842
X832812Y942032
X843280Y928497
X852170Y908050
X831850Y906780
X810260Y909320
X797560Y902970
X753110Y904240
X762000Y913130
X784860Y935990
Y980440
X820420Y953770
X680720Y1064260
X692150Y1078230
X915969Y1228441
X960120Y1224280
X1059180Y1216660
X1074420Y1202690
X1088390
X1094740Y1216660
X1113790Y1219200
X1112892Y1230630
X1144270Y1239139
X1138600Y1211453
X1136650Y1181100
X1145540
X1153160Y1179830
X1169670Y1181100
X1177290
X1185790Y1182553
X1197737Y1185037
X1201246Y1178997
X1217930Y1178560
X1217046Y1164855
X1201420Y1134230
X1193800
X1185616
X1177290
X1169670
X1162050Y1134110
X1153233Y1133895
X1145540Y1134230
X1137753Y1134258
X1129326Y1132840
X1121789Y1133961
X1114173Y1133729
X1106555Y1133896
X1089790Y1134240
X1082040Y1134230
X1088390Y1179830
X1096010Y1181100
X1104900
X1112993Y1182556
X1120414Y1180826
X1127760Y1182850
X1123696Y1094225
X1145032Y1075569
X1143889Y1057910
X1154303Y1062990
X1139190Y1045210
X1146790Y1024346
X1157547Y1018591
X1152846Y1006098
X1141995Y998728
X1142619Y991174
X1141730Y981710
Y969010
X1130300Y960120
X1137920Y933450
X1150620
X1155700Y902970
X1164590Y904240
X1172210
X1187450Y934720
X1188016Y961898
X1198880Y961390
X1225550
Y981710
X1220597Y1005840
X1231011
X1247140Y1026160
X1240790Y1050290
X1248432Y1066842
X1242060Y1082040
Y1107440
X1200150Y1085850
X1206500Y1066800
X1185672Y1073150
X1191260Y1038860
X1192530Y1022350
X1167753Y991873
X1164590Y981710
Y967740
X1172415Y961898
X1105575Y1004570
Y1012190
X1112520Y1037590
X1100641Y1043491
X1108710Y1062990
X1103630Y1069340
X1084580Y1029970
X1280160Y1024890
X1309370Y1019810
X1313180Y1005840
X1324610Y981757
X1350010Y982980
X1374140Y990600
X1385570Y991870
X1381760Y1007110
Y1047750
X1338580Y1043940
X1332798Y1076392
X1351280Y1083310
X1352550Y1069340
X1300480Y1073150
X1301750Y1087120
X1290320Y1064260
X1291590Y1177290
X1264920Y1176020
X1334770Y1145540
X1372870Y1154430
X1394460Y1153160
X1405890Y1134110
X1399540Y1090930
X1405890Y1075690
X1441069Y1076830
X1438910Y1065530
X1459230Y1071880
X1456690Y1094740
X1445260Y1026416
X1372870Y937260
X1365250Y925830
X1339850Y919480
X1352550Y946150
X1257300Y920750
X1473013Y1169841
X1457960Y1242187
X1473200Y1222629
X1493520Y1230630
X1520190Y1215390
X1529080Y1136650
X1541780Y1090930
X1544193Y1078103
X1543050Y1065530
X1517650Y1057910
X1511173Y1052830
X1513840Y1076960
X1489329Y1102360
X1478915Y1092200
X1478280Y1017270
X1492250Y1018540
X1532890Y1016000
X1527937Y963930
X1515110Y969010
X1573530Y1094740
X1605280Y1096010
X1677670Y1087120
X1746250Y1093470
X1788160Y1112520
X1797070Y1120213
X1818513Y1113790
X1824990Y1101090
X1844040Y1089660
X1869440Y1010920
X1766570Y1018540
X1755140Y1220470
X1644650
T02
X1035630Y1228090
X1230630
T03
X402590Y1184910
X427990
X453390
X478790
X504190
X529590
X554990
Y1210310
X529590
X504190
X478790
X453390
X427990
X402590
T04
X1499870Y73600
X1550670
X1525270Y99000
X1318260Y73600
X1267460
X1292860Y99000
X1122680
X1097280Y73600
X1148080
X919480
X868680
X894080Y99000
X703580Y73600
X678180Y99000
X652780Y73600
X179324Y373200
X153924Y398600
X128524Y424000
Y373200
X179324Y424000
X302260Y420370
X353060
Y369570
X302260
X327660Y394970
X515620Y374470
X566420
Y425270
X515620
X541020Y399870
X669290Y375920
Y426720
X652780Y124400
X703580
X868680
X919480
X940054Y374470
X914654Y399870
X889254Y425270
Y374470
X940054Y425270
X1049274
Y374470
X1074674Y399870
X720090Y375920
Y426720
X694690Y401320
X1100074Y425270
Y374470
X1243330Y378460
X1268730Y403860
X1243330Y429260
X1294130
Y378460
X1407160Y377190
X1457960
Y427990
X1407160
X1432560Y402590
X1318260Y124400
X1267460
X1148080
X1097280
X1499870
X1550670
X1586484Y375740
X1637284
Y426540
X1586484
X1611884Y401140
X1750060Y377190
X1800860
Y427990
X1750060
X1775460Y402590
X1849120Y438150
Y488950
X1899920
Y438150
X1874520Y463550
X1973580Y438150
X2024380
Y488950
X1973580
X1998980Y463550
Y695960
X1973580Y721360
Y670560
X2024380
Y721360
X1899920
X1874520Y695960
X1899920Y670560
X1901190Y901700
X1973580
X2024380
X1850390
X1849120Y721360
Y670560
X1787144Y706120
X1761744Y731520
X1736344Y706120
Y756920
X1787144
X1637284
X1611884Y731520
X1637284Y706120
X1586484
Y756920
X1459484
X1434084Y731520
X1408684Y756920
Y706120
X1459484
X1298194
X1272794Y731520
X1247394Y756920
Y706120
X1298194Y756920
X1103630
X1078230Y731520
X1103630Y706120
X1052830
Y756920
X940054
X914654Y731520
X889254Y756920
Y706120
X940054
X721360
Y756920
X695960Y731520
X670560Y706120
Y756920
X562610Y759460
Y708660
X511810
Y759460
X537210Y734060
X344170Y756920
X318770Y731520
X293370Y756920
Y706120
X344170
X173990
X148590Y731520
X123190Y756920
Y706120
X173990Y756920
X1850390Y952500
X1855470Y1123950
Y1174750
X1906270
Y1123950
X1880870Y1149350
X1973580Y1123950
X2024380
Y1174750
X1973580
X1998980Y1149350
X2024380Y952500
X1973580
X1998980Y927100
X1875790
X1901190Y952500
T05
X2034540Y26670
X29210Y30480
X38100Y1216660
X2040890
M30
