G04*
G04 #@! TF.GenerationSoftware,Altium Limited,Altium Designer,23.1.1 (15)*
G04*
G04 Layer_Physical_Order=4*
G04 Layer_Color=128*
%FSLAX44Y44*%
%MOMM*%
G71*
G04*
G04 #@! TF.SameCoordinates,60A71E54-626A-4CE2-9AF2-43E53A1097E0*
G04*
G04*
G04 #@! TF.FilePolarity,Negative*
G04*
G01*
G75*
%ADD61C,1.0160*%
%ADD62C,2.2096*%
%ADD65C,1.8034*%
%ADD67C,1.4196*%
%ADD68C,2.0096*%
%ADD69C,2.3096*%
%ADD70C,2.4096*%
%ADD71C,4.0386*%
G04:AMPARAMS|DCode=72|XSize=1.8542mm|YSize=1.8542mm|CornerRadius=0mm|HoleSize=0mm|Usage=FLASHONLY|Rotation=0.000|XOffset=0mm|YOffset=0mm|HoleType=Round|Shape=Relief|Width=0.254mm|Gap=0.254mm|Entries=4|*
%AMTHD72*
7,0,0,1.8542,1.3462,0.2540,45*
%
%ADD72THD72*%
%ADD73C,0.9398*%
D61*
X0Y0D02*
Y1254760D01*
X2065020D01*
Y0D02*
Y1254760D01*
X0Y0D02*
X2065020D01*
D62*
X1078230Y731520D02*
D03*
X1052830Y756920D02*
D03*
Y706120D02*
D03*
X1103630D02*
D03*
Y756920D02*
D03*
X721360D02*
D03*
Y706120D02*
D03*
X670560D02*
D03*
Y756920D02*
D03*
X695960Y731520D02*
D03*
X1906270Y1174750D02*
D03*
Y1123950D02*
D03*
X1855470D02*
D03*
Y1174750D02*
D03*
X1880870Y1149350D02*
D03*
X914654Y399870D02*
D03*
X889254Y425270D02*
D03*
Y374470D02*
D03*
X940054D02*
D03*
Y425270D02*
D03*
X1637284Y426540D02*
D03*
Y375740D02*
D03*
X1586484D02*
D03*
Y426540D02*
D03*
X1611884Y401140D02*
D03*
Y731520D02*
D03*
X1637284Y706120D02*
D03*
Y756920D02*
D03*
X1586484D02*
D03*
Y706120D02*
D03*
X1761744Y731520D02*
D03*
X1736344Y706120D02*
D03*
X1787144D02*
D03*
Y756920D02*
D03*
X1736344D02*
D03*
X1122680Y99000D02*
D03*
X1097280Y124400D02*
D03*
Y73600D02*
D03*
X1148080D02*
D03*
Y124400D02*
D03*
X919480D02*
D03*
Y73600D02*
D03*
X868680D02*
D03*
Y124400D02*
D03*
X894080Y99000D02*
D03*
X678180D02*
D03*
X652780Y124400D02*
D03*
Y73600D02*
D03*
X703580D02*
D03*
Y124400D02*
D03*
X1550670D02*
D03*
Y73600D02*
D03*
X1499870D02*
D03*
Y124400D02*
D03*
X1525270Y99000D02*
D03*
X1100074Y425270D02*
D03*
Y374470D02*
D03*
X1049274D02*
D03*
Y425270D02*
D03*
X1074674Y399870D02*
D03*
X1457960Y427990D02*
D03*
Y377190D02*
D03*
X1407160D02*
D03*
Y427990D02*
D03*
X1432560Y402590D02*
D03*
X1318260Y124400D02*
D03*
Y73600D02*
D03*
X1267460D02*
D03*
Y124400D02*
D03*
X1292860Y99000D02*
D03*
X2024380Y952500D02*
D03*
Y901700D02*
D03*
X1973580D02*
D03*
Y952500D02*
D03*
X1998980Y927100D02*
D03*
X2024380Y488950D02*
D03*
Y438150D02*
D03*
X1973580D02*
D03*
Y488950D02*
D03*
X1998980Y463550D02*
D03*
X353060Y420370D02*
D03*
Y369570D02*
D03*
X302260D02*
D03*
Y420370D02*
D03*
X327660Y394970D02*
D03*
X1434084Y731520D02*
D03*
X1408684Y756920D02*
D03*
Y706120D02*
D03*
X1459484D02*
D03*
Y756920D02*
D03*
X1272794Y731520D02*
D03*
X1247394Y756920D02*
D03*
Y706120D02*
D03*
X1298194D02*
D03*
Y756920D02*
D03*
X562610Y759460D02*
D03*
Y708660D02*
D03*
X511810D02*
D03*
Y759460D02*
D03*
X537210Y734060D02*
D03*
X914654Y731520D02*
D03*
X889254Y756920D02*
D03*
Y706120D02*
D03*
X940054D02*
D03*
Y756920D02*
D03*
X2024380Y1174750D02*
D03*
Y1123950D02*
D03*
X1973580D02*
D03*
Y1174750D02*
D03*
X1998980Y1149350D02*
D03*
X1899920Y488950D02*
D03*
Y438150D02*
D03*
X1849120D02*
D03*
Y488950D02*
D03*
X1874520Y463550D02*
D03*
X1998980Y695960D02*
D03*
X1973580Y721360D02*
D03*
Y670560D02*
D03*
X2024380D02*
D03*
Y721360D02*
D03*
X1874520Y695960D02*
D03*
X1849120Y721360D02*
D03*
Y670560D02*
D03*
X1899920D02*
D03*
Y721360D02*
D03*
X1875790Y927100D02*
D03*
X1850390Y952500D02*
D03*
Y901700D02*
D03*
X1901190D02*
D03*
Y952500D02*
D03*
X148590Y731520D02*
D03*
X123190Y756920D02*
D03*
Y706120D02*
D03*
X173990D02*
D03*
Y756920D02*
D03*
X318770Y731520D02*
D03*
X293370Y756920D02*
D03*
Y706120D02*
D03*
X344170D02*
D03*
Y756920D02*
D03*
X566420Y425270D02*
D03*
Y374470D02*
D03*
X515620D02*
D03*
Y425270D02*
D03*
X541020Y399870D02*
D03*
X720090Y426720D02*
D03*
Y375920D02*
D03*
X669290D02*
D03*
Y426720D02*
D03*
X694690Y401320D02*
D03*
X1800860Y427990D02*
D03*
Y377190D02*
D03*
X1750060D02*
D03*
Y427990D02*
D03*
X1775460Y402590D02*
D03*
X153924Y398600D02*
D03*
X128524Y424000D02*
D03*
Y373200D02*
D03*
X179324D02*
D03*
Y424000D02*
D03*
X1268730Y403860D02*
D03*
X1243330Y429260D02*
D03*
Y378460D02*
D03*
X1294130D02*
D03*
Y429260D02*
D03*
D65*
X554990Y1210310D02*
D03*
Y1184910D02*
D03*
X529590Y1210310D02*
D03*
Y1184910D02*
D03*
X504190Y1210310D02*
D03*
Y1184910D02*
D03*
X478790Y1210310D02*
D03*
Y1184910D02*
D03*
X453390Y1210310D02*
D03*
Y1184910D02*
D03*
X427990Y1210310D02*
D03*
Y1184910D02*
D03*
X402590Y1210310D02*
D03*
Y1184910D02*
D03*
D67*
X1035630Y1228090D02*
D03*
X1230630D02*
D03*
D68*
X1026130Y1158090D02*
D03*
X1240130Y1158090D02*
D03*
D69*
X113750Y143510D02*
D03*
D70*
X158750D02*
D03*
D71*
X2034540Y26670D02*
D03*
X29210Y30480D02*
D03*
X2040890Y1216660D02*
D03*
X38100D02*
D03*
D72*
X290830Y789940D02*
D03*
X675640Y798830D02*
D03*
X311150Y448310D02*
D03*
X680720Y447040D02*
D03*
X595630Y363220D02*
D03*
Y708660D02*
D03*
X974090Y361950D02*
D03*
X1051560Y459740D02*
D03*
X975360Y701860D02*
D03*
X1675130Y368300D02*
D03*
X1755140Y462280D02*
D03*
X1409700Y468630D02*
D03*
X1330960Y377190D02*
D03*
X1342390Y708660D02*
D03*
X1410970Y801370D02*
D03*
X486410Y187960D02*
D03*
X466090D02*
D03*
Y201930D02*
D03*
X486410D02*
D03*
X1833880Y857250D02*
D03*
Y627380D02*
D03*
X1832610Y373380D02*
D03*
X1844040Y1089660D02*
D03*
X1666240Y713740D02*
D03*
X208974Y364069D02*
D03*
X203385Y701225D02*
D03*
X1057910Y795020D02*
D03*
X1742440Y808990D02*
D03*
D73*
X678180Y911860D02*
D03*
X1026160Y889000D02*
D03*
X914400Y887730D02*
D03*
X1073150Y245110D02*
D03*
X980440D02*
D03*
X684530Y260350D02*
D03*
X646430Y261620D02*
D03*
X1816100Y452120D02*
D03*
X1818640Y758190D02*
D03*
X1487170Y703580D02*
D03*
X1489710Y770890D02*
D03*
X1487170Y400050D02*
D03*
X1489710Y462280D02*
D03*
X1150620Y383540D02*
D03*
X1151890Y488950D02*
D03*
X745490Y709930D02*
D03*
X740410Y472440D02*
D03*
X739140Y546100D02*
D03*
X1029970Y401320D02*
D03*
X1195070Y414020D02*
D03*
X821690Y377190D02*
D03*
X822960Y444500D02*
D03*
X783717Y859790D02*
D03*
X777367Y356870D02*
D03*
Y391160D02*
D03*
X87630Y876300D02*
D03*
X26670Y873760D02*
D03*
X826770Y820420D02*
D03*
X748030D02*
D03*
X469900Y772160D02*
D03*
X505460Y615950D02*
D03*
X1226820Y608330D02*
D03*
X1150620Y676910D02*
D03*
X878840Y788670D02*
D03*
X1238250Y791210D02*
D03*
X1370330Y814070D02*
D03*
X949960Y647700D02*
D03*
X887730Y651510D02*
D03*
X220980Y880110D02*
D03*
X586740Y871220D02*
D03*
X541020Y689610D02*
D03*
X151130Y680720D02*
D03*
X287020Y664210D02*
D03*
X351790D02*
D03*
X659130Y660400D02*
D03*
X721360Y665480D02*
D03*
X173990Y349250D02*
D03*
X135890Y350520D02*
D03*
X904240Y347980D02*
D03*
X1051560Y332740D02*
D03*
X1106170D02*
D03*
X1273810Y354330D02*
D03*
X1244600Y325120D02*
D03*
X1402080Y327660D02*
D03*
X1457960Y328930D02*
D03*
X1765300Y666750D02*
D03*
X1189990Y875030D02*
D03*
X1543050Y1065530D02*
D03*
X1513840Y1076960D02*
D03*
X1438910Y1065530D02*
D03*
X1405890Y1075690D02*
D03*
X1212850Y833120D02*
D03*
X1365250Y925830D02*
D03*
X1804670Y279400D02*
D03*
X1824990Y300990D02*
D03*
X1164590Y904240D02*
D03*
X1155700Y902970D02*
D03*
X753110Y904240D02*
D03*
X825500Y241300D02*
D03*
X796290Y871220D02*
D03*
X805180Y209550D02*
D03*
X783590Y232410D02*
D03*
X742950Y254000D02*
D03*
X730250Y233680D02*
D03*
X843280Y928497D02*
D03*
X1137920Y933450D02*
D03*
X1131570Y234950D02*
D03*
X1214120Y240030D02*
D03*
X1226820Y247650D02*
D03*
X1229360Y285750D02*
D03*
X1183640Y890270D02*
D03*
Y882650D02*
D03*
X1176020Y869950D02*
D03*
X1172210Y904240D02*
D03*
X1214120Y283210D02*
D03*
X1176020Y859790D02*
D03*
X1324610Y901700D02*
D03*
X1339850Y919480D02*
D03*
X1374140Y990600D02*
D03*
X1405890Y1134110D02*
D03*
X1394460Y1153160D02*
D03*
X1159510Y266700D02*
D03*
X1162050Y312420D02*
D03*
X1148080Y897890D02*
D03*
X1187450Y934720D02*
D03*
X1198880Y961390D02*
D03*
X1200150Y1085850D02*
D03*
X1482090Y256540D02*
D03*
X1567180Y265430D02*
D03*
Y255270D02*
D03*
X1568320Y231270D02*
D03*
X1595120Y259080D02*
D03*
X1527810Y299720D02*
D03*
X1565910Y276860D02*
D03*
X1584960Y293370D02*
D03*
X1515110Y969010D02*
D03*
X1517650Y1057910D02*
D03*
X1473200Y1222629D02*
D03*
X1372870Y937260D02*
D03*
X1257300Y920750D02*
D03*
X1818513Y1113790D02*
D03*
X1497330Y279400D02*
D03*
X1758950Y252730D02*
D03*
X1193800Y214630D02*
D03*
X521970Y271780D02*
D03*
X1123950Y201930D02*
D03*
X506730Y1055370D02*
D03*
X638810Y1052830D02*
D03*
X680720Y1064260D02*
D03*
X803910Y894080D02*
D03*
X788670Y889000D02*
D03*
X1142619Y991174D02*
D03*
X1152846Y1006098D02*
D03*
X1141995Y998728D02*
D03*
X1069340Y913257D02*
D03*
X1014730Y918210D02*
D03*
X797560Y902970D02*
D03*
X810260Y909320D02*
D03*
X831850Y906780D02*
D03*
X852170Y908050D02*
D03*
X1150620Y933450D02*
D03*
X1141730Y981710D02*
D03*
X1130300Y960120D02*
D03*
X1141730Y969010D02*
D03*
X1172415Y961898D02*
D03*
X764540Y293370D02*
D03*
X762000Y913130D02*
D03*
X784860Y935990D02*
D03*
Y980440D02*
D03*
X832812Y942032D02*
D03*
X820420Y953770D02*
D03*
X783590Y875030D02*
D03*
X883920Y1036320D02*
D03*
X913130Y1069340D02*
D03*
X325120Y857330D02*
D03*
X701040Y876300D02*
D03*
X236220Y679450D02*
D03*
X254247Y689857D02*
D03*
X266700Y755650D02*
D03*
X148590Y974090D02*
D03*
X166370Y1014730D02*
D03*
X501650Y941070D02*
D03*
X556260Y939800D02*
D03*
X445895Y914276D02*
D03*
X530860Y920750D02*
D03*
X1225550Y961390D02*
D03*
Y981710D02*
D03*
X256540Y361950D02*
D03*
X246380Y355600D02*
D03*
X1385570Y991870D02*
D03*
X633730Y359410D02*
D03*
X623570Y350520D02*
D03*
X808990Y1038860D02*
D03*
X624840Y699770D02*
D03*
X637540Y708660D02*
D03*
X1021910Y778480D02*
D03*
X998220Y685800D02*
D03*
X1014730Y693420D02*
D03*
X1087120Y532130D02*
D03*
X1005840Y355600D02*
D03*
X1013480Y361970D02*
D03*
X1350010Y982980D02*
D03*
X1352550Y946150D02*
D03*
X1355090Y372110D02*
D03*
X1370330Y377190D02*
D03*
X1700530Y351790D02*
D03*
Y368300D02*
D03*
X1712976Y446591D02*
D03*
X1511173Y856059D02*
D03*
Y1052830D02*
D03*
X1386840Y452120D02*
D03*
X1492250Y1018540D02*
D03*
X1527937Y963930D02*
D03*
X1532890Y1016000D02*
D03*
X1507490Y814070D02*
D03*
X1573530Y1094740D02*
D03*
X1605280Y1096010D02*
D03*
X1524000Y830580D02*
D03*
X1537970Y849630D02*
D03*
X1478280Y1017270D02*
D03*
X1449070Y868680D02*
D03*
X1356360Y703580D02*
D03*
X1376680Y704850D02*
D03*
X1399540Y782320D02*
D03*
X1907540Y248920D02*
D03*
X1903730Y27940D02*
D03*
X1764030Y25400D02*
D03*
X1604010Y48260D02*
D03*
X1247140Y872490D02*
D03*
X1299210D02*
D03*
X482600Y1226820D02*
D03*
X744220Y1090354D02*
D03*
X735638Y1097588D02*
D03*
X705793Y1127433D02*
D03*
X508000Y1229360D02*
D03*
X594360Y1234313D02*
D03*
X739267Y1079500D02*
D03*
X695960Y1219200D02*
D03*
X674370Y1244600D02*
D03*
X515620Y1169670D02*
D03*
X539750Y1160780D02*
D03*
X477520Y1235710D02*
D03*
X511810D02*
D03*
X922020Y951230D02*
D03*
X941070Y946150D02*
D03*
X1301750Y1087120D02*
D03*
X1351280Y1083310D02*
D03*
X756387Y1078121D02*
D03*
X740410Y1109980D02*
D03*
X1242060Y1082040D02*
D03*
X1206500Y1066800D02*
D03*
X951230Y957580D02*
D03*
X930086Y959296D02*
D03*
X796290Y1083310D02*
D03*
X1399540Y1090930D02*
D03*
X1352550Y1069340D02*
D03*
X1309370Y1019810D02*
D03*
X1313180Y1005840D02*
D03*
X762000Y1059180D02*
D03*
X708535Y1095286D02*
D03*
X748030Y1103630D02*
D03*
X754380Y1101090D02*
D03*
X1873250Y789940D02*
D03*
X1457960Y1242187D02*
D03*
X1144270Y1239139D02*
D03*
X1493520Y1230630D02*
D03*
X1094740Y1216660D02*
D03*
X1138600Y1211453D02*
D03*
X915969Y1228441D02*
D03*
X960120Y1224280D02*
D03*
X1059180Y1216660D02*
D03*
X825500Y1120140D02*
D03*
X1870710Y560070D02*
D03*
X1869440Y304800D02*
D03*
Y1010920D02*
D03*
X704850Y529590D02*
D03*
X344170Y530860D02*
D03*
X1445260Y535940D02*
D03*
X1780540Y544830D02*
D03*
X1780540Y876300D02*
D03*
X1096010Y866140D02*
D03*
X1113790Y1219200D02*
D03*
X369570Y186690D02*
D03*
X378460Y196850D02*
D03*
X600710Y1071880D02*
D03*
X603250Y1085850D02*
D03*
X1248432Y1066842D02*
D03*
X1220597Y1005840D02*
D03*
X1231011D02*
D03*
X1280160Y1024890D02*
D03*
X1108710Y1062990D02*
D03*
X1103630Y1069340D02*
D03*
X1129326Y1132840D02*
D03*
X1106555Y1133896D02*
D03*
X1114173Y1133729D02*
D03*
X1121789Y1133961D02*
D03*
X1112520Y1037590D02*
D03*
X1456690Y1094740D02*
D03*
X1381760Y1047750D02*
D03*
X1334770Y1145540D02*
D03*
X1291590Y1177290D02*
D03*
X1242060Y1107440D02*
D03*
X1300480Y1073150D02*
D03*
X1338580Y1043940D02*
D03*
X1290320Y1064260D02*
D03*
X1217930Y1178560D02*
D03*
X1157547Y1018591D02*
D03*
X1788160Y1112520D02*
D03*
X1797070Y1120213D02*
D03*
X1478915Y1092200D02*
D03*
X1290320Y228600D02*
D03*
X1266190D02*
D03*
X1042670Y1018540D02*
D03*
X1013460Y1061720D02*
D03*
X1069340Y1043940D02*
D03*
Y1061720D02*
D03*
X1143889Y1057910D02*
D03*
X943610Y1046480D02*
D03*
X909320Y1047750D02*
D03*
X1052830Y1068070D02*
D03*
X849630Y1062990D02*
D03*
X949960Y1068070D02*
D03*
X1008380Y1038860D02*
D03*
Y1046480D02*
D03*
X1100641Y1043491D02*
D03*
X1544193Y1078103D02*
D03*
X1489329Y1102360D02*
D03*
X1445260Y1026416D02*
D03*
X1324610Y981757D02*
D03*
X1473013Y1169841D02*
D03*
X1088390Y1179830D02*
D03*
X1096010Y1181100D02*
D03*
X1104900D02*
D03*
X1112993Y1182556D02*
D03*
X1120414Y1180826D02*
D03*
X1177290Y1181100D02*
D03*
X1169670D02*
D03*
X1153160Y1179830D02*
D03*
X1145540Y1181100D02*
D03*
X1136650D02*
D03*
X1197737Y1185037D02*
D03*
X1201246Y1178997D02*
D03*
X1441069Y1076830D02*
D03*
X1459230Y1071880D02*
D03*
X1541780Y1090930D02*
D03*
X1529080Y1136650D02*
D03*
X1372870Y1154430D02*
D03*
X1381760Y1007110D02*
D03*
X1192530Y1022350D02*
D03*
X1154303Y1062990D02*
D03*
X1191260Y1038860D02*
D03*
X1139190Y1045210D02*
D03*
X1167753Y991873D02*
D03*
X1332798Y1076392D02*
D03*
X1247140Y1026160D02*
D03*
X1240790Y1050290D02*
D03*
X1123696Y1094225D02*
D03*
X1185672Y1073150D02*
D03*
X1264920Y1176020D02*
D03*
X1145032Y1075569D02*
D03*
X984250Y1023493D02*
D03*
X1084580Y1029970D02*
D03*
X1105575Y1012190D02*
D03*
X996950Y1090930D02*
D03*
X1045210Y1076960D02*
D03*
X1056640Y1116330D02*
D03*
X1061720Y1101090D02*
D03*
X1009650Y986790D02*
D03*
Y1007110D02*
D03*
X911860Y1082040D02*
D03*
X836930Y1022350D02*
D03*
X966470D02*
D03*
X893318Y1021842D02*
D03*
X1007110Y1090930D02*
D03*
X998855Y1118235D02*
D03*
X998220Y1169670D02*
D03*
X1002030Y1189990D02*
D03*
X814082Y1109992D02*
D03*
X984250Y1090930D02*
D03*
X1065530Y1116330D02*
D03*
X906890Y1036430D02*
D03*
X1057790Y1134230D02*
D03*
X1105575Y1004570D02*
D03*
X1201420Y1134230D02*
D03*
X698500Y1132840D02*
D03*
X692150Y1078230D02*
D03*
X694690Y1106170D02*
D03*
X935990Y984250D02*
D03*
X1520190Y1215390D02*
D03*
X1185790Y1182553D02*
D03*
X1162050Y1134110D02*
D03*
X1153233Y1133895D02*
D03*
X1137753Y1134258D02*
D03*
X1043940Y1136650D02*
D03*
X762837Y1102165D02*
D03*
X749300Y1151890D02*
D03*
X770890Y1087748D02*
D03*
X1188016Y961898D02*
D03*
X1146790Y1024346D02*
D03*
X794748Y1067140D02*
D03*
X720797Y1175385D02*
D03*
X724775Y1181884D02*
D03*
X715010Y1136650D02*
D03*
X1112892Y1230630D02*
D03*
X787400Y1090930D02*
D03*
X1082040Y1134230D02*
D03*
X1089790Y1134240D02*
D03*
X1088390Y1202690D02*
D03*
X1193800Y1134230D02*
D03*
X1145540D02*
D03*
X1177290D02*
D03*
X1041400Y1168400D02*
D03*
X1724660Y787400D02*
D03*
X1217046Y1164855D02*
D03*
X1824990Y1101090D02*
D03*
X1164590Y967740D02*
D03*
Y981710D02*
D03*
X1127760Y1182850D02*
D03*
X707390Y1115060D02*
D03*
X495300Y73660D02*
D03*
X1557020Y660400D02*
D03*
X1701800Y872490D02*
D03*
X1712154Y481656D02*
D03*
X604520Y607060D02*
D03*
X469900Y605790D02*
D03*
X379730Y323850D02*
D03*
X163830Y302260D02*
D03*
X104140Y303530D02*
D03*
X214630Y605790D02*
D03*
X91440Y603250D02*
D03*
X1755140Y1220470D02*
D03*
X1644650D02*
D03*
X1766570Y1018540D02*
D03*
X1746250Y1093470D02*
D03*
X1677670Y1087120D02*
D03*
X1074420Y1202690D02*
D03*
X692150Y1139190D02*
D03*
X722630Y1132840D02*
D03*
X1185616Y1134230D02*
D03*
X1169670D02*
D03*
X1065530D02*
D03*
X1329690Y35560D02*
D03*
X1098550Y669290D02*
D03*
X1069340D02*
D03*
X417830Y1099820D02*
D03*
X487680Y1090930D02*
D03*
Y1099820D02*
D03*
X633730Y443230D02*
D03*
X1028700Y440690D02*
D03*
X458470Y111760D02*
D03*
X242570Y173990D02*
D03*
X1367790Y869950D02*
D03*
X445770Y111760D02*
D03*
X323850Y137160D02*
D03*
Y161290D02*
D03*
X242570Y147320D02*
D03*
X257810Y1176020D02*
D03*
X110490Y1174750D02*
D03*
X309880Y1219200D02*
D03*
X198120Y1221740D02*
D03*
X298450Y1052830D02*
D03*
X213360D02*
D03*
X114300D02*
D03*
X1322070Y162560D02*
D03*
X1370330Y609600D02*
D03*
X1327150Y608330D02*
D03*
X1783080Y325120D02*
D03*
X1732280Y323850D02*
D03*
X1727200Y668020D02*
D03*
X391160Y54610D02*
D03*
X567690Y198120D02*
D03*
X535940Y200660D02*
D03*
X378460Y251460D02*
D03*
X267970Y248920D02*
D03*
X283210Y22860D02*
D03*
X332740D02*
D03*
X391160D02*
D03*
X459740Y38100D02*
D03*
X518160Y27940D02*
D03*
X516890Y62230D02*
D03*
X556260Y53340D02*
D03*
Y93980D02*
D03*
Y129540D02*
D03*
X499110Y146050D02*
D03*
X102870Y46990D02*
D03*
X201930Y48260D02*
D03*
X176530Y46990D02*
D03*
X152400Y48260D02*
D03*
X129540Y46990D02*
D03*
X270510Y427990D02*
D03*
X1699260Y709930D02*
D03*
X1684020D02*
D03*
X651325Y774515D02*
D03*
M02*
