G04*
G04 #@! TF.GenerationSoftware,Altium Limited,Altium Designer,23.1.1 (15)*
G04*
G04 Layer_Color=8388736*
%FSLAX44Y44*%
%MOMM*%
G71*
G04*
G04 #@! TF.SameCoordinates,60A71E54-626A-4CE2-9AF2-43E53A1097E0*
G04*
G04*
G04 #@! TF.FilePolarity,Negative*
G04*
G01*
G75*
%ADD29R,0.7970X1.5370*%
%ADD30R,0.7770X1.6520*%
%ADD31R,1.1270X1.5770*%
G04:AMPARAMS|DCode=32|XSize=1.602mm|YSize=0.427mm|CornerRadius=0mm|HoleSize=0mm|Usage=FLASHONLY|Rotation=135.000|XOffset=0mm|YOffset=0mm|HoleType=Round|Shape=Rectangle|*
%AMROTATEDRECTD32*
4,1,4,0.7174,-0.4154,0.4154,-0.7174,-0.7174,0.4154,-0.4154,0.7174,0.7174,-0.4154,0.0*
%
%ADD32ROTATEDRECTD32*%

G04:AMPARAMS|DCode=33|XSize=1.602mm|YSize=0.427mm|CornerRadius=0mm|HoleSize=0mm|Usage=FLASHONLY|Rotation=225.000|XOffset=0mm|YOffset=0mm|HoleType=Round|Shape=Rectangle|*
%AMROTATEDRECTD33*
4,1,4,0.4154,0.7174,0.7174,0.4154,-0.4154,-0.7174,-0.7174,-0.4154,0.4154,0.7174,0.0*
%
%ADD33ROTATEDRECTD33*%

%ADD34R,0.6270X1.7770*%
%ADD35R,0.6270X1.4770*%
%ADD36R,1.5770X1.1270*%
%ADD37R,1.5370X0.7970*%
%ADD38R,1.2270X2.7870*%
%ADD39R,0.7770X0.4270*%
%ADD40R,2.4170X2.4170*%
%ADD41R,2.6270X4.1270*%
%ADD42C,2.5270*%
%ADD43C,0.1270*%
%ADD44C,1.7018*%
%ADD45C,1.4450*%
%ADD46C,1.5270*%
%ADD47C,0.9770*%
%ADD48C,1.0270*%
D29*
X490220Y177800D02*
D03*
X509020D02*
D03*
X356870Y198120D02*
D03*
X338070D02*
D03*
D30*
X1882140Y1022720D02*
D03*
X1869440Y1022720D02*
D03*
X1856740Y1022720D02*
D03*
X1844040Y1022720D02*
D03*
X1844040Y1076960D02*
D03*
X1856740D02*
D03*
X1869440D02*
D03*
X1882140D02*
D03*
X1884680Y803010D02*
D03*
X1871980Y803010D02*
D03*
X1859280Y803010D02*
D03*
X1846580Y803010D02*
D03*
X1846580Y857250D02*
D03*
X1859280D02*
D03*
X1871980D02*
D03*
X1884680D02*
D03*
X1882140Y320410D02*
D03*
X1869440Y320410D02*
D03*
X1856740Y320410D02*
D03*
X1844040Y320410D02*
D03*
Y374650D02*
D03*
X1856740D02*
D03*
X1869440D02*
D03*
X1882140Y374650D02*
D03*
X1883410Y574040D02*
D03*
X1870710D02*
D03*
X1858010D02*
D03*
X1845310D02*
D03*
Y628280D02*
D03*
X1858010D02*
D03*
X1870710Y628280D02*
D03*
X1883410Y628280D02*
D03*
X381000Y119750D02*
D03*
X368300D02*
D03*
X355600D02*
D03*
X342900D02*
D03*
Y173990D02*
D03*
X355600D02*
D03*
X368300D02*
D03*
X381000D02*
D03*
X299720Y122740D02*
D03*
X287020D02*
D03*
X274320D02*
D03*
X261620D02*
D03*
Y176980D02*
D03*
X274320D02*
D03*
X287020D02*
D03*
X299720D02*
D03*
D31*
X1875740Y1216660D02*
D03*
X1856740D02*
D03*
X1835150Y754380D02*
D03*
X1854150D02*
D03*
X1852980Y523240D02*
D03*
X1871980D02*
D03*
X1844090Y980440D02*
D03*
X1863090D02*
D03*
X440690Y167640D02*
D03*
X459690D02*
D03*
D32*
X791572Y1110097D02*
D03*
X795107Y1113633D02*
D03*
X798643Y1117169D02*
D03*
X802178Y1120704D02*
D03*
X805714Y1124240D02*
D03*
X809249Y1127775D02*
D03*
X812785Y1131311D02*
D03*
X816320Y1134846D02*
D03*
X819856Y1138382D02*
D03*
X823392Y1141917D02*
D03*
X826927Y1145453D02*
D03*
X830463Y1148988D02*
D03*
X770528Y1208923D02*
D03*
X766993Y1205387D02*
D03*
X763457Y1201852D02*
D03*
X759922Y1198316D02*
D03*
X756386Y1194781D02*
D03*
X752851Y1191245D02*
D03*
X749315Y1187709D02*
D03*
X745779Y1184174D02*
D03*
X742244Y1180638D02*
D03*
X738708Y1177103D02*
D03*
X735173Y1173567D02*
D03*
X731637Y1170032D02*
D03*
D33*
X830463D02*
D03*
X826927Y1173567D02*
D03*
X823392Y1177103D02*
D03*
X819856Y1180638D02*
D03*
X816320Y1184174D02*
D03*
X812785Y1187709D02*
D03*
X809249Y1191245D02*
D03*
X805714Y1194781D02*
D03*
X802178Y1198316D02*
D03*
X798643Y1201852D02*
D03*
X795107Y1205387D02*
D03*
X791572Y1208923D02*
D03*
X731637Y1148988D02*
D03*
X735173Y1145453D02*
D03*
X738708Y1141917D02*
D03*
X742244Y1138382D02*
D03*
X745779Y1134846D02*
D03*
X749315Y1131311D02*
D03*
X752851Y1127775D02*
D03*
X756386Y1124240D02*
D03*
X759922Y1120704D02*
D03*
X763457Y1117169D02*
D03*
X766993Y1113633D02*
D03*
X770528Y1110097D02*
D03*
D34*
X1057130Y1148840D02*
D03*
X1065130D02*
D03*
X1073130D02*
D03*
X1081130D02*
D03*
X1089130D02*
D03*
X1097130D02*
D03*
X1105130D02*
D03*
X1113130D02*
D03*
X1121130D02*
D03*
X1129130D02*
D03*
X1137130D02*
D03*
X1145130D02*
D03*
X1153130D02*
D03*
X1161130D02*
D03*
X1169130D02*
D03*
X1177130D02*
D03*
X1185130D02*
D03*
X1193130D02*
D03*
X1201130D02*
D03*
X1209130D02*
D03*
D35*
X1057130Y1168840D02*
D03*
X1065130Y1168840D02*
D03*
X1073130D02*
D03*
X1081130Y1168840D02*
D03*
X1089130D02*
D03*
X1097130Y1168840D02*
D03*
X1105130D02*
D03*
X1113130D02*
D03*
X1121130D02*
D03*
X1129130D02*
D03*
X1137130D02*
D03*
X1145130D02*
D03*
X1153130D02*
D03*
X1161130D02*
D03*
X1169130D02*
D03*
X1177130Y1168840D02*
D03*
X1185130D02*
D03*
X1193130Y1168840D02*
D03*
X1201130D02*
D03*
X1209130D02*
D03*
D36*
X483870Y116890D02*
D03*
Y135890D02*
D03*
X505460Y1077010D02*
D03*
Y1096010D02*
D03*
X430530Y185470D02*
D03*
Y204470D02*
D03*
D37*
X513080Y137410D02*
D03*
Y156210D02*
D03*
X288671Y89150D02*
D03*
Y107950D02*
D03*
X513080Y127000D02*
D03*
Y108200D02*
D03*
X412664Y149976D02*
D03*
Y131176D02*
D03*
X422910Y122940D02*
D03*
Y104140D02*
D03*
X271780Y89150D02*
D03*
Y107950D02*
D03*
X355840Y85950D02*
D03*
Y104750D02*
D03*
X471056Y1095454D02*
D03*
Y1076654D02*
D03*
X449844Y1095454D02*
D03*
Y1076654D02*
D03*
X428632Y1095454D02*
D03*
Y1076654D02*
D03*
X375920Y105410D02*
D03*
Y86610D02*
D03*
D38*
X449580Y139065D02*
D03*
D39*
X439080Y126565D02*
D03*
Y131565D02*
D03*
Y136565D02*
D03*
Y141565D02*
D03*
Y146565D02*
D03*
Y151565D02*
D03*
X460080D02*
D03*
Y146565D02*
D03*
Y141565D02*
D03*
Y136565D02*
D03*
Y131565D02*
D03*
Y126565D02*
D03*
D40*
X361950Y146870D02*
D03*
X280670Y149860D02*
D03*
D41*
X113750Y208510D02*
D03*
Y78510D02*
D03*
X173750Y78510D02*
D03*
Y208510D02*
D03*
D42*
X1078230Y731520D02*
D03*
X1052830Y756920D02*
D03*
Y706120D02*
D03*
X1103630D02*
D03*
Y756920D02*
D03*
X721360D02*
D03*
Y706120D02*
D03*
X670560D02*
D03*
Y756920D02*
D03*
X695960Y731520D02*
D03*
X1906270Y1174750D02*
D03*
Y1123950D02*
D03*
X1855470D02*
D03*
Y1174750D02*
D03*
X1880870Y1149350D02*
D03*
X914654Y399870D02*
D03*
X889254Y425270D02*
D03*
Y374470D02*
D03*
X940054D02*
D03*
Y425270D02*
D03*
X1637284Y426540D02*
D03*
Y375740D02*
D03*
X1586484D02*
D03*
Y426540D02*
D03*
X1611884Y401140D02*
D03*
Y731520D02*
D03*
X1637284Y706120D02*
D03*
Y756920D02*
D03*
X1586484D02*
D03*
Y706120D02*
D03*
X1761744Y731520D02*
D03*
X1736344Y706120D02*
D03*
X1787144D02*
D03*
Y756920D02*
D03*
X1736344D02*
D03*
X1122680Y99000D02*
D03*
X1097280Y124400D02*
D03*
Y73600D02*
D03*
X1148080D02*
D03*
Y124400D02*
D03*
X919480D02*
D03*
Y73600D02*
D03*
X868680D02*
D03*
Y124400D02*
D03*
X894080Y99000D02*
D03*
X678180D02*
D03*
X652780Y124400D02*
D03*
Y73600D02*
D03*
X703580D02*
D03*
Y124400D02*
D03*
X1550670D02*
D03*
Y73600D02*
D03*
X1499870D02*
D03*
Y124400D02*
D03*
X1525270Y99000D02*
D03*
X1100074Y425270D02*
D03*
Y374470D02*
D03*
X1049274D02*
D03*
Y425270D02*
D03*
X1074674Y399870D02*
D03*
X1457960Y427990D02*
D03*
Y377190D02*
D03*
X1407160D02*
D03*
Y427990D02*
D03*
X1432560Y402590D02*
D03*
X1318260Y124400D02*
D03*
Y73600D02*
D03*
X1267460D02*
D03*
Y124400D02*
D03*
X1292860Y99000D02*
D03*
X2024380Y952500D02*
D03*
Y901700D02*
D03*
X1973580D02*
D03*
Y952500D02*
D03*
X1998980Y927100D02*
D03*
X2024380Y488950D02*
D03*
Y438150D02*
D03*
X1973580D02*
D03*
Y488950D02*
D03*
X1998980Y463550D02*
D03*
X353060Y420370D02*
D03*
Y369570D02*
D03*
X302260D02*
D03*
Y420370D02*
D03*
X327660Y394970D02*
D03*
X1434084Y731520D02*
D03*
X1408684Y756920D02*
D03*
Y706120D02*
D03*
X1459484D02*
D03*
Y756920D02*
D03*
X1272794Y731520D02*
D03*
X1247394Y756920D02*
D03*
Y706120D02*
D03*
X1298194D02*
D03*
Y756920D02*
D03*
X562610Y759460D02*
D03*
Y708660D02*
D03*
X511810D02*
D03*
Y759460D02*
D03*
X537210Y734060D02*
D03*
X914654Y731520D02*
D03*
X889254Y756920D02*
D03*
Y706120D02*
D03*
X940054D02*
D03*
Y756920D02*
D03*
X2024380Y1174750D02*
D03*
Y1123950D02*
D03*
X1973580D02*
D03*
Y1174750D02*
D03*
X1998980Y1149350D02*
D03*
X1899920Y488950D02*
D03*
Y438150D02*
D03*
X1849120D02*
D03*
Y488950D02*
D03*
X1874520Y463550D02*
D03*
X1998980Y695960D02*
D03*
X1973580Y721360D02*
D03*
Y670560D02*
D03*
X2024380D02*
D03*
Y721360D02*
D03*
X1874520Y695960D02*
D03*
X1849120Y721360D02*
D03*
Y670560D02*
D03*
X1899920D02*
D03*
Y721360D02*
D03*
X1875790Y927100D02*
D03*
X1850390Y952500D02*
D03*
Y901700D02*
D03*
X1901190D02*
D03*
Y952500D02*
D03*
X148590Y731520D02*
D03*
X123190Y756920D02*
D03*
Y706120D02*
D03*
X173990D02*
D03*
Y756920D02*
D03*
X318770Y731520D02*
D03*
X293370Y756920D02*
D03*
Y706120D02*
D03*
X344170D02*
D03*
Y756920D02*
D03*
X566420Y425270D02*
D03*
Y374470D02*
D03*
X515620D02*
D03*
Y425270D02*
D03*
X541020Y399870D02*
D03*
X720090Y426720D02*
D03*
Y375920D02*
D03*
X669290D02*
D03*
Y426720D02*
D03*
X694690Y401320D02*
D03*
X1800860Y427990D02*
D03*
Y377190D02*
D03*
X1750060D02*
D03*
Y427990D02*
D03*
X1775460Y402590D02*
D03*
X153924Y398600D02*
D03*
X128524Y424000D02*
D03*
Y373200D02*
D03*
X179324D02*
D03*
Y424000D02*
D03*
X1268730Y403860D02*
D03*
X1243330Y429260D02*
D03*
Y378460D02*
D03*
X1294130D02*
D03*
Y429260D02*
D03*
D43*
X2034540Y26670D02*
D03*
X2040890Y1216660D02*
D03*
X38100D02*
D03*
D44*
X554990Y1210310D02*
D03*
Y1184910D02*
D03*
X529590Y1210310D02*
D03*
Y1184910D02*
D03*
X504190Y1210310D02*
D03*
Y1184910D02*
D03*
X478790Y1210310D02*
D03*
Y1184910D02*
D03*
X453390Y1210310D02*
D03*
Y1184910D02*
D03*
X427990Y1210310D02*
D03*
Y1184910D02*
D03*
X402590Y1210310D02*
D03*
Y1184910D02*
D03*
D45*
X1035630Y1228090D02*
D03*
X1230630D02*
D03*
D46*
X1026130Y1158090D02*
D03*
X1240130Y1158090D02*
D03*
D47*
X113750Y143510D02*
D03*
D48*
X158750D02*
D03*
M02*
