G04*
G04 #@! TF.GenerationSoftware,Altium Limited,Altium Designer,23.1.1 (15)*
G04*
G04 Layer_Color=32896*
%FSLAX44Y44*%
%MOMM*%
G71*
G04*
G04 #@! TF.SameCoordinates,60A71E54-626A-4CE2-9AF2-43E53A1097E0*
G04*
G04*
G04 #@! TF.FilePolarity,Positive*
G04*
G01*
G75*
%ADD12C,0.1000*%
%ADD77C,0.0500*%
D12*
X1030830Y778920D02*
X1125630D01*
Y684120D02*
Y778920D01*
X1030830Y684120D02*
X1125630D01*
X1030830D02*
Y778920D01*
X648560Y684120D02*
Y778920D01*
Y684120D02*
X743360D01*
Y778920D01*
X648560D02*
X743360D01*
X1833470Y1101950D02*
Y1196750D01*
Y1101950D02*
X1928270D01*
Y1196750D01*
X1833470D02*
X1928270D01*
X867254Y447270D02*
X962054D01*
Y352470D02*
Y447270D01*
X867254Y352470D02*
X962054D01*
X867254D02*
Y447270D01*
X1564484Y353740D02*
Y448540D01*
Y353740D02*
X1659284D01*
Y448540D01*
X1564484D02*
X1659284D01*
X1564484Y684120D02*
X1659284D01*
X1564484D02*
Y778920D01*
X1659284D01*
Y684120D02*
Y778920D01*
X1714344Y684120D02*
Y778920D01*
X1809144D01*
Y684120D02*
Y778920D01*
X1714344Y684120D02*
X1809144D01*
X1075280Y146400D02*
X1170080D01*
Y51600D02*
Y146400D01*
X1075280Y51600D02*
X1170080D01*
X1075280D02*
Y146400D01*
X846680Y51600D02*
Y146400D01*
Y51600D02*
X941480D01*
Y146400D01*
X846680D02*
X941480D01*
X630780D02*
X725580D01*
Y51600D02*
Y146400D01*
X630780Y51600D02*
X725580D01*
X630780D02*
Y146400D01*
X1477870Y51600D02*
Y146400D01*
Y51600D02*
X1572670D01*
Y146400D01*
X1477870D02*
X1572670D01*
X1027274Y352470D02*
Y447270D01*
Y352470D02*
X1122074D01*
Y447270D01*
X1027274D02*
X1122074D01*
X1385160Y355190D02*
Y449990D01*
Y355190D02*
X1479960D01*
Y449990D01*
X1385160D02*
X1479960D01*
X1245460Y51600D02*
Y146400D01*
Y51600D02*
X1340260D01*
Y146400D01*
X1245460D02*
X1340260D01*
X1951580Y879700D02*
Y974500D01*
Y879700D02*
X2046380D01*
Y974500D01*
X1951580D02*
X2046380D01*
X1951580Y416150D02*
Y510950D01*
Y416150D02*
X2046380D01*
Y510950D01*
X1951580D02*
X2046380D01*
X280260Y347570D02*
Y442370D01*
Y347570D02*
X375060D01*
Y442370D01*
X280260D02*
X375060D01*
X1386684Y778920D02*
X1481484D01*
Y684120D02*
Y778920D01*
X1386684Y684120D02*
X1481484D01*
X1386684D02*
Y778920D01*
X1225394D02*
X1320194D01*
Y684120D02*
Y778920D01*
X1225394Y684120D02*
X1320194D01*
X1225394D02*
Y778920D01*
X489810Y686660D02*
Y781460D01*
Y686660D02*
X584610D01*
Y781460D01*
X489810D02*
X584610D01*
X867254Y778920D02*
X962054D01*
Y684120D02*
Y778920D01*
X867254Y684120D02*
X962054D01*
X867254D02*
Y778920D01*
X1951580Y1101950D02*
Y1196750D01*
Y1101950D02*
X2046380D01*
Y1196750D01*
X1951580D02*
X2046380D01*
X1827120Y416150D02*
Y510950D01*
Y416150D02*
X1921920D01*
Y510950D01*
X1827120D02*
X1921920D01*
X1951580Y743360D02*
X2046380D01*
Y648560D02*
Y743360D01*
X1951580Y648560D02*
X2046380D01*
X1951580D02*
Y743360D01*
X1827120D02*
X1921920D01*
Y648560D02*
Y743360D01*
X1827120Y648560D02*
X1921920D01*
X1827120D02*
Y743360D01*
X1828390Y974500D02*
X1923190D01*
Y879700D02*
Y974500D01*
X1828390Y879700D02*
X1923190D01*
X1828390D02*
Y974500D01*
X101190Y778920D02*
X195990D01*
Y684120D02*
Y778920D01*
X101190Y684120D02*
X195990D01*
X101190D02*
Y778920D01*
X271370D02*
X366170D01*
Y684120D02*
Y778920D01*
X271370Y684120D02*
X366170D01*
X271370D02*
Y778920D01*
X493620Y352470D02*
Y447270D01*
Y352470D02*
X588420D01*
Y447270D01*
X493620D02*
X588420D01*
X647290Y353920D02*
Y448720D01*
Y353920D02*
X742090D01*
Y448720D01*
X647290D02*
X742090D01*
X1728060Y355190D02*
Y449990D01*
Y355190D02*
X1822860D01*
Y449990D01*
X1728060D02*
X1822860D01*
X106524Y446000D02*
X201324D01*
Y351200D02*
Y446000D01*
X106524Y351200D02*
X201324D01*
X106524D02*
Y446000D01*
X1221330Y451260D02*
X1316130D01*
Y356460D02*
Y451260D01*
X1221330Y356460D02*
X1316130D01*
X1221330D02*
Y451260D01*
D77*
X867580Y468790D02*
Y488790D01*
X901580D01*
Y468790D02*
Y488790D01*
X867580Y468790D02*
X901580D01*
X1388940Y712050D02*
Y786550D01*
X1333940D02*
X1388940D01*
X1333940Y712050D02*
Y786550D01*
Y712050D02*
X1388940D01*
X221140Y442080D02*
X241140D01*
X221140D02*
Y476080D01*
X241140D01*
Y442080D02*
Y476080D01*
X264320Y477350D02*
X284320D01*
Y443350D02*
Y477350D01*
X264320Y443350D02*
X284320D01*
X264320D02*
Y477350D01*
X492930Y802800D02*
Y822800D01*
X526930D01*
Y802800D02*
Y822800D01*
X492930Y802800D02*
X526930D01*
X222410Y329100D02*
X242410D01*
X222410D02*
Y363100D01*
X242410D01*
Y329100D02*
Y363100D01*
X1377510Y380580D02*
Y455080D01*
X1322510D02*
X1377510D01*
X1322510Y380580D02*
Y455080D01*
Y380580D02*
X1377510D01*
X744340Y400110D02*
X744340Y344110D01*
X744340Y400110D02*
X822840D01*
Y344110D02*
Y400110D01*
X744340Y344110D02*
X822840D01*
X1131690Y343800D02*
Y399800D01*
X1210190D01*
Y343800D02*
Y399800D01*
X1131690Y343800D02*
X1210190D01*
X1486020Y155000D02*
X1564520D01*
X1486020Y99000D02*
Y155000D01*
Y99000D02*
X1564520D01*
Y155000D01*
X996790Y659300D02*
Y693300D01*
X976790D02*
X996790D01*
X976790Y659300D02*
Y693300D01*
Y659300D02*
X996790D01*
X1032340Y659290D02*
Y679290D01*
X998340Y659290D02*
X1032340D01*
X998340D02*
Y679290D01*
X1032340D01*
X1009770Y347820D02*
X1043770D01*
X1009770Y327820D02*
Y347820D01*
Y327820D02*
X1043770D01*
Y347820D01*
X1003140Y327780D02*
Y361780D01*
X983140D02*
X1003140D01*
X983140Y327780D02*
Y361780D01*
Y327780D02*
X1003140D01*
X1720730Y325280D02*
Y345280D01*
X1686730Y325280D02*
X1720730D01*
X1686730D02*
Y345280D01*
X1720730D01*
X1356200Y335450D02*
Y369450D01*
X1336200D02*
X1356200D01*
X1336200Y335450D02*
Y369450D01*
Y335450D02*
X1356200D01*
X1558460Y805340D02*
X1592460D01*
Y825340D01*
X1558460D02*
X1592460D01*
X1558460Y805340D02*
Y825340D01*
X659010Y673260D02*
Y693260D01*
X625010Y673260D02*
X659010D01*
X625010D02*
Y693260D01*
X659010D01*
X995560Y910530D02*
Y966530D01*
X917060Y910530D02*
X995560D01*
X917060D02*
Y966530D01*
X995560D01*
X1541660Y913070D02*
Y969070D01*
X1463160Y913070D02*
X1541660D01*
X1463160D02*
Y969070D01*
X1541660D01*
X1436250Y967800D02*
X1436250Y911800D01*
X1357750D02*
X1436250D01*
X1357750D02*
Y967800D01*
X1436250D01*
X1332110Y911800D02*
Y967800D01*
X1253610Y911800D02*
X1332110D01*
X1253610D02*
Y967800D01*
X1332110D01*
X1849240Y1206660D02*
X1883240D01*
X1849240D02*
Y1226660D01*
X1883240Y1226660D01*
Y1206660D02*
Y1226660D01*
X707157Y1159510D02*
X781050Y1085617D01*
X707157Y1159510D02*
X781050Y1233403D01*
X854943Y1159510D01*
X781050Y1085617D02*
X854943Y1159510D01*
X590990Y709960D02*
X645990D01*
X590990D02*
Y784460D01*
X645990D01*
Y709960D02*
Y784460D01*
X966910Y703980D02*
X1021910D01*
X966910D02*
Y778480D01*
X1021910D01*
Y703980D02*
Y778480D01*
X1014850Y1155330D02*
Y1211330D01*
X1093350D01*
Y1155330D02*
Y1211330D01*
X1014850Y1155330D02*
X1093350D01*
X1721680Y371240D02*
Y445740D01*
X1666680D02*
X1721680D01*
X1666680Y371240D02*
Y445740D01*
Y371240D02*
X1721680D01*
X1343820Y665650D02*
X1363820D01*
X1343820D02*
Y699650D01*
X1363820D01*
Y665650D02*
Y699650D01*
X473870Y143390D02*
X493870D01*
X473870Y109390D02*
Y143390D01*
Y109390D02*
X493870D01*
Y143390D01*
X598040Y791213D02*
X618040D01*
X598040D02*
Y825213D01*
X618040D01*
Y791213D02*
Y825213D01*
X1861650Y744380D02*
Y764380D01*
X1827650D02*
X1861650D01*
X1827650Y744380D02*
Y764380D01*
Y744380D02*
X1861650D01*
X1879480Y513240D02*
Y533240D01*
X1845480D02*
X1879480D01*
X1845480Y513240D02*
Y533240D01*
Y513240D02*
X1879480D01*
X1870590Y970440D02*
Y990440D01*
X1836590D02*
X1870590D01*
X1836590Y970440D02*
Y990440D01*
Y970440D02*
X1870590D01*
X1023970Y452975D02*
Y486975D01*
Y452975D02*
X1043970D01*
Y486975D01*
X1023970D02*
X1043970D01*
X1722280Y454830D02*
Y488830D01*
Y454830D02*
X1742280D01*
Y488830D01*
X1722280D02*
X1742280D01*
X1686400Y325240D02*
Y359240D01*
X1666400D02*
X1686400D01*
X1666400Y325240D02*
Y359240D01*
Y325240D02*
X1686400D01*
X997030Y452975D02*
Y486975D01*
X977030D02*
X997030D01*
X977030Y452975D02*
Y486975D01*
Y452975D02*
X997030D01*
X1695115Y454830D02*
Y488830D01*
X1675115D02*
X1695115D01*
X1675115Y454830D02*
Y488830D01*
Y454830D02*
X1695115D01*
X1560950Y464980D02*
X1594950D01*
Y484980D01*
X1560950D02*
X1594950D01*
X1560950Y464980D02*
Y484980D01*
X1355260Y356710D02*
X1389260D01*
X1355260Y336710D02*
Y356710D01*
Y336710D02*
X1389260D01*
Y356710D01*
X1376840Y463720D02*
Y497720D01*
Y463720D02*
X1396840D01*
Y497720D01*
X1376840D02*
X1396840D01*
X627500Y342740D02*
X661500D01*
X627500Y322740D02*
Y342740D01*
Y322740D02*
X661500D01*
Y342740D01*
X651670Y448480D02*
Y482480D01*
Y448480D02*
X671670D01*
Y482480D01*
X651670D02*
X671670D01*
X622140Y324020D02*
Y358020D01*
X602140D02*
X622140D01*
X602140Y324020D02*
Y358020D01*
Y324020D02*
X622140D01*
X1357470Y456100D02*
Y490100D01*
X1337470D02*
X1357470D01*
X1337470D02*
X1337470Y456100D01*
X1357470D01*
X1220640Y466250D02*
X1254640D01*
Y486250D01*
X1220640D02*
X1254640D01*
X1220640Y466250D02*
Y486250D01*
X620870Y448430D02*
Y482430D01*
X600870D02*
X620870D01*
X600870Y448430D02*
Y482430D01*
Y448430D02*
X620870D01*
X499280Y459900D02*
X533280D01*
Y479900D01*
X499280D02*
X533280D01*
X499280Y459900D02*
Y479900D01*
X245280Y349090D02*
X279280D01*
X245280Y329090D02*
Y349090D01*
Y329090D02*
X279280D01*
Y349090D01*
X119500Y458630D02*
X153500D01*
Y478630D01*
X119500D02*
X153500D01*
X119500Y458630D02*
Y478630D01*
X1690540Y698340D02*
X1724540D01*
X1690540Y678340D02*
Y698340D01*
Y678340D02*
X1724540D01*
Y698340D01*
X1716184Y795875D02*
Y829875D01*
Y795875D02*
X1736184D01*
Y829875D01*
X1716184D02*
X1736184D01*
X1691480Y673270D02*
Y707270D01*
X1671480D02*
X1691480D01*
X1671480Y673270D02*
Y707270D01*
Y673270D02*
X1691480D01*
X1692291Y795875D02*
Y829875D01*
X1672291D02*
X1692291D01*
X1672291Y795875D02*
Y829875D01*
Y795875D02*
X1692291D01*
X1364100Y690720D02*
X1398100D01*
X1364100Y670720D02*
Y690720D01*
Y670720D02*
X1398100D01*
Y690720D01*
X1380650Y791330D02*
Y825330D01*
Y791330D02*
X1400650D01*
Y825330D01*
X1380650D02*
X1400650D01*
X1357470Y788840D02*
Y822840D01*
X1337470D02*
X1357470D01*
X1337470Y788840D02*
Y822840D01*
Y788840D02*
X1357470D01*
X1221860Y805340D02*
X1255860D01*
Y825340D01*
X1221860D02*
X1255860D01*
X1221860Y805340D02*
Y825340D01*
X1028860Y786250D02*
Y820250D01*
Y786250D02*
X1048860D01*
Y820250D01*
X1028860D02*
X1048860D01*
X1005680Y786250D02*
Y820250D01*
X985680D02*
X1005680D01*
X985680Y786250D02*
Y820250D01*
Y786250D02*
X1005680D01*
X870070Y805340D02*
X904070D01*
Y825340D01*
X870070D02*
X904070D01*
X870070Y805340D02*
Y825340D01*
X646823Y793827D02*
Y827827D01*
Y793827D02*
X666823D01*
Y827827D01*
X646823D02*
X666823D01*
X622140Y673270D02*
Y707270D01*
X602140D02*
X622140D01*
X602140Y673270D02*
Y707270D01*
Y673270D02*
X622140D01*
X235070Y670400D02*
X269070D01*
X235070Y650400D02*
Y670400D01*
Y650400D02*
X269070D01*
Y670400D01*
X265590Y771060D02*
Y805060D01*
Y771060D02*
X285590D01*
X285590Y805060D02*
X285590Y771060D01*
X265590Y805060D02*
X285590D01*
X232250Y650410D02*
Y684410D01*
X212250D02*
X232250D01*
X212250Y650410D02*
Y684410D01*
Y650410D02*
X232250D01*
X220820Y777410D02*
Y811410D01*
X200820D02*
X220820D01*
X200820Y777410D02*
Y811410D01*
Y777410D02*
X220820D01*
X109340Y805340D02*
X143340D01*
Y825340D01*
X109340D02*
X143340D01*
X109340Y805340D02*
Y825340D01*
X495460Y1069510D02*
Y1103510D01*
X515460D01*
Y1069510D02*
Y1103510D01*
X495460Y1069510D02*
X515460D01*
X433190Y177640D02*
X467190D01*
Y157640D02*
Y177640D01*
X433190Y157640D02*
X467190D01*
X433190D02*
Y177640D01*
X420530Y177970D02*
Y211970D01*
X440530D01*
Y177970D02*
Y211970D01*
X420530Y177970D02*
X440530D01*
X465830Y121065D02*
Y157065D01*
X433330D02*
X465830D01*
X433330Y121065D02*
Y157065D01*
Y121065D02*
X465830D01*
X262945Y691280D02*
Y765780D01*
X207945D02*
X262945D01*
X207945Y691280D02*
Y765780D01*
Y691280D02*
X262945D01*
X1021910Y364070D02*
Y438570D01*
X966910D02*
X1021910D01*
X966910Y364070D02*
Y438570D01*
Y364070D02*
X1021910D01*
X642434Y365339D02*
Y439839D01*
X587434D02*
X642434D01*
X587434Y365339D02*
Y439839D01*
Y365339D02*
X642434D01*
X263974Y364069D02*
Y438569D01*
X208974D02*
X263974D01*
X208974Y364069D02*
Y438569D01*
Y364069D02*
X263974D01*
X1658680Y716448D02*
X1713680D01*
X1658680D02*
Y790947D01*
X1713680D01*
Y716448D02*
Y790947D01*
M02*
