G04*
G04 #@! TF.GenerationSoftware,Altium Limited,Altium Designer,23.1.1 (15)*
G04*
G04 Layer_Color=32896*
%FSLAX44Y44*%
%MOMM*%
G71*
G04*
G04 #@! TF.SameCoordinates,60A71E54-626A-4CE2-9AF2-43E53A1097E0*
G04*
G04*
G04 #@! TF.FilePolarity,Positive*
G04*
G01*
G75*
%ADD11C,0.2000*%
%ADD13C,0.2540*%
%ADD14C,0.1524*%
D11*
X884580Y473540D02*
Y484040D01*
X1385940Y733300D02*
Y765300D01*
X1336940D02*
X1385940D01*
X1336940Y733300D02*
Y765300D01*
Y733300D02*
X1385940D01*
X1387240Y714550D02*
Y729800D01*
X225890Y459080D02*
X236390D01*
X269070Y460350D02*
X279570D01*
X1799990Y467720D02*
Y482970D01*
X1749690Y486470D02*
X1798690D01*
X1749690D02*
Y518470D01*
X1798690D01*
Y486470D02*
Y518470D01*
X1705340Y469390D02*
X1716040D01*
X509930Y807550D02*
Y818050D01*
X227160Y346100D02*
X237660D01*
X1374510Y401830D02*
Y433830D01*
X1325510D02*
X1374510D01*
X1325510Y401830D02*
Y433830D01*
Y401830D02*
X1374510D01*
X1375810Y383080D02*
Y398330D01*
X748110Y222960D02*
X762860D01*
X766360Y276460D02*
X766360Y226460D01*
X766360Y276460D02*
X803360D01*
X803360Y226460D02*
X803360Y276460D01*
X766360Y226460D02*
X803360D01*
X344570Y797560D02*
X344570Y782310D01*
X294270Y801060D02*
X343270D01*
X294270Y833060D02*
X294270Y801060D01*
X294270Y833060D02*
X343270D01*
Y801060D02*
Y833060D01*
X720490Y802180D02*
Y817430D01*
X670190Y820930D02*
X719190D01*
X670190D02*
Y852930D01*
X719190D01*
Y820930D02*
Y852930D01*
X580120Y807210D02*
X590820D01*
X1135460Y222650D02*
X1150210D01*
X1153710Y226150D02*
Y276150D01*
X1190710D01*
Y226150D02*
Y276150D01*
X1153710Y226150D02*
X1190710D01*
X1505500Y272650D02*
X1542500D01*
X1505500Y222650D02*
Y272650D01*
Y222650D02*
X1542500D01*
Y272650D01*
X1546000Y276150D02*
X1560750D01*
X981540Y676300D02*
X992040D01*
X968740Y799590D02*
X979440D01*
X1015340Y664040D02*
Y674540D01*
X1026770Y332570D02*
Y343070D01*
X987890Y344780D02*
X998390D01*
X1703730Y330030D02*
Y340530D01*
X1340950Y352450D02*
X1351450D01*
X1575460Y810090D02*
Y820590D01*
X362350Y451210D02*
Y466460D01*
X312050Y469960D02*
X361050D01*
X312050D02*
Y501960D01*
X361050D01*
Y469960D02*
Y501960D01*
X642010Y678010D02*
Y688510D01*
X977040Y1087680D02*
X991790D01*
X973540Y1034180D02*
Y1084180D01*
X936540Y1034180D02*
X973540D01*
X936540D02*
X936540Y1084180D01*
X973540D01*
X1523140Y1090220D02*
X1537890D01*
X1519640Y1036720D02*
Y1086720D01*
X1482640Y1036720D02*
X1519640D01*
X1482640D02*
Y1086720D01*
X1519640D01*
X1417730Y1088950D02*
X1432480Y1088950D01*
X1414230Y1085450D02*
X1414230Y1035450D01*
X1377230D02*
X1414230D01*
X1377230D02*
X1377230Y1085450D01*
X1414230D01*
X1313590Y1088950D02*
X1328340D01*
X1310090Y1035450D02*
Y1085450D01*
X1273090Y1035450D02*
X1310090D01*
X1273090D02*
Y1085450D01*
X1310090D01*
X1468520Y794110D02*
Y809360D01*
X1418220Y812860D02*
X1467220D01*
X1418220D02*
Y844860D01*
X1467220D01*
Y812860D02*
Y844860D01*
X724270Y469960D02*
Y501960D01*
X675270D02*
X724270D01*
X675270D02*
X675270Y469960D01*
X724270D01*
X725570Y451210D02*
Y466460D01*
X1105270Y473400D02*
Y505400D01*
X1056270D02*
X1105270D01*
X1056270Y473400D02*
Y505400D01*
Y473400D02*
X1105270D01*
X1106570Y454650D02*
Y469900D01*
X1463410Y479750D02*
Y511750D01*
X1414410D02*
X1463410D01*
X1414410Y479750D02*
Y511750D01*
Y479750D02*
X1463410D01*
X1464710Y461000D02*
Y476250D01*
X1798690Y820480D02*
Y852480D01*
X1749690D02*
X1798690D01*
X1749690Y820480D02*
Y852480D01*
Y820480D02*
X1798690D01*
X1799990Y801730D02*
Y816980D01*
X1114160Y808680D02*
Y840680D01*
X1065160D02*
X1114160D01*
X1065160D02*
X1065160Y808680D01*
X1114160D01*
X1115460Y789930D02*
Y805180D01*
X644290Y712460D02*
Y727710D01*
X593990Y731210D02*
X642990D01*
X593990D02*
Y763210D01*
X642990D01*
Y731210D02*
Y763210D01*
X1323070Y470660D02*
X1333770D01*
X1323070Y803400D02*
X1333770D01*
X1014460Y801880D02*
X1025160D01*
X1020210Y706480D02*
Y721730D01*
X969910Y725230D02*
X1018910D01*
X969910D02*
Y757230D01*
X1018910D01*
Y725230D02*
Y757230D01*
X1018620Y1034180D02*
X1033370D01*
X1036870Y1037680D02*
Y1087680D01*
X1073870D01*
Y1037680D02*
Y1087680D01*
X1036870Y1037680D02*
X1073870D01*
X1718680Y392490D02*
Y424490D01*
X1669680D02*
X1718680D01*
X1669680Y392490D02*
Y424490D01*
Y392490D02*
X1718680D01*
X1719980Y373740D02*
Y388990D01*
X1348570Y682650D02*
X1359070D01*
X602790Y808213D02*
X613290D01*
X1004950Y468225D02*
X1015650D01*
X958010D02*
X968710D01*
X1658073Y470080D02*
X1668773D01*
X1362440Y473200D02*
X1373140D01*
X636000Y465580D02*
X646700D01*
X587740D02*
X598440D01*
X248650Y458980D02*
X259350D01*
X204200Y464310D02*
X214900D01*
X1702800Y811020D02*
X1713500D01*
X1654794Y811125D02*
X1665494D01*
X1364980Y804670D02*
X1375680D01*
X630920Y806960D02*
X641620D01*
X251190Y785620D02*
X261890D01*
X224520Y785370D02*
X235220D01*
X1028720Y469975D02*
X1039220D01*
X1727030Y471830D02*
X1737530D01*
X1671150Y342240D02*
X1681650D01*
X981780Y469975D02*
X992280D01*
X1679865Y471830D02*
X1690365D01*
X1577950Y469730D02*
Y480230D01*
X1372260Y341460D02*
Y351960D01*
X1381590Y480720D02*
X1392090D01*
X644500Y327490D02*
Y337990D01*
X656420Y465480D02*
X666920D01*
X606890Y341020D02*
X617390D01*
X1342220Y473100D02*
X1352720D01*
X1237640Y471000D02*
Y481500D01*
X605620Y465430D02*
X616120D01*
X516280Y464650D02*
Y475150D01*
X262280Y333840D02*
Y344340D01*
X136500Y463380D02*
Y473880D01*
X1707540Y683090D02*
Y693590D01*
X1720934Y812875D02*
X1731434D01*
X1676230Y690270D02*
X1686730D01*
X1677041Y812875D02*
X1687541D01*
X1381100Y675470D02*
Y685970D01*
X1385400Y808330D02*
X1395900D01*
X1342220Y805840D02*
X1352720D01*
X1238860Y810090D02*
Y820590D01*
X1033610Y803250D02*
X1044110D01*
X990430D02*
X1000930D01*
X887070Y810090D02*
Y820590D01*
X651573Y810827D02*
X662073D01*
X606890Y690270D02*
X617390D01*
X252070Y655150D02*
Y665650D01*
X270340Y788060D02*
X280840D01*
X217000Y667410D02*
X227500D01*
X205570Y794410D02*
X216070D01*
X126340Y810090D02*
Y820590D01*
X259945Y712530D02*
Y744530D01*
X210945D02*
X259945D01*
X210945Y712530D02*
Y744530D01*
Y712530D02*
X259945D01*
X261245Y693780D02*
Y709030D01*
X1018910Y385320D02*
Y417320D01*
X969910D02*
X1018910D01*
X969910Y385320D02*
Y417320D01*
Y385320D02*
X1018910D01*
X1020210Y366570D02*
Y381820D01*
X639434Y386589D02*
Y418589D01*
X590434D02*
X639434D01*
X590434Y386589D02*
Y418589D01*
Y386589D02*
X639434D01*
X640734Y367839D02*
Y383089D01*
X260974Y385319D02*
Y417319D01*
X211974D02*
X260974D01*
X211974Y385319D02*
Y417319D01*
Y385319D02*
X260974D01*
X262274Y366569D02*
Y381819D01*
X1711980Y718948D02*
Y734197D01*
X1661680Y737698D02*
X1710680D01*
X1661680D02*
Y769697D01*
X1710680D01*
Y737698D02*
Y769697D01*
D13*
X1094997Y534923D02*
Y545080D01*
X1097536Y547619D01*
X1102615D01*
X1105154Y545080D01*
Y534923D01*
X1102615Y532384D01*
X1097536D01*
X1100076Y537462D02*
X1094997Y532384D01*
X1097536D02*
X1094997Y534923D01*
X1089919Y532384D02*
X1084841D01*
X1087380D01*
Y547619D01*
X1089919Y545080D01*
X1077223D02*
X1074684Y547619D01*
X1069605D01*
X1067066Y545080D01*
Y534923D01*
X1069605Y532384D01*
X1074684D01*
X1077223Y534923D01*
Y545080D01*
X1788417Y548131D02*
Y558288D01*
X1790957Y560827D01*
X1796035D01*
X1798574Y558288D01*
Y548131D01*
X1796035Y545592D01*
X1790957D01*
X1793496Y550670D02*
X1788417Y545592D01*
X1790957D02*
X1788417Y548131D01*
X1783339D02*
X1780800Y545592D01*
X1775721D01*
X1773182Y548131D01*
Y558288D01*
X1775721Y560827D01*
X1780800D01*
X1783339Y558288D01*
Y555749D01*
X1780800Y553209D01*
X1773182D01*
X1453137Y541273D02*
Y551430D01*
X1455677Y553969D01*
X1460755D01*
X1463294Y551430D01*
Y541273D01*
X1460755Y538734D01*
X1455677D01*
X1458216Y543812D02*
X1453137Y538734D01*
X1455677D02*
X1453137Y541273D01*
X1448059Y551430D02*
X1445520Y553969D01*
X1440441D01*
X1437902Y551430D01*
Y548891D01*
X1440441Y546352D01*
X1437902Y543812D01*
Y541273D01*
X1440441Y538734D01*
X1445520D01*
X1448059Y541273D01*
Y543812D01*
X1445520Y546352D01*
X1448059Y548891D01*
Y551430D01*
X1445520Y546352D02*
X1440441D01*
X713997Y531621D02*
Y541778D01*
X716536Y544317D01*
X721615D01*
X724154Y541778D01*
Y531621D01*
X721615Y529082D01*
X716536D01*
X719076Y534160D02*
X713997Y529082D01*
X716536D02*
X713997Y531621D01*
X708919Y544317D02*
X698762D01*
Y541778D01*
X708919Y531621D01*
Y529082D01*
X1451609Y875032D02*
Y885188D01*
X1454148Y887728D01*
X1459227D01*
X1461766Y885188D01*
Y875032D01*
X1459227Y872493D01*
X1454148D01*
X1456688Y877571D02*
X1451609Y872493D01*
X1454148D02*
X1451609Y875032D01*
X1436374Y887728D02*
X1441452Y885188D01*
X1446531Y880110D01*
Y875032D01*
X1443992Y872493D01*
X1438913D01*
X1436374Y875032D01*
Y877571D01*
X1438913Y880110D01*
X1446531D01*
X1103887Y870203D02*
Y880360D01*
X1106426Y882899D01*
X1111505D01*
X1114044Y880360D01*
Y870203D01*
X1111505Y867664D01*
X1106426D01*
X1108966Y872742D02*
X1103887Y867664D01*
X1106426D02*
X1103887Y870203D01*
X1088652Y882899D02*
X1098809D01*
Y875282D01*
X1093731Y877821D01*
X1091191D01*
X1088652Y875282D01*
Y870203D01*
X1091191Y867664D01*
X1096270D01*
X1098809Y870203D01*
X350777Y531621D02*
Y541778D01*
X353316Y544317D01*
X358395D01*
X360934Y541778D01*
Y531621D01*
X358395Y529082D01*
X353316D01*
X355856Y534160D02*
X350777Y529082D01*
X353316D02*
X350777Y531621D01*
X338081Y529082D02*
Y544317D01*
X345699Y536699D01*
X335542D01*
X687073Y892812D02*
Y902968D01*
X689613Y905508D01*
X694691D01*
X697230Y902968D01*
Y892812D01*
X694691Y890273D01*
X689613D01*
X692152Y895351D02*
X687073Y890273D01*
X689613D02*
X687073Y892812D01*
X681995Y902968D02*
X679456Y905508D01*
X674377D01*
X671838Y902968D01*
Y900429D01*
X674377Y897890D01*
X676917D01*
X674377D01*
X671838Y895351D01*
Y892812D01*
X674377Y890273D01*
X679456D01*
X681995Y892812D01*
X1766573D02*
Y902968D01*
X1769113Y905508D01*
X1774191D01*
X1776730Y902968D01*
Y892812D01*
X1774191Y890273D01*
X1769113D01*
X1771652Y895351D02*
X1766573Y890273D01*
X1769113D02*
X1766573Y892812D01*
X1751338Y890273D02*
X1761495D01*
X1751338Y900429D01*
Y902968D01*
X1753877Y905508D01*
X1758956D01*
X1761495Y902968D01*
X332997Y862583D02*
Y872740D01*
X335536Y875279D01*
X340615D01*
X343154Y872740D01*
Y862583D01*
X340615Y860044D01*
X335536D01*
X338076Y865122D02*
X332997Y860044D01*
X335536D02*
X332997Y862583D01*
X327919Y860044D02*
X322841D01*
X325380D01*
Y875279D01*
X327919Y872740D01*
X816603Y217167D02*
Y201933D01*
X808986D01*
X806447Y204472D01*
Y207011D01*
X808986Y209550D01*
X816603D01*
X808986D01*
X806447Y212089D01*
Y214628D01*
X808986Y217167D01*
X816603D01*
X801368Y214628D02*
X798829Y217167D01*
X793751D01*
X791212Y214628D01*
Y212089D01*
X793751Y209550D01*
X796290D01*
X793751D01*
X791212Y207011D01*
Y204472D01*
X793751Y201933D01*
X798829D01*
X801368Y204472D01*
X775977Y217167D02*
X781055Y214628D01*
X786133Y209550D01*
Y204472D01*
X783594Y201933D01*
X778516D01*
X775977Y204472D01*
Y207011D01*
X778516Y209550D01*
X786133D01*
X1532636Y1114039D02*
Y1098804D01*
X1525018D01*
X1522479Y1101343D01*
Y1103882D01*
X1525018Y1106422D01*
X1532636D01*
X1525018D01*
X1522479Y1108961D01*
Y1111500D01*
X1525018Y1114039D01*
X1532636D01*
X1517401Y1111500D02*
X1514862Y1114039D01*
X1509783D01*
X1507244Y1111500D01*
Y1108961D01*
X1509783Y1106422D01*
X1512323D01*
X1509783D01*
X1507244Y1103882D01*
Y1101343D01*
X1509783Y1098804D01*
X1514862D01*
X1517401Y1101343D01*
X1492009Y1114039D02*
X1502166D01*
Y1106422D01*
X1497088Y1108961D01*
X1494548D01*
X1492009Y1106422D01*
Y1101343D01*
X1494548Y1098804D01*
X1499627D01*
X1502166Y1101343D01*
X1416043Y1113788D02*
Y1098552D01*
X1408426D01*
X1405887Y1101092D01*
Y1103631D01*
X1408426Y1106170D01*
X1416043D01*
X1408426D01*
X1405887Y1108709D01*
Y1111248D01*
X1408426Y1113788D01*
X1416043D01*
X1400808Y1111248D02*
X1398269Y1113788D01*
X1393191D01*
X1390652Y1111248D01*
Y1108709D01*
X1393191Y1106170D01*
X1395730D01*
X1393191D01*
X1390652Y1103631D01*
Y1101092D01*
X1393191Y1098552D01*
X1398269D01*
X1400808Y1101092D01*
X1377956Y1098552D02*
Y1113788D01*
X1385573Y1106170D01*
X1375417D01*
X1314443Y1113788D02*
Y1098552D01*
X1306826D01*
X1304287Y1101092D01*
Y1103631D01*
X1306826Y1106170D01*
X1314443D01*
X1306826D01*
X1304287Y1108709D01*
Y1111248D01*
X1306826Y1113788D01*
X1314443D01*
X1299208Y1111248D02*
X1296669Y1113788D01*
X1291591D01*
X1289052Y1111248D01*
Y1108709D01*
X1291591Y1106170D01*
X1294130D01*
X1291591D01*
X1289052Y1103631D01*
Y1101092D01*
X1291591Y1098552D01*
X1296669D01*
X1299208Y1101092D01*
X1283973Y1111248D02*
X1281434Y1113788D01*
X1276356D01*
X1273817Y1111248D01*
Y1108709D01*
X1276356Y1106170D01*
X1278895D01*
X1276356D01*
X1273817Y1103631D01*
Y1101092D01*
X1276356Y1098552D01*
X1281434D01*
X1283973Y1101092D01*
X1510037Y287983D02*
Y303218D01*
X1517654D01*
X1520193Y300678D01*
Y298139D01*
X1517654Y295600D01*
X1510037D01*
X1517654D01*
X1520193Y293061D01*
Y290522D01*
X1517654Y287983D01*
X1510037D01*
X1525272Y290522D02*
X1527811Y287983D01*
X1532889D01*
X1535428Y290522D01*
Y293061D01*
X1532889Y295600D01*
X1530350D01*
X1532889D01*
X1535428Y298139D01*
Y300678D01*
X1532889Y303218D01*
X1527811D01*
X1525272Y300678D01*
X1550663Y303218D02*
X1540507D01*
X1550663Y293061D01*
Y290522D01*
X1548124Y287983D01*
X1543046D01*
X1540507Y290522D01*
X1074414Y1112517D02*
Y1097282D01*
X1066797D01*
X1064258Y1099822D01*
Y1102361D01*
X1066797Y1104900D01*
X1074414D01*
X1066797D01*
X1064258Y1107439D01*
Y1109978D01*
X1066797Y1112517D01*
X1074414D01*
X1059179Y1109978D02*
X1056640Y1112517D01*
X1051562D01*
X1049022Y1109978D01*
Y1107439D01*
X1051562Y1104900D01*
X1054101D01*
X1051562D01*
X1049022Y1102361D01*
Y1099822D01*
X1051562Y1097282D01*
X1056640D01*
X1059179Y1099822D01*
X1043944Y1097282D02*
X1038866D01*
X1041405D01*
Y1112517D01*
X1043944Y1109978D01*
X1208024Y422849D02*
Y407614D01*
X1200406D01*
X1197867Y410153D01*
Y412692D01*
X1200406Y415232D01*
X1208024D01*
X1200406D01*
X1197867Y417771D01*
Y420310D01*
X1200406Y422849D01*
X1208024D01*
X1182632Y407614D02*
X1192789D01*
X1182632Y417771D01*
Y420310D01*
X1185171Y422849D01*
X1190250D01*
X1192789Y420310D01*
X1167397Y407614D02*
X1177554D01*
X1167397Y417771D01*
Y420310D01*
X1169936Y422849D01*
X1175015D01*
X1177554Y420310D01*
X981456Y1114039D02*
Y1098804D01*
X973839D01*
X971299Y1101343D01*
Y1103882D01*
X973839Y1106422D01*
X981456D01*
X973839D01*
X971299Y1108961D01*
Y1111500D01*
X973839Y1114039D01*
X981456D01*
X956064Y1098804D02*
X966221D01*
X956064Y1108961D01*
Y1111500D01*
X958603Y1114039D01*
X963682D01*
X966221Y1111500D01*
X950986Y1098804D02*
X945908D01*
X948447D01*
Y1114039D01*
X950986Y1111500D01*
X1092193Y326393D02*
Y341628D01*
X1084576D01*
X1082037Y339088D01*
Y334010D01*
X1084576Y331471D01*
X1092193D01*
X1087115D02*
X1082037Y326393D01*
X1076958Y339088D02*
X1074419Y341628D01*
X1069341D01*
X1066802Y339088D01*
Y336549D01*
X1069341Y334010D01*
X1066802Y331471D01*
Y328932D01*
X1069341Y326393D01*
X1074419D01*
X1076958Y328932D01*
Y331471D01*
X1074419Y334010D01*
X1076958Y336549D01*
Y339088D01*
X1074419Y334010D02*
X1069341D01*
X1061723Y339088D02*
X1059184Y341628D01*
X1054106D01*
X1051567Y339088D01*
Y336549D01*
X1054106Y334010D01*
X1051567Y331471D01*
Y328932D01*
X1054106Y326393D01*
X1059184D01*
X1061723Y328932D01*
Y331471D01*
X1059184Y334010D01*
X1061723Y336549D01*
Y339088D01*
X1059184Y334010D02*
X1054106D01*
X1045208Y542283D02*
X1029973D01*
Y534666D01*
X1032512Y532127D01*
X1037590D01*
X1040129Y534666D01*
Y542283D01*
Y537205D02*
X1045208Y532127D01*
X1032512Y527048D02*
X1029973Y524509D01*
Y519431D01*
X1032512Y516892D01*
X1035051D01*
X1037590Y519431D01*
X1040129Y516892D01*
X1042668D01*
X1045208Y519431D01*
Y524509D01*
X1042668Y527048D01*
X1040129D01*
X1037590Y524509D01*
X1035051Y527048D01*
X1032512D01*
X1037590Y524509D02*
Y519431D01*
X1029973Y511813D02*
Y501657D01*
X1032512D01*
X1042668Y511813D01*
X1045208D01*
X1694173Y298452D02*
Y313687D01*
X1686556D01*
X1684017Y311148D01*
Y306070D01*
X1686556Y303531D01*
X1694173D01*
X1689095D02*
X1684017Y298452D01*
X1678938Y311148D02*
X1676399Y313687D01*
X1671321D01*
X1668782Y311148D01*
Y308609D01*
X1671321Y306070D01*
X1668782Y303531D01*
Y300992D01*
X1671321Y298452D01*
X1676399D01*
X1678938Y300992D01*
Y303531D01*
X1676399Y306070D01*
X1678938Y308609D01*
Y311148D01*
X1676399Y306070D02*
X1671321D01*
X1653547Y313687D02*
X1658625Y311148D01*
X1663703Y306070D01*
Y300992D01*
X1661164Y298452D01*
X1656086D01*
X1653547Y300992D01*
Y303531D01*
X1656086Y306070D01*
X1663703D01*
X1739897Y542283D02*
X1724662D01*
Y534666D01*
X1727202Y532127D01*
X1732280D01*
X1734819Y534666D01*
Y542283D01*
Y537205D02*
X1739897Y532127D01*
X1727202Y527048D02*
X1724662Y524509D01*
Y519431D01*
X1727202Y516892D01*
X1729741D01*
X1732280Y519431D01*
X1734819Y516892D01*
X1737358D01*
X1739897Y519431D01*
Y524509D01*
X1737358Y527048D01*
X1734819D01*
X1732280Y524509D01*
X1729741Y527048D01*
X1727202D01*
X1732280Y524509D02*
Y519431D01*
X1724662Y501657D02*
Y511813D01*
X1732280D01*
X1729741Y506735D01*
Y504196D01*
X1732280Y501657D01*
X1737358D01*
X1739897Y504196D01*
Y509274D01*
X1737358Y511813D01*
X988053Y307342D02*
Y322578D01*
X980436D01*
X977897Y320038D01*
Y314960D01*
X980436Y312421D01*
X988053D01*
X982975D02*
X977897Y307342D01*
X972818Y320038D02*
X970279Y322578D01*
X965201D01*
X962662Y320038D01*
Y317499D01*
X965201Y314960D01*
X962662Y312421D01*
Y309882D01*
X965201Y307342D01*
X970279D01*
X972818Y309882D01*
Y312421D01*
X970279Y314960D01*
X972818Y317499D01*
Y320038D01*
X970279Y314960D02*
X965201D01*
X949966Y307342D02*
Y322578D01*
X957583Y314960D01*
X947427D01*
X1617733Y345392D02*
Y360628D01*
X1625350D01*
X1627889Y358088D01*
Y353010D01*
X1625350Y350471D01*
X1617733D01*
X1622811D02*
X1627889Y345392D01*
X1632968Y358088D02*
X1635507Y360628D01*
X1640585D01*
X1643124Y358088D01*
Y355549D01*
X1640585Y353010D01*
X1643124Y350471D01*
Y347932D01*
X1640585Y345392D01*
X1635507D01*
X1632968Y347932D01*
Y350471D01*
X1635507Y353010D01*
X1632968Y355549D01*
Y358088D01*
X1635507Y353010D02*
X1640585D01*
X1648203Y358088D02*
X1650742Y360628D01*
X1655820D01*
X1658359Y358088D01*
Y355549D01*
X1655820Y353010D01*
X1653281D01*
X1655820D01*
X1658359Y350471D01*
Y347932D01*
X1655820Y345392D01*
X1650742D01*
X1648203Y347932D01*
X958843Y491493D02*
Y506727D01*
X951226D01*
X948687Y504188D01*
Y499110D01*
X951226Y496571D01*
X958843D01*
X953765D02*
X948687Y491493D01*
X943608Y504188D02*
X941069Y506727D01*
X935991D01*
X933452Y504188D01*
Y501649D01*
X935991Y499110D01*
X933452Y496571D01*
Y494032D01*
X935991Y491493D01*
X941069D01*
X943608Y494032D01*
Y496571D01*
X941069Y499110D01*
X943608Y501649D01*
Y504188D01*
X941069Y499110D02*
X935991D01*
X918217Y491493D02*
X928373D01*
X918217Y501649D01*
Y504188D01*
X920756Y506727D01*
X925834D01*
X928373Y504188D01*
X904234Y532132D02*
Y547368D01*
X896617D01*
X894078Y544828D01*
Y539750D01*
X896617Y537211D01*
X904234D01*
X899156D02*
X894078Y532132D01*
X888999Y544828D02*
X886460Y547368D01*
X881382D01*
X878842Y544828D01*
Y542289D01*
X881382Y539750D01*
X878842Y537211D01*
Y534672D01*
X881382Y532132D01*
X886460D01*
X888999Y534672D01*
Y537211D01*
X886460Y539750D01*
X888999Y542289D01*
Y544828D01*
X886460Y539750D02*
X881382D01*
X873764Y532132D02*
X868686D01*
X871225D01*
Y547368D01*
X873764Y544828D01*
X1701793Y524512D02*
Y539748D01*
X1694176D01*
X1691637Y537208D01*
Y532130D01*
X1694176Y529591D01*
X1701793D01*
X1696715D02*
X1691637Y524512D01*
X1686558Y537208D02*
X1684019Y539748D01*
X1678941D01*
X1676402Y537208D01*
Y534669D01*
X1678941Y532130D01*
X1676402Y529591D01*
Y527052D01*
X1678941Y524512D01*
X1684019D01*
X1686558Y527052D01*
Y529591D01*
X1684019Y532130D01*
X1686558Y534669D01*
Y537208D01*
X1684019Y532130D02*
X1678941D01*
X1671323Y537208D02*
X1668784Y539748D01*
X1663706D01*
X1661167Y537208D01*
Y527052D01*
X1663706Y524512D01*
X1668784D01*
X1671323Y527052D01*
Y537208D01*
X1596247Y504193D02*
Y519427D01*
X1588630D01*
X1586091Y516888D01*
Y511810D01*
X1588630Y509271D01*
X1596247D01*
X1591169D02*
X1586091Y504193D01*
X1581012Y519427D02*
X1570856D01*
Y516888D01*
X1581012Y506732D01*
Y504193D01*
X1565777Y506732D02*
X1563238Y504193D01*
X1558160D01*
X1555621Y506732D01*
Y516888D01*
X1558160Y519427D01*
X1563238D01*
X1565777Y516888D01*
Y514349D01*
X1563238Y511810D01*
X1555621D01*
X1413508Y350513D02*
X1398273D01*
Y342896D01*
X1400812Y340357D01*
X1405890D01*
X1408429Y342896D01*
Y350513D01*
Y345435D02*
X1413508Y340357D01*
X1398273Y335278D02*
Y325122D01*
X1400812D01*
X1410968Y335278D01*
X1413508D01*
X1400812Y320043D02*
X1398273Y317504D01*
Y312426D01*
X1400812Y309887D01*
X1403351D01*
X1405890Y312426D01*
X1408429Y309887D01*
X1410968D01*
X1413508Y312426D01*
Y317504D01*
X1410968Y320043D01*
X1408429D01*
X1405890Y317504D01*
X1403351Y320043D01*
X1400812D01*
X1405890Y317504D02*
Y312426D01*
X1450337Y491491D02*
Y499109D01*
X1446528D01*
X1445258Y497839D01*
Y495300D01*
X1446528Y494030D01*
X1450337D01*
X1447798D02*
X1445258Y491491D01*
X1442719Y499109D02*
X1437641D01*
Y497839D01*
X1442719Y492761D01*
Y491491D01*
X1435102Y499109D02*
X1430023D01*
Y497839D01*
X1435102Y492761D01*
Y491491D01*
X652533Y303533D02*
Y318768D01*
X660150D01*
X662689Y316228D01*
Y311150D01*
X660150Y308611D01*
X652533D01*
X657611D02*
X662689Y303533D01*
X667768Y318768D02*
X677924D01*
Y316228D01*
X667768Y306072D01*
Y303533D01*
X693159Y318768D02*
X688081Y316228D01*
X683003Y311150D01*
Y306072D01*
X685542Y303533D01*
X690620D01*
X693159Y306072D01*
Y308611D01*
X690620Y311150D01*
X683003D01*
X666747Y499111D02*
Y506729D01*
X662938D01*
X661668Y505459D01*
Y502920D01*
X662938Y501650D01*
X666747D01*
X664208D02*
X661668Y499111D01*
X659129Y506729D02*
X654051D01*
Y505459D01*
X659129Y500381D01*
Y499111D01*
X646433Y506729D02*
X651512D01*
Y502920D01*
X648972Y504190D01*
X647703D01*
X646433Y502920D01*
Y500381D01*
X647703Y499111D01*
X650242D01*
X651512Y500381D01*
X1324603Y340363D02*
Y355597D01*
X1316986D01*
X1314447Y353058D01*
Y347980D01*
X1316986Y345441D01*
X1324603D01*
X1319525D02*
X1314447Y340363D01*
X1309368Y355597D02*
X1299212D01*
Y353058D01*
X1309368Y342902D01*
Y340363D01*
X1286516D02*
Y355597D01*
X1294133Y347980D01*
X1283977D01*
X551652Y333241D02*
Y348476D01*
X559270D01*
X561809Y345937D01*
Y340858D01*
X559270Y338319D01*
X551652D01*
X556731D02*
X561809Y333241D01*
X566888Y348476D02*
X577044D01*
Y345937D01*
X566888Y335780D01*
Y333241D01*
X582123Y345937D02*
X584662Y348476D01*
X589740D01*
X592279Y345937D01*
Y343397D01*
X589740Y340858D01*
X587201D01*
X589740D01*
X592279Y338319D01*
Y335780D01*
X589740Y333241D01*
X584662D01*
X582123Y335780D01*
X1282703Y468629D02*
Y461011D01*
X1286512D01*
X1287782Y462281D01*
Y464820D01*
X1286512Y466090D01*
X1282703D01*
X1285242D02*
X1287782Y468629D01*
X1290321Y461011D02*
X1295399D01*
Y462281D01*
X1290321Y467359D01*
Y468629D01*
X1303017D02*
X1297938D01*
X1303017Y463550D01*
Y462281D01*
X1301747Y461011D01*
X1299208D01*
X1297938Y462281D01*
X1252474Y494030D02*
Y509265D01*
X1244856D01*
X1242317Y506726D01*
Y501647D01*
X1244856Y499108D01*
X1252474D01*
X1247396D02*
X1242317Y494030D01*
X1237239Y509265D02*
X1227082D01*
Y506726D01*
X1237239Y496569D01*
Y494030D01*
X1222004D02*
X1216926D01*
X1219465D01*
Y509265D01*
X1222004Y506726D01*
X629913Y495252D02*
Y510488D01*
X622296D01*
X619757Y507948D01*
Y502870D01*
X622296Y500331D01*
X629913D01*
X624835D02*
X619757Y495252D01*
X614678Y510488D02*
X604522D01*
Y507948D01*
X614678Y497792D01*
Y495252D01*
X599443Y507948D02*
X596904Y510488D01*
X591826D01*
X589287Y507948D01*
Y497792D01*
X591826Y495252D01*
X596904D01*
X599443Y497792D01*
Y507948D01*
X531114Y487680D02*
Y502915D01*
X523497D01*
X520957Y500376D01*
Y495298D01*
X523497Y492758D01*
X531114D01*
X526036D02*
X520957Y487680D01*
X505722Y502915D02*
X510801Y500376D01*
X515879Y495298D01*
Y490219D01*
X513340Y487680D01*
X508261D01*
X505722Y490219D01*
Y492758D01*
X508261Y495298D01*
X515879D01*
X500644Y490219D02*
X498105Y487680D01*
X493026D01*
X490487Y490219D01*
Y500376D01*
X493026Y502915D01*
X498105D01*
X500644Y500376D01*
Y497837D01*
X498105Y495298D01*
X490487D01*
X331463Y332743D02*
Y347977D01*
X323846D01*
X321307Y345438D01*
Y340360D01*
X323846Y337821D01*
X331463D01*
X326385D02*
X321307Y332743D01*
X306072Y347977D02*
X311150Y345438D01*
X316228Y340360D01*
Y335282D01*
X313689Y332743D01*
X308611D01*
X306072Y335282D01*
Y337821D01*
X308611Y340360D01*
X316228D01*
X300993Y345438D02*
X298454Y347977D01*
X293376D01*
X290837Y345438D01*
Y342899D01*
X293376Y340360D01*
X290837Y337821D01*
Y335282D01*
X293376Y332743D01*
X298454D01*
X300993Y335282D01*
Y337821D01*
X298454Y340360D01*
X300993Y342899D01*
Y345438D01*
X298454Y340360D02*
X293376D01*
X295903Y485143D02*
Y500378D01*
X288286D01*
X285747Y497838D01*
Y492760D01*
X288286Y490221D01*
X295903D01*
X290825D02*
X285747Y485143D01*
X270512Y500378D02*
X275590Y497838D01*
X280668Y492760D01*
Y487682D01*
X278129Y485143D01*
X273051D01*
X270512Y487682D01*
Y490221D01*
X273051Y492760D01*
X280668D01*
X265433Y500378D02*
X255277D01*
Y497838D01*
X265433Y487682D01*
Y485143D01*
X214623Y314963D02*
Y330197D01*
X207006D01*
X204467Y327658D01*
Y322580D01*
X207006Y320041D01*
X214623D01*
X209545D02*
X204467Y314963D01*
X189232Y330197D02*
X194310Y327658D01*
X199388Y322580D01*
Y317502D01*
X196849Y314963D01*
X191771D01*
X189232Y317502D01*
Y320041D01*
X191771Y322580D01*
X199388D01*
X173997Y330197D02*
X179075Y327658D01*
X184153Y322580D01*
Y317502D01*
X181614Y314963D01*
X176536D01*
X173997Y317502D01*
Y320041D01*
X176536Y322580D01*
X184153D01*
X246373Y483872D02*
Y499108D01*
X238756D01*
X236217Y496568D01*
Y491490D01*
X238756Y488951D01*
X246373D01*
X241295D02*
X236217Y483872D01*
X220982Y499108D02*
X226060Y496568D01*
X231138Y491490D01*
Y486412D01*
X228599Y483872D01*
X223521D01*
X220982Y486412D01*
Y488951D01*
X223521Y491490D01*
X231138D01*
X205747Y499108D02*
X215903D01*
Y491490D01*
X210825Y494029D01*
X208286D01*
X205747Y491490D01*
Y486412D01*
X208286Y483872D01*
X213364D01*
X215903Y486412D01*
X151130Y486410D02*
Y501645D01*
X143512D01*
X140973Y499106D01*
Y494027D01*
X143512Y491488D01*
X151130D01*
X146052D02*
X140973Y486410D01*
X125738Y501645D02*
X130817Y499106D01*
X135895Y494027D01*
Y488949D01*
X133356Y486410D01*
X128277D01*
X125738Y488949D01*
Y491488D01*
X128277Y494027D01*
X135895D01*
X113042Y486410D02*
Y501645D01*
X120660Y494027D01*
X110503D01*
X1711957Y662941D02*
Y670559D01*
X1708148D01*
X1706878Y669289D01*
Y666750D01*
X1708148Y665480D01*
X1711957D01*
X1709418D02*
X1706878Y662941D01*
X1699261Y670559D02*
X1701800Y669289D01*
X1704339Y666750D01*
Y664211D01*
X1703070Y662941D01*
X1700530D01*
X1699261Y664211D01*
Y665480D01*
X1700530Y666750D01*
X1704339D01*
X1696722Y669289D02*
X1695452Y670559D01*
X1692913D01*
X1691643Y669289D01*
Y668020D01*
X1692913Y666750D01*
X1694182D01*
X1692913D01*
X1691643Y665480D01*
Y664211D01*
X1692913Y662941D01*
X1695452D01*
X1696722Y664211D01*
X1633217Y679451D02*
Y687069D01*
X1629408D01*
X1628139Y685799D01*
Y683260D01*
X1629408Y681990D01*
X1633217D01*
X1630678D02*
X1628139Y679451D01*
X1620521Y687069D02*
X1623060Y685799D01*
X1625600Y683260D01*
Y680721D01*
X1624330Y679451D01*
X1621791D01*
X1620521Y680721D01*
Y681990D01*
X1621791Y683260D01*
X1625600D01*
X1617982Y679451D02*
X1615443D01*
X1616712D01*
Y687069D01*
X1617982Y685799D01*
X1664973Y831851D02*
Y839469D01*
X1668782D01*
X1670052Y838199D01*
Y835660D01*
X1668782Y834390D01*
X1664973D01*
X1667513D02*
X1670052Y831851D01*
X1677669Y839469D02*
X1675130Y838199D01*
X1672591Y835660D01*
Y833121D01*
X1673860Y831851D01*
X1676400D01*
X1677669Y833121D01*
Y834390D01*
X1676400Y835660D01*
X1672591D01*
X1680208Y838199D02*
X1681478Y839469D01*
X1684017D01*
X1685287Y838199D01*
Y833121D01*
X1684017Y831851D01*
X1681478D01*
X1680208Y833121D01*
Y838199D01*
X1590294Y833120D02*
Y848355D01*
X1582677D01*
X1580137Y845816D01*
Y840738D01*
X1582677Y838198D01*
X1590294D01*
X1585216D02*
X1580137Y833120D01*
X1564902Y848355D02*
X1575059D01*
Y840738D01*
X1569981Y843277D01*
X1567441D01*
X1564902Y840738D01*
Y835659D01*
X1567441Y833120D01*
X1572520D01*
X1575059Y835659D01*
X1559824D02*
X1557285Y833120D01*
X1552206D01*
X1549667Y835659D01*
Y845816D01*
X1552206Y848355D01*
X1557285D01*
X1559824Y845816D01*
Y843277D01*
X1557285Y840738D01*
X1549667D01*
X1446269Y671833D02*
Y687067D01*
X1438652D01*
X1436113Y684528D01*
Y679450D01*
X1438652Y676911D01*
X1446269D01*
X1441191D02*
X1436113Y671833D01*
X1420878Y687067D02*
X1431034D01*
Y679450D01*
X1425956Y681989D01*
X1423417D01*
X1420878Y679450D01*
Y674372D01*
X1423417Y671833D01*
X1428495D01*
X1431034Y674372D01*
X1415799Y684528D02*
X1413260Y687067D01*
X1408182D01*
X1405643Y684528D01*
Y681989D01*
X1408182Y679450D01*
X1405643Y676911D01*
Y674372D01*
X1408182Y671833D01*
X1413260D01*
X1415799Y674372D01*
Y676911D01*
X1413260Y679450D01*
X1415799Y681989D01*
Y684528D01*
X1413260Y679450D02*
X1408182D01*
X1398263Y848363D02*
Y863597D01*
X1390646D01*
X1388107Y861058D01*
Y855980D01*
X1390646Y853441D01*
X1398263D01*
X1393185D02*
X1388107Y848363D01*
X1372872Y863597D02*
X1383028D01*
Y855980D01*
X1377950Y858519D01*
X1375411D01*
X1372872Y855980D01*
Y850902D01*
X1375411Y848363D01*
X1380489D01*
X1383028Y850902D01*
X1367793Y863597D02*
X1357637D01*
Y861058D01*
X1367793Y850902D01*
Y848363D01*
X1334763Y670563D02*
Y685798D01*
X1327146D01*
X1324607Y683258D01*
Y678180D01*
X1327146Y675641D01*
X1334763D01*
X1329685D02*
X1324607Y670563D01*
X1309372Y685798D02*
X1319528D01*
Y678180D01*
X1314450Y680719D01*
X1311911D01*
X1309372Y678180D01*
Y673102D01*
X1311911Y670563D01*
X1316989D01*
X1319528Y673102D01*
X1294137Y685798D02*
X1299215Y683258D01*
X1304293Y678180D01*
Y673102D01*
X1301754Y670563D01*
X1296676D01*
X1294137Y673102D01*
Y675641D01*
X1296676Y678180D01*
X1304293D01*
X1298953Y802246D02*
Y809864D01*
X1295144D01*
X1293874Y808594D01*
Y806055D01*
X1295144Y804785D01*
X1298953D01*
X1296414D02*
X1293874Y802246D01*
X1286257Y809864D02*
X1291335D01*
Y806055D01*
X1288796Y807324D01*
X1287526D01*
X1286257Y806055D01*
Y803516D01*
X1287526Y802246D01*
X1290066D01*
X1291335Y803516D01*
X1278639Y809864D02*
X1283718D01*
Y806055D01*
X1281178Y807324D01*
X1279909D01*
X1278639Y806055D01*
Y803516D01*
X1279909Y802246D01*
X1282448D01*
X1283718Y803516D01*
X1253490Y833120D02*
Y848355D01*
X1245872D01*
X1243333Y845816D01*
Y840738D01*
X1245872Y838198D01*
X1253490D01*
X1248412D02*
X1243333Y833120D01*
X1228098Y848355D02*
X1238255D01*
Y840738D01*
X1233177Y843277D01*
X1230637D01*
X1228098Y840738D01*
Y835659D01*
X1230637Y833120D01*
X1235716D01*
X1238255Y835659D01*
X1215402Y833120D02*
Y848355D01*
X1223020Y840738D01*
X1212863D01*
X1085589Y657862D02*
Y673098D01*
X1077972D01*
X1075433Y670558D01*
Y665480D01*
X1077972Y662941D01*
X1085589D01*
X1080511D02*
X1075433Y657862D01*
X1060198Y673098D02*
X1070354D01*
Y665480D01*
X1065276Y668019D01*
X1062737D01*
X1060198Y665480D01*
Y660402D01*
X1062737Y657862D01*
X1067815D01*
X1070354Y660402D01*
X1055119Y670558D02*
X1052580Y673098D01*
X1047502D01*
X1044963Y670558D01*
Y668019D01*
X1047502Y665480D01*
X1050041D01*
X1047502D01*
X1044963Y662941D01*
Y660402D01*
X1047502Y657862D01*
X1052580D01*
X1055119Y660402D01*
X1060189Y834972D02*
Y850208D01*
X1052572D01*
X1050033Y847668D01*
Y842590D01*
X1052572Y840051D01*
X1060189D01*
X1055111D02*
X1050033Y834972D01*
X1034798Y850208D02*
X1044954D01*
Y842590D01*
X1039876Y845129D01*
X1037337D01*
X1034798Y842590D01*
Y837512D01*
X1037337Y834972D01*
X1042415D01*
X1044954Y837512D01*
X1019563Y834972D02*
X1029719D01*
X1019563Y845129D01*
Y847668D01*
X1022102Y850208D01*
X1027180D01*
X1029719Y847668D01*
X994407Y647701D02*
Y655319D01*
X990598D01*
X989329Y654049D01*
Y651510D01*
X990598Y650240D01*
X994407D01*
X991868D02*
X989329Y647701D01*
X981711Y655319D02*
X986790D01*
Y651510D01*
X984250Y652780D01*
X982981D01*
X981711Y651510D01*
Y648971D01*
X982981Y647701D01*
X985520D01*
X986790Y648971D01*
X979172Y647701D02*
X976633D01*
X977903D01*
Y655319D01*
X979172Y654049D01*
X1012643Y842592D02*
Y857828D01*
X1005025D01*
X1002486Y855288D01*
Y850210D01*
X1005025Y847671D01*
X1012643D01*
X1007564D02*
X1002486Y842592D01*
X987251Y857828D02*
X997408D01*
Y850210D01*
X992329Y852749D01*
X989790D01*
X987251Y850210D01*
Y845132D01*
X989790Y842592D01*
X994868D01*
X997408Y845132D01*
X982173Y855288D02*
X979633Y857828D01*
X974555D01*
X972016Y855288D01*
Y845132D01*
X974555Y842592D01*
X979633D01*
X982173Y845132D01*
Y855288D01*
X897883Y835663D02*
Y850898D01*
X890266D01*
X887727Y848358D01*
Y843280D01*
X890266Y840741D01*
X897883D01*
X892805D02*
X887727Y835663D01*
X875031D02*
Y850898D01*
X882648Y843280D01*
X872492D01*
X867413Y838202D02*
X864874Y835663D01*
X859796D01*
X857257Y838202D01*
Y848358D01*
X859796Y850898D01*
X864874D01*
X867413Y848358D01*
Y845819D01*
X864874Y843280D01*
X857257D01*
X711193Y660403D02*
Y675638D01*
X703576D01*
X701037Y673098D01*
Y668020D01*
X703576Y665481D01*
X711193D01*
X706115D02*
X701037Y660403D01*
X688341D02*
Y675638D01*
X695958Y668020D01*
X685802D01*
X680723Y673098D02*
X678184Y675638D01*
X673106D01*
X670567Y673098D01*
Y670559D01*
X673106Y668020D01*
X670567Y665481D01*
Y662942D01*
X673106Y660403D01*
X678184D01*
X680723Y662942D01*
Y665481D01*
X678184Y668020D01*
X680723Y670559D01*
Y673098D01*
X678184Y668020D02*
X673106D01*
X652773Y855983D02*
Y871217D01*
X645156D01*
X642617Y868678D01*
Y863600D01*
X645156Y861061D01*
X652773D01*
X647695D02*
X642617Y855983D01*
X629921D02*
Y871217D01*
X637538Y863600D01*
X627382D01*
X622303Y871217D02*
X612147D01*
Y868678D01*
X622303Y858522D01*
Y855983D01*
X588003Y666752D02*
Y681988D01*
X580386D01*
X577847Y679448D01*
Y674370D01*
X580386Y671831D01*
X588003D01*
X582925D02*
X577847Y666752D01*
X565151D02*
Y681988D01*
X572768Y674370D01*
X562612D01*
X547377Y681988D02*
X552455Y679448D01*
X557533Y674370D01*
Y669292D01*
X554994Y666752D01*
X549916D01*
X547377Y669292D01*
Y671831D01*
X549916Y674370D01*
X557533D01*
X624543Y888836D02*
Y904071D01*
X616926D01*
X614387Y901531D01*
Y896453D01*
X616926Y893914D01*
X624543D01*
X619465D02*
X614387Y888836D01*
X601691D02*
Y904071D01*
X609308Y896453D01*
X599152D01*
X583917Y904071D02*
X594073D01*
Y896453D01*
X588995Y898992D01*
X586456D01*
X583917Y896453D01*
Y891375D01*
X586456Y888836D01*
X591534D01*
X594073Y891375D01*
X524503Y836933D02*
Y852168D01*
X516886D01*
X514347Y849628D01*
Y844550D01*
X516886Y842011D01*
X524503D01*
X519425D02*
X514347Y836933D01*
X501651D02*
Y852168D01*
X509268Y844550D01*
X499112D01*
X486416Y836933D02*
Y852168D01*
X494033Y844550D01*
X483877D01*
X313687Y652781D02*
Y660399D01*
X309878D01*
X308608Y659129D01*
Y656590D01*
X309878Y655320D01*
X313687D01*
X311147D02*
X308608Y652781D01*
X302260D02*
Y660399D01*
X306069Y656590D01*
X300991D01*
X298452Y659129D02*
X297182Y660399D01*
X294643D01*
X293373Y659129D01*
Y657860D01*
X294643Y656590D01*
X295912D01*
X294643D01*
X293373Y655320D01*
Y654051D01*
X294643Y652781D01*
X297182D01*
X298452Y654051D01*
X283207Y829311D02*
Y836929D01*
X279398D01*
X278128Y835659D01*
Y833120D01*
X279398Y831850D01*
X283207D01*
X280667D02*
X278128Y829311D01*
X271780D02*
Y836929D01*
X275589Y833120D01*
X270511D01*
X262893Y829311D02*
X267972D01*
X262893Y834390D01*
Y835659D01*
X264163Y836929D01*
X266702D01*
X267972Y835659D01*
X201454Y648787D02*
Y656404D01*
X197646D01*
X196376Y655135D01*
Y652596D01*
X197646Y651326D01*
X201454D01*
X198915D02*
X196376Y648787D01*
X190028D02*
Y656404D01*
X193837Y652596D01*
X188759D01*
X186219Y648787D02*
X183680D01*
X184950D01*
Y656404D01*
X186219Y655135D01*
X156213Y796289D02*
Y788671D01*
X160022D01*
X161292Y789941D01*
Y792480D01*
X160022Y793750D01*
X156213D01*
X158752D02*
X161292Y796289D01*
X167640D02*
Y788671D01*
X163831Y792480D01*
X168909D01*
X171448Y789941D02*
X172718Y788671D01*
X175257D01*
X176527Y789941D01*
Y795019D01*
X175257Y796289D01*
X172718D01*
X171448Y795019D01*
Y789941D01*
X147263Y842012D02*
Y857247D01*
X139646D01*
X137107Y854708D01*
Y849630D01*
X139646Y847091D01*
X147263D01*
X142185D02*
X137107Y842012D01*
X132028Y854708D02*
X129489Y857247D01*
X124411D01*
X121872Y854708D01*
Y852169D01*
X124411Y849630D01*
X126950D01*
X124411D01*
X121872Y847091D01*
Y844552D01*
X124411Y842012D01*
X129489D01*
X132028Y844552D01*
X116793D02*
X114254Y842012D01*
X109176D01*
X106637Y844552D01*
Y854708D01*
X109176Y857247D01*
X114254D01*
X116793Y854708D01*
Y852169D01*
X114254Y849630D01*
X106637D01*
X1005837Y504188D02*
X1008376Y506727D01*
X1013454D01*
X1015993Y504188D01*
Y494032D01*
X1013454Y491493D01*
X1008376D01*
X1005837Y494032D01*
X990602Y491493D02*
X1000758D01*
X990602Y501649D01*
Y504188D01*
X993141Y506727D01*
X998219D01*
X1000758Y504188D01*
X985523Y506727D02*
X975367D01*
Y504188D01*
X985523Y494032D01*
Y491493D01*
X1705613Y503170D02*
X1708152Y505709D01*
X1713231D01*
X1715770Y503170D01*
Y493013D01*
X1713231Y490474D01*
X1708152D01*
X1705613Y493013D01*
X1690378Y490474D02*
X1700535D01*
X1690378Y500631D01*
Y503170D01*
X1692917Y505709D01*
X1697996D01*
X1700535Y503170D01*
X1675143Y505709D02*
X1680222Y503170D01*
X1685300Y498092D01*
Y493013D01*
X1682761Y490474D01*
X1677682D01*
X1675143Y493013D01*
Y495552D01*
X1677682Y498092D01*
X1685300D01*
X942343Y523242D02*
X939804Y520702D01*
X934726D01*
X932187Y523242D01*
Y533398D01*
X934726Y535938D01*
X939804D01*
X942343Y533398D01*
X957578Y535938D02*
X947422D01*
X957578Y525781D01*
Y523242D01*
X955039Y520702D01*
X949961D01*
X947422Y523242D01*
X970274Y535938D02*
Y520702D01*
X962657Y528320D01*
X972813D01*
X1643377Y497838D02*
X1645916Y500378D01*
X1650994D01*
X1653533Y497838D01*
Y487682D01*
X1650994Y485143D01*
X1645916D01*
X1643377Y487682D01*
X1628142Y485143D02*
X1638298D01*
X1628142Y495299D01*
Y497838D01*
X1630681Y500378D01*
X1635759D01*
X1638298Y497838D01*
X1623063D02*
X1620524Y500378D01*
X1615446D01*
X1612907Y497838D01*
Y495299D01*
X1615446Y492760D01*
X1617985D01*
X1615446D01*
X1612907Y490221D01*
Y487682D01*
X1615446Y485143D01*
X1620524D01*
X1623063Y487682D01*
X1365803Y551758D02*
X1368343Y554297D01*
X1373421D01*
X1375960Y551758D01*
Y541602D01*
X1373421Y539062D01*
X1368343D01*
X1365803Y541602D01*
X1350568Y539062D02*
X1360725D01*
X1350568Y549219D01*
Y551758D01*
X1353107Y554297D01*
X1358186D01*
X1360725Y551758D01*
X1335333Y539062D02*
X1345490D01*
X1335333Y549219D01*
Y551758D01*
X1337872Y554297D01*
X1342951D01*
X1345490Y551758D01*
X637537Y543558D02*
X640077Y546097D01*
X645155D01*
X647694Y543558D01*
Y533402D01*
X645155Y530863D01*
X640077D01*
X637537Y533402D01*
X622302Y530863D02*
X632459D01*
X622302Y541019D01*
Y543558D01*
X624842Y546097D01*
X629920D01*
X632459Y543558D01*
X617224Y530863D02*
X612146D01*
X614685D01*
Y546097D01*
X617224Y543558D01*
X1311907Y498088D02*
X1314446Y500628D01*
X1319524D01*
X1322063Y498088D01*
Y487932D01*
X1319524Y485392D01*
X1314446D01*
X1311907Y487932D01*
X1296672Y485392D02*
X1306828D01*
X1296672Y495549D01*
Y498088D01*
X1299211Y500628D01*
X1304289D01*
X1306828Y498088D01*
X1291593D02*
X1289054Y500628D01*
X1283976D01*
X1281436Y498088D01*
Y487932D01*
X1283976Y485392D01*
X1289054D01*
X1291593Y487932D01*
Y498088D01*
X566417Y473708D02*
X568956Y476247D01*
X574035D01*
X576574Y473708D01*
Y463552D01*
X574035Y461012D01*
X568956D01*
X566417Y463552D01*
X561339Y461012D02*
X556260D01*
X558800D01*
Y476247D01*
X561339Y473708D01*
X548643Y463552D02*
X546104Y461012D01*
X541025D01*
X538486Y463552D01*
Y473708D01*
X541025Y476247D01*
X546104D01*
X548643Y473708D01*
Y471169D01*
X546104Y468630D01*
X538486D01*
X247647Y533398D02*
X250186Y535938D01*
X255265D01*
X257804Y533398D01*
Y523242D01*
X255265Y520703D01*
X250186D01*
X247647Y523242D01*
X242569Y520703D02*
X237490D01*
X240030D01*
Y535938D01*
X242569Y533398D01*
X229873D02*
X227334Y535938D01*
X222255D01*
X219716Y533398D01*
Y530859D01*
X222255Y528320D01*
X219716Y525781D01*
Y523242D01*
X222255Y520703D01*
X227334D01*
X229873Y523242D01*
Y525781D01*
X227334Y528320D01*
X229873Y530859D01*
Y533398D01*
X227334Y528320D02*
X222255D01*
X184147Y486408D02*
X186686Y488947D01*
X191765D01*
X194304Y486408D01*
Y476252D01*
X191765Y473713D01*
X186686D01*
X184147Y476252D01*
X179069Y473713D02*
X173990D01*
X176530D01*
Y488947D01*
X179069Y486408D01*
X166373Y488947D02*
X156216D01*
Y486408D01*
X166373Y476252D01*
Y473713D01*
X1710054Y836929D02*
X1711323Y838199D01*
X1713862D01*
X1715132Y836929D01*
Y831851D01*
X1713862Y830581D01*
X1711323D01*
X1710054Y831851D01*
X1707514Y830581D02*
X1704975D01*
X1706245D01*
Y838199D01*
X1707514Y836929D01*
X1696088Y838199D02*
X1698627Y836929D01*
X1701166Y834390D01*
Y831851D01*
X1699897Y830581D01*
X1697358D01*
X1696088Y831851D01*
Y833120D01*
X1697358Y834390D01*
X1701166D01*
X1636394Y835659D02*
X1637663Y836929D01*
X1640202D01*
X1641472Y835659D01*
Y830581D01*
X1640202Y829311D01*
X1637663D01*
X1636394Y830581D01*
X1633854Y829311D02*
X1631315D01*
X1632585D01*
Y836929D01*
X1633854Y835659D01*
X1622428Y836929D02*
X1627506D01*
Y833120D01*
X1624967Y834390D01*
X1623698D01*
X1622428Y833120D01*
Y830581D01*
X1623698Y829311D01*
X1626237D01*
X1627506Y830581D01*
X1390647Y838448D02*
X1393186Y840987D01*
X1398265D01*
X1400804Y838448D01*
Y828292D01*
X1398265Y825752D01*
X1393186D01*
X1390647Y828292D01*
X1385569Y825752D02*
X1380490D01*
X1383030D01*
Y840987D01*
X1385569Y838448D01*
X1365255Y825752D02*
Y840987D01*
X1372873Y833370D01*
X1362716D01*
X1326260Y839654D02*
X1327529Y840923D01*
X1330068D01*
X1331338Y839654D01*
Y834576D01*
X1330068Y833306D01*
X1327529D01*
X1326260Y834576D01*
X1323720Y833306D02*
X1321181D01*
X1322451D01*
Y840923D01*
X1323720Y839654D01*
X1317372D02*
X1316103Y840923D01*
X1313564D01*
X1312294Y839654D01*
Y838384D01*
X1313564Y837115D01*
X1314833D01*
X1313564D01*
X1312294Y835845D01*
Y834576D01*
X1313564Y833306D01*
X1316103D01*
X1317372Y834576D01*
X1033779Y748666D02*
X1035049Y747397D01*
Y744858D01*
X1033779Y743588D01*
X1028701D01*
X1027431Y744858D01*
Y747397D01*
X1028701Y748666D01*
X1027431Y751206D02*
Y753745D01*
Y752475D01*
X1035049D01*
X1033779Y751206D01*
X1027431Y762632D02*
Y757554D01*
X1032510Y762632D01*
X1033779D01*
X1035049Y761362D01*
Y758823D01*
X1033779Y757554D01*
X952244Y801308D02*
X954783Y803848D01*
X959862D01*
X962401Y801308D01*
Y791152D01*
X959862Y788612D01*
X954783D01*
X952244Y791152D01*
X947166Y788612D02*
X942087D01*
X944626D01*
Y803848D01*
X947166Y801308D01*
X934470Y788612D02*
X929391D01*
X931930D01*
Y803848D01*
X934470Y801308D01*
X631193Y840736D02*
X633732Y843275D01*
X638811D01*
X641350Y840736D01*
Y830579D01*
X638811Y828040D01*
X633732D01*
X631193Y830579D01*
X626115Y828040D02*
X621037D01*
X623576D01*
Y843275D01*
X626115Y840736D01*
X613419D02*
X610880Y843275D01*
X605802D01*
X603262Y840736D01*
Y830579D01*
X605802Y828040D01*
X610880D01*
X613419Y830579D01*
Y840736D01*
X557529Y836928D02*
X560068Y839467D01*
X565147D01*
X567686Y836928D01*
Y826772D01*
X565147Y824232D01*
X560068D01*
X557529Y826772D01*
X552451D02*
X549912Y824232D01*
X544833D01*
X542294Y826772D01*
Y836928D01*
X544833Y839467D01*
X549912D01*
X552451Y836928D01*
Y834389D01*
X549912Y831850D01*
X542294D01*
X256542Y813052D02*
X257811Y814322D01*
X260350D01*
X261620Y813052D01*
Y807974D01*
X260350Y806704D01*
X257811D01*
X256542Y807974D01*
X254002Y813052D02*
X252733Y814322D01*
X250194D01*
X248924Y813052D01*
Y811782D01*
X250194Y810513D01*
X248924Y809243D01*
Y807974D01*
X250194Y806704D01*
X252733D01*
X254002Y807974D01*
Y809243D01*
X252733Y810513D01*
X254002Y811782D01*
Y813052D01*
X252733Y810513D02*
X250194D01*
X231140Y828039D02*
X232409Y829309D01*
X234948D01*
X236218Y828039D01*
Y822961D01*
X234948Y821691D01*
X232409D01*
X231140Y822961D01*
X228600Y829309D02*
X223522D01*
Y828039D01*
X228600Y822961D01*
Y821691D01*
X955033Y355597D02*
Y340363D01*
X947416D01*
X944877Y342902D01*
Y345441D01*
X947416Y347980D01*
X955033D01*
X947416D01*
X944877Y350519D01*
Y353058D01*
X947416Y355597D01*
X955033D01*
X929642Y340363D02*
X939798D01*
X929642Y350519D01*
Y353058D01*
X932181Y355597D01*
X937259D01*
X939798Y353058D01*
X924563D02*
X922024Y355597D01*
X916946D01*
X914407Y353058D01*
Y342902D01*
X916946Y340363D01*
X922024D01*
X924563Y342902D01*
Y353058D01*
X1703702Y411479D02*
Y403861D01*
X1699893D01*
X1698624Y405131D01*
Y406400D01*
X1699893Y407670D01*
X1703702D01*
X1699893D01*
X1698624Y408940D01*
Y410209D01*
X1699893Y411479D01*
X1703702D01*
X1696084Y403861D02*
X1693545D01*
X1694815D01*
Y411479D01*
X1696084Y410209D01*
X1689736Y405131D02*
X1688467Y403861D01*
X1685928D01*
X1684658Y405131D01*
Y410209D01*
X1685928Y411479D01*
X1688467D01*
X1689736Y410209D01*
Y408940D01*
X1688467Y407670D01*
X1684658D01*
X1386834Y513078D02*
Y497842D01*
X1379216D01*
X1376677Y500382D01*
Y502921D01*
X1379216Y505460D01*
X1386834D01*
X1379216D01*
X1376677Y507999D01*
Y510538D01*
X1379216Y513078D01*
X1386834D01*
X1371599Y497842D02*
X1366520D01*
X1369060D01*
Y513078D01*
X1371599Y510538D01*
X1348746Y513078D02*
X1353824Y510538D01*
X1358903Y505460D01*
Y500382D01*
X1356364Y497842D01*
X1351285D01*
X1348746Y500382D01*
Y502921D01*
X1351285Y505460D01*
X1358903D01*
X620392Y412749D02*
Y405131D01*
X616583D01*
X615314Y406401D01*
Y407670D01*
X616583Y408940D01*
X620392D01*
X616583D01*
X615314Y410210D01*
Y411479D01*
X616583Y412749D01*
X620392D01*
X612774Y405131D02*
X610235D01*
X611505D01*
Y412749D01*
X612774Y411479D01*
X601348Y412749D02*
X606426D01*
Y408940D01*
X603887Y410210D01*
X602618D01*
X601348Y408940D01*
Y406401D01*
X602618Y405131D01*
X605157D01*
X606426Y406401D01*
X195574Y454658D02*
Y439422D01*
X187956D01*
X185417Y441962D01*
Y444501D01*
X187956Y447040D01*
X195574D01*
X187956D01*
X185417Y449579D01*
Y452118D01*
X187956Y454658D01*
X195574D01*
X180339Y439422D02*
X175260D01*
X177800D01*
Y454658D01*
X180339Y452118D01*
X157486Y439422D02*
X167643D01*
X157486Y449579D01*
Y452118D01*
X160025Y454658D01*
X165104D01*
X167643Y452118D01*
X1698622Y756919D02*
Y749301D01*
X1694813D01*
X1693544Y750571D01*
Y751840D01*
X1694813Y753110D01*
X1698622D01*
X1694813D01*
X1693544Y754380D01*
Y755649D01*
X1694813Y756919D01*
X1698622D01*
X1691004Y749301D02*
X1688465D01*
X1689735D01*
Y756919D01*
X1691004Y755649D01*
X1684656D02*
X1683387Y756919D01*
X1680848D01*
X1679578Y755649D01*
Y750571D01*
X1680848Y749301D01*
X1683387D01*
X1684656Y750571D01*
Y755649D01*
X1369058Y753109D02*
Y745491D01*
X1365249D01*
X1363980Y746761D01*
Y748030D01*
X1365249Y749300D01*
X1369058D01*
X1365249D01*
X1363980Y750570D01*
Y751839D01*
X1365249Y753109D01*
X1369058D01*
X1361440Y751839D02*
X1360171Y753109D01*
X1357632D01*
X1356362Y751839D01*
Y750570D01*
X1357632Y749300D01*
X1356362Y748030D01*
Y746761D01*
X1357632Y745491D01*
X1360171D01*
X1361440Y746761D01*
Y748030D01*
X1360171Y749300D01*
X1361440Y750570D01*
Y751839D01*
X1360171Y749300D02*
X1357632D01*
X989326Y838197D02*
Y822962D01*
X981708D01*
X979169Y825502D01*
Y828041D01*
X981708Y830580D01*
X989326D01*
X981708D01*
X979169Y833119D01*
Y835658D01*
X981708Y838197D01*
X989326D01*
X963934D02*
X969013Y835658D01*
X974091Y830580D01*
Y825502D01*
X971552Y822962D01*
X966473D01*
X963934Y825502D01*
Y828041D01*
X966473Y830580D01*
X974091D01*
X626108Y748029D02*
Y740411D01*
X622299D01*
X621030Y741681D01*
Y742950D01*
X622299Y744220D01*
X626108D01*
X622299D01*
X621030Y745490D01*
Y746759D01*
X622299Y748029D01*
X626108D01*
X614682Y740411D02*
Y748029D01*
X618490Y744220D01*
X613412D01*
X238758Y734059D02*
Y726441D01*
X234949D01*
X233680Y727711D01*
Y728980D01*
X234949Y730250D01*
X238758D01*
X234949D01*
X233680Y731520D01*
Y732789D01*
X234949Y734059D01*
X238758D01*
X226062Y726441D02*
X231140D01*
X226062Y731520D01*
Y732789D01*
X227332Y734059D01*
X229871D01*
X231140Y732789D01*
D14*
X1741167Y836931D02*
Y844549D01*
X1737358D01*
X1736088Y843279D01*
Y840740D01*
X1737358Y839470D01*
X1741167D01*
X1738627D02*
X1736088Y836931D01*
X1728471Y844549D02*
X1731010Y843279D01*
X1733549Y840740D01*
Y838201D01*
X1732280Y836931D01*
X1729740D01*
X1728471Y838201D01*
Y839470D01*
X1729740Y840740D01*
X1733549D01*
X1720853Y836931D02*
X1725932D01*
X1720853Y842010D01*
Y843279D01*
X1722123Y844549D01*
X1724662D01*
X1725932Y843279D01*
M02*
