G04*
G04 #@! TF.GenerationSoftware,Altium Limited,Altium Designer,23.1.1 (15)*
G04*
G04 Layer_Color=32768*
%FSLAX44Y44*%
%MOMM*%
G71*
G04*
G04 #@! TF.SameCoordinates,60A71E54-626A-4CE2-9AF2-43E53A1097E0*
G04*
G04*
G04 #@! TF.FilePolarity,Positive*
G04*
G01*
G75*
%ADD11C,0.2000*%
%ADD12C,0.1000*%
%ADD14C,0.1524*%
%ADD77C,0.0500*%
G36*
X349250Y1150620D02*
X608330D01*
Y1244600D01*
X349250D01*
Y1150620D01*
D02*
G37*
D11*
X1043230Y766520D02*
X1113230D01*
Y696520D02*
Y766520D01*
X1043230Y696520D02*
X1113230D01*
X1043230D02*
Y766520D01*
X660960Y696520D02*
Y766520D01*
Y696520D02*
X730960D01*
Y766520D01*
X660960D02*
X730960D01*
X1845870Y1114350D02*
Y1184350D01*
Y1114350D02*
X1915870D01*
Y1184350D01*
X1845870D02*
X1915870D01*
X879654Y434870D02*
X949654D01*
Y364870D02*
Y434870D01*
X879654Y364870D02*
X949654D01*
X879654D02*
Y434870D01*
X1576884Y366140D02*
Y436140D01*
Y366140D02*
X1646884D01*
Y436140D01*
X1576884D02*
X1646884D01*
X1576884Y696520D02*
X1646884D01*
X1576884D02*
Y766520D01*
X1646884D01*
Y696520D02*
Y766520D01*
X1726744Y696520D02*
Y766520D01*
X1796744D01*
Y696520D02*
Y766520D01*
X1726744Y696520D02*
X1796744D01*
X1087680Y134000D02*
X1157680D01*
Y64000D02*
Y134000D01*
X1087680Y64000D02*
X1157680D01*
X1087680D02*
Y134000D01*
X859080Y64000D02*
Y134000D01*
Y64000D02*
X929080D01*
Y134000D01*
X859080D02*
X929080D01*
X643180D02*
X713180D01*
Y64000D02*
Y134000D01*
X643180Y64000D02*
X713180D01*
X643180D02*
Y134000D01*
X1490270Y64000D02*
Y134000D01*
Y64000D02*
X1560270D01*
Y134000D01*
X1490270D02*
X1560270D01*
X1039674Y364870D02*
Y434870D01*
Y364870D02*
X1109674D01*
Y434870D01*
X1039674D02*
X1109674D01*
X1397560Y367590D02*
Y437590D01*
Y367590D02*
X1467560D01*
Y437590D01*
X1397560D02*
X1467560D01*
X1257860Y64000D02*
Y134000D01*
Y64000D02*
X1327860D01*
Y134000D01*
X1257860D02*
X1327860D01*
X1963980Y892100D02*
Y962100D01*
Y892100D02*
X2033980D01*
Y962100D01*
X1963980D02*
X2033980D01*
X1963980Y428550D02*
Y498550D01*
Y428550D02*
X2033980D01*
Y498550D01*
X1963980D02*
X2033980D01*
X292660Y359970D02*
Y429970D01*
Y359970D02*
X362660D01*
Y429970D01*
X292660D02*
X362660D01*
X1399084Y766520D02*
X1469084D01*
Y696520D02*
Y766520D01*
X1399084Y696520D02*
X1469084D01*
X1399084D02*
Y766520D01*
X1237794D02*
X1307794D01*
Y696520D02*
Y766520D01*
X1237794Y696520D02*
X1307794D01*
X1237794D02*
Y766520D01*
X502210Y699060D02*
Y769060D01*
Y699060D02*
X572210D01*
Y769060D01*
X502210D02*
X572210D01*
X879654Y766520D02*
X949654D01*
Y696520D02*
Y766520D01*
X879654Y696520D02*
X949654D01*
X879654D02*
Y766520D01*
X1963980Y1114350D02*
Y1184350D01*
Y1114350D02*
X2033980D01*
Y1184350D01*
X1963980D02*
X2033980D01*
X1839520Y428550D02*
Y498550D01*
Y428550D02*
X1909520D01*
Y498550D01*
X1839520D02*
X1909520D01*
X1963980Y730960D02*
X2033980D01*
Y660960D02*
Y730960D01*
X1963980Y660960D02*
X2033980D01*
X1963980D02*
Y730960D01*
X1839520D02*
X1909520D01*
Y660960D02*
Y730960D01*
X1839520Y660960D02*
X1909520D01*
X1839520D02*
Y730960D01*
X1840790Y962100D02*
X1910790D01*
Y892100D02*
Y962100D01*
X1840790Y892100D02*
X1910790D01*
X1840790D02*
Y962100D01*
X113590Y766520D02*
X183590D01*
Y696520D02*
Y766520D01*
X113590Y696520D02*
X183590D01*
X113590D02*
Y766520D01*
X283770D02*
X353770D01*
Y696520D02*
Y766520D01*
X283770Y696520D02*
X353770D01*
X283770D02*
Y766520D01*
X506020Y364870D02*
Y434870D01*
Y364870D02*
X576020D01*
Y434870D01*
X506020D02*
X576020D01*
X659690Y366320D02*
Y436320D01*
Y366320D02*
X729690D01*
Y436320D01*
X659690D02*
X729690D01*
X1740460Y367590D02*
Y437590D01*
Y367590D02*
X1810460D01*
Y437590D01*
X1740460D02*
X1810460D01*
X118924Y433600D02*
X188924D01*
Y363600D02*
Y433600D01*
X118924Y363600D02*
X188924D01*
X118924D02*
Y433600D01*
X1233730Y438860D02*
X1303730D01*
Y368860D02*
Y438860D01*
X1233730Y368860D02*
X1303730D01*
X1233730D02*
Y438860D01*
D12*
X489570Y184150D02*
X509670D01*
Y171450D02*
Y184150D01*
X489570Y171450D02*
X509670D01*
X489570D02*
Y184150D01*
X874580Y472540D02*
Y485040D01*
X894580D01*
Y472540D02*
Y485040D01*
X874580Y472540D02*
X894580D01*
X1385940Y729800D02*
Y768800D01*
X1336940D02*
X1385940D01*
X1336940Y729800D02*
Y768800D01*
Y729800D02*
X1385940D01*
X1373240D02*
X1385940Y742500D01*
X224890Y449080D02*
X237390D01*
X224890D02*
Y469080D01*
X237390D01*
Y449080D02*
Y469080D01*
X268070Y470350D02*
X280570D01*
Y450350D02*
Y470350D01*
X268070Y450350D02*
X280570D01*
X268070D02*
Y470350D01*
X1785990Y482970D02*
X1798690Y495670D01*
X1749690Y482970D02*
X1798690D01*
X1749690Y521970D02*
X1749690Y482970D01*
X1749690Y521970D02*
X1798690D01*
Y482970D02*
Y521970D01*
X1717040Y459340D02*
Y479440D01*
X1704340D02*
X1717040D01*
X1704340Y459340D02*
Y479440D01*
Y459340D02*
X1717040D01*
X499930Y806550D02*
Y819050D01*
X519930D01*
Y806550D02*
Y819050D01*
X499930Y806550D02*
X519930D01*
X226160Y336100D02*
X238660D01*
X226160D02*
Y356100D01*
X238660D01*
Y336100D02*
Y356100D01*
X1374510Y398330D02*
Y437330D01*
X1325510D02*
X1374510D01*
X1325510Y398330D02*
Y437330D01*
Y398330D02*
X1374510D01*
X1361810D02*
X1374510Y411030D01*
X762860Y232960D02*
X769360Y226460D01*
X762860D02*
X762860Y276460D01*
X806860D01*
X806860Y226460D01*
X762860D02*
X806860D01*
X330570Y797560D02*
X343270Y810260D01*
X294270Y797560D02*
X343270D01*
X294270D02*
Y836560D01*
X343270D01*
X343270Y797560D02*
X343270Y836560D01*
X706490Y817430D02*
X719190Y830130D01*
X670190Y817430D02*
X719190D01*
X670190D02*
Y856430D01*
X719190D01*
X719190Y817430D02*
X719190Y856430D01*
X579120Y797160D02*
X591820D01*
X579120D02*
Y817260D01*
X591820D01*
Y797160D02*
Y817260D01*
X1150210Y232650D02*
X1156710Y226150D01*
X1150210D02*
Y276150D01*
X1194210D01*
Y226150D02*
Y276150D01*
X1150210Y226150D02*
X1194210D01*
X1502000Y272650D02*
X1546000D01*
X1502000Y222650D02*
Y272650D01*
Y222650D02*
X1546000D01*
Y272650D01*
X1539500D02*
X1546000Y266150D01*
X993040Y666300D02*
Y686300D01*
X980540D02*
X993040D01*
X980540Y666300D02*
Y686300D01*
Y666300D02*
X993040D01*
X980440Y789540D02*
Y809640D01*
X967740D02*
X980440D01*
X967740Y789540D02*
Y809640D01*
Y789540D02*
X980440D01*
X1025340Y663040D02*
Y675540D01*
X1005340Y663040D02*
X1025340D01*
X1005340D02*
Y675540D01*
X1025340D01*
X1016770Y344070D02*
X1036770D01*
X1016770Y331570D02*
Y344070D01*
Y331570D02*
X1036770D01*
Y344070D01*
X999390Y334780D02*
Y354780D01*
X986890D02*
X999390D01*
X986890Y334780D02*
Y354780D01*
Y334780D02*
X999390D01*
X1713730Y329030D02*
Y341530D01*
X1693730Y329030D02*
X1713730D01*
X1693730D02*
Y341530D01*
X1713730D01*
X1352450Y342450D02*
Y362450D01*
X1339950D02*
X1352450D01*
X1339950Y342450D02*
Y362450D01*
Y342450D02*
X1352450D01*
X1565460Y809090D02*
X1585460D01*
Y821590D01*
X1565460D02*
X1585460D01*
X1565460Y809090D02*
Y821590D01*
X348350Y466460D02*
X361050Y479160D01*
X312050Y466460D02*
X361050D01*
X312050Y505460D02*
X312050Y466460D01*
X312050Y505460D02*
X361050D01*
Y466460D02*
Y505460D01*
X652010Y677010D02*
Y689510D01*
X632010Y677010D02*
X652010D01*
X632010D02*
Y689510D01*
X652010D01*
X970540Y1084180D02*
X977040Y1077680D01*
Y1034180D02*
Y1084180D01*
X933040Y1034180D02*
X977040Y1034180D01*
X933040Y1084180D02*
X933040Y1034180D01*
X933040Y1084180D02*
X977040D01*
X1516640Y1086720D02*
X1523140Y1080220D01*
Y1036720D02*
Y1086720D01*
X1479140Y1036720D02*
X1523140D01*
X1479140D02*
Y1086720D01*
X1523140D01*
X1411230Y1085450D02*
X1417730Y1078950D01*
X1417730Y1035450D02*
X1417730Y1085450D01*
X1373730Y1035450D02*
X1417730D01*
X1373730Y1085450D02*
X1373730Y1035450D01*
X1373730Y1085450D02*
X1417730D01*
X1307090Y1085450D02*
X1313590Y1078950D01*
Y1035450D02*
Y1085450D01*
X1269590Y1035450D02*
X1313590D01*
X1269590D02*
Y1085450D01*
X1313590D01*
X1454520Y809360D02*
X1467220Y822060D01*
X1418220Y809360D02*
X1467220D01*
X1418220D02*
Y848360D01*
X1467220D01*
X1467220Y809360D02*
X1467220Y848360D01*
X1874890Y1069340D02*
X1887590Y1056640D01*
X1838590Y1069340D02*
X1887590D01*
X1838590Y1030340D02*
Y1069340D01*
Y1030340D02*
X1887590D01*
X1887590Y1069340D01*
X1877430Y849630D02*
X1890130Y836930D01*
X1841130Y849630D02*
X1890130D01*
X1841130Y810630D02*
Y849630D01*
Y810630D02*
X1890130D01*
X1890130Y849630D01*
X1874890Y367030D02*
X1887590Y354330D01*
X1838590Y367030D02*
X1887590Y367030D01*
X1838590Y328030D02*
Y367030D01*
Y328030D02*
X1887590D01*
X1887590Y367030D01*
X1876160Y620660D02*
X1888860Y607960D01*
X1839860Y620660D02*
X1888860D01*
X1839860Y581660D02*
Y620660D01*
Y581660D02*
X1888860D01*
Y620660D01*
X1856240Y1210410D02*
X1876240D01*
X1856240D02*
Y1222910D01*
X1876240D01*
Y1210410D02*
Y1222910D01*
X731553Y1159510D02*
X781050Y1110013D01*
X731553Y1159510D02*
X781050Y1209007D01*
X830547Y1159510D01*
X781050Y1110013D02*
X830547Y1159510D01*
X777514Y1113548D02*
X784586D01*
X724270Y466460D02*
Y505460D01*
X675270D02*
X724270D01*
X675270Y466460D02*
Y505460D01*
Y466460D02*
X724270Y466460D01*
X711570D02*
X724270Y479160D01*
X1105270Y469900D02*
Y508900D01*
X1056270D02*
X1105270D01*
X1056270D02*
X1056270Y469900D01*
X1105270D01*
X1092570D02*
X1105270Y482600D01*
X1463410Y515250D02*
X1463410Y476250D01*
X1414410Y515250D02*
X1463410D01*
X1414410Y476250D02*
Y515250D01*
Y476250D02*
X1463410Y476250D01*
X1450710D02*
X1463410Y488950D01*
X1798690Y816980D02*
X1798690Y855980D01*
X1749690D02*
X1798690D01*
X1749690Y816980D02*
Y855980D01*
Y816980D02*
X1798690D01*
X1785990D02*
X1798690Y829680D01*
X1114160Y805180D02*
Y844180D01*
X1065160D02*
X1114160D01*
X1065160Y805180D02*
Y844180D01*
Y805180D02*
X1114160Y805180D01*
X1101460D02*
X1114160Y817880D01*
X630290Y727710D02*
X642990Y740410D01*
X593990Y727710D02*
X642990D01*
X593990D02*
Y766710D01*
X642990D01*
Y727710D02*
Y766710D01*
X1334770Y460610D02*
Y480710D01*
X1322070D02*
X1334770D01*
X1322070D02*
X1322070Y460610D01*
X1334770Y460610D01*
Y793350D02*
Y813450D01*
X1322070D02*
X1334770D01*
X1322070Y793350D02*
Y813450D01*
Y793350D02*
X1334770D01*
X1026160Y791830D02*
Y811930D01*
X1013460D02*
X1026160D01*
X1013460D02*
X1013460Y791830D01*
X1026160Y791830D01*
X1006210Y721730D02*
X1018910Y734430D01*
X969910Y721730D02*
X1018910D01*
X969910D02*
Y760730D01*
X1018910D01*
Y721730D02*
Y760730D01*
X1033370Y1044180D02*
X1039870Y1037680D01*
X1033370D02*
Y1087680D01*
X1077370D01*
Y1037680D02*
Y1087680D01*
X1033370Y1037680D02*
X1077370D01*
X1718680Y388990D02*
Y427990D01*
X1669680D02*
X1718680D01*
X1669680Y388990D02*
Y427990D01*
Y388990D02*
X1718680D01*
X1705980D02*
X1718680Y401690D01*
X1347570Y672650D02*
X1360070D01*
X1347570D02*
Y692650D01*
X1360070D01*
Y672650D02*
Y692650D01*
X477620Y136390D02*
X490120D01*
X477620Y116390D02*
Y136390D01*
Y116390D02*
X490120D01*
Y136390D01*
X506730Y136760D02*
Y156860D01*
X519430D01*
Y136760D02*
Y156860D01*
X506730Y136760D02*
X519430D01*
X282321Y88500D02*
Y108600D01*
X295021D01*
X295021Y88500D02*
X295021Y108600D01*
X282321Y88500D02*
X295021Y88500D01*
X519430Y107550D02*
Y127650D01*
X506730Y107550D02*
X519430D01*
X506730D02*
X506730Y127650D01*
X519430Y127650D01*
X419014Y130526D02*
Y150626D01*
X406314Y130526D02*
X419014D01*
X406314D02*
Y150626D01*
X419014D01*
X416560Y103490D02*
X429260D01*
Y123590D01*
X416560D02*
X429260D01*
X416560Y103490D02*
Y123590D01*
X265430Y88500D02*
Y108600D01*
X278130D01*
X278130Y88500D02*
X278130Y108600D01*
X265430Y88500D02*
X278130Y88500D01*
X349490Y85300D02*
Y105400D01*
X362190D01*
Y85300D02*
Y105400D01*
X349490Y85300D02*
X362190D01*
X601790Y798213D02*
X614290D01*
X601790D02*
Y818213D01*
X614290D01*
Y798213D02*
Y818213D01*
X1854650Y748130D02*
Y760630D01*
X1834650D02*
X1854650D01*
X1834650Y748130D02*
Y760630D01*
Y748130D02*
X1854650D01*
X1872480Y516990D02*
Y529490D01*
X1852480D02*
X1872480D01*
X1852480Y516990D02*
Y529490D01*
Y516990D02*
X1872480D01*
X1863590Y974190D02*
Y986690D01*
X1843590D02*
X1863590D01*
X1843590Y974190D02*
Y986690D01*
Y974190D02*
X1863590D01*
X464706Y1076004D02*
X477406D01*
Y1096104D01*
X464706D02*
X477406D01*
X464706Y1076004D02*
Y1096104D01*
X443494Y1076004D02*
X456194D01*
Y1096104D01*
X443494D02*
X456194D01*
X443494Y1076004D02*
Y1096104D01*
X422282Y1076004D02*
X434982D01*
Y1096104D01*
X422282D02*
X434982D01*
X422282Y1076004D02*
Y1096104D01*
X1003950Y458175D02*
X1016650D01*
X1003950D02*
Y478275D01*
X1016650D01*
Y458175D02*
Y478275D01*
X957010Y458175D02*
X969710D01*
X957010D02*
Y478275D01*
X969710D01*
Y458175D02*
Y478275D01*
X1657073Y460030D02*
X1669773D01*
X1657073D02*
Y480130D01*
X1669773D01*
Y460030D02*
Y480130D01*
X1361440Y463150D02*
X1374140D01*
X1361440D02*
Y483250D01*
X1374140D01*
Y463150D02*
Y483250D01*
X635000Y455530D02*
X647700D01*
X635000D02*
Y475630D01*
X647700D01*
Y455530D02*
Y475630D01*
X586740Y455530D02*
X599440D01*
X586740D02*
Y475630D01*
X599440D01*
Y455530D02*
Y475630D01*
X247650Y448930D02*
X260350D01*
X247650D02*
Y469030D01*
X260350D01*
Y448930D02*
Y469030D01*
X203200Y454260D02*
X215900D01*
X203200D02*
Y474360D01*
X215900D01*
Y454260D02*
Y474360D01*
X1701800Y800970D02*
X1714500D01*
X1701800D02*
Y821070D01*
X1714500D01*
Y800970D02*
Y821070D01*
X1653794Y801075D02*
X1666494D01*
X1653794D02*
Y821175D01*
X1666494D01*
Y801075D02*
Y821175D01*
X1363980Y794620D02*
X1376680D01*
X1363980D02*
Y814720D01*
X1376680D01*
Y794620D02*
Y814720D01*
X629920Y796910D02*
X642620D01*
X629920D02*
Y817010D01*
X642620D01*
Y796910D02*
Y817010D01*
X250190Y775570D02*
X262890D01*
X250190D02*
Y795670D01*
X262890D01*
Y775570D02*
Y795670D01*
X223520Y775320D02*
X236220Y775320D01*
X223520Y795420D02*
X223520Y775320D01*
X223520Y795420D02*
X236220D01*
Y775320D02*
Y795420D01*
X337420Y191770D02*
Y204470D01*
Y191770D02*
X357520D01*
Y204470D01*
X337420D02*
X357520D01*
X369570Y85960D02*
X382270D01*
Y106060D01*
X369570D02*
X382270D01*
X369570Y85960D02*
Y106060D01*
X1027720Y459975D02*
Y479975D01*
Y459975D02*
X1040220D01*
Y479975D01*
X1027720D02*
X1040220D01*
X1726030Y461830D02*
Y481830D01*
Y461830D02*
X1738530D01*
Y481830D01*
X1726030D02*
X1738530D01*
X1682650Y332240D02*
Y352240D01*
X1670150D02*
X1682650D01*
X1670150Y332240D02*
Y352240D01*
Y332240D02*
X1682650D01*
X993280Y459975D02*
Y479975D01*
X980780D02*
X993280D01*
X980780Y459975D02*
Y479975D01*
Y459975D02*
X993280D01*
X1691365Y461830D02*
Y481830D01*
X1678865D02*
X1691365D01*
X1678865Y461830D02*
Y481830D01*
Y461830D02*
X1691365D01*
X1567950Y468730D02*
X1587950D01*
Y481230D01*
X1567950D02*
X1587950D01*
X1567950Y468730D02*
Y481230D01*
X1362260Y352960D02*
X1382260D01*
X1362260Y340460D02*
Y352960D01*
Y340460D02*
X1382260D01*
Y352960D01*
X1380590Y470720D02*
Y490720D01*
Y470720D02*
X1393090D01*
Y490720D01*
X1380590D02*
X1393090D01*
X634500Y338990D02*
X654500D01*
X634500Y326490D02*
Y338990D01*
Y326490D02*
X654500D01*
Y338990D01*
X655420Y455480D02*
Y475480D01*
Y455480D02*
X667920D01*
Y475480D01*
X655420D02*
X667920D01*
X618390Y331020D02*
Y351020D01*
X605890D02*
X618390D01*
X605890Y331020D02*
Y351020D01*
Y331020D02*
X618390D01*
X1353720Y463100D02*
Y483100D01*
X1341220D02*
X1353720D01*
X1341220Y463100D02*
Y483100D01*
Y463100D02*
X1353720D01*
X1227640Y470000D02*
X1247640D01*
Y482500D01*
X1227640D02*
X1247640D01*
X1227640Y470000D02*
Y482500D01*
X617120Y455430D02*
Y475430D01*
X604620D02*
X617120D01*
X604620Y455430D02*
Y475430D01*
Y455430D02*
X617120D01*
X506280Y463650D02*
X526280D01*
Y476150D01*
X506280D02*
X526280D01*
X506280Y463650D02*
Y476150D01*
X252280Y345340D02*
X272280D01*
X252280Y332840D02*
Y345340D01*
Y332840D02*
X272280D01*
Y345340D01*
X126500Y462380D02*
X146500D01*
Y474880D01*
X126500D02*
X146500D01*
X126500Y462380D02*
Y474880D01*
X1697540Y694590D02*
X1717540D01*
X1697540Y682090D02*
Y694590D01*
Y682090D02*
X1717540D01*
Y694590D01*
X1719934Y802875D02*
Y822875D01*
Y802875D02*
X1732434D01*
Y822875D01*
X1719934D02*
X1732434D01*
X1687730Y680270D02*
Y700270D01*
X1675230D02*
X1687730D01*
X1675230Y680270D02*
Y700270D01*
Y680270D02*
X1687730D01*
X1688541Y802875D02*
Y822875D01*
X1676041D02*
X1688541D01*
X1676041Y802875D02*
Y822875D01*
Y802875D02*
X1688541D01*
X1371100Y686970D02*
X1391100D01*
X1371100Y674470D02*
Y686970D01*
Y674470D02*
X1391100D01*
Y686970D01*
X1384400Y798330D02*
Y818330D01*
Y798330D02*
X1396900D01*
Y818330D01*
X1384400D02*
X1396900D01*
X1353720Y795840D02*
Y815840D01*
X1341220D02*
X1353720D01*
X1341220Y795840D02*
Y815840D01*
Y795840D02*
X1353720D01*
X1228860Y809090D02*
X1248860D01*
Y821590D01*
X1228860D02*
X1248860D01*
X1228860Y809090D02*
Y821590D01*
X1032610Y793250D02*
Y813250D01*
Y793250D02*
X1045110D01*
Y813250D01*
X1032610D02*
X1045110D01*
X1001930Y793250D02*
Y813250D01*
X989430D02*
X1001930D01*
X989430Y793250D02*
Y813250D01*
Y793250D02*
X1001930D01*
X877070Y809090D02*
X897070D01*
Y821590D01*
X877070D02*
X897070D01*
X877070Y809090D02*
Y821590D01*
X650573Y800827D02*
Y820827D01*
Y800827D02*
X663073D01*
Y820827D01*
X650573D02*
X663073D01*
X618390Y680270D02*
Y700270D01*
X605890D02*
X618390D01*
X605890Y680270D02*
Y700270D01*
Y680270D02*
X618390D01*
X242070Y666650D02*
X262070D01*
X242070Y654150D02*
Y666650D01*
Y654150D02*
X262070D01*
Y666650D01*
X269340Y778060D02*
Y798060D01*
Y778060D02*
X281840D01*
Y798060D01*
X269340D02*
X281840D01*
X228500Y657410D02*
Y677410D01*
X216000D02*
X228500D01*
X216000Y657410D02*
Y677410D01*
Y657410D02*
X228500D01*
X217070Y784410D02*
Y804410D01*
X204570D02*
X217070D01*
X204570Y784410D02*
Y804410D01*
Y784410D02*
X217070D01*
X116340Y809090D02*
X136340D01*
Y821590D01*
X116340D02*
X136340D01*
X116340Y809090D02*
Y821590D01*
X499210Y1076510D02*
Y1096510D01*
X511710D01*
Y1076510D02*
Y1096510D01*
X499210Y1076510D02*
X511710D01*
X440190Y173890D02*
X460190D01*
Y161390D02*
Y173890D01*
X440190Y161390D02*
X460190D01*
X440190D02*
Y173890D01*
X424280Y184970D02*
Y204970D01*
X436780D01*
Y184970D02*
Y204970D01*
X424280Y184970D02*
X436780D01*
X454580Y124065D02*
X459580Y129065D01*
Y124065D02*
Y154065D01*
X439580D02*
X459580D01*
X439580Y124065D02*
Y154065D01*
Y124065D02*
X459580D01*
X373750Y166370D02*
X386450Y153670D01*
X337450Y166370D02*
X386450D01*
X337450Y127370D02*
Y166370D01*
Y127370D02*
X386450D01*
Y166370D01*
X292470Y169360D02*
X305170Y156660D01*
X256170Y169360D02*
X305170D01*
X256170Y130360D02*
Y169360D01*
Y130360D02*
X305170D01*
Y169360D01*
X259945Y709030D02*
Y748030D01*
X210945D02*
X259945D01*
X210945Y709030D02*
Y748030D01*
Y709030D02*
X259945D01*
X247245D02*
X259945Y721730D01*
X1018910Y381820D02*
Y420820D01*
X969910D02*
X1018910D01*
X969910Y381820D02*
Y420820D01*
Y381820D02*
X1018910D01*
X1006210D02*
X1018910Y394520D01*
X639434Y383089D02*
Y422089D01*
X590434D02*
X639434D01*
X590434Y383089D02*
Y422089D01*
Y383089D02*
X639434D01*
X626734D02*
X639434Y395789D01*
X260974Y381819D02*
Y420819D01*
X211974D02*
X260974D01*
X211974Y381819D02*
Y420819D01*
Y381819D02*
X260974D01*
X248274D02*
X260974Y394519D01*
X1697980Y734197D02*
X1710680Y746897D01*
X1661680Y734197D02*
X1710680D01*
X1661680D02*
Y773197D01*
X1710680D01*
Y734197D02*
Y773197D01*
X212750Y98510D02*
Y188510D01*
X63750Y98510D02*
X212750D01*
X63750D02*
Y188510D01*
X212750D01*
D14*
X608330Y1150620D02*
Y1244600D01*
X349250D02*
X608330D01*
X349250Y1150620D02*
Y1244600D01*
Y1150620D02*
X608330D01*
D77*
X1258630Y1128840D02*
X1258630Y1254340D01*
X1007630D02*
X1258630D01*
X1007630Y1128840D02*
Y1254340D01*
Y1128840D02*
X1258630Y1128840D01*
M02*
